<?xml version="1.0" encoding="utf-8" standalone="no"?>
<!DOCTYPE svg PUBLIC "-//W3C//DTD SVG 1.1//EN"
  "http://www.w3.org/Graphics/SVG/1.1/DTD/svg11.dtd">
<svg xmlns:xlink="http://www.w3.org/1999/xlink" width="432pt" height="432pt" viewBox="0 0 432 432" xmlns="http://www.w3.org/2000/svg" version="1.1">
 <metadata>
  <rdf:RDF xmlns:dc="http://purl.org/dc/elements/1.1/" xmlns:cc="http://creativecommons.org/ns#" xmlns:rdf="http://www.w3.org/1999/02/22-rdf-syntax-ns#">
   <cc:Work>
    <dc:type rdf:resource="http://purl.org/dc/dcmitype/StillImage"/>
    <dc:date>2024-09-25T12:39:16.435667</dc:date>
    <dc:format>image/svg+xml</dc:format>
    <dc:creator>
     <cc:Agent>
      <dc:title>Matplotlib v3.8.0, https://matplotlib.org/</dc:title>
     </cc:Agent>
    </dc:creator>
   </cc:Work>
  </rdf:RDF>
 </metadata>
 <defs>
  <style type="text/css">*{stroke-linejoin: round; stroke-linecap: butt}</style>
 </defs>
 <g id="figure_1">
  <g id="patch_1">
   <path d="M 0 432 
L 432 432 
L 432 0 
L 0 0 
z
" style="fill: #ffffff"/>
  </g>
  <g id="axes_1">
   <g id="patch_2">
    <path d="M 54 384.48 
L 388.8 384.48 
L 388.8 51.84 
L 54 51.84 
z
" style="fill: #ffffff"/>
   </g>
   <g id="matplotlib.axis_1">
    <g id="xtick_1">
     <g id="line2d_1">
      <defs>
       <path id="m22ffc446e6" d="M 0 0 
L 0 3.5 
" style="stroke: #000000; stroke-width: 0.8"/>
      </defs>
      <g>
       <use xlink:href="#m22ffc446e6" x="72.202139" y="384.48" style="stroke: #000000; stroke-width: 0.8"/>
      </g>
     </g>
     <g id="text_1">
      <!-- 0 -->
      <g transform="translate(69.020889 399.078438) scale(0.1 -0.1)">
       <defs>
        <path id="DejaVuSans-30" d="M 2034 4250 
Q 1547 4250 1301 3770 
Q 1056 3291 1056 2328 
Q 1056 1369 1301 889 
Q 1547 409 2034 409 
Q 2525 409 2770 889 
Q 3016 1369 3016 2328 
Q 3016 3291 2770 3770 
Q 2525 4250 2034 4250 
z
M 2034 4750 
Q 2819 4750 3233 4129 
Q 3647 3509 3647 2328 
Q 3647 1150 3233 529 
Q 2819 -91 2034 -91 
Q 1250 -91 836 529 
Q 422 1150 422 2328 
Q 422 3509 836 4129 
Q 1250 4750 2034 4750 
z
" transform="scale(0.015625)"/>
       </defs>
       <use xlink:href="#DejaVuSans-30"/>
      </g>
     </g>
    </g>
    <g id="xtick_2">
     <g id="line2d_2">
      <g>
       <use xlink:href="#m22ffc446e6" x="131.881283" y="384.48" style="stroke: #000000; stroke-width: 0.8"/>
      </g>
     </g>
     <g id="text_2">
      <!-- 1 -->
      <g transform="translate(128.700033 399.078438) scale(0.1 -0.1)">
       <defs>
        <path id="DejaVuSans-31" d="M 794 531 
L 1825 531 
L 1825 4091 
L 703 3866 
L 703 4441 
L 1819 4666 
L 2450 4666 
L 2450 531 
L 3481 531 
L 3481 0 
L 794 0 
L 794 531 
z
" transform="scale(0.015625)"/>
       </defs>
       <use xlink:href="#DejaVuSans-31"/>
      </g>
     </g>
    </g>
    <g id="xtick_3">
     <g id="line2d_3">
      <g>
       <use xlink:href="#m22ffc446e6" x="191.560428" y="384.48" style="stroke: #000000; stroke-width: 0.8"/>
      </g>
     </g>
     <g id="text_3">
      <!-- 2 -->
      <g transform="translate(188.379178 399.078438) scale(0.1 -0.1)">
       <defs>
        <path id="DejaVuSans-32" d="M 1228 531 
L 3431 531 
L 3431 0 
L 469 0 
L 469 531 
Q 828 903 1448 1529 
Q 2069 2156 2228 2338 
Q 2531 2678 2651 2914 
Q 2772 3150 2772 3378 
Q 2772 3750 2511 3984 
Q 2250 4219 1831 4219 
Q 1534 4219 1204 4116 
Q 875 4013 500 3803 
L 500 4441 
Q 881 4594 1212 4672 
Q 1544 4750 1819 4750 
Q 2544 4750 2975 4387 
Q 3406 4025 3406 3419 
Q 3406 3131 3298 2873 
Q 3191 2616 2906 2266 
Q 2828 2175 2409 1742 
Q 1991 1309 1228 531 
z
" transform="scale(0.015625)"/>
       </defs>
       <use xlink:href="#DejaVuSans-32"/>
      </g>
     </g>
    </g>
    <g id="xtick_4">
     <g id="line2d_4">
      <g>
       <use xlink:href="#m22ffc446e6" x="251.239572" y="384.48" style="stroke: #000000; stroke-width: 0.8"/>
      </g>
     </g>
     <g id="text_4">
      <!-- 3 -->
      <g transform="translate(248.058322 399.078438) scale(0.1 -0.1)">
       <defs>
        <path id="DejaVuSans-33" d="M 2597 2516 
Q 3050 2419 3304 2112 
Q 3559 1806 3559 1356 
Q 3559 666 3084 287 
Q 2609 -91 1734 -91 
Q 1441 -91 1130 -33 
Q 819 25 488 141 
L 488 750 
Q 750 597 1062 519 
Q 1375 441 1716 441 
Q 2309 441 2620 675 
Q 2931 909 2931 1356 
Q 2931 1769 2642 2001 
Q 2353 2234 1838 2234 
L 1294 2234 
L 1294 2753 
L 1863 2753 
Q 2328 2753 2575 2939 
Q 2822 3125 2822 3475 
Q 2822 3834 2567 4026 
Q 2313 4219 1838 4219 
Q 1578 4219 1281 4162 
Q 984 4106 628 3988 
L 628 4550 
Q 988 4650 1302 4700 
Q 1616 4750 1894 4750 
Q 2613 4750 3031 4423 
Q 3450 4097 3450 3541 
Q 3450 3153 3228 2886 
Q 3006 2619 2597 2516 
z
" transform="scale(0.015625)"/>
       </defs>
       <use xlink:href="#DejaVuSans-33"/>
      </g>
     </g>
    </g>
    <g id="xtick_5">
     <g id="line2d_5">
      <g>
       <use xlink:href="#m22ffc446e6" x="310.918717" y="384.48" style="stroke: #000000; stroke-width: 0.8"/>
      </g>
     </g>
     <g id="text_5">
      <!-- 4 -->
      <g transform="translate(307.737467 399.078438) scale(0.1 -0.1)">
       <defs>
        <path id="DejaVuSans-34" d="M 2419 4116 
L 825 1625 
L 2419 1625 
L 2419 4116 
z
M 2253 4666 
L 3047 4666 
L 3047 1625 
L 3713 1625 
L 3713 1100 
L 3047 1100 
L 3047 0 
L 2419 0 
L 2419 1100 
L 313 1100 
L 313 1709 
L 2253 4666 
z
" transform="scale(0.015625)"/>
       </defs>
       <use xlink:href="#DejaVuSans-34"/>
      </g>
     </g>
    </g>
    <g id="xtick_6">
     <g id="line2d_6">
      <g>
       <use xlink:href="#m22ffc446e6" x="370.597861" y="384.48" style="stroke: #000000; stroke-width: 0.8"/>
      </g>
     </g>
     <g id="text_6">
      <!-- 5 -->
      <g transform="translate(367.416611 399.078438) scale(0.1 -0.1)">
       <defs>
        <path id="DejaVuSans-35" d="M 691 4666 
L 3169 4666 
L 3169 4134 
L 1269 4134 
L 1269 2991 
Q 1406 3038 1543 3061 
Q 1681 3084 1819 3084 
Q 2600 3084 3056 2656 
Q 3513 2228 3513 1497 
Q 3513 744 3044 326 
Q 2575 -91 1722 -91 
Q 1428 -91 1123 -41 
Q 819 9 494 109 
L 494 744 
Q 775 591 1075 516 
Q 1375 441 1709 441 
Q 2250 441 2565 725 
Q 2881 1009 2881 1497 
Q 2881 1984 2565 2268 
Q 2250 2553 1709 2553 
Q 1456 2553 1204 2497 
Q 953 2441 691 2322 
L 691 4666 
z
" transform="scale(0.015625)"/>
       </defs>
       <use xlink:href="#DejaVuSans-35"/>
      </g>
     </g>
    </g>
   </g>
   <g id="matplotlib.axis_2">
    <g id="ytick_1">
     <g id="line2d_7">
      <defs>
       <path id="m96b9ef64a6" d="M 0 0 
L -3.5 0 
" style="stroke: #000000; stroke-width: 0.8"/>
      </defs>
      <g>
       <use xlink:href="#m96b9ef64a6" x="54" y="384.48" style="stroke: #000000; stroke-width: 0.8"/>
      </g>
     </g>
     <g id="text_7">
      <!-- 0 -->
      <g transform="translate(40.6375 388.279219) scale(0.1 -0.1)">
       <use xlink:href="#DejaVuSans-30"/>
      </g>
     </g>
    </g>
    <g id="ytick_2">
     <g id="line2d_8">
      <g>
       <use xlink:href="#m96b9ef64a6" x="54" y="317.952" style="stroke: #000000; stroke-width: 0.8"/>
      </g>
     </g>
     <g id="text_8">
      <!-- 20 -->
      <g transform="translate(34.275 321.751219) scale(0.1 -0.1)">
       <use xlink:href="#DejaVuSans-32"/>
       <use xlink:href="#DejaVuSans-30" x="63.623047"/>
      </g>
     </g>
    </g>
    <g id="ytick_3">
     <g id="line2d_9">
      <g>
       <use xlink:href="#m96b9ef64a6" x="54" y="251.424" style="stroke: #000000; stroke-width: 0.8"/>
      </g>
     </g>
     <g id="text_9">
      <!-- 40 -->
      <g transform="translate(34.275 255.223219) scale(0.1 -0.1)">
       <use xlink:href="#DejaVuSans-34"/>
       <use xlink:href="#DejaVuSans-30" x="63.623047"/>
      </g>
     </g>
    </g>
    <g id="ytick_4">
     <g id="line2d_10">
      <g>
       <use xlink:href="#m96b9ef64a6" x="54" y="184.896" style="stroke: #000000; stroke-width: 0.8"/>
      </g>
     </g>
     <g id="text_10">
      <!-- 60 -->
      <g transform="translate(34.275 188.695219) scale(0.1 -0.1)">
       <defs>
        <path id="DejaVuSans-36" d="M 2113 2584 
Q 1688 2584 1439 2293 
Q 1191 2003 1191 1497 
Q 1191 994 1439 701 
Q 1688 409 2113 409 
Q 2538 409 2786 701 
Q 3034 994 3034 1497 
Q 3034 2003 2786 2293 
Q 2538 2584 2113 2584 
z
M 3366 4563 
L 3366 3988 
Q 3128 4100 2886 4159 
Q 2644 4219 2406 4219 
Q 1781 4219 1451 3797 
Q 1122 3375 1075 2522 
Q 1259 2794 1537 2939 
Q 1816 3084 2150 3084 
Q 2853 3084 3261 2657 
Q 3669 2231 3669 1497 
Q 3669 778 3244 343 
Q 2819 -91 2113 -91 
Q 1303 -91 875 529 
Q 447 1150 447 2328 
Q 447 3434 972 4092 
Q 1497 4750 2381 4750 
Q 2619 4750 2861 4703 
Q 3103 4656 3366 4563 
z
" transform="scale(0.015625)"/>
       </defs>
       <use xlink:href="#DejaVuSans-36"/>
       <use xlink:href="#DejaVuSans-30" x="63.623047"/>
      </g>
     </g>
    </g>
    <g id="ytick_5">
     <g id="line2d_11">
      <g>
       <use xlink:href="#m96b9ef64a6" x="54" y="118.368" style="stroke: #000000; stroke-width: 0.8"/>
      </g>
     </g>
     <g id="text_11">
      <!-- 80 -->
      <g transform="translate(34.275 122.167219) scale(0.1 -0.1)">
       <defs>
        <path id="DejaVuSans-38" d="M 2034 2216 
Q 1584 2216 1326 1975 
Q 1069 1734 1069 1313 
Q 1069 891 1326 650 
Q 1584 409 2034 409 
Q 2484 409 2743 651 
Q 3003 894 3003 1313 
Q 3003 1734 2745 1975 
Q 2488 2216 2034 2216 
z
M 1403 2484 
Q 997 2584 770 2862 
Q 544 3141 544 3541 
Q 544 4100 942 4425 
Q 1341 4750 2034 4750 
Q 2731 4750 3128 4425 
Q 3525 4100 3525 3541 
Q 3525 3141 3298 2862 
Q 3072 2584 2669 2484 
Q 3125 2378 3379 2068 
Q 3634 1759 3634 1313 
Q 3634 634 3220 271 
Q 2806 -91 2034 -91 
Q 1263 -91 848 271 
Q 434 634 434 1313 
Q 434 1759 690 2068 
Q 947 2378 1403 2484 
z
M 1172 3481 
Q 1172 3119 1398 2916 
Q 1625 2713 2034 2713 
Q 2441 2713 2670 2916 
Q 2900 3119 2900 3481 
Q 2900 3844 2670 4047 
Q 2441 4250 2034 4250 
Q 1625 4250 1398 4047 
Q 1172 3844 1172 3481 
z
" transform="scale(0.015625)"/>
       </defs>
       <use xlink:href="#DejaVuSans-38"/>
       <use xlink:href="#DejaVuSans-30" x="63.623047"/>
      </g>
     </g>
    </g>
    <g id="ytick_6">
     <g id="line2d_12">
      <g>
       <use xlink:href="#m96b9ef64a6" x="54" y="51.84" style="stroke: #000000; stroke-width: 0.8"/>
      </g>
     </g>
     <g id="text_12">
      <!-- 100 -->
      <g transform="translate(27.9125 55.639219) scale(0.1 -0.1)">
       <use xlink:href="#DejaVuSans-31"/>
       <use xlink:href="#DejaVuSans-30" x="63.623047"/>
       <use xlink:href="#DejaVuSans-30" x="127.246094"/>
      </g>
     </g>
    </g>
    <g id="text_13">
     <!-- Steps within target range (%) -->
     <g transform="translate(21.832812 292.065469) rotate(-90) scale(0.1 -0.1)">
      <defs>
       <path id="DejaVuSans-53" d="M 3425 4513 
L 3425 3897 
Q 3066 4069 2747 4153 
Q 2428 4238 2131 4238 
Q 1616 4238 1336 4038 
Q 1056 3838 1056 3469 
Q 1056 3159 1242 3001 
Q 1428 2844 1947 2747 
L 2328 2669 
Q 3034 2534 3370 2195 
Q 3706 1856 3706 1288 
Q 3706 609 3251 259 
Q 2797 -91 1919 -91 
Q 1588 -91 1214 -16 
Q 841 59 441 206 
L 441 856 
Q 825 641 1194 531 
Q 1563 422 1919 422 
Q 2459 422 2753 634 
Q 3047 847 3047 1241 
Q 3047 1584 2836 1778 
Q 2625 1972 2144 2069 
L 1759 2144 
Q 1053 2284 737 2584 
Q 422 2884 422 3419 
Q 422 4038 858 4394 
Q 1294 4750 2059 4750 
Q 2388 4750 2728 4690 
Q 3069 4631 3425 4513 
z
" transform="scale(0.015625)"/>
       <path id="DejaVuSans-74" d="M 1172 4494 
L 1172 3500 
L 2356 3500 
L 2356 3053 
L 1172 3053 
L 1172 1153 
Q 1172 725 1289 603 
Q 1406 481 1766 481 
L 2356 481 
L 2356 0 
L 1766 0 
Q 1100 0 847 248 
Q 594 497 594 1153 
L 594 3053 
L 172 3053 
L 172 3500 
L 594 3500 
L 594 4494 
L 1172 4494 
z
" transform="scale(0.015625)"/>
       <path id="DejaVuSans-65" d="M 3597 1894 
L 3597 1613 
L 953 1613 
Q 991 1019 1311 708 
Q 1631 397 2203 397 
Q 2534 397 2845 478 
Q 3156 559 3463 722 
L 3463 178 
Q 3153 47 2828 -22 
Q 2503 -91 2169 -91 
Q 1331 -91 842 396 
Q 353 884 353 1716 
Q 353 2575 817 3079 
Q 1281 3584 2069 3584 
Q 2775 3584 3186 3129 
Q 3597 2675 3597 1894 
z
M 3022 2063 
Q 3016 2534 2758 2815 
Q 2500 3097 2075 3097 
Q 1594 3097 1305 2825 
Q 1016 2553 972 2059 
L 3022 2063 
z
" transform="scale(0.015625)"/>
       <path id="DejaVuSans-70" d="M 1159 525 
L 1159 -1331 
L 581 -1331 
L 581 3500 
L 1159 3500 
L 1159 2969 
Q 1341 3281 1617 3432 
Q 1894 3584 2278 3584 
Q 2916 3584 3314 3078 
Q 3713 2572 3713 1747 
Q 3713 922 3314 415 
Q 2916 -91 2278 -91 
Q 1894 -91 1617 61 
Q 1341 213 1159 525 
z
M 3116 1747 
Q 3116 2381 2855 2742 
Q 2594 3103 2138 3103 
Q 1681 3103 1420 2742 
Q 1159 2381 1159 1747 
Q 1159 1113 1420 752 
Q 1681 391 2138 391 
Q 2594 391 2855 752 
Q 3116 1113 3116 1747 
z
" transform="scale(0.015625)"/>
       <path id="DejaVuSans-73" d="M 2834 3397 
L 2834 2853 
Q 2591 2978 2328 3040 
Q 2066 3103 1784 3103 
Q 1356 3103 1142 2972 
Q 928 2841 928 2578 
Q 928 2378 1081 2264 
Q 1234 2150 1697 2047 
L 1894 2003 
Q 2506 1872 2764 1633 
Q 3022 1394 3022 966 
Q 3022 478 2636 193 
Q 2250 -91 1575 -91 
Q 1294 -91 989 -36 
Q 684 19 347 128 
L 347 722 
Q 666 556 975 473 
Q 1284 391 1588 391 
Q 1994 391 2212 530 
Q 2431 669 2431 922 
Q 2431 1156 2273 1281 
Q 2116 1406 1581 1522 
L 1381 1569 
Q 847 1681 609 1914 
Q 372 2147 372 2553 
Q 372 3047 722 3315 
Q 1072 3584 1716 3584 
Q 2034 3584 2315 3537 
Q 2597 3491 2834 3397 
z
" transform="scale(0.015625)"/>
       <path id="DejaVuSans-20" transform="scale(0.015625)"/>
       <path id="DejaVuSans-77" d="M 269 3500 
L 844 3500 
L 1563 769 
L 2278 3500 
L 2956 3500 
L 3675 769 
L 4391 3500 
L 4966 3500 
L 4050 0 
L 3372 0 
L 2619 2869 
L 1863 0 
L 1184 0 
L 269 3500 
z
" transform="scale(0.015625)"/>
       <path id="DejaVuSans-69" d="M 603 3500 
L 1178 3500 
L 1178 0 
L 603 0 
L 603 3500 
z
M 603 4863 
L 1178 4863 
L 1178 4134 
L 603 4134 
L 603 4863 
z
" transform="scale(0.015625)"/>
       <path id="DejaVuSans-68" d="M 3513 2113 
L 3513 0 
L 2938 0 
L 2938 2094 
Q 2938 2591 2744 2837 
Q 2550 3084 2163 3084 
Q 1697 3084 1428 2787 
Q 1159 2491 1159 1978 
L 1159 0 
L 581 0 
L 581 4863 
L 1159 4863 
L 1159 2956 
Q 1366 3272 1645 3428 
Q 1925 3584 2291 3584 
Q 2894 3584 3203 3211 
Q 3513 2838 3513 2113 
z
" transform="scale(0.015625)"/>
       <path id="DejaVuSans-6e" d="M 3513 2113 
L 3513 0 
L 2938 0 
L 2938 2094 
Q 2938 2591 2744 2837 
Q 2550 3084 2163 3084 
Q 1697 3084 1428 2787 
Q 1159 2491 1159 1978 
L 1159 0 
L 581 0 
L 581 3500 
L 1159 3500 
L 1159 2956 
Q 1366 3272 1645 3428 
Q 1925 3584 2291 3584 
Q 2894 3584 3203 3211 
Q 3513 2838 3513 2113 
z
" transform="scale(0.015625)"/>
       <path id="DejaVuSans-61" d="M 2194 1759 
Q 1497 1759 1228 1600 
Q 959 1441 959 1056 
Q 959 750 1161 570 
Q 1363 391 1709 391 
Q 2188 391 2477 730 
Q 2766 1069 2766 1631 
L 2766 1759 
L 2194 1759 
z
M 3341 1997 
L 3341 0 
L 2766 0 
L 2766 531 
Q 2569 213 2275 61 
Q 1981 -91 1556 -91 
Q 1019 -91 701 211 
Q 384 513 384 1019 
Q 384 1609 779 1909 
Q 1175 2209 1959 2209 
L 2766 2209 
L 2766 2266 
Q 2766 2663 2505 2880 
Q 2244 3097 1772 3097 
Q 1472 3097 1187 3025 
Q 903 2953 641 2809 
L 641 3341 
Q 956 3463 1253 3523 
Q 1550 3584 1831 3584 
Q 2591 3584 2966 3190 
Q 3341 2797 3341 1997 
z
" transform="scale(0.015625)"/>
       <path id="DejaVuSans-72" d="M 2631 2963 
Q 2534 3019 2420 3045 
Q 2306 3072 2169 3072 
Q 1681 3072 1420 2755 
Q 1159 2438 1159 1844 
L 1159 0 
L 581 0 
L 581 3500 
L 1159 3500 
L 1159 2956 
Q 1341 3275 1631 3429 
Q 1922 3584 2338 3584 
Q 2397 3584 2469 3576 
Q 2541 3569 2628 3553 
L 2631 2963 
z
" transform="scale(0.015625)"/>
       <path id="DejaVuSans-67" d="M 2906 1791 
Q 2906 2416 2648 2759 
Q 2391 3103 1925 3103 
Q 1463 3103 1205 2759 
Q 947 2416 947 1791 
Q 947 1169 1205 825 
Q 1463 481 1925 481 
Q 2391 481 2648 825 
Q 2906 1169 2906 1791 
z
M 3481 434 
Q 3481 -459 3084 -895 
Q 2688 -1331 1869 -1331 
Q 1566 -1331 1297 -1286 
Q 1028 -1241 775 -1147 
L 775 -588 
Q 1028 -725 1275 -790 
Q 1522 -856 1778 -856 
Q 2344 -856 2625 -561 
Q 2906 -266 2906 331 
L 2906 616 
Q 2728 306 2450 153 
Q 2172 0 1784 0 
Q 1141 0 747 490 
Q 353 981 353 1791 
Q 353 2603 747 3093 
Q 1141 3584 1784 3584 
Q 2172 3584 2450 3431 
Q 2728 3278 2906 2969 
L 2906 3500 
L 3481 3500 
L 3481 434 
z
" transform="scale(0.015625)"/>
       <path id="DejaVuSans-28" d="M 1984 4856 
Q 1566 4138 1362 3434 
Q 1159 2731 1159 2009 
Q 1159 1288 1364 580 
Q 1569 -128 1984 -844 
L 1484 -844 
Q 1016 -109 783 600 
Q 550 1309 550 2009 
Q 550 2706 781 3412 
Q 1013 4119 1484 4856 
L 1984 4856 
z
" transform="scale(0.015625)"/>
       <path id="DejaVuSans-25" d="M 4653 2053 
Q 4381 2053 4226 1822 
Q 4072 1591 4072 1178 
Q 4072 772 4226 539 
Q 4381 306 4653 306 
Q 4919 306 5073 539 
Q 5228 772 5228 1178 
Q 5228 1588 5073 1820 
Q 4919 2053 4653 2053 
z
M 4653 2450 
Q 5147 2450 5437 2106 
Q 5728 1763 5728 1178 
Q 5728 594 5436 251 
Q 5144 -91 4653 -91 
Q 4153 -91 3862 251 
Q 3572 594 3572 1178 
Q 3572 1766 3864 2108 
Q 4156 2450 4653 2450 
z
M 1428 4353 
Q 1159 4353 1004 4120 
Q 850 3888 850 3481 
Q 850 3069 1003 2837 
Q 1156 2606 1428 2606 
Q 1700 2606 1854 2837 
Q 2009 3069 2009 3481 
Q 2009 3884 1853 4118 
Q 1697 4353 1428 4353 
z
M 4250 4750 
L 4750 4750 
L 1831 -91 
L 1331 -91 
L 4250 4750 
z
M 1428 4750 
Q 1922 4750 2215 4408 
Q 2509 4066 2509 3481 
Q 2509 2891 2217 2550 
Q 1925 2209 1428 2209 
Q 931 2209 642 2551 
Q 353 2894 353 3481 
Q 353 4063 643 4406 
Q 934 4750 1428 4750 
z
" transform="scale(0.015625)"/>
       <path id="DejaVuSans-29" d="M 513 4856 
L 1013 4856 
Q 1481 4119 1714 3412 
Q 1947 2706 1947 2009 
Q 1947 1309 1714 600 
Q 1481 -109 1013 -844 
L 513 -844 
Q 928 -128 1133 580 
Q 1338 1288 1338 2009 
Q 1338 2731 1133 3434 
Q 928 4138 513 4856 
z
" transform="scale(0.015625)"/>
      </defs>
      <use xlink:href="#DejaVuSans-53"/>
      <use xlink:href="#DejaVuSans-74" x="63.476562"/>
      <use xlink:href="#DejaVuSans-65" x="102.685547"/>
      <use xlink:href="#DejaVuSans-70" x="164.208984"/>
      <use xlink:href="#DejaVuSans-73" x="227.685547"/>
      <use xlink:href="#DejaVuSans-20" x="279.785156"/>
      <use xlink:href="#DejaVuSans-77" x="311.572266"/>
      <use xlink:href="#DejaVuSans-69" x="393.359375"/>
      <use xlink:href="#DejaVuSans-74" x="421.142578"/>
      <use xlink:href="#DejaVuSans-68" x="460.351562"/>
      <use xlink:href="#DejaVuSans-69" x="523.730469"/>
      <use xlink:href="#DejaVuSans-6e" x="551.513672"/>
      <use xlink:href="#DejaVuSans-20" x="614.892578"/>
      <use xlink:href="#DejaVuSans-74" x="646.679688"/>
      <use xlink:href="#DejaVuSans-61" x="685.888672"/>
      <use xlink:href="#DejaVuSans-72" x="747.167969"/>
      <use xlink:href="#DejaVuSans-67" x="786.53125"/>
      <use xlink:href="#DejaVuSans-65" x="850.007812"/>
      <use xlink:href="#DejaVuSans-74" x="911.53125"/>
      <use xlink:href="#DejaVuSans-20" x="950.740234"/>
      <use xlink:href="#DejaVuSans-72" x="982.527344"/>
      <use xlink:href="#DejaVuSans-61" x="1023.640625"/>
      <use xlink:href="#DejaVuSans-6e" x="1084.919922"/>
      <use xlink:href="#DejaVuSans-67" x="1148.298828"/>
      <use xlink:href="#DejaVuSans-65" x="1211.775391"/>
      <use xlink:href="#DejaVuSans-20" x="1273.298828"/>
      <use xlink:href="#DejaVuSans-28" x="1305.085938"/>
      <use xlink:href="#DejaVuSans-25" x="1344.099609"/>
      <use xlink:href="#DejaVuSans-29" x="1439.119141"/>
     </g>
    </g>
   </g>
   <g id="line2d_13">
    <path d="M 69.218182 324.189 
L 128.897326 212.581132 
L 188.576471 202.992453 
L 248.255615 171.96 
L 307.934759 181.2 
L 367.613904 241.1676 
" clip-path="url(#pfce98cf816)" style="fill: none; stroke: #0f4c5c; stroke-width: 1.5; stroke-linecap: square"/>
    <defs>
     <path id="m9105698e3f" d="M 0 3 
C 0.795609 3 1.55874 2.683901 2.12132 2.12132 
C 2.683901 1.55874 3 0.795609 3 0 
C 3 -0.795609 2.683901 -1.55874 2.12132 -2.12132 
C 1.55874 -2.683901 0.795609 -3 0 -3 
C -0.795609 -3 -1.55874 -2.683901 -2.12132 -2.12132 
C -2.683901 -1.55874 -3 -0.795609 -3 0 
C -3 0.795609 -2.683901 1.55874 -2.12132 2.12132 
C -1.55874 2.683901 -0.795609 3 0 3 
z
" style="stroke: #0f4c5c"/>
    </defs>
    <g clip-path="url(#pfce98cf816)">
     <use xlink:href="#m9105698e3f" x="69.218182" y="324.189" style="fill: #0f4c5c; stroke: #0f4c5c"/>
     <use xlink:href="#m9105698e3f" x="128.897326" y="212.581132" style="fill: #0f4c5c; stroke: #0f4c5c"/>
     <use xlink:href="#m9105698e3f" x="188.576471" y="202.992453" style="fill: #0f4c5c; stroke: #0f4c5c"/>
     <use xlink:href="#m9105698e3f" x="248.255615" y="171.96" style="fill: #0f4c5c; stroke: #0f4c5c"/>
     <use xlink:href="#m9105698e3f" x="307.934759" y="181.2" style="fill: #0f4c5c; stroke: #0f4c5c"/>
     <use xlink:href="#m9105698e3f" x="367.613904" y="241.1676" style="fill: #0f4c5c; stroke: #0f4c5c"/>
    </g>
   </g>
   <g id="LineCollection_1">
    <path d="M 69.218182 393.879445 
L 69.218182 254.498555 
" clip-path="url(#pfce98cf816)" style="fill: none; stroke: #0f4c5c; stroke-width: 1.5"/>
    <path d="M 128.897326 258.095462 
L 128.897326 167.066803 
" clip-path="url(#pfce98cf816)" style="fill: none; stroke: #0f4c5c; stroke-width: 1.5"/>
    <path d="M 188.576471 246.752393 
L 188.576471 159.232513 
" clip-path="url(#pfce98cf816)" style="fill: none; stroke: #0f4c5c; stroke-width: 1.5"/>
    <path d="M 248.255615 215.067741 
L 248.255615 128.852259 
" clip-path="url(#pfce98cf816)" style="fill: none; stroke: #0f4c5c; stroke-width: 1.5"/>
    <path d="M 307.934759 232.280022 
L 307.934759 130.119978 
" clip-path="url(#pfce98cf816)" style="fill: none; stroke: #0f4c5c; stroke-width: 1.5"/>
    <path d="M 367.613904 289.552302 
L 367.613904 192.782898 
" clip-path="url(#pfce98cf816)" style="fill: none; stroke: #0f4c5c; stroke-width: 1.5"/>
   </g>
   <g id="line2d_14">
    <defs>
     <path id="mb87d4fa334" d="M 5 0 
L -5 -0 
" style="stroke: #0f4c5c"/>
    </defs>
    <g clip-path="url(#pfce98cf816)">
     <use xlink:href="#mb87d4fa334" x="69.218182" y="393.879445" style="fill: #0f4c5c; stroke: #0f4c5c"/>
     <use xlink:href="#mb87d4fa334" x="128.897326" y="258.095462" style="fill: #0f4c5c; stroke: #0f4c5c"/>
     <use xlink:href="#mb87d4fa334" x="188.576471" y="246.752393" style="fill: #0f4c5c; stroke: #0f4c5c"/>
     <use xlink:href="#mb87d4fa334" x="248.255615" y="215.067741" style="fill: #0f4c5c; stroke: #0f4c5c"/>
     <use xlink:href="#mb87d4fa334" x="307.934759" y="232.280022" style="fill: #0f4c5c; stroke: #0f4c5c"/>
     <use xlink:href="#mb87d4fa334" x="367.613904" y="289.552302" style="fill: #0f4c5c; stroke: #0f4c5c"/>
    </g>
   </g>
   <g id="line2d_15">
    <g clip-path="url(#pfce98cf816)">
     <use xlink:href="#mb87d4fa334" x="69.218182" y="254.498555" style="fill: #0f4c5c; stroke: #0f4c5c"/>
     <use xlink:href="#mb87d4fa334" x="128.897326" y="167.066803" style="fill: #0f4c5c; stroke: #0f4c5c"/>
     <use xlink:href="#mb87d4fa334" x="188.576471" y="159.232513" style="fill: #0f4c5c; stroke: #0f4c5c"/>
     <use xlink:href="#mb87d4fa334" x="248.255615" y="128.852259" style="fill: #0f4c5c; stroke: #0f4c5c"/>
     <use xlink:href="#mb87d4fa334" x="307.934759" y="130.119978" style="fill: #0f4c5c; stroke: #0f4c5c"/>
     <use xlink:href="#mb87d4fa334" x="367.613904" y="192.782898" style="fill: #0f4c5c; stroke: #0f4c5c"/>
    </g>
   </g>
   <g id="line2d_16">
    <path d="M 72.202139 304.785 
L 131.881283 195.321509 
L 191.560428 181.723019 
L 251.239572 170.913962 
L 310.918717 166.904151 
L 370.597861 223.704 
" clip-path="url(#pfce98cf816)" style="fill: none; stroke: #5f0f40; stroke-width: 1.5; stroke-linecap: square"/>
    <defs>
     <path id="m5d7a76f184" d="M 0 3 
C 0.795609 3 1.55874 2.683901 2.12132 2.12132 
C 2.683901 1.55874 3 0.795609 3 0 
C 3 -0.795609 2.683901 -1.55874 2.12132 -2.12132 
C 1.55874 -2.683901 0.795609 -3 0 -3 
C -0.795609 -3 -1.55874 -2.683901 -2.12132 -2.12132 
C -2.683901 -1.55874 -3 -0.795609 -3 0 
C -3 0.795609 -2.683901 1.55874 -2.12132 2.12132 
C -1.55874 2.683901 -0.795609 3 0 3 
z
" style="stroke: #5f0f40"/>
    </defs>
    <g clip-path="url(#pfce98cf816)">
     <use xlink:href="#m5d7a76f184" x="72.202139" y="304.785" style="fill: #5f0f40; stroke: #5f0f40"/>
     <use xlink:href="#m5d7a76f184" x="131.881283" y="195.321509" style="fill: #5f0f40; stroke: #5f0f40"/>
     <use xlink:href="#m5d7a76f184" x="191.560428" y="181.723019" style="fill: #5f0f40; stroke: #5f0f40"/>
     <use xlink:href="#m5d7a76f184" x="251.239572" y="170.913962" style="fill: #5f0f40; stroke: #5f0f40"/>
     <use xlink:href="#m5d7a76f184" x="310.918717" y="166.904151" style="fill: #5f0f40; stroke: #5f0f40"/>
     <use xlink:href="#m5d7a76f184" x="370.597861" y="223.704" style="fill: #5f0f40; stroke: #5f0f40"/>
    </g>
   </g>
   <g id="LineCollection_2">
    <path d="M 72.202139 369.598101 
L 72.202139 239.971899 
" clip-path="url(#pfce98cf816)" style="fill: none; stroke: #5f0f40; stroke-width: 1.5"/>
    <path d="M 131.881283 243.782594 
L 131.881283 146.860425 
" clip-path="url(#pfce98cf816)" style="fill: none; stroke: #5f0f40; stroke-width: 1.5"/>
    <path d="M 191.560428 225.285254 
L 191.560428 138.160783 
" clip-path="url(#pfce98cf816)" style="fill: none; stroke: #5f0f40; stroke-width: 1.5"/>
    <path d="M 251.239572 216.119726 
L 251.239572 125.708199 
" clip-path="url(#pfce98cf816)" style="fill: none; stroke: #5f0f40; stroke-width: 1.5"/>
    <path d="M 310.918717 205.95 
L 310.918717 127.858302 
" clip-path="url(#pfce98cf816)" style="fill: none; stroke: #5f0f40; stroke-width: 1.5"/>
    <path d="M 370.597861 271.40979 
L 370.597861 175.99821 
" clip-path="url(#pfce98cf816)" style="fill: none; stroke: #5f0f40; stroke-width: 1.5"/>
   </g>
   <g id="line2d_17">
    <defs>
     <path id="m51cdc3b1e3" d="M 5 0 
L -5 -0 
" style="stroke: #5f0f40"/>
    </defs>
    <g clip-path="url(#pfce98cf816)">
     <use xlink:href="#m51cdc3b1e3" x="72.202139" y="369.598101" style="fill: #5f0f40; stroke: #5f0f40"/>
     <use xlink:href="#m51cdc3b1e3" x="131.881283" y="243.782594" style="fill: #5f0f40; stroke: #5f0f40"/>
     <use xlink:href="#m51cdc3b1e3" x="191.560428" y="225.285254" style="fill: #5f0f40; stroke: #5f0f40"/>
     <use xlink:href="#m51cdc3b1e3" x="251.239572" y="216.119726" style="fill: #5f0f40; stroke: #5f0f40"/>
     <use xlink:href="#m51cdc3b1e3" x="310.918717" y="205.95" style="fill: #5f0f40; stroke: #5f0f40"/>
     <use xlink:href="#m51cdc3b1e3" x="370.597861" y="271.40979" style="fill: #5f0f40; stroke: #5f0f40"/>
    </g>
   </g>
   <g id="line2d_18">
    <g clip-path="url(#pfce98cf816)">
     <use xlink:href="#m51cdc3b1e3" x="72.202139" y="239.971899" style="fill: #5f0f40; stroke: #5f0f40"/>
     <use xlink:href="#m51cdc3b1e3" x="131.881283" y="146.860425" style="fill: #5f0f40; stroke: #5f0f40"/>
     <use xlink:href="#m51cdc3b1e3" x="191.560428" y="138.160783" style="fill: #5f0f40; stroke: #5f0f40"/>
     <use xlink:href="#m51cdc3b1e3" x="251.239572" y="125.708199" style="fill: #5f0f40; stroke: #5f0f40"/>
     <use xlink:href="#m51cdc3b1e3" x="310.918717" y="127.858302" style="fill: #5f0f40; stroke: #5f0f40"/>
     <use xlink:href="#m51cdc3b1e3" x="370.597861" y="175.99821" style="fill: #5f0f40; stroke: #5f0f40"/>
    </g>
   </g>
   <g id="line2d_19">
    <path d="M 75.186096 279.837 
L 134.865241 303.063396 
L 194.544385 317.359245 
L 254.223529 314.569811 
L 313.902674 303.34021 
L 373.581818 296.7462 
" clip-path="url(#pfce98cf816)" style="fill: none; stroke: #e36414; stroke-width: 1.5; stroke-linecap: square"/>
    <defs>
     <path id="mf7e68ec6d8" d="M 0 3 
C 0.795609 3 1.55874 2.683901 2.12132 2.12132 
C 2.683901 1.55874 3 0.795609 3 0 
C 3 -0.795609 2.683901 -1.55874 2.12132 -2.12132 
C 1.55874 -2.683901 0.795609 -3 0 -3 
C -0.795609 -3 -1.55874 -2.683901 -2.12132 -2.12132 
C -2.683901 -1.55874 -3 -0.795609 -3 0 
C -3 0.795609 -2.683901 1.55874 -2.12132 2.12132 
C -1.55874 2.683901 -0.795609 3 0 3 
z
" style="stroke: #e36414"/>
    </defs>
    <g clip-path="url(#pfce98cf816)">
     <use xlink:href="#mf7e68ec6d8" x="75.186096" y="279.837" style="fill: #e36414; stroke: #e36414"/>
     <use xlink:href="#mf7e68ec6d8" x="134.865241" y="303.063396" style="fill: #e36414; stroke: #e36414"/>
     <use xlink:href="#mf7e68ec6d8" x="194.544385" y="317.359245" style="fill: #e36414; stroke: #e36414"/>
     <use xlink:href="#mf7e68ec6d8" x="254.223529" y="314.569811" style="fill: #e36414; stroke: #e36414"/>
     <use xlink:href="#mf7e68ec6d8" x="313.902674" y="303.34021" style="fill: #e36414; stroke: #e36414"/>
     <use xlink:href="#mf7e68ec6d8" x="373.581818" y="296.7462" style="fill: #e36414; stroke: #e36414"/>
    </g>
   </g>
   <g id="LineCollection_3">
    <path d="M 75.186096 343.143223 
L 75.186096 216.530777 
" clip-path="url(#pfce98cf816)" style="fill: none; stroke: #e36414; stroke-width: 1.5"/>
    <path d="M 134.865241 368.088804 
L 134.865241 238.037989 
" clip-path="url(#pfce98cf816)" style="fill: none; stroke: #e36414; stroke-width: 1.5"/>
    <path d="M 194.544385 369.342573 
L 194.544385 265.375917 
" clip-path="url(#pfce98cf816)" style="fill: none; stroke: #e36414; stroke-width: 1.5"/>
    <path d="M 254.223529 370.062143 
L 254.223529 259.077479 
" clip-path="url(#pfce98cf816)" style="fill: none; stroke: #e36414; stroke-width: 1.5"/>
    <path d="M 313.902674 350.214446 
L 313.902674 256.465974 
" clip-path="url(#pfce98cf816)" style="fill: none; stroke: #e36414; stroke-width: 1.5"/>
    <path d="M 373.581818 353.356623 
L 373.581818 240.135777 
" clip-path="url(#pfce98cf816)" style="fill: none; stroke: #e36414; stroke-width: 1.5"/>
   </g>
   <g id="line2d_20">
    <defs>
     <path id="m5453089656" d="M 5 0 
L -5 -0 
" style="stroke: #e36414"/>
    </defs>
    <g clip-path="url(#pfce98cf816)">
     <use xlink:href="#m5453089656" x="75.186096" y="343.143223" style="fill: #e36414; stroke: #e36414"/>
     <use xlink:href="#m5453089656" x="134.865241" y="368.088804" style="fill: #e36414; stroke: #e36414"/>
     <use xlink:href="#m5453089656" x="194.544385" y="369.342573" style="fill: #e36414; stroke: #e36414"/>
     <use xlink:href="#m5453089656" x="254.223529" y="370.062143" style="fill: #e36414; stroke: #e36414"/>
     <use xlink:href="#m5453089656" x="313.902674" y="350.214446" style="fill: #e36414; stroke: #e36414"/>
     <use xlink:href="#m5453089656" x="373.581818" y="353.356623" style="fill: #e36414; stroke: #e36414"/>
    </g>
   </g>
   <g id="line2d_21">
    <g clip-path="url(#pfce98cf816)">
     <use xlink:href="#m5453089656" x="75.186096" y="216.530777" style="fill: #e36414; stroke: #e36414"/>
     <use xlink:href="#m5453089656" x="134.865241" y="238.037989" style="fill: #e36414; stroke: #e36414"/>
     <use xlink:href="#m5453089656" x="194.544385" y="265.375917" style="fill: #e36414; stroke: #e36414"/>
     <use xlink:href="#m5453089656" x="254.223529" y="259.077479" style="fill: #e36414; stroke: #e36414"/>
     <use xlink:href="#m5453089656" x="313.902674" y="256.465974" style="fill: #e36414; stroke: #e36414"/>
     <use xlink:href="#m5453089656" x="373.581818" y="240.135777" style="fill: #e36414; stroke: #e36414"/>
    </g>
   </g>
   <g id="patch_3">
    <path d="M 54 384.48 
L 54 51.84 
" style="fill: none; stroke: #000000; stroke-width: 0.8; stroke-linejoin: miter; stroke-linecap: square"/>
   </g>
   <g id="patch_4">
    <path d="M 388.8 384.48 
L 388.8 51.84 
" style="fill: none; stroke: #000000; stroke-width: 0.8; stroke-linejoin: miter; stroke-linecap: square"/>
   </g>
   <g id="patch_5">
    <path d="M 54 384.48 
L 388.8 384.48 
" style="fill: none; stroke: #000000; stroke-width: 0.8; stroke-linejoin: miter; stroke-linecap: square"/>
   </g>
   <g id="patch_6">
    <path d="M 54 51.84 
L 388.8 51.84 
" style="fill: none; stroke: #000000; stroke-width: 0.8; stroke-linejoin: miter; stroke-linecap: square"/>
   </g>
   <g id="legend_1">
    <g id="patch_7">
     <path d="M 336.567187 103.874375 
L 381.8 103.874375 
Q 383.8 103.874375 383.8 101.874375 
L 383.8 58.84 
Q 383.8 56.84 381.8 56.84 
L 336.567187 56.84 
Q 334.567187 56.84 334.567187 58.84 
L 334.567187 101.874375 
Q 334.567187 103.874375 336.567187 103.874375 
z
" style="fill: #ffffff; opacity: 0.8; stroke: #cccccc; stroke-linejoin: miter"/>
    </g>
    <g id="line2d_22">
     <path d="M 338.567187 64.938437 
L 348.567187 64.938437 
L 358.567187 64.938437 
" style="fill: none; stroke: #0f4c5c; stroke-width: 1.5; stroke-linecap: square"/>
     <g>
      <use xlink:href="#m9105698e3f" x="348.567187" y="64.938437" style="fill: #0f4c5c; stroke: #0f4c5c"/>
     </g>
    </g>
    <g id="text_14">
     <!-- SF -->
     <g transform="translate(366.567187 68.438437) scale(0.1 -0.1)">
      <defs>
       <path id="DejaVuSans-46" d="M 628 4666 
L 3309 4666 
L 3309 4134 
L 1259 4134 
L 1259 2759 
L 3109 2759 
L 3109 2228 
L 1259 2228 
L 1259 0 
L 628 0 
L 628 4666 
z
" transform="scale(0.015625)"/>
      </defs>
      <use xlink:href="#DejaVuSans-53"/>
      <use xlink:href="#DejaVuSans-46" x="63.476562"/>
     </g>
    </g>
    <g id="line2d_23">
     <path d="M 338.567187 79.616562 
L 348.567187 79.616562 
L 358.567187 79.616562 
" style="fill: none; stroke: #5f0f40; stroke-width: 1.5; stroke-linecap: square"/>
     <g>
      <use xlink:href="#m5d7a76f184" x="348.567187" y="79.616562" style="fill: #5f0f40; stroke: #5f0f40"/>
     </g>
    </g>
    <g id="text_15">
     <!-- TF -->
     <g transform="translate(366.567187 83.116562) scale(0.1 -0.1)">
      <defs>
       <path id="DejaVuSans-54" d="M -19 4666 
L 3928 4666 
L 3928 4134 
L 2272 4134 
L 2272 0 
L 1638 0 
L 1638 4134 
L -19 4134 
L -19 4666 
z
" transform="scale(0.015625)"/>
      </defs>
      <use xlink:href="#DejaVuSans-54"/>
      <use xlink:href="#DejaVuSans-46" x="61.083984"/>
     </g>
    </g>
    <g id="line2d_24">
     <path d="M 338.567187 94.294687 
L 348.567187 94.294687 
L 358.567187 94.294687 
" style="fill: none; stroke: #e36414; stroke-width: 1.5; stroke-linecap: square"/>
     <g>
      <use xlink:href="#mf7e68ec6d8" x="348.567187" y="94.294687" style="fill: #e36414; stroke: #e36414"/>
     </g>
    </g>
    <g id="text_16">
     <!-- NF -->
     <g transform="translate(366.567187 97.794687) scale(0.1 -0.1)">
      <defs>
       <path id="DejaVuSans-4e" d="M 628 4666 
L 1478 4666 
L 3547 763 
L 3547 4666 
L 4159 4666 
L 4159 0 
L 3309 0 
L 1241 3903 
L 1241 0 
L 628 0 
L 628 4666 
z
" transform="scale(0.015625)"/>
      </defs>
      <use xlink:href="#DejaVuSans-4e"/>
      <use xlink:href="#DejaVuSans-46" x="74.804688"/>
     </g>
    </g>
   </g>
  </g>
 </g>
 <defs>
  <clipPath id="pfce98cf816">
   <rect x="54" y="51.84" width="334.8" height="332.64"/>
  </clipPath>
 </defs>
</svg>
