<?xml version="1.0" encoding="utf-8" standalone="no"?>
<!DOCTYPE svg PUBLIC "-//W3C//DTD SVG 1.1//EN"
  "http://www.w3.org/Graphics/SVG/1.1/DTD/svg11.dtd">
<svg xmlns:xlink="http://www.w3.org/1999/xlink" width="432pt" height="432pt" viewBox="0 0 432 432" xmlns="http://www.w3.org/2000/svg" version="1.1">
 <metadata>
  <rdf:RDF xmlns:dc="http://purl.org/dc/elements/1.1/" xmlns:cc="http://creativecommons.org/ns#" xmlns:rdf="http://www.w3.org/1999/02/22-rdf-syntax-ns#">
   <cc:Work>
    <dc:type rdf:resource="http://purl.org/dc/dcmitype/StillImage"/>
    <dc:date>2024-09-25T12:40:09.093031</dc:date>
    <dc:format>image/svg+xml</dc:format>
    <dc:creator>
     <cc:Agent>
      <dc:title>Matplotlib v3.8.0, https://matplotlib.org/</dc:title>
     </cc:Agent>
    </dc:creator>
   </cc:Work>
  </rdf:RDF>
 </metadata>
 <defs>
  <style type="text/css">*{stroke-linejoin: round; stroke-linecap: butt}</style>
 </defs>
 <g id="figure_1">
  <g id="patch_1">
   <path d="M 0 432 
L 432 432 
L 432 0 
L 0 0 
z
" style="fill: #ffffff"/>
  </g>
  <g id="axes_1">
   <g id="patch_2">
    <path d="M 54 384.48 
L 388.8 384.48 
L 388.8 51.84 
L 54 51.84 
z
" style="fill: #ffffff"/>
   </g>
   <g id="PolyCollection_1">
    <path d="M 122.105924 369.36 
L 77.203167 369.36 
L 76.588898 368.410265 
L 75.995098 367.460529 
L 75.423381 366.510794 
L 74.875197 365.561058 
L 74.351818 364.611323 
L 73.854328 363.661587 
L 73.383616 362.711852 
L 72.940364 361.762117 
L 72.525049 360.812381 
L 72.137936 359.862646 
L 71.779083 358.91291 
L 71.448341 357.963175 
L 71.145364 357.013439 
L 70.869612 356.063704 
L 70.620367 355.113969 
L 70.396746 354.164233 
L 70.197711 353.214498 
L 70.022092 352.264762 
L 69.868604 351.315027 
L 69.735863 350.365291 
L 69.622412 349.415556 
L 69.526742 348.46582 
L 69.447312 347.516085 
L 69.382569 346.56635 
L 69.330978 345.616614 
L 69.291033 344.666879 
L 69.261285 343.717143 
L 69.240358 342.767408 
L 69.226965 341.817672 
L 69.219926 340.867937 
L 69.218182 339.918202 
L 69.220804 338.968466 
L 69.227005 338.018731 
L 69.236144 337.068995 
L 69.247731 336.11926 
L 69.261431 335.169524 
L 69.277059 334.219789 
L 69.294578 333.270054 
L 69.314095 332.320318 
L 69.335848 331.370583 
L 69.360203 330.420847 
L 69.387632 329.471112 
L 69.41871 328.521376 
L 69.45409 327.571641 
L 69.494492 326.621906 
L 69.540687 325.67217 
L 69.593474 324.722435 
L 69.653669 323.772699 
L 69.72208 322.822964 
L 69.799498 321.873228 
L 69.886675 320.923493 
L 69.98431 319.973758 
L 70.093038 319.024022 
L 70.213414 318.074287 
L 70.345907 317.124551 
L 70.490886 316.174816 
L 70.648618 315.22508 
L 70.819262 314.275345 
L 71.002868 313.32561 
L 71.199376 312.375874 
L 71.408619 311.426139 
L 71.630325 310.476403 
L 71.864128 309.526668 
L 72.109573 308.576932 
L 72.366124 307.627197 
L 72.633179 306.677461 
L 72.91008 305.727726 
L 73.196126 304.777991 
L 73.490586 303.828255 
L 73.792717 302.87852 
L 74.101771 301.928784 
L 74.417014 300.979049 
L 74.737739 300.029313 
L 75.063274 299.079578 
L 75.392999 298.129843 
L 75.72635 297.180107 
L 76.062832 296.230372 
L 76.402024 295.280636 
L 76.743584 294.330901 
L 77.08725 293.381165 
L 77.432847 292.43143 
L 77.78028 291.481695 
L 78.129536 290.531959 
L 78.480676 289.582224 
L 78.833831 288.632488 
L 79.189197 287.682753 
L 79.547019 286.733017 
L 79.907587 285.783282 
L 80.271224 284.833547 
L 80.638269 283.883811 
L 81.009073 282.934076 
L 81.38398 281.98434 
L 81.763317 281.034605 
L 82.147381 280.084869 
L 82.53643 279.135134 
L 82.930667 278.185399 
L 83.330238 277.235663 
L 83.735216 276.285928 
L 84.145598 275.336192 
L 115.163493 275.336192 
L 115.163493 275.336192 
L 115.573875 276.285928 
L 115.978852 277.235663 
L 116.378423 278.185399 
L 116.772661 279.135134 
L 117.16171 280.084869 
L 117.545774 281.034605 
L 117.925111 281.98434 
L 118.300018 282.934076 
L 118.670822 283.883811 
L 119.037867 284.833547 
L 119.401503 285.783282 
L 119.762072 286.733017 
L 120.119894 287.682753 
L 120.475259 288.632488 
L 120.828415 289.582224 
L 121.179555 290.531959 
L 121.528811 291.481695 
L 121.876244 292.43143 
L 122.221841 293.381165 
L 122.565507 294.330901 
L 122.907067 295.280636 
L 123.246258 296.230372 
L 123.582741 297.180107 
L 123.916092 298.129843 
L 124.245817 299.079578 
L 124.571352 300.029313 
L 124.892077 300.979049 
L 125.20732 301.928784 
L 125.516374 302.87852 
L 125.818505 303.828255 
L 126.112965 304.777991 
L 126.399011 305.727726 
L 126.675912 306.677461 
L 126.942967 307.627197 
L 127.199518 308.576932 
L 127.444962 309.526668 
L 127.678766 310.476403 
L 127.900472 311.426139 
L 128.109715 312.375874 
L 128.306223 313.32561 
L 128.489829 314.275345 
L 128.660473 315.22508 
L 128.818205 316.174816 
L 128.963184 317.124551 
L 129.095677 318.074287 
L 129.216053 319.024022 
L 129.324781 319.973758 
L 129.422416 320.923493 
L 129.509593 321.873228 
L 129.587011 322.822964 
L 129.655422 323.772699 
L 129.715616 324.722435 
L 129.768404 325.67217 
L 129.814599 326.621906 
L 129.855001 327.571641 
L 129.890381 328.521376 
L 129.921458 329.471112 
L 129.948888 330.420847 
L 129.973242 331.370583 
L 129.994996 332.320318 
L 130.014513 333.270054 
L 130.032032 334.219789 
L 130.04766 335.169524 
L 130.06136 336.11926 
L 130.072947 337.068995 
L 130.082086 338.018731 
L 130.088287 338.968466 
L 130.090909 339.918202 
L 130.089165 340.867937 
L 130.082126 341.817672 
L 130.068733 342.767408 
L 130.047806 343.717143 
L 130.018058 344.666879 
L 129.978113 345.616614 
L 129.926522 346.56635 
L 129.861779 347.516085 
L 129.782348 348.46582 
L 129.686679 349.415556 
L 129.573228 350.365291 
L 129.440487 351.315027 
L 129.286999 352.264762 
L 129.11138 353.214498 
L 128.912345 354.164233 
L 128.688724 355.113969 
L 128.439479 356.063704 
L 128.163727 357.013439 
L 127.86075 357.963175 
L 127.530008 358.91291 
L 127.171155 359.862646 
L 126.784042 360.812381 
L 126.368727 361.762117 
L 125.925475 362.711852 
L 125.454763 363.661587 
L 124.957273 364.611323 
L 124.433894 365.561058 
L 123.885709 366.510794 
L 123.313993 367.460529 
L 122.720193 368.410265 
L 122.105924 369.36 
z
" clip-path="url(#pebb12ae610)" style="fill: #1f77b4; fill-opacity: 0.3"/>
   </g>
   <g id="PolyCollection_2">
    <path d="M 241.629897 357.161774 
L 201.170103 357.161774 
L 200.381968 355.580151 
L 199.611121 353.998528 
L 198.860253 352.416905 
L 198.131902 350.835282 
L 197.428442 349.253659 
L 196.752084 347.672036 
L 196.104883 346.090413 
L 195.488745 344.50879 
L 194.905438 342.927167 
L 194.35661 341.345544 
L 193.843803 339.763921 
L 193.368472 338.182298 
L 192.932006 336.600675 
L 192.535737 335.019052 
L 192.180961 333.437429 
L 191.86895 331.855806 
L 191.600954 330.274183 
L 191.378208 328.69256 
L 191.20193 327.110936 
L 191.073313 325.529313 
L 190.993515 323.94769 
L 190.963636 322.366067 
L 190.984704 320.784444 
L 191.05764 319.202821 
L 191.183235 317.621198 
L 191.362113 316.039575 
L 191.5947 314.457952 
L 191.881189 312.876329 
L 192.221505 311.294706 
L 192.615277 309.713083 
L 193.061807 308.13146 
L 193.560051 306.549837 
L 194.108593 304.968214 
L 194.705642 303.386591 
L 195.34902 301.804968 
L 196.036168 300.223345 
L 196.764156 298.641722 
L 197.529697 297.060099 
L 198.329177 295.478476 
L 199.15868 293.896853 
L 200.014035 292.31523 
L 200.890852 290.733607 
L 201.784572 289.151984 
L 202.690524 287.57036 
L 203.603969 285.988737 
L 204.520166 284.407114 
L 205.434419 282.825491 
L 206.342131 281.243868 
L 207.238859 279.662245 
L 208.120358 278.080622 
L 208.982625 276.498999 
L 209.821934 274.917376 
L 210.634871 273.335753 
L 211.418358 271.75413 
L 212.169669 270.172507 
L 212.88645 268.590884 
L 213.566714 267.009261 
L 214.208853 265.427638 
L 214.811621 263.846015 
L 215.374133 262.264392 
L 215.895842 260.682769 
L 216.376528 259.101146 
L 216.81627 257.519523 
L 217.215424 255.9379 
L 217.574601 254.356277 
L 217.894639 252.774654 
L 218.176579 251.193031 
L 218.421638 249.611408 
L 218.631189 248.029784 
L 218.806737 246.448161 
L 218.9499 244.866538 
L 219.062392 243.284915 
L 219.146003 241.703292 
L 219.202593 240.121669 
L 219.234074 238.540046 
L 219.242402 236.958423 
L 219.229569 235.3768 
L 219.197595 233.795177 
L 219.148523 232.213554 
L 219.084409 230.631931 
L 219.007318 229.050308 
L 218.919318 227.468685 
L 218.822471 225.887062 
L 218.718826 224.305439 
L 218.610408 222.723816 
L 218.499211 221.142193 
L 218.38718 219.56057 
L 218.276207 217.978947 
L 218.16811 216.397324 
L 218.064623 214.815701 
L 217.967379 213.234078 
L 217.877896 211.652455 
L 217.797565 210.070832 
L 217.727631 208.489208 
L 217.669186 206.907585 
L 217.623152 205.325962 
L 217.590277 203.744339 
L 217.571127 202.162716 
L 217.566079 200.581093 
L 225.233921 200.581093 
L 225.233921 200.581093 
L 225.228873 202.162716 
L 225.209723 203.744339 
L 225.176848 205.325962 
L 225.130814 206.907585 
L 225.072369 208.489208 
L 225.002435 210.070832 
L 224.922104 211.652455 
L 224.832621 213.234078 
L 224.735377 214.815701 
L 224.63189 216.397324 
L 224.523793 217.978947 
L 224.41282 219.56057 
L 224.300789 221.142193 
L 224.189592 222.723816 
L 224.081174 224.305439 
L 223.977529 225.887062 
L 223.880682 227.468685 
L 223.792682 229.050308 
L 223.715591 230.631931 
L 223.651477 232.213554 
L 223.602405 233.795177 
L 223.570431 235.3768 
L 223.557598 236.958423 
L 223.565926 238.540046 
L 223.597407 240.121669 
L 223.653997 241.703292 
L 223.737608 243.284915 
L 223.8501 244.866538 
L 223.993263 246.448161 
L 224.168811 248.029784 
L 224.378362 249.611408 
L 224.623421 251.193031 
L 224.905361 252.774654 
L 225.225399 254.356277 
L 225.584576 255.9379 
L 225.98373 257.519523 
L 226.423472 259.101146 
L 226.904158 260.682769 
L 227.425867 262.264392 
L 227.988379 263.846015 
L 228.591147 265.427638 
L 229.233286 267.009261 
L 229.91355 268.590884 
L 230.630331 270.172507 
L 231.381642 271.75413 
L 232.165129 273.335753 
L 232.978066 274.917376 
L 233.817375 276.498999 
L 234.679642 278.080622 
L 235.561141 279.662245 
L 236.457869 281.243868 
L 237.365581 282.825491 
L 238.279834 284.407114 
L 239.196031 285.988737 
L 240.109476 287.57036 
L 241.015428 289.151984 
L 241.909148 290.733607 
L 242.785965 292.31523 
L 243.64132 293.896853 
L 244.470823 295.478476 
L 245.270303 297.060099 
L 246.035844 298.641722 
L 246.763832 300.223345 
L 247.45098 301.804968 
L 248.094358 303.386591 
L 248.691407 304.968214 
L 249.239949 306.549837 
L 249.738193 308.13146 
L 250.184723 309.713083 
L 250.578495 311.294706 
L 250.918811 312.876329 
L 251.2053 314.457952 
L 251.437887 316.039575 
L 251.616765 317.621198 
L 251.74236 319.202821 
L 251.815296 320.784444 
L 251.836364 322.366067 
L 251.806485 323.94769 
L 251.726687 325.529313 
L 251.59807 327.110936 
L 251.421792 328.69256 
L 251.199046 330.274183 
L 250.93105 331.855806 
L 250.619039 333.437429 
L 250.264263 335.019052 
L 249.867994 336.600675 
L 249.431528 338.182298 
L 248.956197 339.763921 
L 248.44339 341.345544 
L 247.894562 342.927167 
L 247.311255 344.50879 
L 246.695117 346.090413 
L 246.047916 347.672036 
L 245.371558 349.253659 
L 244.668098 350.835282 
L 243.939747 352.416905 
L 243.188879 353.998528 
L 242.418032 355.580151 
L 241.629897 357.161774 
z
" clip-path="url(#pebb12ae610)" style="fill: #1f77b4; fill-opacity: 0.3"/>
   </g>
   <g id="PolyCollection_3">
    <path d="M 361.277143 309.942632 
L 325.013766 309.942632 
L 324.466655 307.488262 
L 323.931337 305.033892 
L 323.408443 302.579522 
L 322.89845 300.125152 
L 322.401694 297.670782 
L 321.918367 295.216412 
L 321.448535 292.762042 
L 320.992148 290.307672 
L 320.54905 287.853302 
L 320.119003 285.398932 
L 319.701695 282.944562 
L 319.296766 280.490192 
L 318.903825 278.035822 
L 318.522466 275.581452 
L 318.152288 273.127082 
L 317.792916 270.672712 
L 317.444012 268.218342 
L 317.105295 265.763972 
L 316.776552 263.309602 
L 316.457649 260.855232 
L 316.14854 258.400862 
L 315.849274 255.946492 
L 315.56 253.492122 
L 315.280966 251.037752 
L 315.012518 248.583381 
L 314.755101 246.129011 
L 314.509249 243.674641 
L 314.275577 241.220271 
L 314.054777 238.765901 
L 313.847601 236.311531 
L 313.654855 233.857161 
L 313.477383 231.402791 
L 313.316053 228.948421 
L 313.171748 226.494051 
L 313.045347 224.039681 
L 312.937719 221.585311 
L 312.849704 219.130941 
L 312.782107 216.676571 
L 312.735684 214.222201 
L 312.711134 211.767831 
L 312.709091 209.313461 
L 312.730118 206.859091 
L 312.774699 204.404721 
L 312.843236 201.950351 
L 312.936045 199.495981 
L 313.053355 197.041611 
L 313.195304 194.587241 
L 313.361939 192.132871 
L 313.553216 189.678501 
L 313.769 187.224131 
L 314.009067 184.769761 
L 314.273101 182.315391 
L 314.560699 179.861021 
L 314.871368 177.406651 
L 315.204529 174.952281 
L 315.559516 172.497911 
L 315.935579 170.043541 
L 316.331883 167.589171 
L 316.747508 165.134801 
L 317.181455 162.680431 
L 317.632646 160.226061 
L 318.099923 157.771691 
L 318.582059 155.317321 
L 319.077753 152.862951 
L 319.585642 150.408581 
L 320.104306 147.954211 
L 320.632271 145.499841 
L 321.168023 143.045471 
L 321.710015 140.591101 
L 322.256678 138.136731 
L 322.806432 135.682361 
L 323.357701 133.227991 
L 323.908926 130.773621 
L 324.458578 128.319251 
L 325.005174 125.86488 
L 325.547288 123.41051 
L 326.083573 120.95614 
L 326.612766 118.50177 
L 327.133705 116.0474 
L 327.645341 113.59303 
L 328.146747 111.13866 
L 328.637125 108.68429 
L 329.115815 106.22992 
L 329.582298 103.77555 
L 330.036195 101.32118 
L 330.477271 98.86681 
L 330.905428 96.41244 
L 331.320703 93.95807 
L 331.723257 91.5037 
L 332.113366 89.04933 
L 332.49141 86.59496 
L 332.857859 84.14059 
L 333.213259 81.68622 
L 333.558216 79.23185 
L 333.893378 76.77748 
L 334.219421 74.32311 
L 334.537031 71.86874 
L 334.846889 69.41437 
L 335.149655 66.96 
L 351.141255 66.96 
L 351.141255 66.96 
L 351.44402 69.41437 
L 351.753878 71.86874 
L 352.071488 74.32311 
L 352.397531 76.77748 
L 352.732693 79.23185 
L 353.07765 81.68622 
L 353.43305 84.14059 
L 353.7995 86.59496 
L 354.177543 89.04933 
L 354.567652 91.5037 
L 354.970206 93.95807 
L 355.385481 96.41244 
L 355.813638 98.86681 
L 356.254714 101.32118 
L 356.708611 103.77555 
L 357.175094 106.22992 
L 357.653784 108.68429 
L 358.144162 111.13866 
L 358.645568 113.59303 
L 359.157204 116.0474 
L 359.678143 118.50177 
L 360.207336 120.95614 
L 360.743621 123.41051 
L 361.285736 125.86488 
L 361.832331 128.319251 
L 362.381983 130.773621 
L 362.933208 133.227991 
L 363.484477 135.682361 
L 364.034231 138.136731 
L 364.580894 140.591101 
L 365.122886 143.045471 
L 365.658638 145.499841 
L 366.186603 147.954211 
L 366.705267 150.408581 
L 367.213156 152.862951 
L 367.70885 155.317321 
L 368.190986 157.771691 
L 368.658263 160.226061 
L 369.109454 162.680431 
L 369.543401 165.134801 
L 369.959027 167.589171 
L 370.35533 170.043541 
L 370.731393 172.497911 
L 371.08638 174.952281 
L 371.419541 177.406651 
L 371.730211 179.861021 
L 372.017808 182.315391 
L 372.281842 184.769761 
L 372.521909 187.224131 
L 372.737694 189.678501 
L 372.92897 192.132871 
L 373.095605 194.587241 
L 373.237554 197.041611 
L 373.354864 199.495981 
L 373.447673 201.950351 
L 373.51621 204.404721 
L 373.560791 206.859091 
L 373.581818 209.313461 
L 373.579775 211.767831 
L 373.555225 214.222201 
L 373.508802 216.676571 
L 373.441205 219.130941 
L 373.35319 221.585311 
L 373.245562 224.039681 
L 373.119161 226.494051 
L 372.974856 228.948421 
L 372.813526 231.402791 
L 372.636054 233.857161 
L 372.443308 236.311531 
L 372.236133 238.765901 
L 372.015332 241.220271 
L 371.78166 243.674641 
L 371.535808 246.129011 
L 371.278391 248.583381 
L 371.009943 251.037752 
L 370.730909 253.492122 
L 370.441635 255.946492 
L 370.142369 258.400862 
L 369.83326 260.855232 
L 369.514357 263.309602 
L 369.185614 265.763972 
L 368.846897 268.218342 
L 368.497994 270.672712 
L 368.138621 273.127082 
L 367.768443 275.581452 
L 367.387084 278.035822 
L 366.994143 280.490192 
L 366.589214 282.944562 
L 366.171907 285.398932 
L 365.741859 287.853302 
L 365.298761 290.307672 
L 364.842374 292.762042 
L 364.372542 295.216412 
L 363.889216 297.670782 
L 363.392459 300.125152 
L 362.882466 302.579522 
L 362.359572 305.033892 
L 361.824254 307.488262 
L 361.277143 309.942632 
z
" clip-path="url(#pebb12ae610)" style="fill: #1f77b4; fill-opacity: 0.3"/>
   </g>
   <g id="PathCollection_1">
    <defs>
     <path id="m8a1cafe6fd" d="M 0 1.936492 
C 0.513564 1.936492 1.006162 1.732451 1.369306 1.369306 
C 1.732451 1.006162 1.936492 0.513564 1.936492 0 
C 1.936492 -0.513564 1.732451 -1.006162 1.369306 -1.369306 
C 1.006162 -1.732451 0.513564 -1.936492 0 -1.936492 
C -0.513564 -1.936492 -1.006162 -1.732451 -1.369306 -1.369306 
C -1.732451 -1.006162 -1.936492 -0.513564 -1.936492 0 
C -1.936492 0.513564 -1.732451 1.006162 -1.369306 1.369306 
C -1.006162 1.732451 -0.513564 1.936492 0 1.936492 
z
" style="stroke: #1f77b4; stroke-opacity: 0.3"/>
    </defs>
    <g clip-path="url(#pebb12ae610)">
     <use xlink:href="#m8a1cafe6fd" x="97.412032" y="275.336192" style="fill: #1f77b4; fill-opacity: 0.3; stroke: #1f77b4; stroke-opacity: 0.3"/>
     <use xlink:href="#m8a1cafe6fd" x="100.149949" y="299.727719" style="fill: #1f77b4; fill-opacity: 0.3; stroke: #1f77b4; stroke-opacity: 0.3"/>
     <use xlink:href="#m8a1cafe6fd" x="96.939071" y="327.5918" style="fill: #1f77b4; fill-opacity: 0.3; stroke: #1f77b4; stroke-opacity: 0.3"/>
     <use xlink:href="#m8a1cafe6fd" x="96.010798" y="346.983932" style="fill: #1f77b4; fill-opacity: 0.3; stroke: #1f77b4; stroke-opacity: 0.3"/>
     <use xlink:href="#m8a1cafe6fd" x="100.94726" y="278.529165" style="fill: #1f77b4; fill-opacity: 0.3; stroke: #1f77b4; stroke-opacity: 0.3"/>
     <use xlink:href="#m8a1cafe6fd" x="98.432873" y="309.791475" style="fill: #1f77b4; fill-opacity: 0.3; stroke: #1f77b4; stroke-opacity: 0.3"/>
     <use xlink:href="#m8a1cafe6fd" x="93.964402" y="314.981452" style="fill: #1f77b4; fill-opacity: 0.3; stroke: #1f77b4; stroke-opacity: 0.3"/>
     <use xlink:href="#m8a1cafe6fd" x="98.928725" y="363.915529" style="fill: #1f77b4; fill-opacity: 0.3; stroke: #1f77b4; stroke-opacity: 0.3"/>
     <use xlink:href="#m8a1cafe6fd" x="102.615779" y="349.154644" style="fill: #1f77b4; fill-opacity: 0.3; stroke: #1f77b4; stroke-opacity: 0.3"/>
     <use xlink:href="#m8a1cafe6fd" x="94.819457" y="323.279248" style="fill: #1f77b4; fill-opacity: 0.3; stroke: #1f77b4; stroke-opacity: 0.3"/>
     <use xlink:href="#m8a1cafe6fd" x="94.824527" y="369.36" style="fill: #1f77b4; fill-opacity: 0.3; stroke: #1f77b4; stroke-opacity: 0.3"/>
     <use xlink:href="#m8a1cafe6fd" x="101.64876" y="359.570353" style="fill: #1f77b4; fill-opacity: 0.3; stroke: #1f77b4; stroke-opacity: 0.3"/>
    </g>
   </g>
   <g id="PathCollection_2">
    <defs>
     <path id="mc49aac0312" d="M 0 1.936492 
C 0.513564 1.936492 1.006162 1.732451 1.369306 1.369306 
C 1.732451 1.006162 1.936492 0.513564 1.936492 0 
C 1.936492 -0.513564 1.732451 -1.006162 1.369306 -1.369306 
C 1.006162 -1.732451 0.513564 -1.936492 0 -1.936492 
C -0.513564 -1.936492 -1.006162 -1.732451 -1.369306 -1.369306 
C -1.732451 -1.006162 -1.936492 -0.513564 -1.936492 0 
C -1.936492 0.513564 -1.732451 1.006162 -1.369306 1.369306 
C -1.006162 1.732451 -0.513564 1.936492 0 1.936492 
z
" style="stroke: #ff7f0e; stroke-opacity: 0.3"/>
    </defs>
    <g clip-path="url(#pebb12ae610)">
     <use xlink:href="#mc49aac0312" x="230.321586" y="297.749686" style="fill: #ff7f0e; fill-opacity: 0.3; stroke: #ff7f0e; stroke-opacity: 0.3"/>
     <use xlink:href="#mc49aac0312" x="225.311166" y="357.161774" style="fill: #ff7f0e; fill-opacity: 0.3; stroke: #ff7f0e; stroke-opacity: 0.3"/>
     <use xlink:href="#mc49aac0312" x="220.080185" y="200.581093" style="fill: #ff7f0e; fill-opacity: 0.3; stroke: #ff7f0e; stroke-opacity: 0.3"/>
     <use xlink:href="#mc49aac0312" x="221.807832" y="329.178419" style="fill: #ff7f0e; fill-opacity: 0.3; stroke: #ff7f0e; stroke-opacity: 0.3"/>
     <use xlink:href="#mc49aac0312" x="209.246317" y="306.381284" style="fill: #ff7f0e; fill-opacity: 0.3; stroke: #ff7f0e; stroke-opacity: 0.3"/>
     <use xlink:href="#mc49aac0312" x="213.032111" y="339.280159" style="fill: #ff7f0e; fill-opacity: 0.3; stroke: #ff7f0e; stroke-opacity: 0.3"/>
     <use xlink:href="#mc49aac0312" x="219.245244" y="354.142385" style="fill: #ff7f0e; fill-opacity: 0.3; stroke: #ff7f0e; stroke-opacity: 0.3"/>
     <use xlink:href="#mc49aac0312" x="222.227124" y="315.035587" style="fill: #ff7f0e; fill-opacity: 0.3; stroke: #ff7f0e; stroke-opacity: 0.3"/>
     <use xlink:href="#mc49aac0312" x="226.63594" y="305.282676" style="fill: #ff7f0e; fill-opacity: 0.3; stroke: #ff7f0e; stroke-opacity: 0.3"/>
     <use xlink:href="#mc49aac0312" x="222.205988" y="322.543455" style="fill: #ff7f0e; fill-opacity: 0.3; stroke: #ff7f0e; stroke-opacity: 0.3"/>
     <use xlink:href="#mc49aac0312" x="219.274961" y="294.140673" style="fill: #ff7f0e; fill-opacity: 0.3; stroke: #ff7f0e; stroke-opacity: 0.3"/>
     <use xlink:href="#mc49aac0312" x="222.607107" y="348.411425" style="fill: #ff7f0e; fill-opacity: 0.3; stroke: #ff7f0e; stroke-opacity: 0.3"/>
    </g>
   </g>
   <g id="PathCollection_3">
    <defs>
     <path id="mddd0448a8b" d="M 0 1.936492 
C 0.513564 1.936492 1.006162 1.732451 1.369306 1.369306 
C 1.732451 1.006162 1.936492 0.513564 1.936492 0 
C 1.936492 -0.513564 1.732451 -1.006162 1.369306 -1.369306 
C 1.006162 -1.732451 0.513564 -1.936492 0 -1.936492 
C -0.513564 -1.936492 -1.006162 -1.732451 -1.369306 -1.369306 
C -1.732451 -1.006162 -1.936492 -0.513564 -1.936492 0 
C -1.936492 0.513564 -1.732451 1.006162 -1.369306 1.369306 
C -1.006162 1.732451 -0.513564 1.936492 0 1.936492 
z
" style="stroke: #2ca02c; stroke-opacity: 0.3"/>
    </defs>
    <g clip-path="url(#pebb12ae610)">
     <use xlink:href="#mddd0448a8b" x="332.192693" y="309.208179" style="fill: #2ca02c; fill-opacity: 0.3; stroke: #2ca02c; stroke-opacity: 0.3"/>
     <use xlink:href="#mddd0448a8b" x="341.510258" y="66.96" style="fill: #2ca02c; fill-opacity: 0.3; stroke: #2ca02c; stroke-opacity: 0.3"/>
     <use xlink:href="#mddd0448a8b" x="339.425813" y="217.658538" style="fill: #2ca02c; fill-opacity: 0.3; stroke: #2ca02c; stroke-opacity: 0.3"/>
     <use xlink:href="#mddd0448a8b" x="343.670983" y="181.520475" style="fill: #2ca02c; fill-opacity: 0.3; stroke: #2ca02c; stroke-opacity: 0.3"/>
     <use xlink:href="#mddd0448a8b" x="335.432315" y="256.398259" style="fill: #2ca02c; fill-opacity: 0.3; stroke: #2ca02c; stroke-opacity: 0.3"/>
     <use xlink:href="#mddd0448a8b" x="342.02871" y="142.782063" style="fill: #2ca02c; fill-opacity: 0.3; stroke: #2ca02c; stroke-opacity: 0.3"/>
     <use xlink:href="#mddd0448a8b" x="332.631865" y="309.942632" style="fill: #2ca02c; fill-opacity: 0.3; stroke: #2ca02c; stroke-opacity: 0.3"/>
     <use xlink:href="#mddd0448a8b" x="342.06707" y="228.396062" style="fill: #2ca02c; fill-opacity: 0.3; stroke: #2ca02c; stroke-opacity: 0.3"/>
     <use xlink:href="#mddd0448a8b" x="342.37181" y="276.597076" style="fill: #2ca02c; fill-opacity: 0.3; stroke: #2ca02c; stroke-opacity: 0.3"/>
     <use xlink:href="#mddd0448a8b" x="336.16146" y="137.640038" style="fill: #2ca02c; fill-opacity: 0.3; stroke: #2ca02c; stroke-opacity: 0.3"/>
     <use xlink:href="#mddd0448a8b" x="342.866346" y="210.997642" style="fill: #2ca02c; fill-opacity: 0.3; stroke: #2ca02c; stroke-opacity: 0.3"/>
     <use xlink:href="#mddd0448a8b" x="344.657459" y="176.767872" style="fill: #2ca02c; fill-opacity: 0.3; stroke: #2ca02c; stroke-opacity: 0.3"/>
    </g>
   </g>
   <g id="matplotlib.axis_1">
    <g id="xtick_1">
     <g id="line2d_1">
      <defs>
       <path id="m856b133b18" d="M 0 0 
L 0 3.5 
" style="stroke: #000000; stroke-width: 0.8"/>
      </defs>
      <g>
       <use xlink:href="#m856b133b18" x="99.654545" y="384.48" style="stroke: #000000; stroke-width: 0.8"/>
      </g>
     </g>
     <g id="text_1">
      <!-- SF -->
      <g transform="translate(93.604545 399.078438) scale(0.1 -0.1)">
       <defs>
        <path id="DejaVuSans-53" d="M 3425 4513 
L 3425 3897 
Q 3066 4069 2747 4153 
Q 2428 4238 2131 4238 
Q 1616 4238 1336 4038 
Q 1056 3838 1056 3469 
Q 1056 3159 1242 3001 
Q 1428 2844 1947 2747 
L 2328 2669 
Q 3034 2534 3370 2195 
Q 3706 1856 3706 1288 
Q 3706 609 3251 259 
Q 2797 -91 1919 -91 
Q 1588 -91 1214 -16 
Q 841 59 441 206 
L 441 856 
Q 825 641 1194 531 
Q 1563 422 1919 422 
Q 2459 422 2753 634 
Q 3047 847 3047 1241 
Q 3047 1584 2836 1778 
Q 2625 1972 2144 2069 
L 1759 2144 
Q 1053 2284 737 2584 
Q 422 2884 422 3419 
Q 422 4038 858 4394 
Q 1294 4750 2059 4750 
Q 2388 4750 2728 4690 
Q 3069 4631 3425 4513 
z
" transform="scale(0.015625)"/>
        <path id="DejaVuSans-46" d="M 628 4666 
L 3309 4666 
L 3309 4134 
L 1259 4134 
L 1259 2759 
L 3109 2759 
L 3109 2228 
L 1259 2228 
L 1259 0 
L 628 0 
L 628 4666 
z
" transform="scale(0.015625)"/>
       </defs>
       <use xlink:href="#DejaVuSans-53"/>
       <use xlink:href="#DejaVuSans-46" x="63.476562"/>
      </g>
     </g>
    </g>
    <g id="xtick_2">
     <g id="line2d_2">
      <g>
       <use xlink:href="#m856b133b18" x="221.4" y="384.48" style="stroke: #000000; stroke-width: 0.8"/>
      </g>
     </g>
     <g id="text_2">
      <!-- TF -->
      <g transform="translate(215.470313 399.078438) scale(0.1 -0.1)">
       <defs>
        <path id="DejaVuSans-54" d="M -19 4666 
L 3928 4666 
L 3928 4134 
L 2272 4134 
L 2272 0 
L 1638 0 
L 1638 4134 
L -19 4134 
L -19 4666 
z
" transform="scale(0.015625)"/>
       </defs>
       <use xlink:href="#DejaVuSans-54"/>
       <use xlink:href="#DejaVuSans-46" x="61.083984"/>
      </g>
     </g>
    </g>
    <g id="xtick_3">
     <g id="line2d_3">
      <g>
       <use xlink:href="#m856b133b18" x="343.145455" y="384.48" style="stroke: #000000; stroke-width: 0.8"/>
      </g>
     </g>
     <g id="text_3">
      <!-- NF -->
      <g transform="translate(336.529048 399.078438) scale(0.1 -0.1)">
       <defs>
        <path id="DejaVuSans-4e" d="M 628 4666 
L 1478 4666 
L 3547 763 
L 3547 4666 
L 4159 4666 
L 4159 0 
L 3309 0 
L 1241 3903 
L 1241 0 
L 628 0 
L 628 4666 
z
" transform="scale(0.015625)"/>
       </defs>
       <use xlink:href="#DejaVuSans-4e"/>
       <use xlink:href="#DejaVuSans-46" x="74.804688"/>
      </g>
     </g>
    </g>
   </g>
   <g id="matplotlib.axis_2">
    <g id="ytick_1">
     <g id="line2d_4">
      <defs>
       <path id="ma267d3bf11" d="M 0 0 
L -3.5 0 
" style="stroke: #000000; stroke-width: 0.8"/>
      </defs>
      <g>
       <use xlink:href="#ma267d3bf11" x="54" y="357.286051" style="stroke: #000000; stroke-width: 0.8"/>
      </g>
     </g>
     <g id="text_4">
      <!-- −75 -->
      <g transform="translate(25.895312 361.08527) scale(0.1 -0.1)">
       <defs>
        <path id="DejaVuSans-2212" d="M 678 2272 
L 4684 2272 
L 4684 1741 
L 678 1741 
L 678 2272 
z
" transform="scale(0.015625)"/>
        <path id="DejaVuSans-37" d="M 525 4666 
L 3525 4666 
L 3525 4397 
L 1831 0 
L 1172 0 
L 2766 4134 
L 525 4134 
L 525 4666 
z
" transform="scale(0.015625)"/>
        <path id="DejaVuSans-35" d="M 691 4666 
L 3169 4666 
L 3169 4134 
L 1269 4134 
L 1269 2991 
Q 1406 3038 1543 3061 
Q 1681 3084 1819 3084 
Q 2600 3084 3056 2656 
Q 3513 2228 3513 1497 
Q 3513 744 3044 326 
Q 2575 -91 1722 -91 
Q 1428 -91 1123 -41 
Q 819 9 494 109 
L 494 744 
Q 775 591 1075 516 
Q 1375 441 1709 441 
Q 2250 441 2565 725 
Q 2881 1009 2881 1497 
Q 2881 1984 2565 2268 
Q 2250 2553 1709 2553 
Q 1456 2553 1204 2497 
Q 953 2441 691 2322 
L 691 4666 
z
" transform="scale(0.015625)"/>
       </defs>
       <use xlink:href="#DejaVuSans-2212"/>
       <use xlink:href="#DejaVuSans-37" x="83.789062"/>
       <use xlink:href="#DejaVuSans-35" x="147.412109"/>
      </g>
     </g>
    </g>
    <g id="ytick_2">
     <g id="line2d_5">
      <g>
       <use xlink:href="#ma267d3bf11" x="54" y="314.617604" style="stroke: #000000; stroke-width: 0.8"/>
      </g>
     </g>
     <g id="text_5">
      <!-- −50 -->
      <g transform="translate(25.895312 318.416823) scale(0.1 -0.1)">
       <defs>
        <path id="DejaVuSans-30" d="M 2034 4250 
Q 1547 4250 1301 3770 
Q 1056 3291 1056 2328 
Q 1056 1369 1301 889 
Q 1547 409 2034 409 
Q 2525 409 2770 889 
Q 3016 1369 3016 2328 
Q 3016 3291 2770 3770 
Q 2525 4250 2034 4250 
z
M 2034 4750 
Q 2819 4750 3233 4129 
Q 3647 3509 3647 2328 
Q 3647 1150 3233 529 
Q 2819 -91 2034 -91 
Q 1250 -91 836 529 
Q 422 1150 422 2328 
Q 422 3509 836 4129 
Q 1250 4750 2034 4750 
z
" transform="scale(0.015625)"/>
       </defs>
       <use xlink:href="#DejaVuSans-2212"/>
       <use xlink:href="#DejaVuSans-35" x="83.789062"/>
       <use xlink:href="#DejaVuSans-30" x="147.412109"/>
      </g>
     </g>
    </g>
    <g id="ytick_3">
     <g id="line2d_6">
      <g>
       <use xlink:href="#ma267d3bf11" x="54" y="271.949157" style="stroke: #000000; stroke-width: 0.8"/>
      </g>
     </g>
     <g id="text_6">
      <!-- −25 -->
      <g transform="translate(25.895312 275.748376) scale(0.1 -0.1)">
       <defs>
        <path id="DejaVuSans-32" d="M 1228 531 
L 3431 531 
L 3431 0 
L 469 0 
L 469 531 
Q 828 903 1448 1529 
Q 2069 2156 2228 2338 
Q 2531 2678 2651 2914 
Q 2772 3150 2772 3378 
Q 2772 3750 2511 3984 
Q 2250 4219 1831 4219 
Q 1534 4219 1204 4116 
Q 875 4013 500 3803 
L 500 4441 
Q 881 4594 1212 4672 
Q 1544 4750 1819 4750 
Q 2544 4750 2975 4387 
Q 3406 4025 3406 3419 
Q 3406 3131 3298 2873 
Q 3191 2616 2906 2266 
Q 2828 2175 2409 1742 
Q 1991 1309 1228 531 
z
" transform="scale(0.015625)"/>
       </defs>
       <use xlink:href="#DejaVuSans-2212"/>
       <use xlink:href="#DejaVuSans-32" x="83.789062"/>
       <use xlink:href="#DejaVuSans-35" x="147.412109"/>
      </g>
     </g>
    </g>
    <g id="ytick_4">
     <g id="line2d_7">
      <g>
       <use xlink:href="#ma267d3bf11" x="54" y="229.28071" style="stroke: #000000; stroke-width: 0.8"/>
      </g>
     </g>
     <g id="text_7">
      <!-- 0 -->
      <g transform="translate(40.6375 233.079929) scale(0.1 -0.1)">
       <use xlink:href="#DejaVuSans-30"/>
      </g>
     </g>
    </g>
    <g id="ytick_5">
     <g id="line2d_8">
      <g>
       <use xlink:href="#ma267d3bf11" x="54" y="186.612263" style="stroke: #000000; stroke-width: 0.8"/>
      </g>
     </g>
     <g id="text_8">
      <!-- 25 -->
      <g transform="translate(34.275 190.411482) scale(0.1 -0.1)">
       <use xlink:href="#DejaVuSans-32"/>
       <use xlink:href="#DejaVuSans-35" x="63.623047"/>
      </g>
     </g>
    </g>
    <g id="ytick_6">
     <g id="line2d_9">
      <g>
       <use xlink:href="#ma267d3bf11" x="54" y="143.943816" style="stroke: #000000; stroke-width: 0.8"/>
      </g>
     </g>
     <g id="text_9">
      <!-- 50 -->
      <g transform="translate(34.275 147.743035) scale(0.1 -0.1)">
       <use xlink:href="#DejaVuSans-35"/>
       <use xlink:href="#DejaVuSans-30" x="63.623047"/>
      </g>
     </g>
    </g>
    <g id="ytick_7">
     <g id="line2d_10">
      <g>
       <use xlink:href="#ma267d3bf11" x="54" y="101.275369" style="stroke: #000000; stroke-width: 0.8"/>
      </g>
     </g>
     <g id="text_10">
      <!-- 75 -->
      <g transform="translate(34.275 105.074588) scale(0.1 -0.1)">
       <use xlink:href="#DejaVuSans-37"/>
       <use xlink:href="#DejaVuSans-35" x="63.623047"/>
      </g>
     </g>
    </g>
    <g id="ytick_8">
     <g id="line2d_11">
      <g>
       <use xlink:href="#ma267d3bf11" x="54" y="58.606922" style="stroke: #000000; stroke-width: 0.8"/>
      </g>
     </g>
     <g id="text_11">
      <!-- 100 -->
      <g transform="translate(27.9125 62.406141) scale(0.1 -0.1)">
       <defs>
        <path id="DejaVuSans-31" d="M 794 531 
L 1825 531 
L 1825 4091 
L 703 3866 
L 703 4441 
L 1819 4666 
L 2450 4666 
L 2450 531 
L 3481 531 
L 3481 0 
L 794 0 
L 794 531 
z
" transform="scale(0.015625)"/>
       </defs>
       <use xlink:href="#DejaVuSans-31"/>
       <use xlink:href="#DejaVuSans-30" x="63.623047"/>
       <use xlink:href="#DejaVuSans-30" x="127.246094"/>
      </g>
     </g>
    </g>
    <g id="text_12">
     <!-- Relative change in RMSE -->
     <g transform="translate(19.815625 280.1725) rotate(-90) scale(0.1 -0.1)">
      <defs>
       <path id="DejaVuSans-52" d="M 2841 2188 
Q 3044 2119 3236 1894 
Q 3428 1669 3622 1275 
L 4263 0 
L 3584 0 
L 2988 1197 
Q 2756 1666 2539 1819 
Q 2322 1972 1947 1972 
L 1259 1972 
L 1259 0 
L 628 0 
L 628 4666 
L 2053 4666 
Q 2853 4666 3247 4331 
Q 3641 3997 3641 3322 
Q 3641 2881 3436 2590 
Q 3231 2300 2841 2188 
z
M 1259 4147 
L 1259 2491 
L 2053 2491 
Q 2509 2491 2742 2702 
Q 2975 2913 2975 3322 
Q 2975 3731 2742 3939 
Q 2509 4147 2053 4147 
L 1259 4147 
z
" transform="scale(0.015625)"/>
       <path id="DejaVuSans-65" d="M 3597 1894 
L 3597 1613 
L 953 1613 
Q 991 1019 1311 708 
Q 1631 397 2203 397 
Q 2534 397 2845 478 
Q 3156 559 3463 722 
L 3463 178 
Q 3153 47 2828 -22 
Q 2503 -91 2169 -91 
Q 1331 -91 842 396 
Q 353 884 353 1716 
Q 353 2575 817 3079 
Q 1281 3584 2069 3584 
Q 2775 3584 3186 3129 
Q 3597 2675 3597 1894 
z
M 3022 2063 
Q 3016 2534 2758 2815 
Q 2500 3097 2075 3097 
Q 1594 3097 1305 2825 
Q 1016 2553 972 2059 
L 3022 2063 
z
" transform="scale(0.015625)"/>
       <path id="DejaVuSans-6c" d="M 603 4863 
L 1178 4863 
L 1178 0 
L 603 0 
L 603 4863 
z
" transform="scale(0.015625)"/>
       <path id="DejaVuSans-61" d="M 2194 1759 
Q 1497 1759 1228 1600 
Q 959 1441 959 1056 
Q 959 750 1161 570 
Q 1363 391 1709 391 
Q 2188 391 2477 730 
Q 2766 1069 2766 1631 
L 2766 1759 
L 2194 1759 
z
M 3341 1997 
L 3341 0 
L 2766 0 
L 2766 531 
Q 2569 213 2275 61 
Q 1981 -91 1556 -91 
Q 1019 -91 701 211 
Q 384 513 384 1019 
Q 384 1609 779 1909 
Q 1175 2209 1959 2209 
L 2766 2209 
L 2766 2266 
Q 2766 2663 2505 2880 
Q 2244 3097 1772 3097 
Q 1472 3097 1187 3025 
Q 903 2953 641 2809 
L 641 3341 
Q 956 3463 1253 3523 
Q 1550 3584 1831 3584 
Q 2591 3584 2966 3190 
Q 3341 2797 3341 1997 
z
" transform="scale(0.015625)"/>
       <path id="DejaVuSans-74" d="M 1172 4494 
L 1172 3500 
L 2356 3500 
L 2356 3053 
L 1172 3053 
L 1172 1153 
Q 1172 725 1289 603 
Q 1406 481 1766 481 
L 2356 481 
L 2356 0 
L 1766 0 
Q 1100 0 847 248 
Q 594 497 594 1153 
L 594 3053 
L 172 3053 
L 172 3500 
L 594 3500 
L 594 4494 
L 1172 4494 
z
" transform="scale(0.015625)"/>
       <path id="DejaVuSans-69" d="M 603 3500 
L 1178 3500 
L 1178 0 
L 603 0 
L 603 3500 
z
M 603 4863 
L 1178 4863 
L 1178 4134 
L 603 4134 
L 603 4863 
z
" transform="scale(0.015625)"/>
       <path id="DejaVuSans-76" d="M 191 3500 
L 800 3500 
L 1894 563 
L 2988 3500 
L 3597 3500 
L 2284 0 
L 1503 0 
L 191 3500 
z
" transform="scale(0.015625)"/>
       <path id="DejaVuSans-20" transform="scale(0.015625)"/>
       <path id="DejaVuSans-63" d="M 3122 3366 
L 3122 2828 
Q 2878 2963 2633 3030 
Q 2388 3097 2138 3097 
Q 1578 3097 1268 2742 
Q 959 2388 959 1747 
Q 959 1106 1268 751 
Q 1578 397 2138 397 
Q 2388 397 2633 464 
Q 2878 531 3122 666 
L 3122 134 
Q 2881 22 2623 -34 
Q 2366 -91 2075 -91 
Q 1284 -91 818 406 
Q 353 903 353 1747 
Q 353 2603 823 3093 
Q 1294 3584 2113 3584 
Q 2378 3584 2631 3529 
Q 2884 3475 3122 3366 
z
" transform="scale(0.015625)"/>
       <path id="DejaVuSans-68" d="M 3513 2113 
L 3513 0 
L 2938 0 
L 2938 2094 
Q 2938 2591 2744 2837 
Q 2550 3084 2163 3084 
Q 1697 3084 1428 2787 
Q 1159 2491 1159 1978 
L 1159 0 
L 581 0 
L 581 4863 
L 1159 4863 
L 1159 2956 
Q 1366 3272 1645 3428 
Q 1925 3584 2291 3584 
Q 2894 3584 3203 3211 
Q 3513 2838 3513 2113 
z
" transform="scale(0.015625)"/>
       <path id="DejaVuSans-6e" d="M 3513 2113 
L 3513 0 
L 2938 0 
L 2938 2094 
Q 2938 2591 2744 2837 
Q 2550 3084 2163 3084 
Q 1697 3084 1428 2787 
Q 1159 2491 1159 1978 
L 1159 0 
L 581 0 
L 581 3500 
L 1159 3500 
L 1159 2956 
Q 1366 3272 1645 3428 
Q 1925 3584 2291 3584 
Q 2894 3584 3203 3211 
Q 3513 2838 3513 2113 
z
" transform="scale(0.015625)"/>
       <path id="DejaVuSans-67" d="M 2906 1791 
Q 2906 2416 2648 2759 
Q 2391 3103 1925 3103 
Q 1463 3103 1205 2759 
Q 947 2416 947 1791 
Q 947 1169 1205 825 
Q 1463 481 1925 481 
Q 2391 481 2648 825 
Q 2906 1169 2906 1791 
z
M 3481 434 
Q 3481 -459 3084 -895 
Q 2688 -1331 1869 -1331 
Q 1566 -1331 1297 -1286 
Q 1028 -1241 775 -1147 
L 775 -588 
Q 1028 -725 1275 -790 
Q 1522 -856 1778 -856 
Q 2344 -856 2625 -561 
Q 2906 -266 2906 331 
L 2906 616 
Q 2728 306 2450 153 
Q 2172 0 1784 0 
Q 1141 0 747 490 
Q 353 981 353 1791 
Q 353 2603 747 3093 
Q 1141 3584 1784 3584 
Q 2172 3584 2450 3431 
Q 2728 3278 2906 2969 
L 2906 3500 
L 3481 3500 
L 3481 434 
z
" transform="scale(0.015625)"/>
       <path id="DejaVuSans-4d" d="M 628 4666 
L 1569 4666 
L 2759 1491 
L 3956 4666 
L 4897 4666 
L 4897 0 
L 4281 0 
L 4281 4097 
L 3078 897 
L 2444 897 
L 1241 4097 
L 1241 0 
L 628 0 
L 628 4666 
z
" transform="scale(0.015625)"/>
       <path id="DejaVuSans-45" d="M 628 4666 
L 3578 4666 
L 3578 4134 
L 1259 4134 
L 1259 2753 
L 3481 2753 
L 3481 2222 
L 1259 2222 
L 1259 531 
L 3634 531 
L 3634 0 
L 628 0 
L 628 4666 
z
" transform="scale(0.015625)"/>
      </defs>
      <use xlink:href="#DejaVuSans-52"/>
      <use xlink:href="#DejaVuSans-65" x="64.982422"/>
      <use xlink:href="#DejaVuSans-6c" x="126.505859"/>
      <use xlink:href="#DejaVuSans-61" x="154.289062"/>
      <use xlink:href="#DejaVuSans-74" x="215.568359"/>
      <use xlink:href="#DejaVuSans-69" x="254.777344"/>
      <use xlink:href="#DejaVuSans-76" x="282.560547"/>
      <use xlink:href="#DejaVuSans-65" x="341.740234"/>
      <use xlink:href="#DejaVuSans-20" x="403.263672"/>
      <use xlink:href="#DejaVuSans-63" x="435.050781"/>
      <use xlink:href="#DejaVuSans-68" x="490.03125"/>
      <use xlink:href="#DejaVuSans-61" x="553.410156"/>
      <use xlink:href="#DejaVuSans-6e" x="614.689453"/>
      <use xlink:href="#DejaVuSans-67" x="678.068359"/>
      <use xlink:href="#DejaVuSans-65" x="741.544922"/>
      <use xlink:href="#DejaVuSans-20" x="803.068359"/>
      <use xlink:href="#DejaVuSans-69" x="834.855469"/>
      <use xlink:href="#DejaVuSans-6e" x="862.638672"/>
      <use xlink:href="#DejaVuSans-20" x="926.017578"/>
      <use xlink:href="#DejaVuSans-52" x="957.804688"/>
      <use xlink:href="#DejaVuSans-4d" x="1027.287109"/>
      <use xlink:href="#DejaVuSans-53" x="1113.566406"/>
      <use xlink:href="#DejaVuSans-45" x="1177.042969"/>
     </g>
    </g>
   </g>
   <g id="LineCollection_1">
    <path d="M 84.436364 326.518459 
L 114.872727 326.518459 
" clip-path="url(#pebb12ae610)" style="fill: none; stroke: #1f77b4; stroke-width: 1.5"/>
    <path d="M 206.181818 314.157385 
L 236.618182 314.157385 
" clip-path="url(#pebb12ae610)" style="fill: none; stroke: #1f77b4; stroke-width: 1.5"/>
    <path d="M 327.927273 209.572403 
L 358.363636 209.572403 
" clip-path="url(#pebb12ae610)" style="fill: none; stroke: #1f77b4; stroke-width: 1.5"/>
   </g>
   <g id="LineCollection_2">
    <path d="M 84.436364 275.336192 
L 114.872727 275.336192 
" clip-path="url(#pebb12ae610)" style="fill: none; stroke: #1f77b4; stroke-width: 1.5"/>
    <path d="M 206.181818 200.581093 
L 236.618182 200.581093 
" clip-path="url(#pebb12ae610)" style="fill: none; stroke: #1f77b4; stroke-width: 1.5"/>
    <path d="M 327.927273 66.96 
L 358.363636 66.96 
" clip-path="url(#pebb12ae610)" style="fill: none; stroke: #1f77b4; stroke-width: 1.5"/>
   </g>
   <g id="LineCollection_3">
    <path d="M 84.436364 369.36 
L 114.872727 369.36 
" clip-path="url(#pebb12ae610)" style="fill: none; stroke: #1f77b4; stroke-width: 1.5"/>
    <path d="M 206.181818 357.161774 
L 236.618182 357.161774 
" clip-path="url(#pebb12ae610)" style="fill: none; stroke: #1f77b4; stroke-width: 1.5"/>
    <path d="M 327.927273 309.942632 
L 358.363636 309.942632 
" clip-path="url(#pebb12ae610)" style="fill: none; stroke: #1f77b4; stroke-width: 1.5"/>
   </g>
   <g id="LineCollection_4">
    <path d="M 99.654545 369.36 
L 99.654545 275.336192 
" clip-path="url(#pebb12ae610)" style="fill: none; stroke: #1f77b4; stroke-width: 1.5"/>
    <path d="M 221.4 357.161774 
L 221.4 200.581093 
" clip-path="url(#pebb12ae610)" style="fill: none; stroke: #1f77b4; stroke-width: 1.5"/>
    <path d="M 343.145455 309.942632 
L 343.145455 66.96 
" clip-path="url(#pebb12ae610)" style="fill: none; stroke: #1f77b4; stroke-width: 1.5"/>
   </g>
   <g id="patch_3">
    <path d="M 54 384.48 
L 54 51.84 
" style="fill: none; stroke: #000000; stroke-width: 0.8; stroke-linejoin: miter; stroke-linecap: square"/>
   </g>
   <g id="patch_4">
    <path d="M 388.8 384.48 
L 388.8 51.84 
" style="fill: none; stroke: #000000; stroke-width: 0.8; stroke-linejoin: miter; stroke-linecap: square"/>
   </g>
   <g id="patch_5">
    <path d="M 54 384.48 
L 388.8 384.48 
" style="fill: none; stroke: #000000; stroke-width: 0.8; stroke-linejoin: miter; stroke-linecap: square"/>
   </g>
   <g id="patch_6">
    <path d="M 54 51.84 
L 388.8 51.84 
" style="fill: none; stroke: #000000; stroke-width: 0.8; stroke-linejoin: miter; stroke-linecap: square"/>
   </g>
   <g id="text_13">
    <!-- Change in RMSE between NF and catch RT4 -->
    <g transform="translate(89.843438 45.84) scale(0.12 -0.12)">
     <defs>
      <path id="DejaVuSans-43" d="M 4122 4306 
L 4122 3641 
Q 3803 3938 3442 4084 
Q 3081 4231 2675 4231 
Q 1875 4231 1450 3742 
Q 1025 3253 1025 2328 
Q 1025 1406 1450 917 
Q 1875 428 2675 428 
Q 3081 428 3442 575 
Q 3803 722 4122 1019 
L 4122 359 
Q 3791 134 3420 21 
Q 3050 -91 2638 -91 
Q 1578 -91 968 557 
Q 359 1206 359 2328 
Q 359 3453 968 4101 
Q 1578 4750 2638 4750 
Q 3056 4750 3426 4639 
Q 3797 4528 4122 4306 
z
" transform="scale(0.015625)"/>
      <path id="DejaVuSans-62" d="M 3116 1747 
Q 3116 2381 2855 2742 
Q 2594 3103 2138 3103 
Q 1681 3103 1420 2742 
Q 1159 2381 1159 1747 
Q 1159 1113 1420 752 
Q 1681 391 2138 391 
Q 2594 391 2855 752 
Q 3116 1113 3116 1747 
z
M 1159 2969 
Q 1341 3281 1617 3432 
Q 1894 3584 2278 3584 
Q 2916 3584 3314 3078 
Q 3713 2572 3713 1747 
Q 3713 922 3314 415 
Q 2916 -91 2278 -91 
Q 1894 -91 1617 61 
Q 1341 213 1159 525 
L 1159 0 
L 581 0 
L 581 4863 
L 1159 4863 
L 1159 2969 
z
" transform="scale(0.015625)"/>
      <path id="DejaVuSans-77" d="M 269 3500 
L 844 3500 
L 1563 769 
L 2278 3500 
L 2956 3500 
L 3675 769 
L 4391 3500 
L 4966 3500 
L 4050 0 
L 3372 0 
L 2619 2869 
L 1863 0 
L 1184 0 
L 269 3500 
z
" transform="scale(0.015625)"/>
      <path id="DejaVuSans-64" d="M 2906 2969 
L 2906 4863 
L 3481 4863 
L 3481 0 
L 2906 0 
L 2906 525 
Q 2725 213 2448 61 
Q 2172 -91 1784 -91 
Q 1150 -91 751 415 
Q 353 922 353 1747 
Q 353 2572 751 3078 
Q 1150 3584 1784 3584 
Q 2172 3584 2448 3432 
Q 2725 3281 2906 2969 
z
M 947 1747 
Q 947 1113 1208 752 
Q 1469 391 1925 391 
Q 2381 391 2643 752 
Q 2906 1113 2906 1747 
Q 2906 2381 2643 2742 
Q 2381 3103 1925 3103 
Q 1469 3103 1208 2742 
Q 947 2381 947 1747 
z
" transform="scale(0.015625)"/>
      <path id="DejaVuSans-34" d="M 2419 4116 
L 825 1625 
L 2419 1625 
L 2419 4116 
z
M 2253 4666 
L 3047 4666 
L 3047 1625 
L 3713 1625 
L 3713 1100 
L 3047 1100 
L 3047 0 
L 2419 0 
L 2419 1100 
L 313 1100 
L 313 1709 
L 2253 4666 
z
" transform="scale(0.015625)"/>
     </defs>
     <use xlink:href="#DejaVuSans-43"/>
     <use xlink:href="#DejaVuSans-68" x="69.824219"/>
     <use xlink:href="#DejaVuSans-61" x="133.203125"/>
     <use xlink:href="#DejaVuSans-6e" x="194.482422"/>
     <use xlink:href="#DejaVuSans-67" x="257.861328"/>
     <use xlink:href="#DejaVuSans-65" x="321.337891"/>
     <use xlink:href="#DejaVuSans-20" x="382.861328"/>
     <use xlink:href="#DejaVuSans-69" x="414.648438"/>
     <use xlink:href="#DejaVuSans-6e" x="442.431641"/>
     <use xlink:href="#DejaVuSans-20" x="505.810547"/>
     <use xlink:href="#DejaVuSans-52" x="537.597656"/>
     <use xlink:href="#DejaVuSans-4d" x="607.080078"/>
     <use xlink:href="#DejaVuSans-53" x="693.359375"/>
     <use xlink:href="#DejaVuSans-45" x="756.835938"/>
     <use xlink:href="#DejaVuSans-20" x="820.019531"/>
     <use xlink:href="#DejaVuSans-62" x="851.806641"/>
     <use xlink:href="#DejaVuSans-65" x="915.283203"/>
     <use xlink:href="#DejaVuSans-74" x="976.806641"/>
     <use xlink:href="#DejaVuSans-77" x="1016.015625"/>
     <use xlink:href="#DejaVuSans-65" x="1097.802734"/>
     <use xlink:href="#DejaVuSans-65" x="1159.326172"/>
     <use xlink:href="#DejaVuSans-6e" x="1220.849609"/>
     <use xlink:href="#DejaVuSans-20" x="1284.228516"/>
     <use xlink:href="#DejaVuSans-4e" x="1316.015625"/>
     <use xlink:href="#DejaVuSans-46" x="1390.820312"/>
     <use xlink:href="#DejaVuSans-20" x="1448.339844"/>
     <use xlink:href="#DejaVuSans-61" x="1480.126953"/>
     <use xlink:href="#DejaVuSans-6e" x="1541.40625"/>
     <use xlink:href="#DejaVuSans-64" x="1604.785156"/>
     <use xlink:href="#DejaVuSans-20" x="1668.261719"/>
     <use xlink:href="#DejaVuSans-63" x="1700.048828"/>
     <use xlink:href="#DejaVuSans-61" x="1755.029297"/>
     <use xlink:href="#DejaVuSans-74" x="1816.308594"/>
     <use xlink:href="#DejaVuSans-63" x="1855.517578"/>
     <use xlink:href="#DejaVuSans-68" x="1910.498047"/>
     <use xlink:href="#DejaVuSans-20" x="1973.876953"/>
     <use xlink:href="#DejaVuSans-52" x="2005.664062"/>
     <use xlink:href="#DejaVuSans-54" x="2067.896484"/>
     <use xlink:href="#DejaVuSans-34" x="2128.980469"/>
    </g>
   </g>
  </g>
 </g>
 <defs>
  <clipPath id="pebb12ae610">
   <rect x="54" y="51.84" width="334.8" height="332.64"/>
  </clipPath>
 </defs>
</svg>
