<?xml version="1.0" encoding="utf-8" standalone="no"?>
<!DOCTYPE svg PUBLIC "-//W3C//DTD SVG 1.1//EN"
  "http://www.w3.org/Graphics/SVG/1.1/DTD/svg11.dtd">
<svg xmlns:xlink="http://www.w3.org/1999/xlink" width="432pt" height="432pt" viewBox="0 0 432 432" xmlns="http://www.w3.org/2000/svg" version="1.1">
 <metadata>
  <rdf:RDF xmlns:dc="http://purl.org/dc/elements/1.1/" xmlns:cc="http://creativecommons.org/ns#" xmlns:rdf="http://www.w3.org/1999/02/22-rdf-syntax-ns#">
   <cc:Work>
    <dc:type rdf:resource="http://purl.org/dc/dcmitype/StillImage"/>
    <dc:date>2024-09-25T12:40:07.192790</dc:date>
    <dc:format>image/svg+xml</dc:format>
    <dc:creator>
     <cc:Agent>
      <dc:title>Matplotlib v3.8.0, https://matplotlib.org/</dc:title>
     </cc:Agent>
    </dc:creator>
   </cc:Work>
  </rdf:RDF>
 </metadata>
 <defs>
  <style type="text/css">*{stroke-linejoin: round; stroke-linecap: butt}</style>
 </defs>
 <g id="figure_1">
  <g id="patch_1">
   <path d="M 0 432 
L 432 432 
L 432 0 
L 0 0 
z
" style="fill: #ffffff"/>
  </g>
  <g id="axes_1">
   <g id="patch_2">
    <path d="M 54 384.48 
L 388.8 384.48 
L 388.8 51.84 
L 54 51.84 
z
" style="fill: #ffffff"/>
   </g>
   <g id="PolyCollection_1">
    <path d="M 115.767282 368.81426 
L 83.541809 368.81426 
L 82.801335 367.419007 
L 82.06443 366.023755 
L 81.333671 364.628503 
L 80.611577 363.23325 
L 79.900584 361.837998 
L 79.203019 360.442746 
L 78.521078 359.047493 
L 77.8568 357.652241 
L 77.212052 356.256988 
L 76.588514 354.861736 
L 75.987662 353.466484 
L 75.410764 352.071231 
L 74.858874 350.675979 
L 74.33283 349.280727 
L 73.833262 347.885474 
L 73.360594 346.490222 
L 72.91506 345.09497 
L 72.49672 343.699717 
L 72.105474 342.304465 
L 71.741088 340.909212 
L 71.403216 339.51396 
L 71.091426 338.118708 
L 70.805227 336.723455 
L 70.544096 335.328203 
L 70.307504 333.932951 
L 70.094948 332.537698 
L 69.905966 331.142446 
L 69.740171 329.747194 
L 69.59726 328.351941 
L 69.477039 326.956689 
L 69.379434 325.561436 
L 69.304494 324.166184 
L 69.252406 322.770932 
L 69.223487 321.375679 
L 69.218182 319.980427 
L 69.237057 318.585175 
L 69.280784 317.189922 
L 69.350125 315.79467 
L 69.445913 314.399417 
L 69.569023 313.004165 
L 69.720353 311.608913 
L 69.900792 310.21366 
L 70.111188 308.818408 
L 70.352322 307.423156 
L 70.624876 306.027903 
L 70.929402 304.632651 
L 71.266296 303.237399 
L 71.635767 301.842146 
L 72.03782 300.446894 
L 72.472227 299.051641 
L 72.938514 297.656389 
L 73.435948 296.261137 
L 73.963524 294.865884 
L 74.519964 293.470632 
L 75.103713 292.07538 
L 75.712946 290.680127 
L 76.345577 289.284875 
L 76.99927 287.889623 
L 77.671462 286.49437 
L 78.359379 285.099118 
L 79.06007 283.703865 
L 79.770429 282.308613 
L 80.487235 280.913361 
L 81.207181 279.518108 
L 81.926918 278.122856 
L 82.643088 276.727604 
L 83.352368 275.332351 
L 84.051508 273.937099 
L 84.737371 272.541847 
L 85.406972 271.146594 
L 86.057516 269.751342 
L 86.686427 268.356089 
L 87.291387 266.960837 
L 87.870357 265.565585 
L 88.421605 264.170332 
L 88.943724 262.77508 
L 89.435647 261.379828 
L 89.896656 259.984575 
L 90.326383 258.589323 
L 90.724814 257.19407 
L 91.092279 255.798818 
L 91.429439 254.403566 
L 91.73727 253.008313 
L 92.017041 251.613061 
L 92.270286 250.217809 
L 92.498773 248.822556 
L 92.704472 247.427304 
L 92.889519 246.032052 
L 93.056173 244.636799 
L 93.206781 243.241547 
L 93.343735 241.846294 
L 93.469432 240.451042 
L 93.586238 239.05579 
L 93.696447 237.660537 
L 93.802248 236.265285 
L 93.905697 234.870033 
L 94.008682 233.47478 
L 94.112906 232.079528 
L 94.219866 230.684276 
L 105.089225 230.684276 
L 105.089225 230.684276 
L 105.196185 232.079528 
L 105.300409 233.47478 
L 105.403394 234.870033 
L 105.506843 236.265285 
L 105.612644 237.660537 
L 105.722853 239.05579 
L 105.839659 240.451042 
L 105.965356 241.846294 
L 106.10231 243.241547 
L 106.252918 244.636799 
L 106.419572 246.032052 
L 106.604619 247.427304 
L 106.810318 248.822556 
L 107.038805 250.217809 
L 107.29205 251.613061 
L 107.571821 253.008313 
L 107.879652 254.403566 
L 108.216812 255.798818 
L 108.584277 257.19407 
L 108.982708 258.589323 
L 109.412435 259.984575 
L 109.873443 261.379828 
L 110.365367 262.77508 
L 110.887486 264.170332 
L 111.438734 265.565585 
L 112.017704 266.960837 
L 112.622664 268.356089 
L 113.251575 269.751342 
L 113.902119 271.146594 
L 114.57172 272.541847 
L 115.257583 273.937099 
L 115.956723 275.332351 
L 116.666003 276.727604 
L 117.382173 278.122856 
L 118.101909 279.518108 
L 118.821856 280.913361 
L 119.538662 282.308613 
L 120.249021 283.703865 
L 120.949711 285.099118 
L 121.637629 286.49437 
L 122.30982 287.889623 
L 122.963514 289.284875 
L 123.596145 290.680127 
L 124.205378 292.07538 
L 124.789127 293.470632 
L 125.345567 294.865884 
L 125.873143 296.261137 
L 126.370577 297.656389 
L 126.836864 299.051641 
L 127.271271 300.446894 
L 127.673324 301.842146 
L 128.042795 303.237399 
L 128.379689 304.632651 
L 128.684215 306.027903 
L 128.956769 307.423156 
L 129.197903 308.818408 
L 129.408299 310.21366 
L 129.588737 311.608913 
L 129.740068 313.004165 
L 129.863178 314.399417 
L 129.958966 315.79467 
L 130.028307 317.189922 
L 130.072034 318.585175 
L 130.090909 319.980427 
L 130.085604 321.375679 
L 130.056685 322.770932 
L 130.004597 324.166184 
L 129.929657 325.561436 
L 129.832051 326.956689 
L 129.711831 328.351941 
L 129.56892 329.747194 
L 129.403125 331.142446 
L 129.214143 332.537698 
L 129.001587 333.932951 
L 128.764995 335.328203 
L 128.503864 336.723455 
L 128.217665 338.118708 
L 127.905874 339.51396 
L 127.568002 340.909212 
L 127.203617 342.304465 
L 126.812371 343.699717 
L 126.39403 345.09497 
L 125.948497 346.490222 
L 125.475829 347.885474 
L 124.976261 349.280727 
L 124.450217 350.675979 
L 123.898327 352.071231 
L 123.321429 353.466484 
L 122.720577 354.861736 
L 122.097039 356.256988 
L 121.452291 357.652241 
L 120.788013 359.047493 
L 120.106072 360.442746 
L 119.408507 361.837998 
L 118.697514 363.23325 
L 117.97542 364.628503 
L 117.244661 366.023755 
L 116.507756 367.419007 
L 115.767282 368.81426 
z
" clip-path="url(#p94ab539c93)" style="fill: #1f77b4; fill-opacity: 0.3"/>
   </g>
   <g id="PolyCollection_2">
    <path d="M 242.175728 369.36 
L 200.624272 369.36 
L 199.792118 367.054292 
L 198.977032 364.748584 
L 198.182884 362.442876 
L 197.413495 360.137168 
L 196.672603 357.83146 
L 195.963835 355.525752 
L 195.290679 353.220044 
L 194.656451 350.914336 
L 194.064276 348.608628 
L 193.51706 346.30292 
L 193.01747 343.997212 
L 192.567914 341.691504 
L 192.170528 339.385796 
L 191.827156 337.080088 
L 191.539343 334.77438 
L 191.308325 332.468672 
L 191.135022 330.162964 
L 191.020033 327.857256 
L 190.963636 325.551548 
L 190.96579 323.24584 
L 191.026131 320.940132 
L 191.143984 318.634424 
L 191.318364 316.328716 
L 191.547988 314.023008 
L 191.83128 311.7173 
L 192.166388 309.411592 
L 192.551194 307.105884 
L 192.983329 304.800176 
L 193.46019 302.494468 
L 193.978955 300.18876 
L 194.536607 297.883052 
L 195.129948 295.577344 
L 195.755626 293.271636 
L 196.410155 290.965928 
L 197.089942 288.66022 
L 197.791307 286.354512 
L 198.510516 284.048804 
L 199.243803 281.743096 
L 199.987398 279.437388 
L 200.737559 277.13168 
L 201.490594 274.825972 
L 202.242893 272.520264 
L 202.990955 270.214556 
L 203.731411 267.908848 
L 204.461054 265.60314 
L 205.176861 263.297432 
L 205.876011 260.991724 
L 206.555912 258.686016 
L 207.214213 256.380308 
L 207.848819 254.0746 
L 208.457904 251.768892 
L 209.039918 249.463184 
L 209.593592 247.157476 
L 210.117942 244.851768 
L 210.612263 242.54606 
L 211.076127 240.240352 
L 211.509371 237.934644 
L 211.91209 235.628936 
L 212.28462 233.323228 
L 212.627523 231.01752 
L 212.941565 228.711812 
L 213.227698 226.406104 
L 213.487037 224.100396 
L 213.720838 221.794688 
L 213.930475 219.48898 
L 214.117413 217.183272 
L 214.283191 214.877564 
L 214.429396 212.571856 
L 214.557644 210.266148 
L 214.669558 207.96044 
L 214.766755 205.654732 
L 214.850827 203.349024 
L 214.923327 201.043316 
L 214.985761 198.737608 
L 215.039577 196.4319 
L 215.086157 194.126192 
L 215.126814 191.820484 
L 215.16279 189.514776 
L 215.195249 187.209068 
L 215.225284 184.90336 
L 215.253915 182.597652 
L 215.282089 180.291944 
L 215.310687 177.986236 
L 215.340524 175.680528 
L 215.372352 173.37482 
L 215.406866 171.069112 
L 215.444703 168.763404 
L 215.486445 166.457696 
L 215.532622 164.151988 
L 215.583711 161.84628 
L 215.640138 159.540572 
L 215.702275 157.234864 
L 215.770441 154.929156 
L 215.844899 152.623448 
L 215.925854 150.31774 
L 216.013452 148.012032 
L 216.107778 145.706324 
L 216.208851 143.400616 
L 216.316626 141.094908 
L 226.483374 141.094908 
L 226.483374 141.094908 
L 226.591149 143.400616 
L 226.692222 145.706324 
L 226.786548 148.012032 
L 226.874146 150.31774 
L 226.955101 152.623448 
L 227.029559 154.929156 
L 227.097725 157.234864 
L 227.159862 159.540572 
L 227.216289 161.84628 
L 227.267378 164.151988 
L 227.313555 166.457696 
L 227.355297 168.763404 
L 227.393134 171.069112 
L 227.427648 173.37482 
L 227.459476 175.680528 
L 227.489313 177.986236 
L 227.517911 180.291944 
L 227.546085 182.597652 
L 227.574716 184.90336 
L 227.604751 187.209068 
L 227.63721 189.514776 
L 227.673186 191.820484 
L 227.713843 194.126192 
L 227.760423 196.4319 
L 227.814239 198.737608 
L 227.876673 201.043316 
L 227.949173 203.349024 
L 228.033245 205.654732 
L 228.130442 207.96044 
L 228.242356 210.266148 
L 228.370604 212.571856 
L 228.516809 214.877564 
L 228.682587 217.183272 
L 228.869525 219.48898 
L 229.079162 221.794688 
L 229.312963 224.100396 
L 229.572302 226.406104 
L 229.858435 228.711812 
L 230.172477 231.01752 
L 230.51538 233.323228 
L 230.88791 235.628936 
L 231.290629 237.934644 
L 231.723873 240.240352 
L 232.187737 242.54606 
L 232.682058 244.851768 
L 233.206408 247.157476 
L 233.760082 249.463184 
L 234.342096 251.768892 
L 234.951181 254.0746 
L 235.585787 256.380308 
L 236.244088 258.686016 
L 236.923989 260.991724 
L 237.623139 263.297432 
L 238.338946 265.60314 
L 239.068589 267.908848 
L 239.809045 270.214556 
L 240.557107 272.520264 
L 241.309406 274.825972 
L 242.062441 277.13168 
L 242.812602 279.437388 
L 243.556197 281.743096 
L 244.289484 284.048804 
L 245.008693 286.354512 
L 245.710058 288.66022 
L 246.389845 290.965928 
L 247.044374 293.271636 
L 247.670052 295.577344 
L 248.263393 297.883052 
L 248.821045 300.18876 
L 249.33981 302.494468 
L 249.816671 304.800176 
L 250.248806 307.105884 
L 250.633612 309.411592 
L 250.96872 311.7173 
L 251.252012 314.023008 
L 251.481636 316.328716 
L 251.656016 318.634424 
L 251.773869 320.940132 
L 251.83421 323.24584 
L 251.836364 325.551548 
L 251.779967 327.857256 
L 251.664978 330.162964 
L 251.491675 332.468672 
L 251.260657 334.77438 
L 250.972844 337.080088 
L 250.629472 339.385796 
L 250.232086 341.691504 
L 249.78253 343.997212 
L 249.28294 346.30292 
L 248.735724 348.608628 
L 248.143549 350.914336 
L 247.509321 353.220044 
L 246.836165 355.525752 
L 246.127397 357.83146 
L 245.386505 360.137168 
L 244.617116 362.442876 
L 243.822968 364.748584 
L 243.007882 367.054292 
L 242.175728 369.36 
z
" clip-path="url(#p94ab539c93)" style="fill: #1f77b4; fill-opacity: 0.3"/>
   </g>
   <g id="PolyCollection_3">
    <path d="M 361.385503 333.852537 
L 324.905406 333.852537 
L 324.113434 331.156653 
L 323.323753 328.460768 
L 322.539362 325.764884 
L 321.763358 323.069 
L 320.998915 320.373116 
L 320.249267 317.677232 
L 319.517687 314.981347 
L 318.807463 312.285463 
L 318.121878 309.589579 
L 317.464178 306.893695 
L 316.837557 304.19781 
L 316.245121 301.501926 
L 315.689868 298.806042 
L 315.174662 296.110158 
L 314.702202 293.414274 
L 314.275002 290.718389 
L 313.895364 288.022505 
L 313.565358 285.326621 
L 313.286797 282.630737 
L 313.061221 279.934853 
L 312.889878 277.238968 
L 312.773712 274.543084 
L 312.713349 271.8472 
L 312.709091 269.151316 
L 312.760909 266.455432 
L 312.868441 263.759547 
L 313.030995 261.063663 
L 313.247553 258.367779 
L 313.516778 255.671895 
L 313.837027 252.97601 
L 314.206363 250.280126 
L 314.622576 247.584242 
L 315.083201 244.888358 
L 315.585538 242.192474 
L 316.126679 239.496589 
L 316.703533 236.800705 
L 317.312853 234.104821 
L 317.951264 231.408937 
L 318.615291 228.713053 
L 319.301388 226.017168 
L 320.005965 223.321284 
L 320.725417 220.6254 
L 321.45615 217.929516 
L 322.194606 215.233632 
L 322.937288 212.537747 
L 323.680781 209.841863 
L 324.421772 207.145979 
L 325.157071 204.450095 
L 325.883625 201.75421 
L 326.598533 199.058326 
L 327.29906 196.362442 
L 327.982645 193.666558 
L 328.646912 190.970674 
L 329.289677 188.274789 
L 329.908951 185.578905 
L 330.502947 182.883021 
L 331.070082 180.187137 
L 331.608977 177.491253 
L 332.118459 174.795368 
L 332.597562 172.099484 
L 333.045525 169.4036 
L 333.461788 166.707716 
L 333.845996 164.011832 
L 334.19799 161.315947 
L 334.517807 158.620063 
L 334.805679 155.924179 
L 335.062024 153.228295 
L 335.287444 150.532411 
L 335.48272 147.836526 
L 335.648805 145.140642 
L 335.786818 142.444758 
L 335.898038 139.748874 
L 335.98389 137.052989 
L 336.045942 134.357105 
L 336.085892 131.661221 
L 336.105552 128.965337 
L 336.106843 126.269453 
L 336.091772 123.573568 
L 336.062425 120.877684 
L 336.020945 118.1818 
L 335.969515 115.485916 
L 335.910345 112.790032 
L 335.845647 110.094147 
L 335.777619 107.398263 
L 335.708426 104.702379 
L 335.640178 102.006495 
L 335.574914 99.310611 
L 335.514581 96.614726 
L 335.461017 93.918842 
L 335.415935 91.222958 
L 335.380907 88.527074 
L 335.35735 85.831189 
L 335.346511 83.135305 
L 335.349465 80.439421 
L 335.3671 77.743537 
L 335.400111 75.047653 
L 335.449004 72.351768 
L 335.514088 69.655884 
L 335.59548 66.96 
L 350.695429 66.96 
L 350.695429 66.96 
L 350.776821 69.655884 
L 350.841905 72.351768 
L 350.890798 75.047653 
L 350.92381 77.743537 
L 350.941444 80.439421 
L 350.944398 83.135305 
L 350.933559 85.831189 
L 350.910002 88.527074 
L 350.874974 91.222958 
L 350.829892 93.918842 
L 350.776329 96.614726 
L 350.715995 99.310611 
L 350.650731 102.006495 
L 350.582483 104.702379 
L 350.51329 107.398263 
L 350.445262 110.094147 
L 350.380564 112.790032 
L 350.321394 115.485916 
L 350.269964 118.1818 
L 350.228484 120.877684 
L 350.199137 123.573568 
L 350.184066 126.269453 
L 350.185357 128.965337 
L 350.205017 131.661221 
L 350.244967 134.357105 
L 350.307019 137.052989 
L 350.392871 139.748874 
L 350.504091 142.444758 
L 350.642104 145.140642 
L 350.808189 147.836526 
L 351.003465 150.532411 
L 351.228885 153.228295 
L 351.48523 155.924179 
L 351.773102 158.620063 
L 352.09292 161.315947 
L 352.444913 164.011832 
L 352.829121 166.707716 
L 353.245384 169.4036 
L 353.693347 172.099484 
L 354.17245 174.795368 
L 354.681932 177.491253 
L 355.220827 180.187137 
L 355.787962 182.883021 
L 356.381958 185.578905 
L 357.001232 188.274789 
L 357.643997 190.970674 
L 358.308264 193.666558 
L 358.991849 196.362442 
L 359.692376 199.058326 
L 360.407284 201.75421 
L 361.133838 204.450095 
L 361.869137 207.145979 
L 362.610128 209.841863 
L 363.353621 212.537747 
L 364.096303 215.233632 
L 364.834759 217.929516 
L 365.565492 220.6254 
L 366.284944 223.321284 
L 366.989521 226.017168 
L 367.675618 228.713053 
L 368.339645 231.408937 
L 368.978056 234.104821 
L 369.587376 236.800705 
L 370.164231 239.496589 
L 370.705371 242.192474 
L 371.207708 244.888358 
L 371.668333 247.584242 
L 372.084546 250.280126 
L 372.453883 252.97601 
L 372.774131 255.671895 
L 373.043356 258.367779 
L 373.259914 261.063663 
L 373.422468 263.759547 
L 373.53 266.455432 
L 373.581818 269.151316 
L 373.57756 271.8472 
L 373.517197 274.543084 
L 373.401031 277.238968 
L 373.229688 279.934853 
L 373.004112 282.630737 
L 372.725551 285.326621 
L 372.395545 288.022505 
L 372.015908 290.718389 
L 371.588708 293.414274 
L 371.116247 296.110158 
L 370.601041 298.806042 
L 370.045789 301.501926 
L 369.453353 304.19781 
L 368.826731 306.893695 
L 368.169032 309.589579 
L 367.483446 312.285463 
L 366.773222 314.981347 
L 366.041642 317.677232 
L 365.291995 320.373116 
L 364.527551 323.069 
L 363.751547 325.764884 
L 362.967156 328.460768 
L 362.177475 331.156653 
L 361.385503 333.852537 
z
" clip-path="url(#p94ab539c93)" style="fill: #1f77b4; fill-opacity: 0.3"/>
   </g>
   <g id="PathCollection_1">
    <defs>
     <path id="mafbc4ca349" d="M 0 1.936492 
C 0.513564 1.936492 1.006162 1.732451 1.369306 1.369306 
C 1.732451 1.006162 1.936492 0.513564 1.936492 0 
C 1.936492 -0.513564 1.732451 -1.006162 1.369306 -1.369306 
C 1.006162 -1.732451 0.513564 -1.936492 0 -1.936492 
C -0.513564 -1.936492 -1.006162 -1.732451 -1.369306 -1.369306 
C -1.732451 -1.006162 -1.936492 -0.513564 -1.936492 0 
C -1.936492 0.513564 -1.732451 1.006162 -1.369306 1.369306 
C -1.006162 1.732451 -0.513564 1.936492 0 1.936492 
z
" style="stroke: #1f77b4; stroke-opacity: 0.3"/>
    </defs>
    <g clip-path="url(#p94ab539c93)">
     <use xlink:href="#mafbc4ca349" x="101.610063" y="280.180537" style="fill: #1f77b4; fill-opacity: 0.3; stroke: #1f77b4; stroke-opacity: 0.3"/>
     <use xlink:href="#mafbc4ca349" x="89.299658" y="230.684276" style="fill: #1f77b4; fill-opacity: 0.3; stroke: #1f77b4; stroke-opacity: 0.3"/>
     <use xlink:href="#mafbc4ca349" x="108.403319" y="288.334021" style="fill: #1f77b4; fill-opacity: 0.3; stroke: #1f77b4; stroke-opacity: 0.3"/>
     <use xlink:href="#mafbc4ca349" x="86.0149" y="352.02059" style="fill: #1f77b4; fill-opacity: 0.3; stroke: #1f77b4; stroke-opacity: 0.3"/>
     <use xlink:href="#mafbc4ca349" x="103.329245" y="307.186113" style="fill: #1f77b4; fill-opacity: 0.3; stroke: #1f77b4; stroke-opacity: 0.3"/>
     <use xlink:href="#mafbc4ca349" x="97.569825" y="307.677621" style="fill: #1f77b4; fill-opacity: 0.3; stroke: #1f77b4; stroke-opacity: 0.3"/>
     <use xlink:href="#mafbc4ca349" x="98.011097" y="300.627502" style="fill: #1f77b4; fill-opacity: 0.3; stroke: #1f77b4; stroke-opacity: 0.3"/>
     <use xlink:href="#mafbc4ca349" x="90.359044" y="328.788097" style="fill: #1f77b4; fill-opacity: 0.3; stroke: #1f77b4; stroke-opacity: 0.3"/>
     <use xlink:href="#mafbc4ca349" x="95.042127" y="325.021773" style="fill: #1f77b4; fill-opacity: 0.3; stroke: #1f77b4; stroke-opacity: 0.3"/>
     <use xlink:href="#mafbc4ca349" x="102.096302" y="350.430592" style="fill: #1f77b4; fill-opacity: 0.3; stroke: #1f77b4; stroke-opacity: 0.3"/>
     <use xlink:href="#mafbc4ca349" x="95.674071" y="368.81426" style="fill: #1f77b4; fill-opacity: 0.3; stroke: #1f77b4; stroke-opacity: 0.3"/>
     <use xlink:href="#mafbc4ca349" x="104.266459" y="341.259194" style="fill: #1f77b4; fill-opacity: 0.3; stroke: #1f77b4; stroke-opacity: 0.3"/>
    </g>
   </g>
   <g id="PathCollection_2">
    <defs>
     <path id="m9d55239bce" d="M 0 1.936492 
C 0.513564 1.936492 1.006162 1.732451 1.369306 1.369306 
C 1.732451 1.006162 1.936492 0.513564 1.936492 0 
C 1.936492 -0.513564 1.732451 -1.006162 1.369306 -1.369306 
C 1.006162 -1.732451 0.513564 -1.936492 0 -1.936492 
C -0.513564 -1.936492 -1.006162 -1.732451 -1.369306 -1.369306 
C -1.732451 -1.006162 -1.936492 -0.513564 -1.936492 0 
C -1.936492 0.513564 -1.732451 1.006162 -1.369306 1.369306 
C -1.006162 1.732451 -0.513564 1.936492 0 1.936492 
z
" style="stroke: #ff7f0e; stroke-opacity: 0.3"/>
    </defs>
    <g clip-path="url(#p94ab539c93)">
     <use xlink:href="#m9d55239bce" x="225.46111" y="316.48687" style="fill: #ff7f0e; fill-opacity: 0.3; stroke: #ff7f0e; stroke-opacity: 0.3"/>
     <use xlink:href="#m9d55239bce" x="214.630142" y="350.377443" style="fill: #ff7f0e; fill-opacity: 0.3; stroke: #ff7f0e; stroke-opacity: 0.3"/>
     <use xlink:href="#m9d55239bce" x="224.798723" y="141.094908" style="fill: #ff7f0e; fill-opacity: 0.3; stroke: #ff7f0e; stroke-opacity: 0.3"/>
     <use xlink:href="#m9d55239bce" x="226.161067" y="292.329454" style="fill: #ff7f0e; fill-opacity: 0.3; stroke: #ff7f0e; stroke-opacity: 0.3"/>
     <use xlink:href="#m9d55239bce" x="215.9593" y="276.250116" style="fill: #ff7f0e; fill-opacity: 0.3; stroke: #ff7f0e; stroke-opacity: 0.3"/>
     <use xlink:href="#m9d55239bce" x="221.903377" y="351.190531" style="fill: #ff7f0e; fill-opacity: 0.3; stroke: #ff7f0e; stroke-opacity: 0.3"/>
     <use xlink:href="#m9d55239bce" x="220.749861" y="369.36" style="fill: #ff7f0e; fill-opacity: 0.3; stroke: #ff7f0e; stroke-opacity: 0.3"/>
     <use xlink:href="#m9d55239bce" x="219.135168" y="320.884619" style="fill: #ff7f0e; fill-opacity: 0.3; stroke: #ff7f0e; stroke-opacity: 0.3"/>
     <use xlink:href="#m9d55239bce" x="218.459226" y="294.742621" style="fill: #ff7f0e; fill-opacity: 0.3; stroke: #ff7f0e; stroke-opacity: 0.3"/>
     <use xlink:href="#m9d55239bce" x="221.065047" y="322.610795" style="fill: #ff7f0e; fill-opacity: 0.3; stroke: #ff7f0e; stroke-opacity: 0.3"/>
     <use xlink:href="#m9d55239bce" x="238.466716" y="201.126986" style="fill: #ff7f0e; fill-opacity: 0.3; stroke: #ff7f0e; stroke-opacity: 0.3"/>
     <use xlink:href="#m9d55239bce" x="223.82707" y="344.22779" style="fill: #ff7f0e; fill-opacity: 0.3; stroke: #ff7f0e; stroke-opacity: 0.3"/>
    </g>
   </g>
   <g id="PathCollection_3">
    <defs>
     <path id="mbd1ac80bd5" d="M 0 1.936492 
C 0.513564 1.936492 1.006162 1.732451 1.369306 1.369306 
C 1.732451 1.006162 1.936492 0.513564 1.936492 0 
C 1.936492 -0.513564 1.732451 -1.006162 1.369306 -1.369306 
C 1.006162 -1.732451 0.513564 -1.936492 0 -1.936492 
C -0.513564 -1.936492 -1.006162 -1.732451 -1.369306 -1.369306 
C -1.732451 -1.006162 -1.936492 -0.513564 -1.936492 0 
C -1.936492 0.513564 -1.732451 1.006162 -1.369306 1.369306 
C -1.006162 1.732451 -0.513564 1.936492 0 1.936492 
z
" style="stroke: #2ca02c; stroke-opacity: 0.3"/>
    </defs>
    <g clip-path="url(#p94ab539c93)">
     <use xlink:href="#mbd1ac80bd5" x="334.552032" y="311.67965" style="fill: #2ca02c; fill-opacity: 0.3; stroke: #2ca02c; stroke-opacity: 0.3"/>
     <use xlink:href="#mbd1ac80bd5" x="342.871739" y="265.568105" style="fill: #2ca02c; fill-opacity: 0.3; stroke: #2ca02c; stroke-opacity: 0.3"/>
     <use xlink:href="#mbd1ac80bd5" x="348.395525" y="287.840142" style="fill: #2ca02c; fill-opacity: 0.3; stroke: #2ca02c; stroke-opacity: 0.3"/>
     <use xlink:href="#mbd1ac80bd5" x="332.88373" y="194.058127" style="fill: #2ca02c; fill-opacity: 0.3; stroke: #2ca02c; stroke-opacity: 0.3"/>
     <use xlink:href="#mbd1ac80bd5" x="337.587242" y="290.544313" style="fill: #2ca02c; fill-opacity: 0.3; stroke: #2ca02c; stroke-opacity: 0.3"/>
     <use xlink:href="#mbd1ac80bd5" x="340.118279" y="83.660716" style="fill: #2ca02c; fill-opacity: 0.3; stroke: #2ca02c; stroke-opacity: 0.3"/>
     <use xlink:href="#mbd1ac80bd5" x="342.530502" y="333.852537" style="fill: #2ca02c; fill-opacity: 0.3; stroke: #2ca02c; stroke-opacity: 0.3"/>
     <use xlink:href="#mbd1ac80bd5" x="340.995572" y="236.523898" style="fill: #2ca02c; fill-opacity: 0.3; stroke: #2ca02c; stroke-opacity: 0.3"/>
     <use xlink:href="#mbd1ac80bd5" x="338.449159" y="263.78732" style="fill: #2ca02c; fill-opacity: 0.3; stroke: #2ca02c; stroke-opacity: 0.3"/>
     <use xlink:href="#mbd1ac80bd5" x="351.114602" y="254.254474" style="fill: #2ca02c; fill-opacity: 0.3; stroke: #2ca02c; stroke-opacity: 0.3"/>
     <use xlink:href="#mbd1ac80bd5" x="336.941083" y="253.999906" style="fill: #2ca02c; fill-opacity: 0.3; stroke: #2ca02c; stroke-opacity: 0.3"/>
     <use xlink:href="#mbd1ac80bd5" x="343.616408" y="66.96" style="fill: #2ca02c; fill-opacity: 0.3; stroke: #2ca02c; stroke-opacity: 0.3"/>
    </g>
   </g>
   <g id="matplotlib.axis_1">
    <g id="xtick_1">
     <g id="line2d_1">
      <defs>
       <path id="m014064f9df" d="M 0 0 
L 0 3.5 
" style="stroke: #000000; stroke-width: 0.8"/>
      </defs>
      <g>
       <use xlink:href="#m014064f9df" x="99.654545" y="384.48" style="stroke: #000000; stroke-width: 0.8"/>
      </g>
     </g>
     <g id="text_1">
      <!-- SF -->
      <g transform="translate(93.604545 399.078438) scale(0.1 -0.1)">
       <defs>
        <path id="DejaVuSans-53" d="M 3425 4513 
L 3425 3897 
Q 3066 4069 2747 4153 
Q 2428 4238 2131 4238 
Q 1616 4238 1336 4038 
Q 1056 3838 1056 3469 
Q 1056 3159 1242 3001 
Q 1428 2844 1947 2747 
L 2328 2669 
Q 3034 2534 3370 2195 
Q 3706 1856 3706 1288 
Q 3706 609 3251 259 
Q 2797 -91 1919 -91 
Q 1588 -91 1214 -16 
Q 841 59 441 206 
L 441 856 
Q 825 641 1194 531 
Q 1563 422 1919 422 
Q 2459 422 2753 634 
Q 3047 847 3047 1241 
Q 3047 1584 2836 1778 
Q 2625 1972 2144 2069 
L 1759 2144 
Q 1053 2284 737 2584 
Q 422 2884 422 3419 
Q 422 4038 858 4394 
Q 1294 4750 2059 4750 
Q 2388 4750 2728 4690 
Q 3069 4631 3425 4513 
z
" transform="scale(0.015625)"/>
        <path id="DejaVuSans-46" d="M 628 4666 
L 3309 4666 
L 3309 4134 
L 1259 4134 
L 1259 2759 
L 3109 2759 
L 3109 2228 
L 1259 2228 
L 1259 0 
L 628 0 
L 628 4666 
z
" transform="scale(0.015625)"/>
       </defs>
       <use xlink:href="#DejaVuSans-53"/>
       <use xlink:href="#DejaVuSans-46" x="63.476562"/>
      </g>
     </g>
    </g>
    <g id="xtick_2">
     <g id="line2d_2">
      <g>
       <use xlink:href="#m014064f9df" x="221.4" y="384.48" style="stroke: #000000; stroke-width: 0.8"/>
      </g>
     </g>
     <g id="text_2">
      <!-- TF -->
      <g transform="translate(215.470313 399.078438) scale(0.1 -0.1)">
       <defs>
        <path id="DejaVuSans-54" d="M -19 4666 
L 3928 4666 
L 3928 4134 
L 2272 4134 
L 2272 0 
L 1638 0 
L 1638 4134 
L -19 4134 
L -19 4666 
z
" transform="scale(0.015625)"/>
       </defs>
       <use xlink:href="#DejaVuSans-54"/>
       <use xlink:href="#DejaVuSans-46" x="61.083984"/>
      </g>
     </g>
    </g>
    <g id="xtick_3">
     <g id="line2d_3">
      <g>
       <use xlink:href="#m014064f9df" x="343.145455" y="384.48" style="stroke: #000000; stroke-width: 0.8"/>
      </g>
     </g>
     <g id="text_3">
      <!-- NF -->
      <g transform="translate(336.529048 399.078438) scale(0.1 -0.1)">
       <defs>
        <path id="DejaVuSans-4e" d="M 628 4666 
L 1478 4666 
L 3547 763 
L 3547 4666 
L 4159 4666 
L 4159 0 
L 3309 0 
L 1241 3903 
L 1241 0 
L 628 0 
L 628 4666 
z
" transform="scale(0.015625)"/>
       </defs>
       <use xlink:href="#DejaVuSans-4e"/>
       <use xlink:href="#DejaVuSans-46" x="74.804688"/>
      </g>
     </g>
    </g>
   </g>
   <g id="matplotlib.axis_2">
    <g id="ytick_1">
     <g id="line2d_4">
      <defs>
       <path id="ma949ac15e1" d="M 0 0 
L -3.5 0 
" style="stroke: #000000; stroke-width: 0.8"/>
      </defs>
      <g>
       <use xlink:href="#ma949ac15e1" x="54" y="331.901664" style="stroke: #000000; stroke-width: 0.8"/>
      </g>
     </g>
     <g id="text_4">
      <!-- −50 -->
      <g transform="translate(25.895312 335.700883) scale(0.1 -0.1)">
       <defs>
        <path id="DejaVuSans-2212" d="M 678 2272 
L 4684 2272 
L 4684 1741 
L 678 1741 
L 678 2272 
z
" transform="scale(0.015625)"/>
        <path id="DejaVuSans-35" d="M 691 4666 
L 3169 4666 
L 3169 4134 
L 1269 4134 
L 1269 2991 
Q 1406 3038 1543 3061 
Q 1681 3084 1819 3084 
Q 2600 3084 3056 2656 
Q 3513 2228 3513 1497 
Q 3513 744 3044 326 
Q 2575 -91 1722 -91 
Q 1428 -91 1123 -41 
Q 819 9 494 109 
L 494 744 
Q 775 591 1075 516 
Q 1375 441 1709 441 
Q 2250 441 2565 725 
Q 2881 1009 2881 1497 
Q 2881 1984 2565 2268 
Q 2250 2553 1709 2553 
Q 1456 2553 1204 2497 
Q 953 2441 691 2322 
L 691 4666 
z
" transform="scale(0.015625)"/>
        <path id="DejaVuSans-30" d="M 2034 4250 
Q 1547 4250 1301 3770 
Q 1056 3291 1056 2328 
Q 1056 1369 1301 889 
Q 1547 409 2034 409 
Q 2525 409 2770 889 
Q 3016 1369 3016 2328 
Q 3016 3291 2770 3770 
Q 2525 4250 2034 4250 
z
M 2034 4750 
Q 2819 4750 3233 4129 
Q 3647 3509 3647 2328 
Q 3647 1150 3233 529 
Q 2819 -91 2034 -91 
Q 1250 -91 836 529 
Q 422 1150 422 2328 
Q 422 3509 836 4129 
Q 1250 4750 2034 4750 
z
" transform="scale(0.015625)"/>
       </defs>
       <use xlink:href="#DejaVuSans-2212"/>
       <use xlink:href="#DejaVuSans-35" x="83.789062"/>
       <use xlink:href="#DejaVuSans-30" x="147.412109"/>
      </g>
     </g>
    </g>
    <g id="ytick_2">
     <g id="line2d_5">
      <g>
       <use xlink:href="#ma949ac15e1" x="54" y="260.845905" style="stroke: #000000; stroke-width: 0.8"/>
      </g>
     </g>
     <g id="text_5">
      <!-- 0 -->
      <g transform="translate(40.6375 264.645124) scale(0.1 -0.1)">
       <use xlink:href="#DejaVuSans-30"/>
      </g>
     </g>
    </g>
    <g id="ytick_3">
     <g id="line2d_6">
      <g>
       <use xlink:href="#ma949ac15e1" x="54" y="189.790146" style="stroke: #000000; stroke-width: 0.8"/>
      </g>
     </g>
     <g id="text_6">
      <!-- 50 -->
      <g transform="translate(34.275 193.589365) scale(0.1 -0.1)">
       <use xlink:href="#DejaVuSans-35"/>
       <use xlink:href="#DejaVuSans-30" x="63.623047"/>
      </g>
     </g>
    </g>
    <g id="ytick_4">
     <g id="line2d_7">
      <g>
       <use xlink:href="#ma949ac15e1" x="54" y="118.734387" style="stroke: #000000; stroke-width: 0.8"/>
      </g>
     </g>
     <g id="text_7">
      <!-- 100 -->
      <g transform="translate(27.9125 122.533606) scale(0.1 -0.1)">
       <defs>
        <path id="DejaVuSans-31" d="M 794 531 
L 1825 531 
L 1825 4091 
L 703 3866 
L 703 4441 
L 1819 4666 
L 2450 4666 
L 2450 531 
L 3481 531 
L 3481 0 
L 794 0 
L 794 531 
z
" transform="scale(0.015625)"/>
       </defs>
       <use xlink:href="#DejaVuSans-31"/>
       <use xlink:href="#DejaVuSans-30" x="63.623047"/>
       <use xlink:href="#DejaVuSans-30" x="127.246094"/>
      </g>
     </g>
    </g>
    <g id="text_8">
     <!-- Relative change in RMSE -->
     <g transform="translate(19.815625 280.1725) rotate(-90) scale(0.1 -0.1)">
      <defs>
       <path id="DejaVuSans-52" d="M 2841 2188 
Q 3044 2119 3236 1894 
Q 3428 1669 3622 1275 
L 4263 0 
L 3584 0 
L 2988 1197 
Q 2756 1666 2539 1819 
Q 2322 1972 1947 1972 
L 1259 1972 
L 1259 0 
L 628 0 
L 628 4666 
L 2053 4666 
Q 2853 4666 3247 4331 
Q 3641 3997 3641 3322 
Q 3641 2881 3436 2590 
Q 3231 2300 2841 2188 
z
M 1259 4147 
L 1259 2491 
L 2053 2491 
Q 2509 2491 2742 2702 
Q 2975 2913 2975 3322 
Q 2975 3731 2742 3939 
Q 2509 4147 2053 4147 
L 1259 4147 
z
" transform="scale(0.015625)"/>
       <path id="DejaVuSans-65" d="M 3597 1894 
L 3597 1613 
L 953 1613 
Q 991 1019 1311 708 
Q 1631 397 2203 397 
Q 2534 397 2845 478 
Q 3156 559 3463 722 
L 3463 178 
Q 3153 47 2828 -22 
Q 2503 -91 2169 -91 
Q 1331 -91 842 396 
Q 353 884 353 1716 
Q 353 2575 817 3079 
Q 1281 3584 2069 3584 
Q 2775 3584 3186 3129 
Q 3597 2675 3597 1894 
z
M 3022 2063 
Q 3016 2534 2758 2815 
Q 2500 3097 2075 3097 
Q 1594 3097 1305 2825 
Q 1016 2553 972 2059 
L 3022 2063 
z
" transform="scale(0.015625)"/>
       <path id="DejaVuSans-6c" d="M 603 4863 
L 1178 4863 
L 1178 0 
L 603 0 
L 603 4863 
z
" transform="scale(0.015625)"/>
       <path id="DejaVuSans-61" d="M 2194 1759 
Q 1497 1759 1228 1600 
Q 959 1441 959 1056 
Q 959 750 1161 570 
Q 1363 391 1709 391 
Q 2188 391 2477 730 
Q 2766 1069 2766 1631 
L 2766 1759 
L 2194 1759 
z
M 3341 1997 
L 3341 0 
L 2766 0 
L 2766 531 
Q 2569 213 2275 61 
Q 1981 -91 1556 -91 
Q 1019 -91 701 211 
Q 384 513 384 1019 
Q 384 1609 779 1909 
Q 1175 2209 1959 2209 
L 2766 2209 
L 2766 2266 
Q 2766 2663 2505 2880 
Q 2244 3097 1772 3097 
Q 1472 3097 1187 3025 
Q 903 2953 641 2809 
L 641 3341 
Q 956 3463 1253 3523 
Q 1550 3584 1831 3584 
Q 2591 3584 2966 3190 
Q 3341 2797 3341 1997 
z
" transform="scale(0.015625)"/>
       <path id="DejaVuSans-74" d="M 1172 4494 
L 1172 3500 
L 2356 3500 
L 2356 3053 
L 1172 3053 
L 1172 1153 
Q 1172 725 1289 603 
Q 1406 481 1766 481 
L 2356 481 
L 2356 0 
L 1766 0 
Q 1100 0 847 248 
Q 594 497 594 1153 
L 594 3053 
L 172 3053 
L 172 3500 
L 594 3500 
L 594 4494 
L 1172 4494 
z
" transform="scale(0.015625)"/>
       <path id="DejaVuSans-69" d="M 603 3500 
L 1178 3500 
L 1178 0 
L 603 0 
L 603 3500 
z
M 603 4863 
L 1178 4863 
L 1178 4134 
L 603 4134 
L 603 4863 
z
" transform="scale(0.015625)"/>
       <path id="DejaVuSans-76" d="M 191 3500 
L 800 3500 
L 1894 563 
L 2988 3500 
L 3597 3500 
L 2284 0 
L 1503 0 
L 191 3500 
z
" transform="scale(0.015625)"/>
       <path id="DejaVuSans-20" transform="scale(0.015625)"/>
       <path id="DejaVuSans-63" d="M 3122 3366 
L 3122 2828 
Q 2878 2963 2633 3030 
Q 2388 3097 2138 3097 
Q 1578 3097 1268 2742 
Q 959 2388 959 1747 
Q 959 1106 1268 751 
Q 1578 397 2138 397 
Q 2388 397 2633 464 
Q 2878 531 3122 666 
L 3122 134 
Q 2881 22 2623 -34 
Q 2366 -91 2075 -91 
Q 1284 -91 818 406 
Q 353 903 353 1747 
Q 353 2603 823 3093 
Q 1294 3584 2113 3584 
Q 2378 3584 2631 3529 
Q 2884 3475 3122 3366 
z
" transform="scale(0.015625)"/>
       <path id="DejaVuSans-68" d="M 3513 2113 
L 3513 0 
L 2938 0 
L 2938 2094 
Q 2938 2591 2744 2837 
Q 2550 3084 2163 3084 
Q 1697 3084 1428 2787 
Q 1159 2491 1159 1978 
L 1159 0 
L 581 0 
L 581 4863 
L 1159 4863 
L 1159 2956 
Q 1366 3272 1645 3428 
Q 1925 3584 2291 3584 
Q 2894 3584 3203 3211 
Q 3513 2838 3513 2113 
z
" transform="scale(0.015625)"/>
       <path id="DejaVuSans-6e" d="M 3513 2113 
L 3513 0 
L 2938 0 
L 2938 2094 
Q 2938 2591 2744 2837 
Q 2550 3084 2163 3084 
Q 1697 3084 1428 2787 
Q 1159 2491 1159 1978 
L 1159 0 
L 581 0 
L 581 3500 
L 1159 3500 
L 1159 2956 
Q 1366 3272 1645 3428 
Q 1925 3584 2291 3584 
Q 2894 3584 3203 3211 
Q 3513 2838 3513 2113 
z
" transform="scale(0.015625)"/>
       <path id="DejaVuSans-67" d="M 2906 1791 
Q 2906 2416 2648 2759 
Q 2391 3103 1925 3103 
Q 1463 3103 1205 2759 
Q 947 2416 947 1791 
Q 947 1169 1205 825 
Q 1463 481 1925 481 
Q 2391 481 2648 825 
Q 2906 1169 2906 1791 
z
M 3481 434 
Q 3481 -459 3084 -895 
Q 2688 -1331 1869 -1331 
Q 1566 -1331 1297 -1286 
Q 1028 -1241 775 -1147 
L 775 -588 
Q 1028 -725 1275 -790 
Q 1522 -856 1778 -856 
Q 2344 -856 2625 -561 
Q 2906 -266 2906 331 
L 2906 616 
Q 2728 306 2450 153 
Q 2172 0 1784 0 
Q 1141 0 747 490 
Q 353 981 353 1791 
Q 353 2603 747 3093 
Q 1141 3584 1784 3584 
Q 2172 3584 2450 3431 
Q 2728 3278 2906 2969 
L 2906 3500 
L 3481 3500 
L 3481 434 
z
" transform="scale(0.015625)"/>
       <path id="DejaVuSans-4d" d="M 628 4666 
L 1569 4666 
L 2759 1491 
L 3956 4666 
L 4897 4666 
L 4897 0 
L 4281 0 
L 4281 4097 
L 3078 897 
L 2444 897 
L 1241 4097 
L 1241 0 
L 628 0 
L 628 4666 
z
" transform="scale(0.015625)"/>
       <path id="DejaVuSans-45" d="M 628 4666 
L 3578 4666 
L 3578 4134 
L 1259 4134 
L 1259 2753 
L 3481 2753 
L 3481 2222 
L 1259 2222 
L 1259 531 
L 3634 531 
L 3634 0 
L 628 0 
L 628 4666 
z
" transform="scale(0.015625)"/>
      </defs>
      <use xlink:href="#DejaVuSans-52"/>
      <use xlink:href="#DejaVuSans-65" x="64.982422"/>
      <use xlink:href="#DejaVuSans-6c" x="126.505859"/>
      <use xlink:href="#DejaVuSans-61" x="154.289062"/>
      <use xlink:href="#DejaVuSans-74" x="215.568359"/>
      <use xlink:href="#DejaVuSans-69" x="254.777344"/>
      <use xlink:href="#DejaVuSans-76" x="282.560547"/>
      <use xlink:href="#DejaVuSans-65" x="341.740234"/>
      <use xlink:href="#DejaVuSans-20" x="403.263672"/>
      <use xlink:href="#DejaVuSans-63" x="435.050781"/>
      <use xlink:href="#DejaVuSans-68" x="490.03125"/>
      <use xlink:href="#DejaVuSans-61" x="553.410156"/>
      <use xlink:href="#DejaVuSans-6e" x="614.689453"/>
      <use xlink:href="#DejaVuSans-67" x="678.068359"/>
      <use xlink:href="#DejaVuSans-65" x="741.544922"/>
      <use xlink:href="#DejaVuSans-20" x="803.068359"/>
      <use xlink:href="#DejaVuSans-69" x="834.855469"/>
      <use xlink:href="#DejaVuSans-6e" x="862.638672"/>
      <use xlink:href="#DejaVuSans-20" x="926.017578"/>
      <use xlink:href="#DejaVuSans-52" x="957.804688"/>
      <use xlink:href="#DejaVuSans-4d" x="1027.287109"/>
      <use xlink:href="#DejaVuSans-53" x="1113.566406"/>
      <use xlink:href="#DejaVuSans-45" x="1177.042969"/>
     </g>
    </g>
   </g>
   <g id="LineCollection_1">
    <path d="M 84.436364 315.085381 
L 114.872727 315.085381 
" clip-path="url(#p94ab539c93)" style="fill: none; stroke: #1f77b4; stroke-width: 1.5"/>
    <path d="M 206.181818 298.390178 
L 236.618182 298.390178 
" clip-path="url(#p94ab539c93)" style="fill: none; stroke: #1f77b4; stroke-width: 1.5"/>
    <path d="M 327.927273 236.894099 
L 358.363636 236.894099 
" clip-path="url(#p94ab539c93)" style="fill: none; stroke: #1f77b4; stroke-width: 1.5"/>
   </g>
   <g id="LineCollection_2">
    <path d="M 84.436364 230.684276 
L 114.872727 230.684276 
" clip-path="url(#p94ab539c93)" style="fill: none; stroke: #1f77b4; stroke-width: 1.5"/>
    <path d="M 206.181818 141.094908 
L 236.618182 141.094908 
" clip-path="url(#p94ab539c93)" style="fill: none; stroke: #1f77b4; stroke-width: 1.5"/>
    <path d="M 327.927273 66.96 
L 358.363636 66.96 
" clip-path="url(#p94ab539c93)" style="fill: none; stroke: #1f77b4; stroke-width: 1.5"/>
   </g>
   <g id="LineCollection_3">
    <path d="M 84.436364 368.81426 
L 114.872727 368.81426 
" clip-path="url(#p94ab539c93)" style="fill: none; stroke: #1f77b4; stroke-width: 1.5"/>
    <path d="M 206.181818 369.36 
L 236.618182 369.36 
" clip-path="url(#p94ab539c93)" style="fill: none; stroke: #1f77b4; stroke-width: 1.5"/>
    <path d="M 327.927273 333.852537 
L 358.363636 333.852537 
" clip-path="url(#p94ab539c93)" style="fill: none; stroke: #1f77b4; stroke-width: 1.5"/>
   </g>
   <g id="LineCollection_4">
    <path d="M 99.654545 368.81426 
L 99.654545 230.684276 
" clip-path="url(#p94ab539c93)" style="fill: none; stroke: #1f77b4; stroke-width: 1.5"/>
    <path d="M 221.4 369.36 
L 221.4 141.094908 
" clip-path="url(#p94ab539c93)" style="fill: none; stroke: #1f77b4; stroke-width: 1.5"/>
    <path d="M 343.145455 333.852537 
L 343.145455 66.96 
" clip-path="url(#p94ab539c93)" style="fill: none; stroke: #1f77b4; stroke-width: 1.5"/>
   </g>
   <g id="patch_3">
    <path d="M 54 384.48 
L 54 51.84 
" style="fill: none; stroke: #000000; stroke-width: 0.8; stroke-linejoin: miter; stroke-linecap: square"/>
   </g>
   <g id="patch_4">
    <path d="M 388.8 384.48 
L 388.8 51.84 
" style="fill: none; stroke: #000000; stroke-width: 0.8; stroke-linejoin: miter; stroke-linecap: square"/>
   </g>
   <g id="patch_5">
    <path d="M 54 384.48 
L 388.8 384.48 
" style="fill: none; stroke: #000000; stroke-width: 0.8; stroke-linejoin: miter; stroke-linecap: square"/>
   </g>
   <g id="patch_6">
    <path d="M 54 51.84 
L 388.8 51.84 
" style="fill: none; stroke: #000000; stroke-width: 0.8; stroke-linejoin: miter; stroke-linecap: square"/>
   </g>
   <g id="text_9">
    <!-- Change in RMSE between NF and Retention -->
    <g transform="translate(90.465938 45.84) scale(0.12 -0.12)">
     <defs>
      <path id="DejaVuSans-43" d="M 4122 4306 
L 4122 3641 
Q 3803 3938 3442 4084 
Q 3081 4231 2675 4231 
Q 1875 4231 1450 3742 
Q 1025 3253 1025 2328 
Q 1025 1406 1450 917 
Q 1875 428 2675 428 
Q 3081 428 3442 575 
Q 3803 722 4122 1019 
L 4122 359 
Q 3791 134 3420 21 
Q 3050 -91 2638 -91 
Q 1578 -91 968 557 
Q 359 1206 359 2328 
Q 359 3453 968 4101 
Q 1578 4750 2638 4750 
Q 3056 4750 3426 4639 
Q 3797 4528 4122 4306 
z
" transform="scale(0.015625)"/>
      <path id="DejaVuSans-62" d="M 3116 1747 
Q 3116 2381 2855 2742 
Q 2594 3103 2138 3103 
Q 1681 3103 1420 2742 
Q 1159 2381 1159 1747 
Q 1159 1113 1420 752 
Q 1681 391 2138 391 
Q 2594 391 2855 752 
Q 3116 1113 3116 1747 
z
M 1159 2969 
Q 1341 3281 1617 3432 
Q 1894 3584 2278 3584 
Q 2916 3584 3314 3078 
Q 3713 2572 3713 1747 
Q 3713 922 3314 415 
Q 2916 -91 2278 -91 
Q 1894 -91 1617 61 
Q 1341 213 1159 525 
L 1159 0 
L 581 0 
L 581 4863 
L 1159 4863 
L 1159 2969 
z
" transform="scale(0.015625)"/>
      <path id="DejaVuSans-77" d="M 269 3500 
L 844 3500 
L 1563 769 
L 2278 3500 
L 2956 3500 
L 3675 769 
L 4391 3500 
L 4966 3500 
L 4050 0 
L 3372 0 
L 2619 2869 
L 1863 0 
L 1184 0 
L 269 3500 
z
" transform="scale(0.015625)"/>
      <path id="DejaVuSans-64" d="M 2906 2969 
L 2906 4863 
L 3481 4863 
L 3481 0 
L 2906 0 
L 2906 525 
Q 2725 213 2448 61 
Q 2172 -91 1784 -91 
Q 1150 -91 751 415 
Q 353 922 353 1747 
Q 353 2572 751 3078 
Q 1150 3584 1784 3584 
Q 2172 3584 2448 3432 
Q 2725 3281 2906 2969 
z
M 947 1747 
Q 947 1113 1208 752 
Q 1469 391 1925 391 
Q 2381 391 2643 752 
Q 2906 1113 2906 1747 
Q 2906 2381 2643 2742 
Q 2381 3103 1925 3103 
Q 1469 3103 1208 2742 
Q 947 2381 947 1747 
z
" transform="scale(0.015625)"/>
      <path id="DejaVuSans-6f" d="M 1959 3097 
Q 1497 3097 1228 2736 
Q 959 2375 959 1747 
Q 959 1119 1226 758 
Q 1494 397 1959 397 
Q 2419 397 2687 759 
Q 2956 1122 2956 1747 
Q 2956 2369 2687 2733 
Q 2419 3097 1959 3097 
z
M 1959 3584 
Q 2709 3584 3137 3096 
Q 3566 2609 3566 1747 
Q 3566 888 3137 398 
Q 2709 -91 1959 -91 
Q 1206 -91 779 398 
Q 353 888 353 1747 
Q 353 2609 779 3096 
Q 1206 3584 1959 3584 
z
" transform="scale(0.015625)"/>
     </defs>
     <use xlink:href="#DejaVuSans-43"/>
     <use xlink:href="#DejaVuSans-68" x="69.824219"/>
     <use xlink:href="#DejaVuSans-61" x="133.203125"/>
     <use xlink:href="#DejaVuSans-6e" x="194.482422"/>
     <use xlink:href="#DejaVuSans-67" x="257.861328"/>
     <use xlink:href="#DejaVuSans-65" x="321.337891"/>
     <use xlink:href="#DejaVuSans-20" x="382.861328"/>
     <use xlink:href="#DejaVuSans-69" x="414.648438"/>
     <use xlink:href="#DejaVuSans-6e" x="442.431641"/>
     <use xlink:href="#DejaVuSans-20" x="505.810547"/>
     <use xlink:href="#DejaVuSans-52" x="537.597656"/>
     <use xlink:href="#DejaVuSans-4d" x="607.080078"/>
     <use xlink:href="#DejaVuSans-53" x="693.359375"/>
     <use xlink:href="#DejaVuSans-45" x="756.835938"/>
     <use xlink:href="#DejaVuSans-20" x="820.019531"/>
     <use xlink:href="#DejaVuSans-62" x="851.806641"/>
     <use xlink:href="#DejaVuSans-65" x="915.283203"/>
     <use xlink:href="#DejaVuSans-74" x="976.806641"/>
     <use xlink:href="#DejaVuSans-77" x="1016.015625"/>
     <use xlink:href="#DejaVuSans-65" x="1097.802734"/>
     <use xlink:href="#DejaVuSans-65" x="1159.326172"/>
     <use xlink:href="#DejaVuSans-6e" x="1220.849609"/>
     <use xlink:href="#DejaVuSans-20" x="1284.228516"/>
     <use xlink:href="#DejaVuSans-4e" x="1316.015625"/>
     <use xlink:href="#DejaVuSans-46" x="1390.820312"/>
     <use xlink:href="#DejaVuSans-20" x="1448.339844"/>
     <use xlink:href="#DejaVuSans-61" x="1480.126953"/>
     <use xlink:href="#DejaVuSans-6e" x="1541.40625"/>
     <use xlink:href="#DejaVuSans-64" x="1604.785156"/>
     <use xlink:href="#DejaVuSans-20" x="1668.261719"/>
     <use xlink:href="#DejaVuSans-52" x="1700.048828"/>
     <use xlink:href="#DejaVuSans-65" x="1765.03125"/>
     <use xlink:href="#DejaVuSans-74" x="1826.554688"/>
     <use xlink:href="#DejaVuSans-65" x="1865.763672"/>
     <use xlink:href="#DejaVuSans-6e" x="1927.287109"/>
     <use xlink:href="#DejaVuSans-74" x="1990.666016"/>
     <use xlink:href="#DejaVuSans-69" x="2029.875"/>
     <use xlink:href="#DejaVuSans-6f" x="2057.658203"/>
     <use xlink:href="#DejaVuSans-6e" x="2118.839844"/>
    </g>
   </g>
  </g>
 </g>
 <defs>
  <clipPath id="p94ab539c93">
   <rect x="54" y="51.84" width="334.8" height="332.64"/>
  </clipPath>
 </defs>
</svg>
