<?xml version="1.0" encoding="utf-8" standalone="no"?>
<!DOCTYPE svg PUBLIC "-//W3C//DTD SVG 1.1//EN"
  "http://www.w3.org/Graphics/SVG/1.1/DTD/svg11.dtd">
<svg xmlns:xlink="http://www.w3.org/1999/xlink" width="432pt" height="432pt" viewBox="0 0 432 432" xmlns="http://www.w3.org/2000/svg" version="1.1">
 <metadata>
  <rdf:RDF xmlns:dc="http://purl.org/dc/elements/1.1/" xmlns:cc="http://creativecommons.org/ns#" xmlns:rdf="http://www.w3.org/1999/02/22-rdf-syntax-ns#">
   <cc:Work>
    <dc:type rdf:resource="http://purl.org/dc/dcmitype/StillImage"/>
    <dc:date>2024-09-25T13:33:00.588054</dc:date>
    <dc:format>image/svg+xml</dc:format>
    <dc:creator>
     <cc:Agent>
      <dc:title>Matplotlib v3.8.0, https://matplotlib.org/</dc:title>
     </cc:Agent>
    </dc:creator>
   </cc:Work>
  </rdf:RDF>
 </metadata>
 <defs>
  <style type="text/css">*{stroke-linejoin: round; stroke-linecap: butt}</style>
 </defs>
 <g id="figure_1">
  <g id="patch_1">
   <path d="M 0 432 
L 432 432 
L 432 0 
L 0 0 
z
" style="fill: #ffffff"/>
  </g>
  <g id="axes_1">
   <g id="patch_2">
    <path d="M 54 384.48 
L 388.8 384.48 
L 388.8 51.84 
L 54 51.84 
z
" style="fill: #ffffff"/>
   </g>
   <g id="patch_3">
    <path d="M 69.218182 384.48 
L 76.802066 384.48 
L 76.802066 382.220371 
L 69.218182 382.220371 
z
" clip-path="url(#pc383f22058)" style="fill: #0f4c5c; fill-opacity: 0.5; stroke: #000000; stroke-width: 0.760909; stroke-linejoin: miter"/>
   </g>
   <g id="patch_4">
    <path d="M 76.802066 384.48 
L 84.385951 384.48 
L 84.385951 382.220371 
L 76.802066 382.220371 
z
" clip-path="url(#pc383f22058)" style="fill: #0f4c5c; fill-opacity: 0.5; stroke: #000000; stroke-width: 0.760909; stroke-linejoin: miter"/>
   </g>
   <g id="patch_5">
    <path d="M 84.385951 384.48 
L 91.969835 384.48 
L 91.969835 381.768445 
L 84.385951 381.768445 
z
" clip-path="url(#pc383f22058)" style="fill: #0f4c5c; fill-opacity: 0.5; stroke: #000000; stroke-width: 0.760909; stroke-linejoin: miter"/>
   </g>
   <g id="patch_6">
    <path d="M 91.969835 384.48 
L 99.55372 384.48 
L 99.55372 380.864593 
L 91.969835 380.864593 
z
" clip-path="url(#pc383f22058)" style="fill: #0f4c5c; fill-opacity: 0.5; stroke: #000000; stroke-width: 0.760909; stroke-linejoin: miter"/>
   </g>
   <g id="patch_7">
    <path d="M 99.55372 384.48 
L 107.137604 384.48 
L 107.137604 382.220371 
L 99.55372 382.220371 
z
" clip-path="url(#pc383f22058)" style="fill: #0f4c5c; fill-opacity: 0.5; stroke: #000000; stroke-width: 0.760909; stroke-linejoin: miter"/>
   </g>
   <g id="patch_8">
    <path d="M 107.137604 384.48 
L 114.721489 384.48 
L 114.721489 380.864593 
L 107.137604 380.864593 
z
" clip-path="url(#pc383f22058)" style="fill: #0f4c5c; fill-opacity: 0.5; stroke: #000000; stroke-width: 0.760909; stroke-linejoin: miter"/>
   </g>
   <g id="patch_9">
    <path d="M 114.721489 384.48 
L 122.305373 384.48 
L 122.305373 379.508816 
L 114.721489 379.508816 
z
" clip-path="url(#pc383f22058)" style="fill: #0f4c5c; fill-opacity: 0.5; stroke: #000000; stroke-width: 0.760909; stroke-linejoin: miter"/>
   </g>
   <g id="patch_10">
    <path d="M 122.305373 384.48 
L 129.889258 384.48 
L 129.889258 377.701113 
L 122.305373 377.701113 
z
" clip-path="url(#pc383f22058)" style="fill: #0f4c5c; fill-opacity: 0.5; stroke: #000000; stroke-width: 0.760909; stroke-linejoin: miter"/>
   </g>
   <g id="patch_11">
    <path d="M 129.889258 384.48 
L 137.473142 384.48 
L 137.473142 376.345335 
L 129.889258 376.345335 
z
" clip-path="url(#pc383f22058)" style="fill: #0f4c5c; fill-opacity: 0.5; stroke: #000000; stroke-width: 0.760909; stroke-linejoin: miter"/>
   </g>
   <g id="patch_12">
    <path d="M 137.473142 384.48 
L 145.057027 384.48 
L 145.057027 376.345335 
L 137.473142 376.345335 
z
" clip-path="url(#pc383f22058)" style="fill: #0f4c5c; fill-opacity: 0.5; stroke: #000000; stroke-width: 0.760909; stroke-linejoin: miter"/>
   </g>
   <g id="patch_13">
    <path d="M 145.057027 384.48 
L 152.640911 384.48 
L 152.640911 379.508816 
L 145.057027 379.508816 
z
" clip-path="url(#pc383f22058)" style="fill: #0f4c5c; fill-opacity: 0.5; stroke: #000000; stroke-width: 0.760909; stroke-linejoin: miter"/>
   </g>
   <g id="patch_14">
    <path d="M 152.640911 384.48 
L 160.224795 384.48 
L 160.224795 375.893409 
L 152.640911 375.893409 
z
" clip-path="url(#pc383f22058)" style="fill: #0f4c5c; fill-opacity: 0.5; stroke: #000000; stroke-width: 0.760909; stroke-linejoin: miter"/>
   </g>
   <g id="patch_15">
    <path d="M 160.224795 384.48 
L 167.80868 384.48 
L 167.80868 374.085706 
L 160.224795 374.085706 
z
" clip-path="url(#pc383f22058)" style="fill: #0f4c5c; fill-opacity: 0.5; stroke: #000000; stroke-width: 0.760909; stroke-linejoin: miter"/>
   </g>
   <g id="patch_16">
    <path d="M 167.80868 384.48 
L 175.392564 384.48 
L 175.392564 372.729929 
L 167.80868 372.729929 
z
" clip-path="url(#pc383f22058)" style="fill: #0f4c5c; fill-opacity: 0.5; stroke: #000000; stroke-width: 0.760909; stroke-linejoin: miter"/>
   </g>
   <g id="patch_17">
    <path d="M 175.392564 384.48 
L 182.976449 384.48 
L 182.976449 372.278003 
L 175.392564 372.278003 
z
" clip-path="url(#pc383f22058)" style="fill: #0f4c5c; fill-opacity: 0.5; stroke: #000000; stroke-width: 0.760909; stroke-linejoin: miter"/>
   </g>
   <g id="patch_18">
    <path d="M 182.976449 384.48 
L 190.560333 384.48 
L 190.560333 363.239486 
L 182.976449 363.239486 
z
" clip-path="url(#pc383f22058)" style="fill: #0f4c5c; fill-opacity: 0.5; stroke: #000000; stroke-width: 0.760909; stroke-linejoin: miter"/>
   </g>
   <g id="patch_19">
    <path d="M 190.560333 384.48 
L 198.144218 384.48 
L 198.144218 365.04719 
L 190.560333 365.04719 
z
" clip-path="url(#pc383f22058)" style="fill: #0f4c5c; fill-opacity: 0.5; stroke: #000000; stroke-width: 0.760909; stroke-linejoin: miter"/>
   </g>
   <g id="patch_20">
    <path d="M 198.144218 384.48 
L 205.728102 384.48 
L 205.728102 364.143338 
L 198.144218 364.143338 
z
" clip-path="url(#pc383f22058)" style="fill: #0f4c5c; fill-opacity: 0.5; stroke: #000000; stroke-width: 0.760909; stroke-linejoin: miter"/>
   </g>
   <g id="patch_21">
    <path d="M 205.728102 384.48 
L 213.311987 384.48 
L 213.311987 384.48 
L 205.728102 384.48 
z
" clip-path="url(#pc383f22058)" style="fill: #0f4c5c; fill-opacity: 0.5; stroke: #000000; stroke-width: 0.760909; stroke-linejoin: miter"/>
   </g>
   <g id="patch_22">
    <path d="M 213.311987 384.48 
L 220.895871 384.48 
L 220.895871 384.48 
L 213.311987 384.48 
z
" clip-path="url(#pc383f22058)" style="fill: #0f4c5c; fill-opacity: 0.5; stroke: #000000; stroke-width: 0.760909; stroke-linejoin: miter"/>
   </g>
   <g id="patch_23">
    <path d="M 220.895871 384.48 
L 228.479756 384.48 
L 228.479756 384.48 
L 220.895871 384.48 
z
" clip-path="url(#pc383f22058)" style="fill: #0f4c5c; fill-opacity: 0.5; stroke: #000000; stroke-width: 0.760909; stroke-linejoin: miter"/>
   </g>
   <g id="patch_24">
    <path d="M 228.479756 384.48 
L 236.06364 384.48 
L 236.06364 382.220371 
L 228.479756 382.220371 
z
" clip-path="url(#pc383f22058)" style="fill: #0f4c5c; fill-opacity: 0.5; stroke: #000000; stroke-width: 0.760909; stroke-linejoin: miter"/>
   </g>
   <g id="patch_25">
    <path d="M 236.06364 384.48 
L 243.647525 384.48 
L 243.647525 346.518231 
L 236.06364 346.518231 
z
" clip-path="url(#pc383f22058)" style="fill: #0f4c5c; fill-opacity: 0.5; stroke: #000000; stroke-width: 0.760909; stroke-linejoin: miter"/>
   </g>
   <g id="patch_26">
    <path d="M 243.647525 384.48 
L 251.231409 384.48 
L 251.231409 356.008673 
L 243.647525 356.008673 
z
" clip-path="url(#pc383f22058)" style="fill: #0f4c5c; fill-opacity: 0.5; stroke: #000000; stroke-width: 0.760909; stroke-linejoin: miter"/>
   </g>
   <g id="patch_27">
    <path d="M 251.231409 384.48 
L 258.815294 384.48 
L 258.815294 351.037489 
L 251.231409 351.037489 
z
" clip-path="url(#pc383f22058)" style="fill: #0f4c5c; fill-opacity: 0.5; stroke: #000000; stroke-width: 0.760909; stroke-linejoin: miter"/>
   </g>
   <g id="patch_28">
    <path d="M 258.815294 384.48 
L 266.399178 384.48 
L 266.399178 349.229786 
L 258.815294 349.229786 
z
" clip-path="url(#pc383f22058)" style="fill: #0f4c5c; fill-opacity: 0.5; stroke: #000000; stroke-width: 0.760909; stroke-linejoin: miter"/>
   </g>
   <g id="patch_29">
    <path d="M 266.399178 384.48 
L 273.983063 384.48 
L 273.983063 354.652896 
L 266.399178 354.652896 
z
" clip-path="url(#pc383f22058)" style="fill: #0f4c5c; fill-opacity: 0.5; stroke: #000000; stroke-width: 0.760909; stroke-linejoin: miter"/>
   </g>
   <g id="patch_30">
    <path d="M 273.983063 384.48 
L 281.566947 384.48 
L 281.566947 358.268302 
L 273.983063 358.268302 
z
" clip-path="url(#pc383f22058)" style="fill: #0f4c5c; fill-opacity: 0.5; stroke: #000000; stroke-width: 0.760909; stroke-linejoin: miter"/>
   </g>
   <g id="patch_31">
    <path d="M 281.566947 384.48 
L 289.150831 384.48 
L 289.150831 358.268302 
L 281.566947 358.268302 
z
" clip-path="url(#pc383f22058)" style="fill: #0f4c5c; fill-opacity: 0.5; stroke: #000000; stroke-width: 0.760909; stroke-linejoin: miter"/>
   </g>
   <g id="patch_32">
    <path d="M 289.150831 384.48 
L 296.734716 384.48 
L 296.734716 363.239486 
L 289.150831 363.239486 
z
" clip-path="url(#pc383f22058)" style="fill: #0f4c5c; fill-opacity: 0.5; stroke: #000000; stroke-width: 0.760909; stroke-linejoin: miter"/>
   </g>
   <g id="patch_33">
    <path d="M 296.734716 384.48 
L 304.3186 384.48 
L 304.3186 368.662596 
L 296.734716 368.662596 
z
" clip-path="url(#pc383f22058)" style="fill: #0f4c5c; fill-opacity: 0.5; stroke: #000000; stroke-width: 0.760909; stroke-linejoin: miter"/>
   </g>
   <g id="patch_34">
    <path d="M 304.3186 384.48 
L 311.902485 384.48 
L 311.902485 367.306819 
L 304.3186 367.306819 
z
" clip-path="url(#pc383f22058)" style="fill: #0f4c5c; fill-opacity: 0.5; stroke: #000000; stroke-width: 0.760909; stroke-linejoin: miter"/>
   </g>
   <g id="patch_35">
    <path d="M 311.902485 384.48 
L 319.486369 384.48 
L 319.486369 371.374151 
L 311.902485 371.374151 
z
" clip-path="url(#pc383f22058)" style="fill: #0f4c5c; fill-opacity: 0.5; stroke: #000000; stroke-width: 0.760909; stroke-linejoin: miter"/>
   </g>
   <g id="patch_36">
    <path d="M 319.486369 384.48 
L 327.070254 384.48 
L 327.070254 374.989558 
L 319.486369 374.989558 
z
" clip-path="url(#pc383f22058)" style="fill: #0f4c5c; fill-opacity: 0.5; stroke: #000000; stroke-width: 0.760909; stroke-linejoin: miter"/>
   </g>
   <g id="patch_37">
    <path d="M 327.070254 384.48 
L 334.654138 384.48 
L 334.654138 375.441484 
L 327.070254 375.441484 
z
" clip-path="url(#pc383f22058)" style="fill: #0f4c5c; fill-opacity: 0.5; stroke: #000000; stroke-width: 0.760909; stroke-linejoin: miter"/>
   </g>
   <g id="patch_38">
    <path d="M 334.654138 384.48 
L 342.238023 384.48 
L 342.238023 377.249187 
L 334.654138 377.249187 
z
" clip-path="url(#pc383f22058)" style="fill: #0f4c5c; fill-opacity: 0.5; stroke: #000000; stroke-width: 0.760909; stroke-linejoin: miter"/>
   </g>
   <g id="patch_39">
    <path d="M 342.238023 384.48 
L 349.821907 384.48 
L 349.821907 379.960742 
L 342.238023 379.960742 
z
" clip-path="url(#pc383f22058)" style="fill: #0f4c5c; fill-opacity: 0.5; stroke: #000000; stroke-width: 0.760909; stroke-linejoin: miter"/>
   </g>
   <g id="patch_40">
    <path d="M 349.821907 384.48 
L 357.405792 384.48 
L 357.405792 373.181854 
L 349.821907 373.181854 
z
" clip-path="url(#pc383f22058)" style="fill: #0f4c5c; fill-opacity: 0.5; stroke: #000000; stroke-width: 0.760909; stroke-linejoin: miter"/>
   </g>
   <g id="patch_41">
    <path d="M 357.405792 384.48 
L 364.989676 384.48 
L 364.989676 378.604964 
L 357.405792 378.604964 
z
" clip-path="url(#pc383f22058)" style="fill: #0f4c5c; fill-opacity: 0.5; stroke: #000000; stroke-width: 0.760909; stroke-linejoin: miter"/>
   </g>
   <g id="patch_42">
    <path d="M 364.989676 384.48 
L 372.573561 384.48 
L 372.573561 353.297118 
L 364.989676 353.297118 
z
" clip-path="url(#pc383f22058)" style="fill: #0f4c5c; fill-opacity: 0.5; stroke: #000000; stroke-width: 0.760909; stroke-linejoin: miter"/>
   </g>
   <g id="patch_43">
    <path d="M 85.394208 384.48 
L 92.978093 384.48 
L 92.978093 383.124223 
L 85.394208 383.124223 
z
" clip-path="url(#pc383f22058)" style="fill: #0f4c5c; fill-opacity: 0.7; stroke: #000000; stroke-width: 0.758388; stroke-linejoin: miter"/>
   </g>
   <g id="patch_44">
    <path d="M 92.978093 384.48 
L 100.561977 384.48 
L 100.561977 383.576148 
L 92.978093 383.576148 
z
" clip-path="url(#pc383f22058)" style="fill: #0f4c5c; fill-opacity: 0.7; stroke: #000000; stroke-width: 0.758388; stroke-linejoin: miter"/>
   </g>
   <g id="patch_45">
    <path d="M 100.561977 384.48 
L 108.145862 384.48 
L 108.145862 383.124223 
L 100.561977 383.124223 
z
" clip-path="url(#pc383f22058)" style="fill: #0f4c5c; fill-opacity: 0.7; stroke: #000000; stroke-width: 0.758388; stroke-linejoin: miter"/>
   </g>
   <g id="patch_46">
    <path d="M 108.145862 384.48 
L 115.729746 384.48 
L 115.729746 383.124223 
L 108.145862 383.124223 
z
" clip-path="url(#pc383f22058)" style="fill: #0f4c5c; fill-opacity: 0.7; stroke: #000000; stroke-width: 0.758388; stroke-linejoin: miter"/>
   </g>
   <g id="patch_47">
    <path d="M 115.729746 384.48 
L 123.313631 384.48 
L 123.313631 382.220371 
L 115.729746 382.220371 
z
" clip-path="url(#pc383f22058)" style="fill: #0f4c5c; fill-opacity: 0.7; stroke: #000000; stroke-width: 0.758388; stroke-linejoin: miter"/>
   </g>
   <g id="patch_48">
    <path d="M 123.313631 384.48 
L 130.897515 384.48 
L 130.897515 382.672297 
L 123.313631 382.672297 
z
" clip-path="url(#pc383f22058)" style="fill: #0f4c5c; fill-opacity: 0.7; stroke: #000000; stroke-width: 0.758388; stroke-linejoin: miter"/>
   </g>
   <g id="patch_49">
    <path d="M 130.897515 384.48 
L 138.4814 384.48 
L 138.4814 382.220371 
L 130.897515 382.220371 
z
" clip-path="url(#pc383f22058)" style="fill: #0f4c5c; fill-opacity: 0.7; stroke: #000000; stroke-width: 0.758388; stroke-linejoin: miter"/>
   </g>
   <g id="patch_50">
    <path d="M 138.4814 384.48 
L 146.065284 384.48 
L 146.065284 382.672297 
L 138.4814 382.672297 
z
" clip-path="url(#pc383f22058)" style="fill: #0f4c5c; fill-opacity: 0.7; stroke: #000000; stroke-width: 0.758388; stroke-linejoin: miter"/>
   </g>
   <g id="patch_51">
    <path d="M 146.065284 384.48 
L 153.649169 384.48 
L 153.649169 382.220371 
L 146.065284 382.220371 
z
" clip-path="url(#pc383f22058)" style="fill: #0f4c5c; fill-opacity: 0.7; stroke: #000000; stroke-width: 0.758388; stroke-linejoin: miter"/>
   </g>
   <g id="patch_52">
    <path d="M 153.649169 384.48 
L 161.233053 384.48 
L 161.233053 377.701113 
L 153.649169 377.701113 
z
" clip-path="url(#pc383f22058)" style="fill: #0f4c5c; fill-opacity: 0.7; stroke: #000000; stroke-width: 0.758388; stroke-linejoin: miter"/>
   </g>
   <g id="patch_53">
    <path d="M 161.233053 384.48 
L 168.816937 384.48 
L 168.816937 378.604964 
L 161.233053 378.604964 
z
" clip-path="url(#pc383f22058)" style="fill: #0f4c5c; fill-opacity: 0.7; stroke: #000000; stroke-width: 0.758388; stroke-linejoin: miter"/>
   </g>
   <g id="patch_54">
    <path d="M 168.816937 384.48 
L 176.400822 384.48 
L 176.400822 381.316519 
L 168.816937 381.316519 
z
" clip-path="url(#pc383f22058)" style="fill: #0f4c5c; fill-opacity: 0.7; stroke: #000000; stroke-width: 0.758388; stroke-linejoin: miter"/>
   </g>
   <g id="patch_55">
    <path d="M 176.400822 384.48 
L 183.984706 384.48 
L 183.984706 379.05689 
L 176.400822 379.05689 
z
" clip-path="url(#pc383f22058)" style="fill: #0f4c5c; fill-opacity: 0.7; stroke: #000000; stroke-width: 0.758388; stroke-linejoin: miter"/>
   </g>
   <g id="patch_56">
    <path d="M 183.984706 384.48 
L 191.568591 384.48 
L 191.568591 375.893409 
L 183.984706 375.893409 
z
" clip-path="url(#pc383f22058)" style="fill: #0f4c5c; fill-opacity: 0.7; stroke: #000000; stroke-width: 0.758388; stroke-linejoin: miter"/>
   </g>
   <g id="patch_57">
    <path d="M 191.568591 384.48 
L 199.152475 384.48 
L 199.152475 371.374151 
L 191.568591 371.374151 
z
" clip-path="url(#pc383f22058)" style="fill: #0f4c5c; fill-opacity: 0.7; stroke: #000000; stroke-width: 0.758388; stroke-linejoin: miter"/>
   </g>
   <g id="patch_58">
    <path d="M 199.152475 384.48 
L 206.73636 384.48 
L 206.73636 373.63378 
L 199.152475 373.63378 
z
" clip-path="url(#pc383f22058)" style="fill: #0f4c5c; fill-opacity: 0.7; stroke: #000000; stroke-width: 0.758388; stroke-linejoin: miter"/>
   </g>
   <g id="patch_59">
    <path d="M 206.73636 384.48 
L 214.320244 384.48 
L 214.320244 384.48 
L 206.73636 384.48 
z
" clip-path="url(#pc383f22058)" style="fill: #0f4c5c; fill-opacity: 0.7; stroke: #000000; stroke-width: 0.758388; stroke-linejoin: miter"/>
   </g>
   <g id="patch_60">
    <path d="M 214.320244 384.48 
L 221.904129 384.48 
L 221.904129 384.48 
L 214.320244 384.48 
z
" clip-path="url(#pc383f22058)" style="fill: #0f4c5c; fill-opacity: 0.7; stroke: #000000; stroke-width: 0.758388; stroke-linejoin: miter"/>
   </g>
   <g id="patch_61">
    <path d="M 221.904129 384.48 
L 229.488013 384.48 
L 229.488013 384.48 
L 221.904129 384.48 
z
" clip-path="url(#pc383f22058)" style="fill: #0f4c5c; fill-opacity: 0.7; stroke: #000000; stroke-width: 0.758388; stroke-linejoin: miter"/>
   </g>
   <g id="patch_62">
    <path d="M 229.488013 384.48 
L 237.071898 384.48 
L 237.071898 379.508816 
L 229.488013 379.508816 
z
" clip-path="url(#pc383f22058)" style="fill: #0f4c5c; fill-opacity: 0.7; stroke: #000000; stroke-width: 0.758388; stroke-linejoin: miter"/>
   </g>
   <g id="patch_63">
    <path d="M 237.071898 384.48 
L 244.655782 384.48 
L 244.655782 360.527932 
L 237.071898 360.527932 
z
" clip-path="url(#pc383f22058)" style="fill: #0f4c5c; fill-opacity: 0.7; stroke: #000000; stroke-width: 0.758388; stroke-linejoin: miter"/>
   </g>
   <g id="patch_64">
    <path d="M 244.655782 384.48 
L 252.239667 384.48 
L 252.239667 366.854893 
L 244.655782 366.854893 
z
" clip-path="url(#pc383f22058)" style="fill: #0f4c5c; fill-opacity: 0.7; stroke: #000000; stroke-width: 0.758388; stroke-linejoin: miter"/>
   </g>
   <g id="patch_65">
    <path d="M 252.239667 384.48 
L 259.823551 384.48 
L 259.823551 360.527932 
L 252.239667 360.527932 
z
" clip-path="url(#pc383f22058)" style="fill: #0f4c5c; fill-opacity: 0.7; stroke: #000000; stroke-width: 0.758388; stroke-linejoin: miter"/>
   </g>
   <g id="patch_66">
    <path d="M 259.823551 384.48 
L 267.407436 384.48 
L 267.407436 370.4703 
L 259.823551 370.4703 
z
" clip-path="url(#pc383f22058)" style="fill: #0f4c5c; fill-opacity: 0.7; stroke: #000000; stroke-width: 0.758388; stroke-linejoin: miter"/>
   </g>
   <g id="patch_67">
    <path d="M 267.407436 384.48 
L 274.99132 384.48 
L 274.99132 369.566448 
L 267.407436 369.566448 
z
" clip-path="url(#pc383f22058)" style="fill: #0f4c5c; fill-opacity: 0.7; stroke: #000000; stroke-width: 0.758388; stroke-linejoin: miter"/>
   </g>
   <g id="patch_68">
    <path d="M 274.99132 384.48 
L 282.575205 384.48 
L 282.575205 372.729929 
L 274.99132 372.729929 
z
" clip-path="url(#pc383f22058)" style="fill: #0f4c5c; fill-opacity: 0.7; stroke: #000000; stroke-width: 0.758388; stroke-linejoin: miter"/>
   </g>
   <g id="patch_69">
    <path d="M 282.575205 384.48 
L 290.159089 384.48 
L 290.159089 376.345335 
L 282.575205 376.345335 
z
" clip-path="url(#pc383f22058)" style="fill: #0f4c5c; fill-opacity: 0.7; stroke: #000000; stroke-width: 0.758388; stroke-linejoin: miter"/>
   </g>
   <g id="patch_70">
    <path d="M 290.159089 384.48 
L 297.742973 384.48 
L 297.742973 378.604964 
L 290.159089 378.604964 
z
" clip-path="url(#pc383f22058)" style="fill: #0f4c5c; fill-opacity: 0.7; stroke: #000000; stroke-width: 0.758388; stroke-linejoin: miter"/>
   </g>
   <g id="patch_71">
    <path d="M 297.742973 384.48 
L 305.326858 384.48 
L 305.326858 376.797261 
L 297.742973 376.797261 
z
" clip-path="url(#pc383f22058)" style="fill: #0f4c5c; fill-opacity: 0.7; stroke: #000000; stroke-width: 0.758388; stroke-linejoin: miter"/>
   </g>
   <g id="patch_72">
    <path d="M 305.326858 384.48 
L 312.910742 384.48 
L 312.910742 379.960742 
L 305.326858 379.960742 
z
" clip-path="url(#pc383f22058)" style="fill: #0f4c5c; fill-opacity: 0.7; stroke: #000000; stroke-width: 0.758388; stroke-linejoin: miter"/>
   </g>
   <g id="patch_73">
    <path d="M 312.910742 384.48 
L 320.494627 384.48 
L 320.494627 379.05689 
L 312.910742 379.05689 
z
" clip-path="url(#pc383f22058)" style="fill: #0f4c5c; fill-opacity: 0.7; stroke: #000000; stroke-width: 0.758388; stroke-linejoin: miter"/>
   </g>
   <g id="patch_74">
    <path d="M 320.494627 384.48 
L 328.078511 384.48 
L 328.078511 379.05689 
L 320.494627 379.05689 
z
" clip-path="url(#pc383f22058)" style="fill: #0f4c5c; fill-opacity: 0.7; stroke: #000000; stroke-width: 0.758388; stroke-linejoin: miter"/>
   </g>
   <g id="patch_75">
    <path d="M 328.078511 384.48 
L 335.662396 384.48 
L 335.662396 379.05689 
L 328.078511 379.05689 
z
" clip-path="url(#pc383f22058)" style="fill: #0f4c5c; fill-opacity: 0.7; stroke: #000000; stroke-width: 0.758388; stroke-linejoin: miter"/>
   </g>
   <g id="patch_76">
    <path d="M 335.662396 384.48 
L 343.24628 384.48 
L 343.24628 381.316519 
L 335.662396 381.316519 
z
" clip-path="url(#pc383f22058)" style="fill: #0f4c5c; fill-opacity: 0.7; stroke: #000000; stroke-width: 0.758388; stroke-linejoin: miter"/>
   </g>
   <g id="patch_77">
    <path d="M 343.24628 384.48 
L 350.830165 384.48 
L 350.830165 382.672297 
L 343.24628 382.672297 
z
" clip-path="url(#pc383f22058)" style="fill: #0f4c5c; fill-opacity: 0.7; stroke: #000000; stroke-width: 0.758388; stroke-linejoin: miter"/>
   </g>
   <g id="patch_78">
    <path d="M 350.830165 384.48 
L 358.414049 384.48 
L 358.414049 384.028074 
L 350.830165 384.028074 
z
" clip-path="url(#pc383f22058)" style="fill: #0f4c5c; fill-opacity: 0.7; stroke: #000000; stroke-width: 0.758388; stroke-linejoin: miter"/>
   </g>
   <g id="patch_79">
    <path d="M 358.414049 384.48 
L 365.997934 384.48 
L 365.997934 383.576148 
L 358.414049 383.576148 
z
" clip-path="url(#pc383f22058)" style="fill: #0f4c5c; fill-opacity: 0.7; stroke: #000000; stroke-width: 0.758388; stroke-linejoin: miter"/>
   </g>
   <g id="patch_80">
    <path d="M 365.997934 384.48 
L 373.581818 384.48 
L 373.581818 377.249187 
L 365.997934 377.249187 
z
" clip-path="url(#pc383f22058)" style="fill: #0f4c5c; fill-opacity: 0.7; stroke: #000000; stroke-width: 0.758388; stroke-linejoin: miter"/>
   </g>
   <g id="patch_81">
    <path d="M 169.405857 384.48 
L 176.989742 384.48 
L 176.989742 217.267447 
L 169.405857 217.267447 
z
" clip-path="url(#pc383f22058)" style="fill: #5f0f40; fill-opacity: 0.5; stroke: #000000; stroke-width: 0.758388; stroke-linejoin: miter"/>
   </g>
   <g id="patch_82">
    <path d="M 176.989742 384.48 
L 184.573626 384.48 
L 184.573626 384.48 
L 176.989742 384.48 
z
" clip-path="url(#pc383f22058)" style="fill: #5f0f40; fill-opacity: 0.5; stroke: #000000; stroke-width: 0.758388; stroke-linejoin: miter"/>
   </g>
   <g id="patch_83">
    <path d="M 184.573626 384.48 
L 192.157511 384.48 
L 192.157511 384.48 
L 184.573626 384.48 
z
" clip-path="url(#pc383f22058)" style="fill: #5f0f40; fill-opacity: 0.5; stroke: #000000; stroke-width: 0.758388; stroke-linejoin: miter"/>
   </g>
   <g id="patch_84">
    <path d="M 192.157511 384.48 
L 199.741395 384.48 
L 199.741395 384.48 
L 192.157511 384.48 
z
" clip-path="url(#pc383f22058)" style="fill: #5f0f40; fill-opacity: 0.5; stroke: #000000; stroke-width: 0.758388; stroke-linejoin: miter"/>
   </g>
   <g id="patch_85">
    <path d="M 199.741395 384.48 
L 207.32528 384.48 
L 207.32528 384.48 
L 199.741395 384.48 
z
" clip-path="url(#pc383f22058)" style="fill: #5f0f40; fill-opacity: 0.5; stroke: #000000; stroke-width: 0.758388; stroke-linejoin: miter"/>
   </g>
   <g id="patch_86">
    <path d="M 207.32528 384.48 
L 214.909164 384.48 
L 214.909164 384.48 
L 207.32528 384.48 
z
" clip-path="url(#pc383f22058)" style="fill: #5f0f40; fill-opacity: 0.5; stroke: #000000; stroke-width: 0.758388; stroke-linejoin: miter"/>
   </g>
   <g id="patch_87">
    <path d="M 214.909164 384.48 
L 222.493049 384.48 
L 222.493049 384.48 
L 214.909164 384.48 
z
" clip-path="url(#pc383f22058)" style="fill: #5f0f40; fill-opacity: 0.5; stroke: #000000; stroke-width: 0.758388; stroke-linejoin: miter"/>
   </g>
   <g id="patch_88">
    <path d="M 222.493049 384.48 
L 230.076933 384.48 
L 230.076933 384.48 
L 222.493049 384.48 
z
" clip-path="url(#pc383f22058)" style="fill: #5f0f40; fill-opacity: 0.5; stroke: #000000; stroke-width: 0.758388; stroke-linejoin: miter"/>
   </g>
   <g id="patch_89">
    <path d="M 230.076933 384.48 
L 237.660818 384.48 
L 237.660818 384.48 
L 230.076933 384.48 
z
" clip-path="url(#pc383f22058)" style="fill: #5f0f40; fill-opacity: 0.5; stroke: #000000; stroke-width: 0.758388; stroke-linejoin: miter"/>
   </g>
   <g id="patch_90">
    <path d="M 237.660818 384.48 
L 245.244702 384.48 
L 245.244702 384.48 
L 237.660818 384.48 
z
" clip-path="url(#pc383f22058)" style="fill: #5f0f40; fill-opacity: 0.5; stroke: #000000; stroke-width: 0.758388; stroke-linejoin: miter"/>
   </g>
   <g id="patch_91">
    <path d="M 245.244702 384.48 
L 252.828587 384.48 
L 252.828587 384.48 
L 245.244702 384.48 
z
" clip-path="url(#pc383f22058)" style="fill: #5f0f40; fill-opacity: 0.5; stroke: #000000; stroke-width: 0.758388; stroke-linejoin: miter"/>
   </g>
   <g id="patch_92">
    <path d="M 252.828587 384.48 
L 260.412471 384.48 
L 260.412471 384.48 
L 252.828587 384.48 
z
" clip-path="url(#pc383f22058)" style="fill: #5f0f40; fill-opacity: 0.5; stroke: #000000; stroke-width: 0.758388; stroke-linejoin: miter"/>
   </g>
   <g id="patch_93">
    <path d="M 260.412471 384.48 
L 267.996355 384.48 
L 267.996355 384.48 
L 260.412471 384.48 
z
" clip-path="url(#pc383f22058)" style="fill: #5f0f40; fill-opacity: 0.5; stroke: #000000; stroke-width: 0.758388; stroke-linejoin: miter"/>
   </g>
   <g id="patch_94">
    <path d="M 267.996355 384.48 
L 275.58024 384.48 
L 275.58024 67.68 
L 267.996355 67.68 
z
" clip-path="url(#pc383f22058)" style="fill: #5f0f40; fill-opacity: 0.5; stroke: #000000; stroke-width: 0.758388; stroke-linejoin: miter"/>
   </g>
   <g id="patch_95">
    <path d="M 169.405857 384.48 
L 176.989742 384.48 
L 176.989742 272.854322 
L 169.405857 272.854322 
z
" clip-path="url(#pc383f22058)" style="fill: #5f0f40; fill-opacity: 0.7; stroke: #000000; stroke-width: 0.758388; stroke-linejoin: miter"/>
   </g>
   <g id="patch_96">
    <path d="M 176.989742 384.48 
L 184.573626 384.48 
L 184.573626 384.48 
L 176.989742 384.48 
z
" clip-path="url(#pc383f22058)" style="fill: #5f0f40; fill-opacity: 0.7; stroke: #000000; stroke-width: 0.758388; stroke-linejoin: miter"/>
   </g>
   <g id="patch_97">
    <path d="M 184.573626 384.48 
L 192.157511 384.48 
L 192.157511 384.48 
L 184.573626 384.48 
z
" clip-path="url(#pc383f22058)" style="fill: #5f0f40; fill-opacity: 0.7; stroke: #000000; stroke-width: 0.758388; stroke-linejoin: miter"/>
   </g>
   <g id="patch_98">
    <path d="M 192.157511 384.48 
L 199.741395 384.48 
L 199.741395 384.48 
L 192.157511 384.48 
z
" clip-path="url(#pc383f22058)" style="fill: #5f0f40; fill-opacity: 0.7; stroke: #000000; stroke-width: 0.758388; stroke-linejoin: miter"/>
   </g>
   <g id="patch_99">
    <path d="M 199.741395 384.48 
L 207.32528 384.48 
L 207.32528 384.48 
L 199.741395 384.48 
z
" clip-path="url(#pc383f22058)" style="fill: #5f0f40; fill-opacity: 0.7; stroke: #000000; stroke-width: 0.758388; stroke-linejoin: miter"/>
   </g>
   <g id="patch_100">
    <path d="M 207.32528 384.48 
L 214.909164 384.48 
L 214.909164 384.48 
L 207.32528 384.48 
z
" clip-path="url(#pc383f22058)" style="fill: #5f0f40; fill-opacity: 0.7; stroke: #000000; stroke-width: 0.758388; stroke-linejoin: miter"/>
   </g>
   <g id="patch_101">
    <path d="M 214.909164 384.48 
L 222.493049 384.48 
L 222.493049 384.48 
L 214.909164 384.48 
z
" clip-path="url(#pc383f22058)" style="fill: #5f0f40; fill-opacity: 0.7; stroke: #000000; stroke-width: 0.758388; stroke-linejoin: miter"/>
   </g>
   <g id="patch_102">
    <path d="M 222.493049 384.48 
L 230.076933 384.48 
L 230.076933 384.48 
L 222.493049 384.48 
z
" clip-path="url(#pc383f22058)" style="fill: #5f0f40; fill-opacity: 0.7; stroke: #000000; stroke-width: 0.758388; stroke-linejoin: miter"/>
   </g>
   <g id="patch_103">
    <path d="M 230.076933 384.48 
L 237.660818 384.48 
L 237.660818 384.48 
L 230.076933 384.48 
z
" clip-path="url(#pc383f22058)" style="fill: #5f0f40; fill-opacity: 0.7; stroke: #000000; stroke-width: 0.758388; stroke-linejoin: miter"/>
   </g>
   <g id="patch_104">
    <path d="M 237.660818 384.48 
L 245.244702 384.48 
L 245.244702 384.48 
L 237.660818 384.48 
z
" clip-path="url(#pc383f22058)" style="fill: #5f0f40; fill-opacity: 0.7; stroke: #000000; stroke-width: 0.758388; stroke-linejoin: miter"/>
   </g>
   <g id="patch_105">
    <path d="M 245.244702 384.48 
L 252.828587 384.48 
L 252.828587 384.48 
L 245.244702 384.48 
z
" clip-path="url(#pc383f22058)" style="fill: #5f0f40; fill-opacity: 0.7; stroke: #000000; stroke-width: 0.758388; stroke-linejoin: miter"/>
   </g>
   <g id="patch_106">
    <path d="M 252.828587 384.48 
L 260.412471 384.48 
L 260.412471 384.48 
L 252.828587 384.48 
z
" clip-path="url(#pc383f22058)" style="fill: #5f0f40; fill-opacity: 0.7; stroke: #000000; stroke-width: 0.758388; stroke-linejoin: miter"/>
   </g>
   <g id="patch_107">
    <path d="M 260.412471 384.48 
L 267.996355 384.48 
L 267.996355 384.48 
L 260.412471 384.48 
z
" clip-path="url(#pc383f22058)" style="fill: #5f0f40; fill-opacity: 0.7; stroke: #000000; stroke-width: 0.758388; stroke-linejoin: miter"/>
   </g>
   <g id="patch_108">
    <path d="M 267.996355 384.48 
L 275.58024 384.48 
L 275.58024 110.161027 
L 267.996355 110.161027 
z
" clip-path="url(#pc383f22058)" style="fill: #5f0f40; fill-opacity: 0.7; stroke: #000000; stroke-width: 0.758388; stroke-linejoin: miter"/>
   </g>
   <g id="matplotlib.axis_1">
    <g id="xtick_1">
     <g id="line2d_1">
      <defs>
       <path id="m95ffbd9333" d="M 0 0 
L 0 3.5 
" style="stroke: #000000; stroke-width: 0.8"/>
      </defs>
      <g>
       <use xlink:href="#m95ffbd9333" x="68.287398" y="384.48" style="stroke: #000000; stroke-width: 0.8"/>
      </g>
     </g>
     <g id="text_1">
      <!-- −600 -->
      <g transform="translate(54.553804 399.078438) scale(0.1 -0.1)">
       <defs>
        <path id="DejaVuSans-2212" d="M 678 2272 
L 4684 2272 
L 4684 1741 
L 678 1741 
L 678 2272 
z
" transform="scale(0.015625)"/>
        <path id="DejaVuSans-36" d="M 2113 2584 
Q 1688 2584 1439 2293 
Q 1191 2003 1191 1497 
Q 1191 994 1439 701 
Q 1688 409 2113 409 
Q 2538 409 2786 701 
Q 3034 994 3034 1497 
Q 3034 2003 2786 2293 
Q 2538 2584 2113 2584 
z
M 3366 4563 
L 3366 3988 
Q 3128 4100 2886 4159 
Q 2644 4219 2406 4219 
Q 1781 4219 1451 3797 
Q 1122 3375 1075 2522 
Q 1259 2794 1537 2939 
Q 1816 3084 2150 3084 
Q 2853 3084 3261 2657 
Q 3669 2231 3669 1497 
Q 3669 778 3244 343 
Q 2819 -91 2113 -91 
Q 1303 -91 875 529 
Q 447 1150 447 2328 
Q 447 3434 972 4092 
Q 1497 4750 2381 4750 
Q 2619 4750 2861 4703 
Q 3103 4656 3366 4563 
z
" transform="scale(0.015625)"/>
        <path id="DejaVuSans-30" d="M 2034 4250 
Q 1547 4250 1301 3770 
Q 1056 3291 1056 2328 
Q 1056 1369 1301 889 
Q 1547 409 2034 409 
Q 2525 409 2770 889 
Q 3016 1369 3016 2328 
Q 3016 3291 2770 3770 
Q 2525 4250 2034 4250 
z
M 2034 4750 
Q 2819 4750 3233 4129 
Q 3647 3509 3647 2328 
Q 3647 1150 3233 529 
Q 2819 -91 2034 -91 
Q 1250 -91 836 529 
Q 422 1150 422 2328 
Q 422 3509 836 4129 
Q 1250 4750 2034 4750 
z
" transform="scale(0.015625)"/>
       </defs>
       <use xlink:href="#DejaVuSans-2212"/>
       <use xlink:href="#DejaVuSans-36" x="83.789062"/>
       <use xlink:href="#DejaVuSans-30" x="147.412109"/>
       <use xlink:href="#DejaVuSans-30" x="211.035156"/>
      </g>
     </g>
    </g>
    <g id="xtick_2">
     <g id="line2d_2">
      <g>
       <use xlink:href="#m95ffbd9333" x="118.846628" y="384.48" style="stroke: #000000; stroke-width: 0.8"/>
      </g>
     </g>
     <g id="text_2">
      <!-- −400 -->
      <g transform="translate(105.113034 399.078438) scale(0.1 -0.1)">
       <defs>
        <path id="DejaVuSans-34" d="M 2419 4116 
L 825 1625 
L 2419 1625 
L 2419 4116 
z
M 2253 4666 
L 3047 4666 
L 3047 1625 
L 3713 1625 
L 3713 1100 
L 3047 1100 
L 3047 0 
L 2419 0 
L 2419 1100 
L 313 1100 
L 313 1709 
L 2253 4666 
z
" transform="scale(0.015625)"/>
       </defs>
       <use xlink:href="#DejaVuSans-2212"/>
       <use xlink:href="#DejaVuSans-34" x="83.789062"/>
       <use xlink:href="#DejaVuSans-30" x="147.412109"/>
       <use xlink:href="#DejaVuSans-30" x="211.035156"/>
      </g>
     </g>
    </g>
    <g id="xtick_3">
     <g id="line2d_3">
      <g>
       <use xlink:href="#m95ffbd9333" x="169.405857" y="384.48" style="stroke: #000000; stroke-width: 0.8"/>
      </g>
     </g>
     <g id="text_3">
      <!-- −200 -->
      <g transform="translate(155.672264 399.078438) scale(0.1 -0.1)">
       <defs>
        <path id="DejaVuSans-32" d="M 1228 531 
L 3431 531 
L 3431 0 
L 469 0 
L 469 531 
Q 828 903 1448 1529 
Q 2069 2156 2228 2338 
Q 2531 2678 2651 2914 
Q 2772 3150 2772 3378 
Q 2772 3750 2511 3984 
Q 2250 4219 1831 4219 
Q 1534 4219 1204 4116 
Q 875 4013 500 3803 
L 500 4441 
Q 881 4594 1212 4672 
Q 1544 4750 1819 4750 
Q 2544 4750 2975 4387 
Q 3406 4025 3406 3419 
Q 3406 3131 3298 2873 
Q 3191 2616 2906 2266 
Q 2828 2175 2409 1742 
Q 1991 1309 1228 531 
z
" transform="scale(0.015625)"/>
       </defs>
       <use xlink:href="#DejaVuSans-2212"/>
       <use xlink:href="#DejaVuSans-32" x="83.789062"/>
       <use xlink:href="#DejaVuSans-30" x="147.412109"/>
       <use xlink:href="#DejaVuSans-30" x="211.035156"/>
      </g>
     </g>
    </g>
    <g id="xtick_4">
     <g id="line2d_4">
      <g>
       <use xlink:href="#m95ffbd9333" x="219.965087" y="384.48" style="stroke: #000000; stroke-width: 0.8"/>
      </g>
     </g>
     <g id="text_4">
      <!-- 0 -->
      <g transform="translate(216.783837 399.078438) scale(0.1 -0.1)">
       <use xlink:href="#DejaVuSans-30"/>
      </g>
     </g>
    </g>
    <g id="xtick_5">
     <g id="line2d_5">
      <g>
       <use xlink:href="#m95ffbd9333" x="270.524317" y="384.48" style="stroke: #000000; stroke-width: 0.8"/>
      </g>
     </g>
     <g id="text_5">
      <!-- 200 -->
      <g transform="translate(260.980567 399.078438) scale(0.1 -0.1)">
       <use xlink:href="#DejaVuSans-32"/>
       <use xlink:href="#DejaVuSans-30" x="63.623047"/>
       <use xlink:href="#DejaVuSans-30" x="127.246094"/>
      </g>
     </g>
    </g>
    <g id="xtick_6">
     <g id="line2d_6">
      <g>
       <use xlink:href="#m95ffbd9333" x="321.083547" y="384.48" style="stroke: #000000; stroke-width: 0.8"/>
      </g>
     </g>
     <g id="text_6">
      <!-- 400 -->
      <g transform="translate(311.539797 399.078438) scale(0.1 -0.1)">
       <use xlink:href="#DejaVuSans-34"/>
       <use xlink:href="#DejaVuSans-30" x="63.623047"/>
       <use xlink:href="#DejaVuSans-30" x="127.246094"/>
      </g>
     </g>
    </g>
    <g id="xtick_7">
     <g id="line2d_7">
      <g>
       <use xlink:href="#m95ffbd9333" x="371.642777" y="384.48" style="stroke: #000000; stroke-width: 0.8"/>
      </g>
     </g>
     <g id="text_7">
      <!-- 600 -->
      <g transform="translate(362.099027 399.078438) scale(0.1 -0.1)">
       <use xlink:href="#DejaVuSans-36"/>
       <use xlink:href="#DejaVuSans-30" x="63.623047"/>
       <use xlink:href="#DejaVuSans-30" x="127.246094"/>
      </g>
     </g>
    </g>
   </g>
   <g id="matplotlib.axis_2">
    <g id="ytick_1">
     <g id="line2d_8">
      <defs>
       <path id="mdc9cbb6ef1" d="M 0 0 
L -3.5 0 
" style="stroke: #000000; stroke-width: 0.8"/>
      </defs>
      <g>
       <use xlink:href="#mdc9cbb6ef1" x="54" y="384.48" style="stroke: #000000; stroke-width: 0.8"/>
      </g>
     </g>
     <g id="text_8">
      <!-- 0 -->
      <g transform="translate(40.6375 388.279219) scale(0.1 -0.1)">
       <use xlink:href="#DejaVuSans-30"/>
      </g>
     </g>
    </g>
    <g id="ytick_2">
     <g id="line2d_9">
      <g>
       <use xlink:href="#mdc9cbb6ef1" x="54" y="339.287418" style="stroke: #000000; stroke-width: 0.8"/>
      </g>
     </g>
     <g id="text_9">
      <!-- 100 -->
      <g transform="translate(27.9125 343.086637) scale(0.1 -0.1)">
       <defs>
        <path id="DejaVuSans-31" d="M 794 531 
L 1825 531 
L 1825 4091 
L 703 3866 
L 703 4441 
L 1819 4666 
L 2450 4666 
L 2450 531 
L 3481 531 
L 3481 0 
L 794 0 
L 794 531 
z
" transform="scale(0.015625)"/>
       </defs>
       <use xlink:href="#DejaVuSans-31"/>
       <use xlink:href="#DejaVuSans-30" x="63.623047"/>
       <use xlink:href="#DejaVuSans-30" x="127.246094"/>
      </g>
     </g>
    </g>
    <g id="ytick_3">
     <g id="line2d_10">
      <g>
       <use xlink:href="#mdc9cbb6ef1" x="54" y="294.094836" style="stroke: #000000; stroke-width: 0.8"/>
      </g>
     </g>
     <g id="text_10">
      <!-- 200 -->
      <g transform="translate(27.9125 297.894055) scale(0.1 -0.1)">
       <use xlink:href="#DejaVuSans-32"/>
       <use xlink:href="#DejaVuSans-30" x="63.623047"/>
       <use xlink:href="#DejaVuSans-30" x="127.246094"/>
      </g>
     </g>
    </g>
    <g id="ytick_4">
     <g id="line2d_11">
      <g>
       <use xlink:href="#mdc9cbb6ef1" x="54" y="248.902254" style="stroke: #000000; stroke-width: 0.8"/>
      </g>
     </g>
     <g id="text_11">
      <!-- 300 -->
      <g transform="translate(27.9125 252.701473) scale(0.1 -0.1)">
       <defs>
        <path id="DejaVuSans-33" d="M 2597 2516 
Q 3050 2419 3304 2112 
Q 3559 1806 3559 1356 
Q 3559 666 3084 287 
Q 2609 -91 1734 -91 
Q 1441 -91 1130 -33 
Q 819 25 488 141 
L 488 750 
Q 750 597 1062 519 
Q 1375 441 1716 441 
Q 2309 441 2620 675 
Q 2931 909 2931 1356 
Q 2931 1769 2642 2001 
Q 2353 2234 1838 2234 
L 1294 2234 
L 1294 2753 
L 1863 2753 
Q 2328 2753 2575 2939 
Q 2822 3125 2822 3475 
Q 2822 3834 2567 4026 
Q 2313 4219 1838 4219 
Q 1578 4219 1281 4162 
Q 984 4106 628 3988 
L 628 4550 
Q 988 4650 1302 4700 
Q 1616 4750 1894 4750 
Q 2613 4750 3031 4423 
Q 3450 4097 3450 3541 
Q 3450 3153 3228 2886 
Q 3006 2619 2597 2516 
z
" transform="scale(0.015625)"/>
       </defs>
       <use xlink:href="#DejaVuSans-33"/>
       <use xlink:href="#DejaVuSans-30" x="63.623047"/>
       <use xlink:href="#DejaVuSans-30" x="127.246094"/>
      </g>
     </g>
    </g>
    <g id="ytick_5">
     <g id="line2d_12">
      <g>
       <use xlink:href="#mdc9cbb6ef1" x="54" y="203.709672" style="stroke: #000000; stroke-width: 0.8"/>
      </g>
     </g>
     <g id="text_12">
      <!-- 400 -->
      <g transform="translate(27.9125 207.508891) scale(0.1 -0.1)">
       <use xlink:href="#DejaVuSans-34"/>
       <use xlink:href="#DejaVuSans-30" x="63.623047"/>
       <use xlink:href="#DejaVuSans-30" x="127.246094"/>
      </g>
     </g>
    </g>
    <g id="ytick_6">
     <g id="line2d_13">
      <g>
       <use xlink:href="#mdc9cbb6ef1" x="54" y="158.51709" style="stroke: #000000; stroke-width: 0.8"/>
      </g>
     </g>
     <g id="text_13">
      <!-- 500 -->
      <g transform="translate(27.9125 162.316309) scale(0.1 -0.1)">
       <defs>
        <path id="DejaVuSans-35" d="M 691 4666 
L 3169 4666 
L 3169 4134 
L 1269 4134 
L 1269 2991 
Q 1406 3038 1543 3061 
Q 1681 3084 1819 3084 
Q 2600 3084 3056 2656 
Q 3513 2228 3513 1497 
Q 3513 744 3044 326 
Q 2575 -91 1722 -91 
Q 1428 -91 1123 -41 
Q 819 9 494 109 
L 494 744 
Q 775 591 1075 516 
Q 1375 441 1709 441 
Q 2250 441 2565 725 
Q 2881 1009 2881 1497 
Q 2881 1984 2565 2268 
Q 2250 2553 1709 2553 
Q 1456 2553 1204 2497 
Q 953 2441 691 2322 
L 691 4666 
z
" transform="scale(0.015625)"/>
       </defs>
       <use xlink:href="#DejaVuSans-35"/>
       <use xlink:href="#DejaVuSans-30" x="63.623047"/>
       <use xlink:href="#DejaVuSans-30" x="127.246094"/>
      </g>
     </g>
    </g>
    <g id="ytick_7">
     <g id="line2d_14">
      <g>
       <use xlink:href="#mdc9cbb6ef1" x="54" y="113.324508" style="stroke: #000000; stroke-width: 0.8"/>
      </g>
     </g>
     <g id="text_14">
      <!-- 600 -->
      <g transform="translate(27.9125 117.123727) scale(0.1 -0.1)">
       <use xlink:href="#DejaVuSans-36"/>
       <use xlink:href="#DejaVuSans-30" x="63.623047"/>
       <use xlink:href="#DejaVuSans-30" x="127.246094"/>
      </g>
     </g>
    </g>
    <g id="ytick_8">
     <g id="line2d_15">
      <g>
       <use xlink:href="#mdc9cbb6ef1" x="54" y="68.131926" style="stroke: #000000; stroke-width: 0.8"/>
      </g>
     </g>
     <g id="text_15">
      <!-- 700 -->
      <g transform="translate(27.9125 71.931145) scale(0.1 -0.1)">
       <defs>
        <path id="DejaVuSans-37" d="M 525 4666 
L 3525 4666 
L 3525 4397 
L 1831 0 
L 1172 0 
L 2766 4134 
L 525 4134 
L 525 4666 
z
" transform="scale(0.015625)"/>
       </defs>
       <use xlink:href="#DejaVuSans-37"/>
       <use xlink:href="#DejaVuSans-30" x="63.623047"/>
       <use xlink:href="#DejaVuSans-30" x="127.246094"/>
      </g>
     </g>
    </g>
    <g id="text_16">
     <!-- Count -->
     <g transform="translate(21.832812 233.008437) rotate(-90) scale(0.1 -0.1)">
      <defs>
       <path id="DejaVuSans-43" d="M 4122 4306 
L 4122 3641 
Q 3803 3938 3442 4084 
Q 3081 4231 2675 4231 
Q 1875 4231 1450 3742 
Q 1025 3253 1025 2328 
Q 1025 1406 1450 917 
Q 1875 428 2675 428 
Q 3081 428 3442 575 
Q 3803 722 4122 1019 
L 4122 359 
Q 3791 134 3420 21 
Q 3050 -91 2638 -91 
Q 1578 -91 968 557 
Q 359 1206 359 2328 
Q 359 3453 968 4101 
Q 1578 4750 2638 4750 
Q 3056 4750 3426 4639 
Q 3797 4528 4122 4306 
z
" transform="scale(0.015625)"/>
       <path id="DejaVuSans-6f" d="M 1959 3097 
Q 1497 3097 1228 2736 
Q 959 2375 959 1747 
Q 959 1119 1226 758 
Q 1494 397 1959 397 
Q 2419 397 2687 759 
Q 2956 1122 2956 1747 
Q 2956 2369 2687 2733 
Q 2419 3097 1959 3097 
z
M 1959 3584 
Q 2709 3584 3137 3096 
Q 3566 2609 3566 1747 
Q 3566 888 3137 398 
Q 2709 -91 1959 -91 
Q 1206 -91 779 398 
Q 353 888 353 1747 
Q 353 2609 779 3096 
Q 1206 3584 1959 3584 
z
" transform="scale(0.015625)"/>
       <path id="DejaVuSans-75" d="M 544 1381 
L 544 3500 
L 1119 3500 
L 1119 1403 
Q 1119 906 1312 657 
Q 1506 409 1894 409 
Q 2359 409 2629 706 
Q 2900 1003 2900 1516 
L 2900 3500 
L 3475 3500 
L 3475 0 
L 2900 0 
L 2900 538 
Q 2691 219 2414 64 
Q 2138 -91 1772 -91 
Q 1169 -91 856 284 
Q 544 659 544 1381 
z
M 1991 3584 
L 1991 3584 
z
" transform="scale(0.015625)"/>
       <path id="DejaVuSans-6e" d="M 3513 2113 
L 3513 0 
L 2938 0 
L 2938 2094 
Q 2938 2591 2744 2837 
Q 2550 3084 2163 3084 
Q 1697 3084 1428 2787 
Q 1159 2491 1159 1978 
L 1159 0 
L 581 0 
L 581 3500 
L 1159 3500 
L 1159 2956 
Q 1366 3272 1645 3428 
Q 1925 3584 2291 3584 
Q 2894 3584 3203 3211 
Q 3513 2838 3513 2113 
z
" transform="scale(0.015625)"/>
       <path id="DejaVuSans-74" d="M 1172 4494 
L 1172 3500 
L 2356 3500 
L 2356 3053 
L 1172 3053 
L 1172 1153 
Q 1172 725 1289 603 
Q 1406 481 1766 481 
L 2356 481 
L 2356 0 
L 1766 0 
Q 1100 0 847 248 
Q 594 497 594 1153 
L 594 3053 
L 172 3053 
L 172 3500 
L 594 3500 
L 594 4494 
L 1172 4494 
z
" transform="scale(0.015625)"/>
      </defs>
      <use xlink:href="#DejaVuSans-43"/>
      <use xlink:href="#DejaVuSans-6f" x="69.824219"/>
      <use xlink:href="#DejaVuSans-75" x="131.005859"/>
      <use xlink:href="#DejaVuSans-6e" x="194.384766"/>
      <use xlink:href="#DejaVuSans-74" x="257.763672"/>
     </g>
    </g>
   </g>
   <g id="line2d_16">
    <path d="M 69.218182 383.210266 
L 98.092892 381.166667 
L 110.250665 380.119431 
L 146.723982 376.513687 
L 152.802869 375.686859 
L 158.881755 374.662501 
L 168.000085 372.855468 
L 175.598693 371.429673 
L 180.157857 370.82007 
L 183.1973 370.586159 
L 186.236744 370.522829 
L 189.276187 370.647176 
L 192.31563 370.961992 
L 195.355073 371.452327 
L 199.914238 372.43578 
L 207.512846 374.201271 
L 210.552289 374.712435 
L 213.591732 374.984781 
L 216.631175 374.947395 
L 219.670618 374.550422 
L 222.710062 373.771332 
L 225.749505 372.618335 
L 228.788948 371.130368 
L 231.828391 369.373603 
L 236.387556 366.428039 
L 242.466442 362.445187 
L 245.505885 360.642854 
L 248.545328 359.067343 
L 251.584772 357.768991 
L 254.624215 356.776168 
L 257.663658 356.096751 
L 260.703101 355.721432 
L 263.742544 355.628113 
L 266.781987 355.786566 
L 269.821431 356.162709 
L 272.860874 356.722046 
L 277.420039 357.8342 
L 281.979203 359.190224 
L 288.05809 361.244143 
L 312.373635 369.8328 
L 318.452521 371.628484 
L 324.531408 373.151517 
L 329.090572 374.075115 
L 333.649737 374.781912 
L 338.208902 375.2552 
L 342.768067 375.498082 
L 348.846953 375.526781 
L 361.004725 375.366664 
L 365.56389 375.593502 
L 370.123055 376.12233 
L 371.642777 376.37027 
L 371.642777 376.37027 
" clip-path="url(#pc383f22058)" style="fill: none; stroke: #0f4c5c; stroke-width: 1.5; stroke-linecap: square"/>
   </g>
   <g id="line2d_17">
    <path d="M 85.394208 383.819419 
L 119.916649 382.703764 
L 132.862564 382.061598 
L 144.370044 381.250469 
L 161.631264 379.747645 
L 186.084659 377.595969 
L 190.399964 377.479394 
L 194.71527 377.548531 
L 200.46901 377.904205 
L 210.538055 378.65979 
L 214.85336 378.679356 
L 217.73023 378.49269 
L 220.6071 378.118849 
L 223.48397 377.551204 
L 226.36084 376.799935 
L 230.676145 375.391099 
L 243.62206 370.704152 
L 246.49893 369.917708 
L 249.3758 369.315334 
L 252.25267 368.91674 
L 255.12954 368.728016 
L 258.00641 368.742853 
L 260.88328 368.944759 
L 265.198585 369.544736 
L 269.51389 370.413664 
L 275.26763 371.8165 
L 288.213546 375.054064 
L 293.967286 376.247465 
L 299.721026 377.219339 
L 305.474766 377.980985 
L 312.666941 378.708231 
L 348.627816 381.742325 
L 357.258426 382.204816 
L 371.642777 382.721313 
L 371.642777 382.721313 
" clip-path="url(#pc383f22058)" style="fill: none; stroke: #0f4c5c; stroke-width: 1.5; stroke-linecap: square"/>
   </g>
   <g id="patch_109">
    <path d="M 54 384.48 
L 54 51.84 
" style="fill: none; stroke: #000000; stroke-width: 0.8; stroke-linejoin: miter; stroke-linecap: square"/>
   </g>
   <g id="patch_110">
    <path d="M 388.8 384.48 
L 388.8 51.84 
" style="fill: none; stroke: #000000; stroke-width: 0.8; stroke-linejoin: miter; stroke-linecap: square"/>
   </g>
   <g id="patch_111">
    <path d="M 54 384.48 
L 388.8 384.48 
" style="fill: none; stroke: #000000; stroke-width: 0.8; stroke-linejoin: miter; stroke-linecap: square"/>
   </g>
   <g id="patch_112">
    <path d="M 54 51.84 
L 388.8 51.84 
" style="fill: none; stroke: #000000; stroke-width: 0.8; stroke-linejoin: miter; stroke-linecap: square"/>
   </g>
  </g>
 </g>
 <defs>
  <clipPath id="pc383f22058">
   <rect x="54" y="51.84" width="334.8" height="332.64"/>
  </clipPath>
 </defs>
</svg>
