<?xml version="1.0" encoding="utf-8" standalone="no"?>
<!DOCTYPE svg PUBLIC "-//W3C//DTD SVG 1.1//EN"
  "http://www.w3.org/Graphics/SVG/1.1/DTD/svg11.dtd">
<svg xmlns:xlink="http://www.w3.org/1999/xlink" width="432pt" height="432pt" viewBox="0 0 432 432" xmlns="http://www.w3.org/2000/svg" version="1.1">
 <metadata>
  <rdf:RDF xmlns:dc="http://purl.org/dc/elements/1.1/" xmlns:cc="http://creativecommons.org/ns#" xmlns:rdf="http://www.w3.org/1999/02/22-rdf-syntax-ns#">
   <cc:Work>
    <dc:type rdf:resource="http://purl.org/dc/dcmitype/StillImage"/>
    <dc:date>2024-09-25T13:32:38.148055</dc:date>
    <dc:format>image/svg+xml</dc:format>
    <dc:creator>
     <cc:Agent>
      <dc:title>Matplotlib v3.8.0, https://matplotlib.org/</dc:title>
     </cc:Agent>
    </dc:creator>
   </cc:Work>
  </rdf:RDF>
 </metadata>
 <defs>
  <style type="text/css">*{stroke-linejoin: round; stroke-linecap: butt}</style>
 </defs>
 <g id="figure_1">
  <g id="patch_1">
   <path d="M 0 432 
L 432 432 
L 432 0 
L 0 0 
z
" style="fill: #ffffff"/>
  </g>
  <g id="axes_1">
   <g id="patch_2">
    <path d="M 54 384.48 
L 388.8 384.48 
L 388.8 51.84 
L 54 51.84 
z
" style="fill: #ffffff"/>
   </g>
   <g id="patch_3">
    <path d="M 69.218182 384.48 
L 76.802066 384.48 
L 76.802066 367.848 
L 69.218182 367.848 
z
" clip-path="url(#pda3d650163)" style="fill: #0f4c5c; fill-opacity: 0.5; stroke: #000000; stroke-width: 0.760909; stroke-linejoin: miter"/>
   </g>
   <g id="patch_4">
    <path d="M 76.802066 384.48 
L 84.385951 384.48 
L 84.385951 367.848 
L 76.802066 367.848 
z
" clip-path="url(#pda3d650163)" style="fill: #0f4c5c; fill-opacity: 0.5; stroke: #000000; stroke-width: 0.760909; stroke-linejoin: miter"/>
   </g>
   <g id="patch_5">
    <path d="M 84.385951 384.48 
L 91.969835 384.48 
L 91.969835 364.5216 
L 84.385951 364.5216 
z
" clip-path="url(#pda3d650163)" style="fill: #0f4c5c; fill-opacity: 0.5; stroke: #000000; stroke-width: 0.760909; stroke-linejoin: miter"/>
   </g>
   <g id="patch_6">
    <path d="M 91.969835 384.48 
L 99.55372 384.48 
L 99.55372 357.8688 
L 91.969835 357.8688 
z
" clip-path="url(#pda3d650163)" style="fill: #0f4c5c; fill-opacity: 0.5; stroke: #000000; stroke-width: 0.760909; stroke-linejoin: miter"/>
   </g>
   <g id="patch_7">
    <path d="M 99.55372 384.48 
L 107.137604 384.48 
L 107.137604 367.848 
L 99.55372 367.848 
z
" clip-path="url(#pda3d650163)" style="fill: #0f4c5c; fill-opacity: 0.5; stroke: #000000; stroke-width: 0.760909; stroke-linejoin: miter"/>
   </g>
   <g id="patch_8">
    <path d="M 107.137604 384.48 
L 114.721489 384.48 
L 114.721489 357.8688 
L 107.137604 357.8688 
z
" clip-path="url(#pda3d650163)" style="fill: #0f4c5c; fill-opacity: 0.5; stroke: #000000; stroke-width: 0.760909; stroke-linejoin: miter"/>
   </g>
   <g id="patch_9">
    <path d="M 114.721489 384.48 
L 122.305373 384.48 
L 122.305373 347.8896 
L 114.721489 347.8896 
z
" clip-path="url(#pda3d650163)" style="fill: #0f4c5c; fill-opacity: 0.5; stroke: #000000; stroke-width: 0.760909; stroke-linejoin: miter"/>
   </g>
   <g id="patch_10">
    <path d="M 122.305373 384.48 
L 129.889258 384.48 
L 129.889258 334.584 
L 122.305373 334.584 
z
" clip-path="url(#pda3d650163)" style="fill: #0f4c5c; fill-opacity: 0.5; stroke: #000000; stroke-width: 0.760909; stroke-linejoin: miter"/>
   </g>
   <g id="patch_11">
    <path d="M 129.889258 384.48 
L 137.473142 384.48 
L 137.473142 324.6048 
L 129.889258 324.6048 
z
" clip-path="url(#pda3d650163)" style="fill: #0f4c5c; fill-opacity: 0.5; stroke: #000000; stroke-width: 0.760909; stroke-linejoin: miter"/>
   </g>
   <g id="patch_12">
    <path d="M 137.473142 384.48 
L 145.057027 384.48 
L 145.057027 324.6048 
L 137.473142 324.6048 
z
" clip-path="url(#pda3d650163)" style="fill: #0f4c5c; fill-opacity: 0.5; stroke: #000000; stroke-width: 0.760909; stroke-linejoin: miter"/>
   </g>
   <g id="patch_13">
    <path d="M 145.057027 384.48 
L 152.640911 384.48 
L 152.640911 347.8896 
L 145.057027 347.8896 
z
" clip-path="url(#pda3d650163)" style="fill: #0f4c5c; fill-opacity: 0.5; stroke: #000000; stroke-width: 0.760909; stroke-linejoin: miter"/>
   </g>
   <g id="patch_14">
    <path d="M 152.640911 384.48 
L 160.224795 384.48 
L 160.224795 321.2784 
L 152.640911 321.2784 
z
" clip-path="url(#pda3d650163)" style="fill: #0f4c5c; fill-opacity: 0.5; stroke: #000000; stroke-width: 0.760909; stroke-linejoin: miter"/>
   </g>
   <g id="patch_15">
    <path d="M 160.224795 384.48 
L 167.80868 384.48 
L 167.80868 307.9728 
L 160.224795 307.9728 
z
" clip-path="url(#pda3d650163)" style="fill: #0f4c5c; fill-opacity: 0.5; stroke: #000000; stroke-width: 0.760909; stroke-linejoin: miter"/>
   </g>
   <g id="patch_16">
    <path d="M 167.80868 384.48 
L 175.392564 384.48 
L 175.392564 297.9936 
L 167.80868 297.9936 
z
" clip-path="url(#pda3d650163)" style="fill: #0f4c5c; fill-opacity: 0.5; stroke: #000000; stroke-width: 0.760909; stroke-linejoin: miter"/>
   </g>
   <g id="patch_17">
    <path d="M 175.392564 384.48 
L 182.976449 384.48 
L 182.976449 294.6672 
L 175.392564 294.6672 
z
" clip-path="url(#pda3d650163)" style="fill: #0f4c5c; fill-opacity: 0.5; stroke: #000000; stroke-width: 0.760909; stroke-linejoin: miter"/>
   </g>
   <g id="patch_18">
    <path d="M 182.976449 384.48 
L 190.560333 384.48 
L 190.560333 228.1392 
L 182.976449 228.1392 
z
" clip-path="url(#pda3d650163)" style="fill: #0f4c5c; fill-opacity: 0.5; stroke: #000000; stroke-width: 0.760909; stroke-linejoin: miter"/>
   </g>
   <g id="patch_19">
    <path d="M 190.560333 384.48 
L 198.144218 384.48 
L 198.144218 241.4448 
L 190.560333 241.4448 
z
" clip-path="url(#pda3d650163)" style="fill: #0f4c5c; fill-opacity: 0.5; stroke: #000000; stroke-width: 0.760909; stroke-linejoin: miter"/>
   </g>
   <g id="patch_20">
    <path d="M 198.144218 384.48 
L 205.728102 384.48 
L 205.728102 234.792 
L 198.144218 234.792 
z
" clip-path="url(#pda3d650163)" style="fill: #0f4c5c; fill-opacity: 0.5; stroke: #000000; stroke-width: 0.760909; stroke-linejoin: miter"/>
   </g>
   <g id="patch_21">
    <path d="M 205.728102 384.48 
L 213.311987 384.48 
L 213.311987 384.48 
L 205.728102 384.48 
z
" clip-path="url(#pda3d650163)" style="fill: #0f4c5c; fill-opacity: 0.5; stroke: #000000; stroke-width: 0.760909; stroke-linejoin: miter"/>
   </g>
   <g id="patch_22">
    <path d="M 213.311987 384.48 
L 220.895871 384.48 
L 220.895871 384.48 
L 213.311987 384.48 
z
" clip-path="url(#pda3d650163)" style="fill: #0f4c5c; fill-opacity: 0.5; stroke: #000000; stroke-width: 0.760909; stroke-linejoin: miter"/>
   </g>
   <g id="patch_23">
    <path d="M 220.895871 384.48 
L 228.479756 384.48 
L 228.479756 384.48 
L 220.895871 384.48 
z
" clip-path="url(#pda3d650163)" style="fill: #0f4c5c; fill-opacity: 0.5; stroke: #000000; stroke-width: 0.760909; stroke-linejoin: miter"/>
   </g>
   <g id="patch_24">
    <path d="M 228.479756 384.48 
L 236.06364 384.48 
L 236.06364 367.848 
L 228.479756 367.848 
z
" clip-path="url(#pda3d650163)" style="fill: #0f4c5c; fill-opacity: 0.5; stroke: #000000; stroke-width: 0.760909; stroke-linejoin: miter"/>
   </g>
   <g id="patch_25">
    <path d="M 236.06364 384.48 
L 243.647525 384.48 
L 243.647525 105.0624 
L 236.06364 105.0624 
z
" clip-path="url(#pda3d650163)" style="fill: #0f4c5c; fill-opacity: 0.5; stroke: #000000; stroke-width: 0.760909; stroke-linejoin: miter"/>
   </g>
   <g id="patch_26">
    <path d="M 243.647525 384.48 
L 251.231409 384.48 
L 251.231409 174.9168 
L 243.647525 174.9168 
z
" clip-path="url(#pda3d650163)" style="fill: #0f4c5c; fill-opacity: 0.5; stroke: #000000; stroke-width: 0.760909; stroke-linejoin: miter"/>
   </g>
   <g id="patch_27">
    <path d="M 251.231409 384.48 
L 258.815294 384.48 
L 258.815294 138.3264 
L 251.231409 138.3264 
z
" clip-path="url(#pda3d650163)" style="fill: #0f4c5c; fill-opacity: 0.5; stroke: #000000; stroke-width: 0.760909; stroke-linejoin: miter"/>
   </g>
   <g id="patch_28">
    <path d="M 258.815294 384.48 
L 266.399178 384.48 
L 266.399178 125.0208 
L 258.815294 125.0208 
z
" clip-path="url(#pda3d650163)" style="fill: #0f4c5c; fill-opacity: 0.5; stroke: #000000; stroke-width: 0.760909; stroke-linejoin: miter"/>
   </g>
   <g id="patch_29">
    <path d="M 266.399178 384.48 
L 273.983063 384.48 
L 273.983063 164.9376 
L 266.399178 164.9376 
z
" clip-path="url(#pda3d650163)" style="fill: #0f4c5c; fill-opacity: 0.5; stroke: #000000; stroke-width: 0.760909; stroke-linejoin: miter"/>
   </g>
   <g id="patch_30">
    <path d="M 273.983063 384.48 
L 281.566947 384.48 
L 281.566947 191.5488 
L 273.983063 191.5488 
z
" clip-path="url(#pda3d650163)" style="fill: #0f4c5c; fill-opacity: 0.5; stroke: #000000; stroke-width: 0.760909; stroke-linejoin: miter"/>
   </g>
   <g id="patch_31">
    <path d="M 281.566947 384.48 
L 289.150831 384.48 
L 289.150831 191.5488 
L 281.566947 191.5488 
z
" clip-path="url(#pda3d650163)" style="fill: #0f4c5c; fill-opacity: 0.5; stroke: #000000; stroke-width: 0.760909; stroke-linejoin: miter"/>
   </g>
   <g id="patch_32">
    <path d="M 289.150831 384.48 
L 296.734716 384.48 
L 296.734716 228.1392 
L 289.150831 228.1392 
z
" clip-path="url(#pda3d650163)" style="fill: #0f4c5c; fill-opacity: 0.5; stroke: #000000; stroke-width: 0.760909; stroke-linejoin: miter"/>
   </g>
   <g id="patch_33">
    <path d="M 296.734716 384.48 
L 304.3186 384.48 
L 304.3186 268.056 
L 296.734716 268.056 
z
" clip-path="url(#pda3d650163)" style="fill: #0f4c5c; fill-opacity: 0.5; stroke: #000000; stroke-width: 0.760909; stroke-linejoin: miter"/>
   </g>
   <g id="patch_34">
    <path d="M 304.3186 384.48 
L 311.902485 384.48 
L 311.902485 258.0768 
L 304.3186 258.0768 
z
" clip-path="url(#pda3d650163)" style="fill: #0f4c5c; fill-opacity: 0.5; stroke: #000000; stroke-width: 0.760909; stroke-linejoin: miter"/>
   </g>
   <g id="patch_35">
    <path d="M 311.902485 384.48 
L 319.486369 384.48 
L 319.486369 288.0144 
L 311.902485 288.0144 
z
" clip-path="url(#pda3d650163)" style="fill: #0f4c5c; fill-opacity: 0.5; stroke: #000000; stroke-width: 0.760909; stroke-linejoin: miter"/>
   </g>
   <g id="patch_36">
    <path d="M 319.486369 384.48 
L 327.070254 384.48 
L 327.070254 314.6256 
L 319.486369 314.6256 
z
" clip-path="url(#pda3d650163)" style="fill: #0f4c5c; fill-opacity: 0.5; stroke: #000000; stroke-width: 0.760909; stroke-linejoin: miter"/>
   </g>
   <g id="patch_37">
    <path d="M 327.070254 384.48 
L 334.654138 384.48 
L 334.654138 317.952 
L 327.070254 317.952 
z
" clip-path="url(#pda3d650163)" style="fill: #0f4c5c; fill-opacity: 0.5; stroke: #000000; stroke-width: 0.760909; stroke-linejoin: miter"/>
   </g>
   <g id="patch_38">
    <path d="M 334.654138 384.48 
L 342.238023 384.48 
L 342.238023 331.2576 
L 334.654138 331.2576 
z
" clip-path="url(#pda3d650163)" style="fill: #0f4c5c; fill-opacity: 0.5; stroke: #000000; stroke-width: 0.760909; stroke-linejoin: miter"/>
   </g>
   <g id="patch_39">
    <path d="M 342.238023 384.48 
L 349.821907 384.48 
L 349.821907 351.216 
L 342.238023 351.216 
z
" clip-path="url(#pda3d650163)" style="fill: #0f4c5c; fill-opacity: 0.5; stroke: #000000; stroke-width: 0.760909; stroke-linejoin: miter"/>
   </g>
   <g id="patch_40">
    <path d="M 349.821907 384.48 
L 357.405792 384.48 
L 357.405792 301.32 
L 349.821907 301.32 
z
" clip-path="url(#pda3d650163)" style="fill: #0f4c5c; fill-opacity: 0.5; stroke: #000000; stroke-width: 0.760909; stroke-linejoin: miter"/>
   </g>
   <g id="patch_41">
    <path d="M 357.405792 384.48 
L 364.989676 384.48 
L 364.989676 341.2368 
L 357.405792 341.2368 
z
" clip-path="url(#pda3d650163)" style="fill: #0f4c5c; fill-opacity: 0.5; stroke: #000000; stroke-width: 0.760909; stroke-linejoin: miter"/>
   </g>
   <g id="patch_42">
    <path d="M 364.989676 384.48 
L 372.573561 384.48 
L 372.573561 154.9584 
L 364.989676 154.9584 
z
" clip-path="url(#pda3d650163)" style="fill: #0f4c5c; fill-opacity: 0.5; stroke: #000000; stroke-width: 0.760909; stroke-linejoin: miter"/>
   </g>
   <g id="patch_43">
    <path d="M 85.394208 384.48 
L 92.978093 384.48 
L 92.978093 374.5008 
L 85.394208 374.5008 
z
" clip-path="url(#pda3d650163)" style="fill: #0f4c5c; fill-opacity: 0.7; stroke: #000000; stroke-width: 0.758388; stroke-linejoin: miter"/>
   </g>
   <g id="patch_44">
    <path d="M 92.978093 384.48 
L 100.561977 384.48 
L 100.561977 377.8272 
L 92.978093 377.8272 
z
" clip-path="url(#pda3d650163)" style="fill: #0f4c5c; fill-opacity: 0.7; stroke: #000000; stroke-width: 0.758388; stroke-linejoin: miter"/>
   </g>
   <g id="patch_45">
    <path d="M 100.561977 384.48 
L 108.145862 384.48 
L 108.145862 374.5008 
L 100.561977 374.5008 
z
" clip-path="url(#pda3d650163)" style="fill: #0f4c5c; fill-opacity: 0.7; stroke: #000000; stroke-width: 0.758388; stroke-linejoin: miter"/>
   </g>
   <g id="patch_46">
    <path d="M 108.145862 384.48 
L 115.729746 384.48 
L 115.729746 374.5008 
L 108.145862 374.5008 
z
" clip-path="url(#pda3d650163)" style="fill: #0f4c5c; fill-opacity: 0.7; stroke: #000000; stroke-width: 0.758388; stroke-linejoin: miter"/>
   </g>
   <g id="patch_47">
    <path d="M 115.729746 384.48 
L 123.313631 384.48 
L 123.313631 367.848 
L 115.729746 367.848 
z
" clip-path="url(#pda3d650163)" style="fill: #0f4c5c; fill-opacity: 0.7; stroke: #000000; stroke-width: 0.758388; stroke-linejoin: miter"/>
   </g>
   <g id="patch_48">
    <path d="M 123.313631 384.48 
L 130.897515 384.48 
L 130.897515 371.1744 
L 123.313631 371.1744 
z
" clip-path="url(#pda3d650163)" style="fill: #0f4c5c; fill-opacity: 0.7; stroke: #000000; stroke-width: 0.758388; stroke-linejoin: miter"/>
   </g>
   <g id="patch_49">
    <path d="M 130.897515 384.48 
L 138.4814 384.48 
L 138.4814 367.848 
L 130.897515 367.848 
z
" clip-path="url(#pda3d650163)" style="fill: #0f4c5c; fill-opacity: 0.7; stroke: #000000; stroke-width: 0.758388; stroke-linejoin: miter"/>
   </g>
   <g id="patch_50">
    <path d="M 138.4814 384.48 
L 146.065284 384.48 
L 146.065284 371.1744 
L 138.4814 371.1744 
z
" clip-path="url(#pda3d650163)" style="fill: #0f4c5c; fill-opacity: 0.7; stroke: #000000; stroke-width: 0.758388; stroke-linejoin: miter"/>
   </g>
   <g id="patch_51">
    <path d="M 146.065284 384.48 
L 153.649169 384.48 
L 153.649169 367.848 
L 146.065284 367.848 
z
" clip-path="url(#pda3d650163)" style="fill: #0f4c5c; fill-opacity: 0.7; stroke: #000000; stroke-width: 0.758388; stroke-linejoin: miter"/>
   </g>
   <g id="patch_52">
    <path d="M 153.649169 384.48 
L 161.233053 384.48 
L 161.233053 334.584 
L 153.649169 334.584 
z
" clip-path="url(#pda3d650163)" style="fill: #0f4c5c; fill-opacity: 0.7; stroke: #000000; stroke-width: 0.758388; stroke-linejoin: miter"/>
   </g>
   <g id="patch_53">
    <path d="M 161.233053 384.48 
L 168.816937 384.48 
L 168.816937 341.2368 
L 161.233053 341.2368 
z
" clip-path="url(#pda3d650163)" style="fill: #0f4c5c; fill-opacity: 0.7; stroke: #000000; stroke-width: 0.758388; stroke-linejoin: miter"/>
   </g>
   <g id="patch_54">
    <path d="M 168.816937 384.48 
L 176.400822 384.48 
L 176.400822 361.1952 
L 168.816937 361.1952 
z
" clip-path="url(#pda3d650163)" style="fill: #0f4c5c; fill-opacity: 0.7; stroke: #000000; stroke-width: 0.758388; stroke-linejoin: miter"/>
   </g>
   <g id="patch_55">
    <path d="M 176.400822 384.48 
L 183.984706 384.48 
L 183.984706 344.5632 
L 176.400822 344.5632 
z
" clip-path="url(#pda3d650163)" style="fill: #0f4c5c; fill-opacity: 0.7; stroke: #000000; stroke-width: 0.758388; stroke-linejoin: miter"/>
   </g>
   <g id="patch_56">
    <path d="M 183.984706 384.48 
L 191.568591 384.48 
L 191.568591 321.2784 
L 183.984706 321.2784 
z
" clip-path="url(#pda3d650163)" style="fill: #0f4c5c; fill-opacity: 0.7; stroke: #000000; stroke-width: 0.758388; stroke-linejoin: miter"/>
   </g>
   <g id="patch_57">
    <path d="M 191.568591 384.48 
L 199.152475 384.48 
L 199.152475 288.0144 
L 191.568591 288.0144 
z
" clip-path="url(#pda3d650163)" style="fill: #0f4c5c; fill-opacity: 0.7; stroke: #000000; stroke-width: 0.758388; stroke-linejoin: miter"/>
   </g>
   <g id="patch_58">
    <path d="M 199.152475 384.48 
L 206.73636 384.48 
L 206.73636 304.6464 
L 199.152475 304.6464 
z
" clip-path="url(#pda3d650163)" style="fill: #0f4c5c; fill-opacity: 0.7; stroke: #000000; stroke-width: 0.758388; stroke-linejoin: miter"/>
   </g>
   <g id="patch_59">
    <path d="M 206.73636 384.48 
L 214.320244 384.48 
L 214.320244 384.48 
L 206.73636 384.48 
z
" clip-path="url(#pda3d650163)" style="fill: #0f4c5c; fill-opacity: 0.7; stroke: #000000; stroke-width: 0.758388; stroke-linejoin: miter"/>
   </g>
   <g id="patch_60">
    <path d="M 214.320244 384.48 
L 221.904129 384.48 
L 221.904129 384.48 
L 214.320244 384.48 
z
" clip-path="url(#pda3d650163)" style="fill: #0f4c5c; fill-opacity: 0.7; stroke: #000000; stroke-width: 0.758388; stroke-linejoin: miter"/>
   </g>
   <g id="patch_61">
    <path d="M 221.904129 384.48 
L 229.488013 384.48 
L 229.488013 384.48 
L 221.904129 384.48 
z
" clip-path="url(#pda3d650163)" style="fill: #0f4c5c; fill-opacity: 0.7; stroke: #000000; stroke-width: 0.758388; stroke-linejoin: miter"/>
   </g>
   <g id="patch_62">
    <path d="M 229.488013 384.48 
L 237.071898 384.48 
L 237.071898 347.8896 
L 229.488013 347.8896 
z
" clip-path="url(#pda3d650163)" style="fill: #0f4c5c; fill-opacity: 0.7; stroke: #000000; stroke-width: 0.758388; stroke-linejoin: miter"/>
   </g>
   <g id="patch_63">
    <path d="M 237.071898 384.48 
L 244.655782 384.48 
L 244.655782 208.1808 
L 237.071898 208.1808 
z
" clip-path="url(#pda3d650163)" style="fill: #0f4c5c; fill-opacity: 0.7; stroke: #000000; stroke-width: 0.758388; stroke-linejoin: miter"/>
   </g>
   <g id="patch_64">
    <path d="M 244.655782 384.48 
L 252.239667 384.48 
L 252.239667 254.7504 
L 244.655782 254.7504 
z
" clip-path="url(#pda3d650163)" style="fill: #0f4c5c; fill-opacity: 0.7; stroke: #000000; stroke-width: 0.758388; stroke-linejoin: miter"/>
   </g>
   <g id="patch_65">
    <path d="M 252.239667 384.48 
L 259.823551 384.48 
L 259.823551 208.1808 
L 252.239667 208.1808 
z
" clip-path="url(#pda3d650163)" style="fill: #0f4c5c; fill-opacity: 0.7; stroke: #000000; stroke-width: 0.758388; stroke-linejoin: miter"/>
   </g>
   <g id="patch_66">
    <path d="M 259.823551 384.48 
L 267.407436 384.48 
L 267.407436 281.3616 
L 259.823551 281.3616 
z
" clip-path="url(#pda3d650163)" style="fill: #0f4c5c; fill-opacity: 0.7; stroke: #000000; stroke-width: 0.758388; stroke-linejoin: miter"/>
   </g>
   <g id="patch_67">
    <path d="M 267.407436 384.48 
L 274.99132 384.48 
L 274.99132 274.7088 
L 267.407436 274.7088 
z
" clip-path="url(#pda3d650163)" style="fill: #0f4c5c; fill-opacity: 0.7; stroke: #000000; stroke-width: 0.758388; stroke-linejoin: miter"/>
   </g>
   <g id="patch_68">
    <path d="M 274.99132 384.48 
L 282.575205 384.48 
L 282.575205 297.9936 
L 274.99132 297.9936 
z
" clip-path="url(#pda3d650163)" style="fill: #0f4c5c; fill-opacity: 0.7; stroke: #000000; stroke-width: 0.758388; stroke-linejoin: miter"/>
   </g>
   <g id="patch_69">
    <path d="M 282.575205 384.48 
L 290.159089 384.48 
L 290.159089 324.6048 
L 282.575205 324.6048 
z
" clip-path="url(#pda3d650163)" style="fill: #0f4c5c; fill-opacity: 0.7; stroke: #000000; stroke-width: 0.758388; stroke-linejoin: miter"/>
   </g>
   <g id="patch_70">
    <path d="M 290.159089 384.48 
L 297.742973 384.48 
L 297.742973 341.2368 
L 290.159089 341.2368 
z
" clip-path="url(#pda3d650163)" style="fill: #0f4c5c; fill-opacity: 0.7; stroke: #000000; stroke-width: 0.758388; stroke-linejoin: miter"/>
   </g>
   <g id="patch_71">
    <path d="M 297.742973 384.48 
L 305.326858 384.48 
L 305.326858 327.9312 
L 297.742973 327.9312 
z
" clip-path="url(#pda3d650163)" style="fill: #0f4c5c; fill-opacity: 0.7; stroke: #000000; stroke-width: 0.758388; stroke-linejoin: miter"/>
   </g>
   <g id="patch_72">
    <path d="M 305.326858 384.48 
L 312.910742 384.48 
L 312.910742 351.216 
L 305.326858 351.216 
z
" clip-path="url(#pda3d650163)" style="fill: #0f4c5c; fill-opacity: 0.7; stroke: #000000; stroke-width: 0.758388; stroke-linejoin: miter"/>
   </g>
   <g id="patch_73">
    <path d="M 312.910742 384.48 
L 320.494627 384.48 
L 320.494627 344.5632 
L 312.910742 344.5632 
z
" clip-path="url(#pda3d650163)" style="fill: #0f4c5c; fill-opacity: 0.7; stroke: #000000; stroke-width: 0.758388; stroke-linejoin: miter"/>
   </g>
   <g id="patch_74">
    <path d="M 320.494627 384.48 
L 328.078511 384.48 
L 328.078511 344.5632 
L 320.494627 344.5632 
z
" clip-path="url(#pda3d650163)" style="fill: #0f4c5c; fill-opacity: 0.7; stroke: #000000; stroke-width: 0.758388; stroke-linejoin: miter"/>
   </g>
   <g id="patch_75">
    <path d="M 328.078511 384.48 
L 335.662396 384.48 
L 335.662396 344.5632 
L 328.078511 344.5632 
z
" clip-path="url(#pda3d650163)" style="fill: #0f4c5c; fill-opacity: 0.7; stroke: #000000; stroke-width: 0.758388; stroke-linejoin: miter"/>
   </g>
   <g id="patch_76">
    <path d="M 335.662396 384.48 
L 343.24628 384.48 
L 343.24628 361.1952 
L 335.662396 361.1952 
z
" clip-path="url(#pda3d650163)" style="fill: #0f4c5c; fill-opacity: 0.7; stroke: #000000; stroke-width: 0.758388; stroke-linejoin: miter"/>
   </g>
   <g id="patch_77">
    <path d="M 343.24628 384.48 
L 350.830165 384.48 
L 350.830165 371.1744 
L 343.24628 371.1744 
z
" clip-path="url(#pda3d650163)" style="fill: #0f4c5c; fill-opacity: 0.7; stroke: #000000; stroke-width: 0.758388; stroke-linejoin: miter"/>
   </g>
   <g id="patch_78">
    <path d="M 350.830165 384.48 
L 358.414049 384.48 
L 358.414049 381.1536 
L 350.830165 381.1536 
z
" clip-path="url(#pda3d650163)" style="fill: #0f4c5c; fill-opacity: 0.7; stroke: #000000; stroke-width: 0.758388; stroke-linejoin: miter"/>
   </g>
   <g id="patch_79">
    <path d="M 358.414049 384.48 
L 365.997934 384.48 
L 365.997934 377.8272 
L 358.414049 377.8272 
z
" clip-path="url(#pda3d650163)" style="fill: #0f4c5c; fill-opacity: 0.7; stroke: #000000; stroke-width: 0.758388; stroke-linejoin: miter"/>
   </g>
   <g id="patch_80">
    <path d="M 365.997934 384.48 
L 373.581818 384.48 
L 373.581818 331.2576 
L 365.997934 331.2576 
z
" clip-path="url(#pda3d650163)" style="fill: #0f4c5c; fill-opacity: 0.7; stroke: #000000; stroke-width: 0.758388; stroke-linejoin: miter"/>
   </g>
   <g id="patch_81">
    <path d="M 169.405857 384.48 
L 176.989742 384.48 
L 176.989742 -846.288 
L 169.405857 -846.288 
z
" clip-path="url(#pda3d650163)" style="fill: #5f0f40; fill-opacity: 0.5; stroke: #000000; stroke-width: 0.758388; stroke-linejoin: miter"/>
   </g>
   <g id="patch_82">
    <path d="M 176.989742 384.48 
L 184.573626 384.48 
L 184.573626 384.48 
L 176.989742 384.48 
z
" clip-path="url(#pda3d650163)" style="fill: #5f0f40; fill-opacity: 0.5; stroke: #000000; stroke-width: 0.758388; stroke-linejoin: miter"/>
   </g>
   <g id="patch_83">
    <path d="M 184.573626 384.48 
L 192.157511 384.48 
L 192.157511 384.48 
L 184.573626 384.48 
z
" clip-path="url(#pda3d650163)" style="fill: #5f0f40; fill-opacity: 0.5; stroke: #000000; stroke-width: 0.758388; stroke-linejoin: miter"/>
   </g>
   <g id="patch_84">
    <path d="M 192.157511 384.48 
L 199.741395 384.48 
L 199.741395 384.48 
L 192.157511 384.48 
z
" clip-path="url(#pda3d650163)" style="fill: #5f0f40; fill-opacity: 0.5; stroke: #000000; stroke-width: 0.758388; stroke-linejoin: miter"/>
   </g>
   <g id="patch_85">
    <path d="M 199.741395 384.48 
L 207.32528 384.48 
L 207.32528 384.48 
L 199.741395 384.48 
z
" clip-path="url(#pda3d650163)" style="fill: #5f0f40; fill-opacity: 0.5; stroke: #000000; stroke-width: 0.758388; stroke-linejoin: miter"/>
   </g>
   <g id="patch_86">
    <path d="M 207.32528 384.48 
L 214.909164 384.48 
L 214.909164 384.48 
L 207.32528 384.48 
z
" clip-path="url(#pda3d650163)" style="fill: #5f0f40; fill-opacity: 0.5; stroke: #000000; stroke-width: 0.758388; stroke-linejoin: miter"/>
   </g>
   <g id="patch_87">
    <path d="M 214.909164 384.48 
L 222.493049 384.48 
L 222.493049 384.48 
L 214.909164 384.48 
z
" clip-path="url(#pda3d650163)" style="fill: #5f0f40; fill-opacity: 0.5; stroke: #000000; stroke-width: 0.758388; stroke-linejoin: miter"/>
   </g>
   <g id="patch_88">
    <path d="M 222.493049 384.48 
L 230.076933 384.48 
L 230.076933 384.48 
L 222.493049 384.48 
z
" clip-path="url(#pda3d650163)" style="fill: #5f0f40; fill-opacity: 0.5; stroke: #000000; stroke-width: 0.758388; stroke-linejoin: miter"/>
   </g>
   <g id="patch_89">
    <path d="M 230.076933 384.48 
L 237.660818 384.48 
L 237.660818 384.48 
L 230.076933 384.48 
z
" clip-path="url(#pda3d650163)" style="fill: #5f0f40; fill-opacity: 0.5; stroke: #000000; stroke-width: 0.758388; stroke-linejoin: miter"/>
   </g>
   <g id="patch_90">
    <path d="M 237.660818 384.48 
L 245.244702 384.48 
L 245.244702 384.48 
L 237.660818 384.48 
z
" clip-path="url(#pda3d650163)" style="fill: #5f0f40; fill-opacity: 0.5; stroke: #000000; stroke-width: 0.758388; stroke-linejoin: miter"/>
   </g>
   <g id="patch_91">
    <path d="M 245.244702 384.48 
L 252.828587 384.48 
L 252.828587 384.48 
L 245.244702 384.48 
z
" clip-path="url(#pda3d650163)" style="fill: #5f0f40; fill-opacity: 0.5; stroke: #000000; stroke-width: 0.758388; stroke-linejoin: miter"/>
   </g>
   <g id="patch_92">
    <path d="M 252.828587 384.48 
L 260.412471 384.48 
L 260.412471 384.48 
L 252.828587 384.48 
z
" clip-path="url(#pda3d650163)" style="fill: #5f0f40; fill-opacity: 0.5; stroke: #000000; stroke-width: 0.758388; stroke-linejoin: miter"/>
   </g>
   <g id="patch_93">
    <path d="M 260.412471 384.48 
L 267.996355 384.48 
L 267.996355 384.48 
L 260.412471 384.48 
z
" clip-path="url(#pda3d650163)" style="fill: #5f0f40; fill-opacity: 0.5; stroke: #000000; stroke-width: 0.758388; stroke-linejoin: miter"/>
   </g>
   <g id="patch_94">
    <path d="M 267.996355 384.48 
L 275.58024 384.48 
L 275.58024 -1947.3264 
L 267.996355 -1947.3264 
z
" clip-path="url(#pda3d650163)" style="fill: #5f0f40; fill-opacity: 0.5; stroke: #000000; stroke-width: 0.758388; stroke-linejoin: miter"/>
   </g>
   <g id="patch_95">
    <path d="M 169.405857 384.48 
L 176.989742 384.48 
L 176.989742 -437.1408 
L 169.405857 -437.1408 
z
" clip-path="url(#pda3d650163)" style="fill: #5f0f40; fill-opacity: 0.7; stroke: #000000; stroke-width: 0.758388; stroke-linejoin: miter"/>
   </g>
   <g id="patch_96">
    <path d="M 176.989742 384.48 
L 184.573626 384.48 
L 184.573626 384.48 
L 176.989742 384.48 
z
" clip-path="url(#pda3d650163)" style="fill: #5f0f40; fill-opacity: 0.7; stroke: #000000; stroke-width: 0.758388; stroke-linejoin: miter"/>
   </g>
   <g id="patch_97">
    <path d="M 184.573626 384.48 
L 192.157511 384.48 
L 192.157511 384.48 
L 184.573626 384.48 
z
" clip-path="url(#pda3d650163)" style="fill: #5f0f40; fill-opacity: 0.7; stroke: #000000; stroke-width: 0.758388; stroke-linejoin: miter"/>
   </g>
   <g id="patch_98">
    <path d="M 192.157511 384.48 
L 199.741395 384.48 
L 199.741395 384.48 
L 192.157511 384.48 
z
" clip-path="url(#pda3d650163)" style="fill: #5f0f40; fill-opacity: 0.7; stroke: #000000; stroke-width: 0.758388; stroke-linejoin: miter"/>
   </g>
   <g id="patch_99">
    <path d="M 199.741395 384.48 
L 207.32528 384.48 
L 207.32528 384.48 
L 199.741395 384.48 
z
" clip-path="url(#pda3d650163)" style="fill: #5f0f40; fill-opacity: 0.7; stroke: #000000; stroke-width: 0.758388; stroke-linejoin: miter"/>
   </g>
   <g id="patch_100">
    <path d="M 207.32528 384.48 
L 214.909164 384.48 
L 214.909164 384.48 
L 207.32528 384.48 
z
" clip-path="url(#pda3d650163)" style="fill: #5f0f40; fill-opacity: 0.7; stroke: #000000; stroke-width: 0.758388; stroke-linejoin: miter"/>
   </g>
   <g id="patch_101">
    <path d="M 214.909164 384.48 
L 222.493049 384.48 
L 222.493049 384.48 
L 214.909164 384.48 
z
" clip-path="url(#pda3d650163)" style="fill: #5f0f40; fill-opacity: 0.7; stroke: #000000; stroke-width: 0.758388; stroke-linejoin: miter"/>
   </g>
   <g id="patch_102">
    <path d="M 222.493049 384.48 
L 230.076933 384.48 
L 230.076933 384.48 
L 222.493049 384.48 
z
" clip-path="url(#pda3d650163)" style="fill: #5f0f40; fill-opacity: 0.7; stroke: #000000; stroke-width: 0.758388; stroke-linejoin: miter"/>
   </g>
   <g id="patch_103">
    <path d="M 230.076933 384.48 
L 237.660818 384.48 
L 237.660818 384.48 
L 230.076933 384.48 
z
" clip-path="url(#pda3d650163)" style="fill: #5f0f40; fill-opacity: 0.7; stroke: #000000; stroke-width: 0.758388; stroke-linejoin: miter"/>
   </g>
   <g id="patch_104">
    <path d="M 237.660818 384.48 
L 245.244702 384.48 
L 245.244702 384.48 
L 237.660818 384.48 
z
" clip-path="url(#pda3d650163)" style="fill: #5f0f40; fill-opacity: 0.7; stroke: #000000; stroke-width: 0.758388; stroke-linejoin: miter"/>
   </g>
   <g id="patch_105">
    <path d="M 245.244702 384.48 
L 252.828587 384.48 
L 252.828587 384.48 
L 245.244702 384.48 
z
" clip-path="url(#pda3d650163)" style="fill: #5f0f40; fill-opacity: 0.7; stroke: #000000; stroke-width: 0.758388; stroke-linejoin: miter"/>
   </g>
   <g id="patch_106">
    <path d="M 252.828587 384.48 
L 260.412471 384.48 
L 260.412471 384.48 
L 252.828587 384.48 
z
" clip-path="url(#pda3d650163)" style="fill: #5f0f40; fill-opacity: 0.7; stroke: #000000; stroke-width: 0.758388; stroke-linejoin: miter"/>
   </g>
   <g id="patch_107">
    <path d="M 260.412471 384.48 
L 267.996355 384.48 
L 267.996355 384.48 
L 260.412471 384.48 
z
" clip-path="url(#pda3d650163)" style="fill: #5f0f40; fill-opacity: 0.7; stroke: #000000; stroke-width: 0.758388; stroke-linejoin: miter"/>
   </g>
   <g id="patch_108">
    <path d="M 267.996355 384.48 
L 275.58024 384.48 
L 275.58024 -1634.6448 
L 267.996355 -1634.6448 
z
" clip-path="url(#pda3d650163)" style="fill: #5f0f40; fill-opacity: 0.7; stroke: #000000; stroke-width: 0.758388; stroke-linejoin: miter"/>
   </g>
   <g id="matplotlib.axis_1">
    <g id="xtick_1">
     <g id="line2d_1">
      <defs>
       <path id="m20a8df8d3f" d="M 0 0 
L 0 3.5 
" style="stroke: #000000; stroke-width: 0.8"/>
      </defs>
      <g>
       <use xlink:href="#m20a8df8d3f" x="68.287398" y="384.48" style="stroke: #000000; stroke-width: 0.8"/>
      </g>
     </g>
     <g id="text_1">
      <!-- −600 -->
      <g transform="translate(54.553804 399.078438) scale(0.1 -0.1)">
       <defs>
        <path id="DejaVuSans-2212" d="M 678 2272 
L 4684 2272 
L 4684 1741 
L 678 1741 
L 678 2272 
z
" transform="scale(0.015625)"/>
        <path id="DejaVuSans-36" d="M 2113 2584 
Q 1688 2584 1439 2293 
Q 1191 2003 1191 1497 
Q 1191 994 1439 701 
Q 1688 409 2113 409 
Q 2538 409 2786 701 
Q 3034 994 3034 1497 
Q 3034 2003 2786 2293 
Q 2538 2584 2113 2584 
z
M 3366 4563 
L 3366 3988 
Q 3128 4100 2886 4159 
Q 2644 4219 2406 4219 
Q 1781 4219 1451 3797 
Q 1122 3375 1075 2522 
Q 1259 2794 1537 2939 
Q 1816 3084 2150 3084 
Q 2853 3084 3261 2657 
Q 3669 2231 3669 1497 
Q 3669 778 3244 343 
Q 2819 -91 2113 -91 
Q 1303 -91 875 529 
Q 447 1150 447 2328 
Q 447 3434 972 4092 
Q 1497 4750 2381 4750 
Q 2619 4750 2861 4703 
Q 3103 4656 3366 4563 
z
" transform="scale(0.015625)"/>
        <path id="DejaVuSans-30" d="M 2034 4250 
Q 1547 4250 1301 3770 
Q 1056 3291 1056 2328 
Q 1056 1369 1301 889 
Q 1547 409 2034 409 
Q 2525 409 2770 889 
Q 3016 1369 3016 2328 
Q 3016 3291 2770 3770 
Q 2525 4250 2034 4250 
z
M 2034 4750 
Q 2819 4750 3233 4129 
Q 3647 3509 3647 2328 
Q 3647 1150 3233 529 
Q 2819 -91 2034 -91 
Q 1250 -91 836 529 
Q 422 1150 422 2328 
Q 422 3509 836 4129 
Q 1250 4750 2034 4750 
z
" transform="scale(0.015625)"/>
       </defs>
       <use xlink:href="#DejaVuSans-2212"/>
       <use xlink:href="#DejaVuSans-36" x="83.789062"/>
       <use xlink:href="#DejaVuSans-30" x="147.412109"/>
       <use xlink:href="#DejaVuSans-30" x="211.035156"/>
      </g>
     </g>
    </g>
    <g id="xtick_2">
     <g id="line2d_2">
      <g>
       <use xlink:href="#m20a8df8d3f" x="118.846628" y="384.48" style="stroke: #000000; stroke-width: 0.8"/>
      </g>
     </g>
     <g id="text_2">
      <!-- −400 -->
      <g transform="translate(105.113034 399.078438) scale(0.1 -0.1)">
       <defs>
        <path id="DejaVuSans-34" d="M 2419 4116 
L 825 1625 
L 2419 1625 
L 2419 4116 
z
M 2253 4666 
L 3047 4666 
L 3047 1625 
L 3713 1625 
L 3713 1100 
L 3047 1100 
L 3047 0 
L 2419 0 
L 2419 1100 
L 313 1100 
L 313 1709 
L 2253 4666 
z
" transform="scale(0.015625)"/>
       </defs>
       <use xlink:href="#DejaVuSans-2212"/>
       <use xlink:href="#DejaVuSans-34" x="83.789062"/>
       <use xlink:href="#DejaVuSans-30" x="147.412109"/>
       <use xlink:href="#DejaVuSans-30" x="211.035156"/>
      </g>
     </g>
    </g>
    <g id="xtick_3">
     <g id="line2d_3">
      <g>
       <use xlink:href="#m20a8df8d3f" x="169.405857" y="384.48" style="stroke: #000000; stroke-width: 0.8"/>
      </g>
     </g>
     <g id="text_3">
      <!-- −200 -->
      <g transform="translate(155.672264 399.078438) scale(0.1 -0.1)">
       <defs>
        <path id="DejaVuSans-32" d="M 1228 531 
L 3431 531 
L 3431 0 
L 469 0 
L 469 531 
Q 828 903 1448 1529 
Q 2069 2156 2228 2338 
Q 2531 2678 2651 2914 
Q 2772 3150 2772 3378 
Q 2772 3750 2511 3984 
Q 2250 4219 1831 4219 
Q 1534 4219 1204 4116 
Q 875 4013 500 3803 
L 500 4441 
Q 881 4594 1212 4672 
Q 1544 4750 1819 4750 
Q 2544 4750 2975 4387 
Q 3406 4025 3406 3419 
Q 3406 3131 3298 2873 
Q 3191 2616 2906 2266 
Q 2828 2175 2409 1742 
Q 1991 1309 1228 531 
z
" transform="scale(0.015625)"/>
       </defs>
       <use xlink:href="#DejaVuSans-2212"/>
       <use xlink:href="#DejaVuSans-32" x="83.789062"/>
       <use xlink:href="#DejaVuSans-30" x="147.412109"/>
       <use xlink:href="#DejaVuSans-30" x="211.035156"/>
      </g>
     </g>
    </g>
    <g id="xtick_4">
     <g id="line2d_4">
      <g>
       <use xlink:href="#m20a8df8d3f" x="219.965087" y="384.48" style="stroke: #000000; stroke-width: 0.8"/>
      </g>
     </g>
     <g id="text_4">
      <!-- 0 -->
      <g transform="translate(216.783837 399.078438) scale(0.1 -0.1)">
       <use xlink:href="#DejaVuSans-30"/>
      </g>
     </g>
    </g>
    <g id="xtick_5">
     <g id="line2d_5">
      <g>
       <use xlink:href="#m20a8df8d3f" x="270.524317" y="384.48" style="stroke: #000000; stroke-width: 0.8"/>
      </g>
     </g>
     <g id="text_5">
      <!-- 200 -->
      <g transform="translate(260.980567 399.078438) scale(0.1 -0.1)">
       <use xlink:href="#DejaVuSans-32"/>
       <use xlink:href="#DejaVuSans-30" x="63.623047"/>
       <use xlink:href="#DejaVuSans-30" x="127.246094"/>
      </g>
     </g>
    </g>
    <g id="xtick_6">
     <g id="line2d_6">
      <g>
       <use xlink:href="#m20a8df8d3f" x="321.083547" y="384.48" style="stroke: #000000; stroke-width: 0.8"/>
      </g>
     </g>
     <g id="text_6">
      <!-- 400 -->
      <g transform="translate(311.539797 399.078438) scale(0.1 -0.1)">
       <use xlink:href="#DejaVuSans-34"/>
       <use xlink:href="#DejaVuSans-30" x="63.623047"/>
       <use xlink:href="#DejaVuSans-30" x="127.246094"/>
      </g>
     </g>
    </g>
    <g id="xtick_7">
     <g id="line2d_7">
      <g>
       <use xlink:href="#m20a8df8d3f" x="371.642777" y="384.48" style="stroke: #000000; stroke-width: 0.8"/>
      </g>
     </g>
     <g id="text_7">
      <!-- 600 -->
      <g transform="translate(362.099027 399.078438) scale(0.1 -0.1)">
       <use xlink:href="#DejaVuSans-36"/>
       <use xlink:href="#DejaVuSans-30" x="63.623047"/>
       <use xlink:href="#DejaVuSans-30" x="127.246094"/>
      </g>
     </g>
    </g>
   </g>
   <g id="matplotlib.axis_2">
    <g id="ytick_1">
     <g id="line2d_8">
      <defs>
       <path id="m9d1af37b68" d="M 0 0 
L -3.5 0 
" style="stroke: #000000; stroke-width: 0.8"/>
      </defs>
      <g>
       <use xlink:href="#m9d1af37b68" x="54" y="384.48" style="stroke: #000000; stroke-width: 0.8"/>
      </g>
     </g>
     <g id="text_8">
      <!-- 0 -->
      <g transform="translate(40.6375 388.279219) scale(0.1 -0.1)">
       <use xlink:href="#DejaVuSans-30"/>
      </g>
     </g>
    </g>
    <g id="ytick_2">
     <g id="line2d_9">
      <g>
       <use xlink:href="#m9d1af37b68" x="54" y="317.952" style="stroke: #000000; stroke-width: 0.8"/>
      </g>
     </g>
     <g id="text_9">
      <!-- 20 -->
      <g transform="translate(34.275 321.751219) scale(0.1 -0.1)">
       <use xlink:href="#DejaVuSans-32"/>
       <use xlink:href="#DejaVuSans-30" x="63.623047"/>
      </g>
     </g>
    </g>
    <g id="ytick_3">
     <g id="line2d_10">
      <g>
       <use xlink:href="#m9d1af37b68" x="54" y="251.424" style="stroke: #000000; stroke-width: 0.8"/>
      </g>
     </g>
     <g id="text_10">
      <!-- 40 -->
      <g transform="translate(34.275 255.223219) scale(0.1 -0.1)">
       <use xlink:href="#DejaVuSans-34"/>
       <use xlink:href="#DejaVuSans-30" x="63.623047"/>
      </g>
     </g>
    </g>
    <g id="ytick_4">
     <g id="line2d_11">
      <g>
       <use xlink:href="#m9d1af37b68" x="54" y="184.896" style="stroke: #000000; stroke-width: 0.8"/>
      </g>
     </g>
     <g id="text_11">
      <!-- 60 -->
      <g transform="translate(34.275 188.695219) scale(0.1 -0.1)">
       <use xlink:href="#DejaVuSans-36"/>
       <use xlink:href="#DejaVuSans-30" x="63.623047"/>
      </g>
     </g>
    </g>
    <g id="ytick_5">
     <g id="line2d_12">
      <g>
       <use xlink:href="#m9d1af37b68" x="54" y="118.368" style="stroke: #000000; stroke-width: 0.8"/>
      </g>
     </g>
     <g id="text_12">
      <!-- 80 -->
      <g transform="translate(34.275 122.167219) scale(0.1 -0.1)">
       <defs>
        <path id="DejaVuSans-38" d="M 2034 2216 
Q 1584 2216 1326 1975 
Q 1069 1734 1069 1313 
Q 1069 891 1326 650 
Q 1584 409 2034 409 
Q 2484 409 2743 651 
Q 3003 894 3003 1313 
Q 3003 1734 2745 1975 
Q 2488 2216 2034 2216 
z
M 1403 2484 
Q 997 2584 770 2862 
Q 544 3141 544 3541 
Q 544 4100 942 4425 
Q 1341 4750 2034 4750 
Q 2731 4750 3128 4425 
Q 3525 4100 3525 3541 
Q 3525 3141 3298 2862 
Q 3072 2584 2669 2484 
Q 3125 2378 3379 2068 
Q 3634 1759 3634 1313 
Q 3634 634 3220 271 
Q 2806 -91 2034 -91 
Q 1263 -91 848 271 
Q 434 634 434 1313 
Q 434 1759 690 2068 
Q 947 2378 1403 2484 
z
M 1172 3481 
Q 1172 3119 1398 2916 
Q 1625 2713 2034 2713 
Q 2441 2713 2670 2916 
Q 2900 3119 2900 3481 
Q 2900 3844 2670 4047 
Q 2441 4250 2034 4250 
Q 1625 4250 1398 4047 
Q 1172 3844 1172 3481 
z
" transform="scale(0.015625)"/>
       </defs>
       <use xlink:href="#DejaVuSans-38"/>
       <use xlink:href="#DejaVuSans-30" x="63.623047"/>
      </g>
     </g>
    </g>
    <g id="ytick_6">
     <g id="line2d_13">
      <g>
       <use xlink:href="#m9d1af37b68" x="54" y="51.84" style="stroke: #000000; stroke-width: 0.8"/>
      </g>
     </g>
     <g id="text_13">
      <!-- 100 -->
      <g transform="translate(27.9125 55.639219) scale(0.1 -0.1)">
       <defs>
        <path id="DejaVuSans-31" d="M 794 531 
L 1825 531 
L 1825 4091 
L 703 3866 
L 703 4441 
L 1819 4666 
L 2450 4666 
L 2450 531 
L 3481 531 
L 3481 0 
L 794 0 
L 794 531 
z
" transform="scale(0.015625)"/>
       </defs>
       <use xlink:href="#DejaVuSans-31"/>
       <use xlink:href="#DejaVuSans-30" x="63.623047"/>
       <use xlink:href="#DejaVuSans-30" x="127.246094"/>
      </g>
     </g>
    </g>
    <g id="text_14">
     <!-- Count -->
     <g transform="translate(21.832812 233.008437) rotate(-90) scale(0.1 -0.1)">
      <defs>
       <path id="DejaVuSans-43" d="M 4122 4306 
L 4122 3641 
Q 3803 3938 3442 4084 
Q 3081 4231 2675 4231 
Q 1875 4231 1450 3742 
Q 1025 3253 1025 2328 
Q 1025 1406 1450 917 
Q 1875 428 2675 428 
Q 3081 428 3442 575 
Q 3803 722 4122 1019 
L 4122 359 
Q 3791 134 3420 21 
Q 3050 -91 2638 -91 
Q 1578 -91 968 557 
Q 359 1206 359 2328 
Q 359 3453 968 4101 
Q 1578 4750 2638 4750 
Q 3056 4750 3426 4639 
Q 3797 4528 4122 4306 
z
" transform="scale(0.015625)"/>
       <path id="DejaVuSans-6f" d="M 1959 3097 
Q 1497 3097 1228 2736 
Q 959 2375 959 1747 
Q 959 1119 1226 758 
Q 1494 397 1959 397 
Q 2419 397 2687 759 
Q 2956 1122 2956 1747 
Q 2956 2369 2687 2733 
Q 2419 3097 1959 3097 
z
M 1959 3584 
Q 2709 3584 3137 3096 
Q 3566 2609 3566 1747 
Q 3566 888 3137 398 
Q 2709 -91 1959 -91 
Q 1206 -91 779 398 
Q 353 888 353 1747 
Q 353 2609 779 3096 
Q 1206 3584 1959 3584 
z
" transform="scale(0.015625)"/>
       <path id="DejaVuSans-75" d="M 544 1381 
L 544 3500 
L 1119 3500 
L 1119 1403 
Q 1119 906 1312 657 
Q 1506 409 1894 409 
Q 2359 409 2629 706 
Q 2900 1003 2900 1516 
L 2900 3500 
L 3475 3500 
L 3475 0 
L 2900 0 
L 2900 538 
Q 2691 219 2414 64 
Q 2138 -91 1772 -91 
Q 1169 -91 856 284 
Q 544 659 544 1381 
z
M 1991 3584 
L 1991 3584 
z
" transform="scale(0.015625)"/>
       <path id="DejaVuSans-6e" d="M 3513 2113 
L 3513 0 
L 2938 0 
L 2938 2094 
Q 2938 2591 2744 2837 
Q 2550 3084 2163 3084 
Q 1697 3084 1428 2787 
Q 1159 2491 1159 1978 
L 1159 0 
L 581 0 
L 581 3500 
L 1159 3500 
L 1159 2956 
Q 1366 3272 1645 3428 
Q 1925 3584 2291 3584 
Q 2894 3584 3203 3211 
Q 3513 2838 3513 2113 
z
" transform="scale(0.015625)"/>
       <path id="DejaVuSans-74" d="M 1172 4494 
L 1172 3500 
L 2356 3500 
L 2356 3053 
L 1172 3053 
L 1172 1153 
Q 1172 725 1289 603 
Q 1406 481 1766 481 
L 2356 481 
L 2356 0 
L 1766 0 
Q 1100 0 847 248 
Q 594 497 594 1153 
L 594 3053 
L 172 3053 
L 172 3500 
L 594 3500 
L 594 4494 
L 1172 4494 
z
" transform="scale(0.015625)"/>
      </defs>
      <use xlink:href="#DejaVuSans-43"/>
      <use xlink:href="#DejaVuSans-6f" x="69.824219"/>
      <use xlink:href="#DejaVuSans-75" x="131.005859"/>
      <use xlink:href="#DejaVuSans-6e" x="194.384766"/>
      <use xlink:href="#DejaVuSans-74" x="257.763672"/>
     </g>
    </g>
   </g>
   <g id="line2d_14">
    <path d="M 69.218182 375.134124 
L 76.81679 371.264602 
L 98.092892 360.092215 
L 102.652057 357.402105 
L 107.211221 354.470902 
L 111.770386 351.306485 
L 120.888716 344.602743 
L 128.487324 339.14872 
L 142.164818 329.600754 
L 145.204261 327.161032 
L 148.243704 324.451193 
L 151.283147 321.412824 
L 154.32259 318.009871 
L 157.362034 314.236258 
L 160.401477 310.122031 
L 164.960641 303.478629 
L 171.039528 294.453835 
L 174.078971 290.304281 
L 177.118414 286.713384 
L 178.638136 285.20729 
L 180.157857 283.936088 
L 181.677579 282.929436 
L 183.1973 282.214386 
L 184.717022 281.814387 
L 186.236744 281.748245 
L 187.756465 282.029109 
L 189.276187 282.663502 
L 190.795908 283.650443 
L 192.31563 284.980702 
L 193.835352 286.636232 
L 195.355073 288.58981 
L 196.874795 290.804926 
L 199.914238 295.828517 
L 205.993124 306.473831 
L 207.512846 308.823413 
L 209.032567 310.887263 
L 210.552289 312.585835 
L 212.07201 313.843462 
L 213.591732 314.590439 
L 215.111454 314.76502 
L 216.631175 314.315263 
L 218.150897 313.200634 
L 219.670618 311.393342 
L 221.19034 308.879321 
L 222.710062 305.658851 
L 224.229783 301.746757 
L 225.749505 297.172211 
L 227.269226 291.978104 
L 228.788948 286.220032 
L 231.828391 273.289363 
L 234.867834 259.019606 
L 242.466442 222.292759 
L 245.505885 209.026685 
L 247.025607 202.992767 
L 248.545328 197.430141 
L 250.06505 192.380082 
L 251.584772 187.873616 
L 253.104493 183.93175 
L 254.624215 180.565948 
L 256.143936 177.77884 
L 257.663658 175.565093 
L 259.18338 173.912402 
L 260.703101 172.802561 
L 262.222823 172.212564 
L 263.742544 172.115689 
L 265.262266 172.482535 
L 266.781987 173.281978 
L 268.301709 174.482032 
L 269.821431 176.050581 
L 271.341152 177.95599 
L 272.860874 180.167582 
L 274.380595 182.655988 
L 277.420039 188.35359 
L 280.459482 194.84624 
L 283.498925 201.957415 
L 288.05809 213.452474 
L 294.136976 229.648923 
L 303.255305 254.072384 
L 307.81447 265.71266 
L 312.373635 276.669281 
L 315.413078 283.49961 
L 318.452521 289.886414 
L 321.491964 295.772296 
L 324.531408 301.0967 
L 327.570851 305.797372 
L 330.610294 309.814456 
L 332.130015 311.55021 
L 333.649737 313.097226 
L 335.169459 314.452074 
L 336.68918 315.613116 
L 338.208902 316.580859 
L 339.728623 317.358297 
L 341.248345 317.951239 
L 342.768067 318.368595 
L 344.287788 318.622612 
L 345.80751 318.729032 
L 348.846953 318.579831 
L 351.886396 318.116539 
L 356.445561 317.373449 
L 357.965282 317.250713 
L 359.485004 317.248898 
L 361.004725 317.401293 
L 362.524447 317.738548 
L 364.044169 318.287644 
L 365.56389 319.070931 
L 367.083612 320.105281 
L 368.603333 321.401406 
L 370.123055 322.963368 
L 371.642777 324.788335 
L 371.642777 324.788335 
" clip-path="url(#pda3d650163)" style="fill: none; stroke: #0f4c5c; stroke-width: 1.5; stroke-linecap: square"/>
   </g>
   <g id="line2d_15">
    <path d="M 85.394208 379.617792 
L 105.532299 375.205403 
L 112.724474 373.434066 
L 118.478214 371.837083 
L 124.231954 370.018303 
L 128.547259 368.457393 
L 132.862564 366.679356 
L 137.177869 364.649921 
L 141.493174 362.362765 
L 145.808479 359.849678 
L 151.562219 356.256285 
L 160.192829 350.611492 
L 167.385004 345.687795 
L 180.330919 336.641423 
L 183.207789 335.031938 
L 186.084659 333.810091 
L 187.523094 333.382036 
L 188.961529 333.092842 
L 190.399964 332.952039 
L 191.838399 332.965777 
L 193.276835 333.136199 
L 194.71527 333.460924 
L 196.153705 333.932643 
L 199.030575 335.261908 
L 201.907445 336.962008 
L 206.22275 339.669706 
L 209.09962 341.134112 
L 210.538055 341.640347 
L 211.97649 341.941945 
L 213.414925 342.001275 
L 214.85336 341.784358 
L 216.291795 341.261933 
L 217.73023 340.410408 
L 219.168665 339.212672 
L 220.6071 337.658748 
L 222.045535 335.746241 
L 223.48397 333.4806 
L 224.922405 330.875143 
L 226.36084 327.950884 
L 229.23771 321.26591 
L 232.11458 313.727756 
L 240.74519 289.981748 
L 243.62206 283.082871 
L 245.060495 280.032246 
L 246.49893 277.294253 
L 247.937365 274.896548 
L 249.3758 272.860476 
L 250.814235 271.200973 
L 252.25267 269.926627 
L 253.691105 269.039907 
L 255.12954 268.537521 
L 256.567975 268.410893 
L 258.00641 268.64673 
L 259.444845 269.227652 
L 260.88328 270.132857 
L 262.321715 271.3388 
L 263.76015 272.819864 
L 265.198585 274.548992 
L 266.63702 276.498289 
L 269.51389 280.944736 
L 272.39076 285.937888 
L 276.706065 294.004684 
L 283.898241 307.574903 
L 288.213546 315.100396 
L 291.090416 319.689452 
L 293.967286 323.884429 
L 296.844156 327.666625 
L 299.721026 331.037905 
L 302.597896 334.018412 
L 305.474766 336.643999 
L 308.351636 338.963318 
L 311.228506 341.034508 
L 315.543811 343.816192 
L 331.366596 353.524743 
L 342.874076 361.112697 
L 347.189381 363.591658 
L 350.066251 365.017721 
L 352.943121 366.243834 
L 355.819991 367.278847 
L 360.135296 368.545061 
L 371.642777 371.535181 
L 371.642777 371.535181 
" clip-path="url(#pda3d650163)" style="fill: none; stroke: #0f4c5c; stroke-width: 1.5; stroke-linecap: square"/>
   </g>
   <g id="patch_109">
    <path d="M 54 384.48 
L 54 51.84 
" style="fill: none; stroke: #000000; stroke-width: 0.8; stroke-linejoin: miter; stroke-linecap: square"/>
   </g>
   <g id="patch_110">
    <path d="M 388.8 384.48 
L 388.8 51.84 
" style="fill: none; stroke: #000000; stroke-width: 0.8; stroke-linejoin: miter; stroke-linecap: square"/>
   </g>
   <g id="patch_111">
    <path d="M 54 384.48 
L 388.8 384.48 
" style="fill: none; stroke: #000000; stroke-width: 0.8; stroke-linejoin: miter; stroke-linecap: square"/>
   </g>
   <g id="patch_112">
    <path d="M 54 51.84 
L 388.8 51.84 
" style="fill: none; stroke: #000000; stroke-width: 0.8; stroke-linejoin: miter; stroke-linecap: square"/>
   </g>
  </g>
 </g>
 <defs>
  <clipPath id="pda3d650163">
   <rect x="54" y="51.84" width="334.8" height="332.64"/>
  </clipPath>
 </defs>
</svg>
