<?xml version="1.0" encoding="utf-8" standalone="no"?>
<!DOCTYPE svg PUBLIC "-//W3C//DTD SVG 1.1//EN"
  "http://www.w3.org/Graphics/SVG/1.1/DTD/svg11.dtd">
<svg xmlns:xlink="http://www.w3.org/1999/xlink" width="432pt" height="432pt" viewBox="0 0 432 432" xmlns="http://www.w3.org/2000/svg" version="1.1">
 <metadata>
  <rdf:RDF xmlns:dc="http://purl.org/dc/elements/1.1/" xmlns:cc="http://creativecommons.org/ns#" xmlns:rdf="http://www.w3.org/1999/02/22-rdf-syntax-ns#">
   <cc:Work>
    <dc:type rdf:resource="http://purl.org/dc/dcmitype/StillImage"/>
    <dc:date>2024-09-16T13:54:10.426979</dc:date>
    <dc:format>image/svg+xml</dc:format>
    <dc:creator>
     <cc:Agent>
      <dc:title>Matplotlib v3.8.0, https://matplotlib.org/</dc:title>
     </cc:Agent>
    </dc:creator>
   </cc:Work>
  </rdf:RDF>
 </metadata>
 <defs>
  <style type="text/css">*{stroke-linejoin: round; stroke-linecap: butt}</style>
 </defs>
 <g id="figure_1">
  <g id="patch_1">
   <path d="M 0 432 
L 432 432 
L 432 0 
L 0 0 
z
" style="fill: #ffffff"/>
  </g>
  <g id="axes_1">
   <g id="patch_2">
    <path d="M 54 384.48 
L 388.8 384.48 
L 388.8 51.84 
L 54 51.84 
z
" style="fill: #ffffff"/>
   </g>
   <g id="PolyCollection_1">
    <path d="M 120.726848 249.003982 
L 78.582243 249.003982 
L 77.968164 247.165154 
L 77.367368 245.326326 
L 76.781221 243.487498 
L 76.21101 241.64867 
L 75.657943 239.809841 
L 75.123141 237.971013 
L 74.607641 236.132185 
L 74.112392 234.293357 
L 73.638258 232.454529 
L 73.186016 230.615701 
L 72.756359 228.776873 
L 72.349901 226.938045 
L 71.967172 225.099217 
L 71.608629 223.260389 
L 71.274652 221.42156 
L 70.965551 219.582732 
L 70.681565 217.743904 
L 70.422868 215.905076 
L 70.189566 214.066248 
L 69.981701 212.22742 
L 69.799251 210.388592 
L 69.642129 208.549764 
L 69.510185 206.710936 
L 69.403202 204.872108 
L 69.320897 203.033279 
L 69.262919 201.194451 
L 69.228846 199.355623 
L 69.218182 197.516795 
L 69.230359 195.677967 
L 69.264731 193.839139 
L 69.320577 192.000311 
L 69.397093 190.161483 
L 69.493399 188.322655 
L 69.608536 186.483827 
L 69.741469 184.644998 
L 69.891087 182.80617 
L 70.056207 180.967342 
L 70.235582 179.128514 
L 70.427902 177.289686 
L 70.631807 175.450858 
L 70.845888 173.61203 
L 71.068704 171.773202 
L 71.298786 169.934374 
L 71.534654 168.095546 
L 71.774826 166.256717 
L 72.017829 164.417889 
L 72.262221 162.579061 
L 72.506594 160.740233 
L 72.749595 158.901405 
L 72.989938 157.062577 
L 73.226417 155.223749 
L 73.457919 153.384921 
L 73.683439 151.546093 
L 73.902084 149.707265 
L 74.113093 147.868436 
L 74.315838 146.029608 
L 74.509836 144.19078 
L 74.694753 142.351952 
L 74.870408 140.513124 
L 75.036777 138.674296 
L 75.193994 136.835468 
L 75.342346 134.99664 
L 75.482275 133.157812 
L 75.614369 131.318984 
L 75.739361 129.480155 
L 75.858113 127.641327 
L 75.971613 125.802499 
L 76.08096 123.963671 
L 76.187353 122.124843 
L 76.292077 120.286015 
L 76.396488 118.447187 
L 76.501997 116.608359 
L 76.610054 114.769531 
L 76.722132 112.930703 
L 76.839709 111.091874 
L 76.964253 109.253046 
L 77.097202 107.414218 
L 77.239951 105.57539 
L 77.393835 103.736562 
L 77.560113 101.897734 
L 77.739954 100.058906 
L 77.934425 98.220078 
L 78.144479 96.38125 
L 78.370944 94.542422 
L 78.614513 92.703593 
L 78.875739 90.864765 
L 79.155025 89.025937 
L 79.452625 87.187109 
L 79.768636 85.348281 
L 80.103002 83.509453 
L 80.455512 81.670625 
L 80.8258 79.831797 
L 81.213357 77.992969 
L 81.617528 76.154141 
L 82.037524 74.315312 
L 82.472427 72.476484 
L 82.921204 70.637656 
L 83.382713 68.798828 
L 83.855718 66.96 
L 115.453373 66.96 
L 115.453373 66.96 
L 115.926377 68.798828 
L 116.387887 70.637656 
L 116.836664 72.476484 
L 117.271567 74.315312 
L 117.691563 76.154141 
L 118.095734 77.992969 
L 118.48329 79.831797 
L 118.853579 81.670625 
L 119.206089 83.509453 
L 119.540455 85.348281 
L 119.856466 87.187109 
L 120.154066 89.025937 
L 120.433352 90.864765 
L 120.694578 92.703593 
L 120.938147 94.542422 
L 121.164612 96.38125 
L 121.374666 98.220078 
L 121.569137 100.058906 
L 121.748978 101.897734 
L 121.915256 103.736562 
L 122.069139 105.57539 
L 122.211889 107.414218 
L 122.344838 109.253046 
L 122.469382 111.091874 
L 122.586959 112.930703 
L 122.699037 114.769531 
L 122.807094 116.608359 
L 122.912603 118.447187 
L 123.017014 120.286015 
L 123.121738 122.124843 
L 123.228131 123.963671 
L 123.337478 125.802499 
L 123.450978 127.641327 
L 123.56973 129.480155 
L 123.694721 131.318984 
L 123.826816 133.157812 
L 123.966745 134.99664 
L 124.115097 136.835468 
L 124.272314 138.674296 
L 124.438683 140.513124 
L 124.614338 142.351952 
L 124.799255 144.19078 
L 124.993253 146.029608 
L 125.195998 147.868436 
L 125.407007 149.707265 
L 125.625652 151.546093 
L 125.851171 153.384921 
L 126.082674 155.223749 
L 126.319153 157.062577 
L 126.559496 158.901405 
L 126.802497 160.740233 
L 127.04687 162.579061 
L 127.291261 164.417889 
L 127.534265 166.256717 
L 127.774437 168.095546 
L 128.010305 169.934374 
L 128.240387 171.773202 
L 128.463203 173.61203 
L 128.677284 175.450858 
L 128.881189 177.289686 
L 129.073509 179.128514 
L 129.252884 180.967342 
L 129.418004 182.80617 
L 129.567622 184.644998 
L 129.700554 186.483827 
L 129.815692 188.322655 
L 129.911998 190.161483 
L 129.988514 192.000311 
L 130.044359 193.839139 
L 130.078732 195.677967 
L 130.090909 197.516795 
L 130.080245 199.355623 
L 130.046172 201.194451 
L 129.988194 203.033279 
L 129.905889 204.872108 
L 129.798906 206.710936 
L 129.666962 208.549764 
L 129.50984 210.388592 
L 129.32739 212.22742 
L 129.119524 214.066248 
L 128.886223 215.905076 
L 128.627526 217.743904 
L 128.34354 219.582732 
L 128.034439 221.42156 
L 127.700462 223.260389 
L 127.341919 225.099217 
L 126.95919 226.938045 
L 126.552731 228.776873 
L 126.123075 230.615701 
L 125.670833 232.454529 
L 125.196698 234.293357 
L 124.70145 236.132185 
L 124.18595 237.971013 
L 123.651148 239.809841 
L 123.098081 241.64867 
L 122.52787 243.487498 
L 121.941723 245.326326 
L 121.340927 247.165154 
L 120.726848 249.003982 
z
" clip-path="url(#p1bd53aad60)" style="fill: #1f77b4; fill-opacity: 0.3"/>
   </g>
   <g id="PolyCollection_2">
    <path d="M 230.073922 218.733988 
L 212.726078 218.733988 
L 212.414788 217.361841 
L 212.099989 215.989693 
L 211.78114 214.617546 
L 211.457624 213.245399 
L 211.128752 211.873252 
L 210.793785 210.501105 
L 210.45194 209.128958 
L 210.10241 207.756811 
L 209.744382 206.384664 
L 209.37705 205.012517 
L 208.999642 203.64037 
L 208.611432 202.268223 
L 208.211765 200.896076 
L 207.800072 199.523929 
L 207.375892 198.151782 
L 206.938888 196.779635 
L 206.488864 195.407488 
L 206.025777 194.035341 
L 205.549755 192.663194 
L 205.061098 191.291046 
L 204.560294 189.918899 
L 204.048019 188.546752 
L 203.525138 187.174605 
L 202.992707 185.802458 
L 202.451963 184.430311 
L 201.90432 183.058164 
L 201.351356 181.686017 
L 200.794799 180.31387 
L 200.23651 178.941723 
L 199.678463 177.569576 
L 199.122723 176.197429 
L 198.571421 174.825282 
L 198.026733 173.453135 
L 197.490847 172.080988 
L 196.965939 170.708841 
L 196.454146 169.336694 
L 195.957537 167.964546 
L 195.478086 166.592399 
L 195.017649 165.220252 
L 194.577937 163.848105 
L 194.160497 162.475958 
L 193.766693 161.103811 
L 193.397688 159.731664 
L 193.05443 158.359517 
L 192.737648 156.98737 
L 192.44784 155.615223 
L 192.185272 154.243076 
L 191.949983 152.870929 
L 191.741787 151.498782 
L 191.560286 150.126635 
L 191.404876 148.754488 
L 191.274773 147.382341 
L 191.169023 146.010194 
L 191.08653 144.638047 
L 191.026081 143.265899 
L 190.986368 141.893752 
L 190.966021 140.521605 
L 190.963636 139.149458 
L 190.977804 137.777311 
L 191.00714 136.405164 
L 191.050315 135.033017 
L 191.106084 133.66087 
L 191.173308 132.288723 
L 191.250983 130.916576 
L 191.338262 129.544429 
L 191.434467 128.172282 
L 191.539112 126.800135 
L 191.651908 125.427988 
L 191.772773 124.055841 
L 191.901832 122.683694 
L 192.039417 121.311547 
L 192.18606 119.939399 
L 192.34248 118.567252 
L 192.50957 117.195105 
L 192.688379 115.822958 
L 192.880084 114.450811 
L 193.085968 113.078664 
L 193.30739 111.706517 
L 193.545752 110.33437 
L 193.802469 108.962223 
L 194.078933 107.590076 
L 194.376482 106.217929 
L 194.696363 104.845782 
L 195.039702 103.473635 
L 195.407472 102.101488 
L 195.800469 100.729341 
L 196.219282 99.357194 
L 196.664276 97.985047 
L 197.135571 96.6129 
L 197.633033 95.240752 
L 198.156264 93.868605 
L 198.704598 92.496458 
L 199.277102 91.124311 
L 199.872583 89.752164 
L 200.489601 88.380017 
L 201.126476 87.00787 
L 201.781315 85.635723 
L 202.452031 84.263576 
L 203.136364 82.891429 
L 239.663636 82.891429 
L 239.663636 82.891429 
L 240.347969 84.263576 
L 241.018685 85.635723 
L 241.673524 87.00787 
L 242.310399 88.380017 
L 242.927417 89.752164 
L 243.522898 91.124311 
L 244.095402 92.496458 
L 244.643736 93.868605 
L 245.166967 95.240752 
L 245.664429 96.6129 
L 246.135724 97.985047 
L 246.580718 99.357194 
L 246.999531 100.729341 
L 247.392528 102.101488 
L 247.760298 103.473635 
L 248.103637 104.845782 
L 248.423518 106.217929 
L 248.721067 107.590076 
L 248.997531 108.962223 
L 249.254248 110.33437 
L 249.49261 111.706517 
L 249.714032 113.078664 
L 249.919916 114.450811 
L 250.111621 115.822958 
L 250.29043 117.195105 
L 250.45752 118.567252 
L 250.61394 119.939399 
L 250.760583 121.311547 
L 250.898168 122.683694 
L 251.027227 124.055841 
L 251.148092 125.427988 
L 251.260888 126.800135 
L 251.365533 128.172282 
L 251.461738 129.544429 
L 251.549017 130.916576 
L 251.626692 132.288723 
L 251.693916 133.66087 
L 251.749685 135.033017 
L 251.79286 136.405164 
L 251.822196 137.777311 
L 251.836364 139.149458 
L 251.833979 140.521605 
L 251.813632 141.893752 
L 251.773919 143.265899 
L 251.71347 144.638047 
L 251.630977 146.010194 
L 251.525227 147.382341 
L 251.395124 148.754488 
L 251.239714 150.126635 
L 251.058213 151.498782 
L 250.850017 152.870929 
L 250.614728 154.243076 
L 250.35216 155.615223 
L 250.062352 156.98737 
L 249.74557 158.359517 
L 249.402312 159.731664 
L 249.033307 161.103811 
L 248.639503 162.475958 
L 248.222063 163.848105 
L 247.782351 165.220252 
L 247.321914 166.592399 
L 246.842463 167.964546 
L 246.345854 169.336694 
L 245.834061 170.708841 
L 245.309153 172.080988 
L 244.773267 173.453135 
L 244.228579 174.825282 
L 243.677277 176.197429 
L 243.121537 177.569576 
L 242.56349 178.941723 
L 242.005201 180.31387 
L 241.448644 181.686017 
L 240.89568 183.058164 
L 240.348037 184.430311 
L 239.807293 185.802458 
L 239.274862 187.174605 
L 238.751981 188.546752 
L 238.239706 189.918899 
L 237.738902 191.291046 
L 237.250245 192.663194 
L 236.774223 194.035341 
L 236.311136 195.407488 
L 235.861112 196.779635 
L 235.424108 198.151782 
L 234.999928 199.523929 
L 234.588235 200.896076 
L 234.188568 202.268223 
L 233.800358 203.64037 
L 233.42295 205.012517 
L 233.055618 206.384664 
L 232.69759 207.756811 
L 232.34806 209.128958 
L 232.006215 210.501105 
L 231.671248 211.873252 
L 231.342376 213.245399 
L 231.01886 214.617546 
L 230.700011 215.989693 
L 230.385212 217.361841 
L 230.073922 218.733988 
z
" clip-path="url(#p1bd53aad60)" style="fill: #1f77b4; fill-opacity: 0.3"/>
   </g>
   <g id="PolyCollection_3">
    <path d="M 361.9009 369.36 
L 324.390009 369.36 
L 324.016239 367.069711 
L 323.658902 364.779422 
L 323.318379 362.489133 
L 322.994919 360.198845 
L 322.688634 357.908556 
L 322.399505 355.618267 
L 322.127382 353.327978 
L 321.871986 351.037689 
L 321.632913 348.7474 
L 321.409644 346.457112 
L 321.201548 344.166823 
L 321.007896 341.876534 
L 320.827864 339.586245 
L 320.660548 337.295956 
L 320.504976 335.005667 
L 320.360119 332.715378 
L 320.2249 330.42509 
L 320.098214 328.134801 
L 319.978935 325.844512 
L 319.86593 323.554223 
L 319.758076 321.263934 
L 319.654265 318.973645 
L 319.553421 316.683356 
L 319.454509 314.393068 
L 319.356546 312.102779 
L 319.258608 309.81249 
L 319.15984 307.522201 
L 319.059463 305.231912 
L 318.956776 302.941623 
L 318.851166 300.651335 
L 318.742106 298.361046 
L 318.62916 296.070757 
L 318.51198 293.780468 
L 318.39031 291.490179 
L 318.263979 289.19989 
L 318.132901 286.909601 
L 317.997072 284.619313 
L 317.85656 282.329024 
L 317.711506 280.038735 
L 317.562113 277.748446 
L 317.408639 275.458157 
L 317.251395 273.167868 
L 317.090731 270.877579 
L 316.927034 268.587291 
L 316.760719 266.297002 
L 316.592221 264.006713 
L 316.42199 261.716424 
L 316.250485 259.426135 
L 316.078167 257.135846 
L 315.905497 254.845558 
L 315.73293 252.555269 
L 315.560914 250.26498 
L 315.389885 247.974691 
L 315.220272 245.684402 
L 315.052487 243.394113 
L 314.886937 241.103824 
L 314.724016 238.813536 
L 314.564115 236.523247 
L 314.40762 234.232958 
L 314.254917 231.942669 
L 314.106398 229.65238 
L 313.962466 227.362091 
L 313.823534 225.071802 
L 313.690041 222.781514 
L 313.562445 220.491225 
L 313.441236 218.200936 
L 313.326938 215.910647 
L 313.220113 213.620358 
L 313.121364 211.330069 
L 313.031336 209.039781 
L 312.950721 206.749492 
L 312.880258 204.459203 
L 312.820729 202.168914 
L 312.772962 199.878625 
L 312.737825 197.588336 
L 312.716222 195.298047 
L 312.709091 193.007759 
L 312.717394 190.71747 
L 312.742112 188.427181 
L 312.784234 186.136892 
L 312.844748 183.846603 
L 312.924634 181.556314 
L 313.024847 179.266026 
L 313.146311 176.975737 
L 313.289902 174.685448 
L 313.456441 172.395159 
L 313.646679 170.10487 
L 313.861282 167.814581 
L 314.100827 165.524292 
L 314.365785 163.234004 
L 314.656513 160.943715 
L 314.973243 158.653426 
L 315.316079 156.363137 
L 315.684985 154.072848 
L 316.07978 151.782559 
L 316.500138 149.49227 
L 316.945583 147.201982 
L 317.415489 144.911693 
L 317.90908 142.621404 
L 368.381829 142.621404 
L 368.381829 142.621404 
L 368.87542 144.911693 
L 369.345326 147.201982 
L 369.790771 149.49227 
L 370.211129 151.782559 
L 370.605925 154.072848 
L 370.97483 156.363137 
L 371.317666 158.653426 
L 371.634396 160.943715 
L 371.925124 163.234004 
L 372.190082 165.524292 
L 372.429627 167.814581 
L 372.64423 170.10487 
L 372.834468 172.395159 
L 373.001007 174.685448 
L 373.144599 176.975737 
L 373.266062 179.266026 
L 373.366275 181.556314 
L 373.446161 183.846603 
L 373.506675 186.136892 
L 373.548797 188.427181 
L 373.573515 190.71747 
L 373.581818 193.007759 
L 373.574687 195.298047 
L 373.553085 197.588336 
L 373.517947 199.878625 
L 373.47018 202.168914 
L 373.410651 204.459203 
L 373.340188 206.749492 
L 373.259573 209.039781 
L 373.169545 211.330069 
L 373.070796 213.620358 
L 372.963971 215.910647 
L 372.849673 218.200936 
L 372.728465 220.491225 
L 372.600868 222.781514 
L 372.467375 225.071802 
L 372.328444 227.362091 
L 372.184511 229.65238 
L 372.035992 231.942669 
L 371.883289 234.232958 
L 371.726794 236.523247 
L 371.566893 238.813536 
L 371.403972 241.103824 
L 371.238422 243.394113 
L 371.070638 245.684402 
L 370.901024 247.974691 
L 370.729996 250.26498 
L 370.557979 252.555269 
L 370.385412 254.845558 
L 370.212742 257.135846 
L 370.040424 259.426135 
L 369.868919 261.716424 
L 369.698688 264.006713 
L 369.53019 266.297002 
L 369.363875 268.587291 
L 369.200178 270.877579 
L 369.039514 273.167868 
L 368.88227 275.458157 
L 368.728796 277.748446 
L 368.579403 280.038735 
L 368.434349 282.329024 
L 368.293837 284.619313 
L 368.158008 286.909601 
L 368.02693 289.19989 
L 367.900599 291.490179 
L 367.778929 293.780468 
L 367.661749 296.070757 
L 367.548803 298.361046 
L 367.439743 300.651335 
L 367.334133 302.941623 
L 367.231446 305.231912 
L 367.131069 307.522201 
L 367.032301 309.81249 
L 366.934363 312.102779 
L 366.8364 314.393068 
L 366.737488 316.683356 
L 366.636644 318.973645 
L 366.532833 321.263934 
L 366.424979 323.554223 
L 366.311974 325.844512 
L 366.192695 328.134801 
L 366.066009 330.42509 
L 365.93079 332.715378 
L 365.785933 335.005667 
L 365.630361 337.295956 
L 365.463046 339.586245 
L 365.283013 341.876534 
L 365.089361 344.166823 
L 364.881265 346.457112 
L 364.657996 348.7474 
L 364.418923 351.037689 
L 364.163527 353.327978 
L 363.891404 355.618267 
L 363.602275 357.908556 
L 363.29599 360.198845 
L 362.97253 362.489133 
L 362.632007 364.779422 
L 362.27467 367.069711 
L 361.9009 369.36 
z
" clip-path="url(#p1bd53aad60)" style="fill: #1f77b4; fill-opacity: 0.3"/>
   </g>
   <g id="PathCollection_1">
    <defs>
     <path id="mb008dd52c1" d="M 0 1.936492 
C 0.513564 1.936492 1.006162 1.732451 1.369306 1.369306 
C 1.732451 1.006162 1.936492 0.513564 1.936492 0 
C 1.936492 -0.513564 1.732451 -1.006162 1.369306 -1.369306 
C 1.006162 -1.732451 0.513564 -1.936492 0 -1.936492 
C -0.513564 -1.936492 -1.006162 -1.732451 -1.369306 -1.369306 
C -1.732451 -1.006162 -1.936492 -0.513564 -1.936492 0 
C -1.936492 0.513564 -1.732451 1.006162 -1.369306 1.369306 
C -1.006162 1.732451 -0.513564 1.936492 0 1.936492 
z
" style="stroke: #1f77b4; stroke-opacity: 0.3"/>
    </defs>
    <g clip-path="url(#p1bd53aad60)">
     <use xlink:href="#mb008dd52c1" x="97.084824" y="120.931877" style="fill: #1f77b4; fill-opacity: 0.3; stroke: #1f77b4; stroke-opacity: 0.3"/>
     <use xlink:href="#mb008dd52c1" x="102.631953" y="66.96" style="fill: #1f77b4; fill-opacity: 0.3; stroke: #1f77b4; stroke-opacity: 0.3"/>
     <use xlink:href="#mb008dd52c1" x="103.150517" y="180.815179" style="fill: #1f77b4; fill-opacity: 0.3; stroke: #1f77b4; stroke-opacity: 0.3"/>
     <use xlink:href="#mb008dd52c1" x="106.875135" y="88.886822" style="fill: #1f77b4; fill-opacity: 0.3; stroke: #1f77b4; stroke-opacity: 0.3"/>
     <use xlink:href="#mb008dd52c1" x="99.49493" y="146.208714" style="fill: #1f77b4; fill-opacity: 0.3; stroke: #1f77b4; stroke-opacity: 0.3"/>
     <use xlink:href="#mb008dd52c1" x="95.675463" y="206.683913" style="fill: #1f77b4; fill-opacity: 0.3; stroke: #1f77b4; stroke-opacity: 0.3"/>
     <use xlink:href="#mb008dd52c1" x="103.161409" y="231.050798" style="fill: #1f77b4; fill-opacity: 0.3; stroke: #1f77b4; stroke-opacity: 0.3"/>
     <use xlink:href="#mb008dd52c1" x="103.592766" y="240.389336" style="fill: #1f77b4; fill-opacity: 0.3; stroke: #1f77b4; stroke-opacity: 0.3"/>
     <use xlink:href="#mb008dd52c1" x="98.26594" y="249.003982" style="fill: #1f77b4; fill-opacity: 0.3; stroke: #1f77b4; stroke-opacity: 0.3"/>
     <use xlink:href="#mb008dd52c1" x="103.662384" y="179.856143" style="fill: #1f77b4; fill-opacity: 0.3; stroke: #1f77b4; stroke-opacity: 0.3"/>
     <use xlink:href="#mb008dd52c1" x="101.445781" y="97.087088" style="fill: #1f77b4; fill-opacity: 0.3; stroke: #1f77b4; stroke-opacity: 0.3"/>
     <use xlink:href="#mb008dd52c1" x="89.145651" y="189.160972" style="fill: #1f77b4; fill-opacity: 0.3; stroke: #1f77b4; stroke-opacity: 0.3"/>
    </g>
   </g>
   <g id="PathCollection_2">
    <defs>
     <path id="m1cbf28ea90" d="M 0 1.936492 
C 0.513564 1.936492 1.006162 1.732451 1.369306 1.369306 
C 1.732451 1.006162 1.936492 0.513564 1.936492 0 
C 1.936492 -0.513564 1.732451 -1.006162 1.369306 -1.369306 
C 1.006162 -1.732451 0.513564 -1.936492 0 -1.936492 
C -0.513564 -1.936492 -1.006162 -1.732451 -1.369306 -1.369306 
C -1.732451 -1.006162 -1.936492 -0.513564 -1.936492 0 
C -1.936492 0.513564 -1.732451 1.006162 -1.369306 1.369306 
C -1.006162 1.732451 -0.513564 1.936492 0 1.936492 
z
" style="stroke: #ff7f0e; stroke-opacity: 0.3"/>
    </defs>
    <g clip-path="url(#p1bd53aad60)">
     <use xlink:href="#m1cbf28ea90" x="218.684609" y="162.775622" style="fill: #ff7f0e; fill-opacity: 0.3; stroke: #ff7f0e; stroke-opacity: 0.3"/>
     <use xlink:href="#m1cbf28ea90" x="228.082235" y="98.982899" style="fill: #ff7f0e; fill-opacity: 0.3; stroke: #ff7f0e; stroke-opacity: 0.3"/>
     <use xlink:href="#m1cbf28ea90" x="218.95407" y="218.733988" style="fill: #ff7f0e; fill-opacity: 0.3; stroke: #ff7f0e; stroke-opacity: 0.3"/>
     <use xlink:href="#m1cbf28ea90" x="217.442355" y="143.584904" style="fill: #ff7f0e; fill-opacity: 0.3; stroke: #ff7f0e; stroke-opacity: 0.3"/>
     <use xlink:href="#m1cbf28ea90" x="223.92124" y="157.67515" style="fill: #ff7f0e; fill-opacity: 0.3; stroke: #ff7f0e; stroke-opacity: 0.3"/>
     <use xlink:href="#m1cbf28ea90" x="215.782145" y="189.676738" style="fill: #ff7f0e; fill-opacity: 0.3; stroke: #ff7f0e; stroke-opacity: 0.3"/>
     <use xlink:href="#m1cbf28ea90" x="224.543317" y="131.942859" style="fill: #ff7f0e; fill-opacity: 0.3; stroke: #ff7f0e; stroke-opacity: 0.3"/>
     <use xlink:href="#m1cbf28ea90" x="219.134322" y="101.159861" style="fill: #ff7f0e; fill-opacity: 0.3; stroke: #ff7f0e; stroke-opacity: 0.3"/>
     <use xlink:href="#m1cbf28ea90" x="215.0235" y="163.649259" style="fill: #ff7f0e; fill-opacity: 0.3; stroke: #ff7f0e; stroke-opacity: 0.3"/>
     <use xlink:href="#m1cbf28ea90" x="223.046497" y="130.385742" style="fill: #ff7f0e; fill-opacity: 0.3; stroke: #ff7f0e; stroke-opacity: 0.3"/>
     <use xlink:href="#m1cbf28ea90" x="219.218267" y="104.470558" style="fill: #ff7f0e; fill-opacity: 0.3; stroke: #ff7f0e; stroke-opacity: 0.3"/>
     <use xlink:href="#m1cbf28ea90" x="222.093543" y="82.891429" style="fill: #ff7f0e; fill-opacity: 0.3; stroke: #ff7f0e; stroke-opacity: 0.3"/>
    </g>
   </g>
   <g id="PathCollection_3">
    <defs>
     <path id="m2558a1605b" d="M 0 1.936492 
C 0.513564 1.936492 1.006162 1.732451 1.369306 1.369306 
C 1.732451 1.006162 1.936492 0.513564 1.936492 0 
C 1.936492 -0.513564 1.732451 -1.006162 1.369306 -1.369306 
C 1.006162 -1.732451 0.513564 -1.936492 0 -1.936492 
C -0.513564 -1.936492 -1.006162 -1.732451 -1.369306 -1.369306 
C -1.732451 -1.006162 -1.936492 -0.513564 -1.936492 0 
C -1.936492 0.513564 -1.732451 1.006162 -1.369306 1.369306 
C -1.006162 1.732451 -0.513564 1.936492 0 1.936492 
z
" style="stroke: #2ca02c; stroke-opacity: 0.3"/>
    </defs>
    <g clip-path="url(#p1bd53aad60)">
     <use xlink:href="#m2558a1605b" x="338.878371" y="247.632763" style="fill: #2ca02c; fill-opacity: 0.3; stroke: #2ca02c; stroke-opacity: 0.3"/>
     <use xlink:href="#m2558a1605b" x="351.0971" y="165.587706" style="fill: #2ca02c; fill-opacity: 0.3; stroke: #2ca02c; stroke-opacity: 0.3"/>
     <use xlink:href="#m2558a1605b" x="349.717579" y="228.810034" style="fill: #2ca02c; fill-opacity: 0.3; stroke: #2ca02c; stroke-opacity: 0.3"/>
     <use xlink:href="#m2558a1605b" x="346.497043" y="301.658683" style="fill: #2ca02c; fill-opacity: 0.3; stroke: #2ca02c; stroke-opacity: 0.3"/>
     <use xlink:href="#m2558a1605b" x="344.06423" y="369.36" style="fill: #2ca02c; fill-opacity: 0.3; stroke: #2ca02c; stroke-opacity: 0.3"/>
     <use xlink:href="#m2558a1605b" x="342.728416" y="355.125154" style="fill: #2ca02c; fill-opacity: 0.3; stroke: #2ca02c; stroke-opacity: 0.3"/>
     <use xlink:href="#m2558a1605b" x="345.216415" y="152.339715" style="fill: #2ca02c; fill-opacity: 0.3; stroke: #2ca02c; stroke-opacity: 0.3"/>
     <use xlink:href="#m2558a1605b" x="346.242813" y="150.207129" style="fill: #2ca02c; fill-opacity: 0.3; stroke: #2ca02c; stroke-opacity: 0.3"/>
     <use xlink:href="#m2558a1605b" x="338.64066" y="264.042393" style="fill: #2ca02c; fill-opacity: 0.3; stroke: #2ca02c; stroke-opacity: 0.3"/>
     <use xlink:href="#m2558a1605b" x="349.427629" y="142.621404" style="fill: #2ca02c; fill-opacity: 0.3; stroke: #2ca02c; stroke-opacity: 0.3"/>
     <use xlink:href="#m2558a1605b" x="347.780124" y="207.439445" style="fill: #2ca02c; fill-opacity: 0.3; stroke: #2ca02c; stroke-opacity: 0.3"/>
     <use xlink:href="#m2558a1605b" x="343.823509" y="352.235864" style="fill: #2ca02c; fill-opacity: 0.3; stroke: #2ca02c; stroke-opacity: 0.3"/>
    </g>
   </g>
   <g id="matplotlib.axis_1">
    <g id="xtick_1">
     <g id="line2d_1">
      <defs>
       <path id="m88f4eb2a83" d="M 0 0 
L 0 3.5 
" style="stroke: #000000; stroke-width: 0.8"/>
      </defs>
      <g>
       <use xlink:href="#m88f4eb2a83" x="99.654545" y="384.48" style="stroke: #000000; stroke-width: 0.8"/>
      </g>
     </g>
     <g id="text_1">
      <!-- SF -->
      <g transform="translate(93.604545 399.078438) scale(0.1 -0.1)">
       <defs>
        <path id="DejaVuSans-53" d="M 3425 4513 
L 3425 3897 
Q 3066 4069 2747 4153 
Q 2428 4238 2131 4238 
Q 1616 4238 1336 4038 
Q 1056 3838 1056 3469 
Q 1056 3159 1242 3001 
Q 1428 2844 1947 2747 
L 2328 2669 
Q 3034 2534 3370 2195 
Q 3706 1856 3706 1288 
Q 3706 609 3251 259 
Q 2797 -91 1919 -91 
Q 1588 -91 1214 -16 
Q 841 59 441 206 
L 441 856 
Q 825 641 1194 531 
Q 1563 422 1919 422 
Q 2459 422 2753 634 
Q 3047 847 3047 1241 
Q 3047 1584 2836 1778 
Q 2625 1972 2144 2069 
L 1759 2144 
Q 1053 2284 737 2584 
Q 422 2884 422 3419 
Q 422 4038 858 4394 
Q 1294 4750 2059 4750 
Q 2388 4750 2728 4690 
Q 3069 4631 3425 4513 
z
" transform="scale(0.015625)"/>
        <path id="DejaVuSans-46" d="M 628 4666 
L 3309 4666 
L 3309 4134 
L 1259 4134 
L 1259 2759 
L 3109 2759 
L 3109 2228 
L 1259 2228 
L 1259 0 
L 628 0 
L 628 4666 
z
" transform="scale(0.015625)"/>
       </defs>
       <use xlink:href="#DejaVuSans-53"/>
       <use xlink:href="#DejaVuSans-46" x="63.476562"/>
      </g>
     </g>
    </g>
    <g id="xtick_2">
     <g id="line2d_2">
      <g>
       <use xlink:href="#m88f4eb2a83" x="221.4" y="384.48" style="stroke: #000000; stroke-width: 0.8"/>
      </g>
     </g>
     <g id="text_2">
      <!-- TF -->
      <g transform="translate(215.470313 399.078438) scale(0.1 -0.1)">
       <defs>
        <path id="DejaVuSans-54" d="M -19 4666 
L 3928 4666 
L 3928 4134 
L 2272 4134 
L 2272 0 
L 1638 0 
L 1638 4134 
L -19 4134 
L -19 4666 
z
" transform="scale(0.015625)"/>
       </defs>
       <use xlink:href="#DejaVuSans-54"/>
       <use xlink:href="#DejaVuSans-46" x="61.083984"/>
      </g>
     </g>
    </g>
    <g id="xtick_3">
     <g id="line2d_3">
      <g>
       <use xlink:href="#m88f4eb2a83" x="343.145455" y="384.48" style="stroke: #000000; stroke-width: 0.8"/>
      </g>
     </g>
     <g id="text_3">
      <!-- NF -->
      <g transform="translate(336.529048 399.078438) scale(0.1 -0.1)">
       <defs>
        <path id="DejaVuSans-4e" d="M 628 4666 
L 1478 4666 
L 3547 763 
L 3547 4666 
L 4159 4666 
L 4159 0 
L 3309 0 
L 1241 3903 
L 1241 0 
L 628 0 
L 628 4666 
z
" transform="scale(0.015625)"/>
       </defs>
       <use xlink:href="#DejaVuSans-4e"/>
       <use xlink:href="#DejaVuSans-46" x="74.804688"/>
      </g>
     </g>
    </g>
   </g>
   <g id="matplotlib.axis_2">
    <g id="ytick_1">
     <g id="line2d_4">
      <defs>
       <path id="m5f462ce414" d="M 0 0 
L -3.5 0 
" style="stroke: #000000; stroke-width: 0.8"/>
      </defs>
      <g>
       <use xlink:href="#m5f462ce414" x="54" y="381.71421" style="stroke: #000000; stroke-width: 0.8"/>
      </g>
     </g>
     <g id="text_4">
      <!-- 0.0 -->
      <g transform="translate(31.096875 385.513429) scale(0.1 -0.1)">
       <defs>
        <path id="DejaVuSans-30" d="M 2034 4250 
Q 1547 4250 1301 3770 
Q 1056 3291 1056 2328 
Q 1056 1369 1301 889 
Q 1547 409 2034 409 
Q 2525 409 2770 889 
Q 3016 1369 3016 2328 
Q 3016 3291 2770 3770 
Q 2525 4250 2034 4250 
z
M 2034 4750 
Q 2819 4750 3233 4129 
Q 3647 3509 3647 2328 
Q 3647 1150 3233 529 
Q 2819 -91 2034 -91 
Q 1250 -91 836 529 
Q 422 1150 422 2328 
Q 422 3509 836 4129 
Q 1250 4750 2034 4750 
z
" transform="scale(0.015625)"/>
        <path id="DejaVuSans-2e" d="M 684 794 
L 1344 794 
L 1344 0 
L 684 0 
L 684 794 
z
" transform="scale(0.015625)"/>
       </defs>
       <use xlink:href="#DejaVuSans-30"/>
       <use xlink:href="#DejaVuSans-2e" x="63.623047"/>
       <use xlink:href="#DejaVuSans-30" x="95.410156"/>
      </g>
     </g>
    </g>
    <g id="ytick_2">
     <g id="line2d_5">
      <g>
       <use xlink:href="#m5f462ce414" x="54" y="331.676226" style="stroke: #000000; stroke-width: 0.8"/>
      </g>
     </g>
     <g id="text_5">
      <!-- 0.1 -->
      <g transform="translate(31.096875 335.475445) scale(0.1 -0.1)">
       <defs>
        <path id="DejaVuSans-31" d="M 794 531 
L 1825 531 
L 1825 4091 
L 703 3866 
L 703 4441 
L 1819 4666 
L 2450 4666 
L 2450 531 
L 3481 531 
L 3481 0 
L 794 0 
L 794 531 
z
" transform="scale(0.015625)"/>
       </defs>
       <use xlink:href="#DejaVuSans-30"/>
       <use xlink:href="#DejaVuSans-2e" x="63.623047"/>
       <use xlink:href="#DejaVuSans-31" x="95.410156"/>
      </g>
     </g>
    </g>
    <g id="ytick_3">
     <g id="line2d_6">
      <g>
       <use xlink:href="#m5f462ce414" x="54" y="281.638242" style="stroke: #000000; stroke-width: 0.8"/>
      </g>
     </g>
     <g id="text_6">
      <!-- 0.2 -->
      <g transform="translate(31.096875 285.43746) scale(0.1 -0.1)">
       <defs>
        <path id="DejaVuSans-32" d="M 1228 531 
L 3431 531 
L 3431 0 
L 469 0 
L 469 531 
Q 828 903 1448 1529 
Q 2069 2156 2228 2338 
Q 2531 2678 2651 2914 
Q 2772 3150 2772 3378 
Q 2772 3750 2511 3984 
Q 2250 4219 1831 4219 
Q 1534 4219 1204 4116 
Q 875 4013 500 3803 
L 500 4441 
Q 881 4594 1212 4672 
Q 1544 4750 1819 4750 
Q 2544 4750 2975 4387 
Q 3406 4025 3406 3419 
Q 3406 3131 3298 2873 
Q 3191 2616 2906 2266 
Q 2828 2175 2409 1742 
Q 1991 1309 1228 531 
z
" transform="scale(0.015625)"/>
       </defs>
       <use xlink:href="#DejaVuSans-30"/>
       <use xlink:href="#DejaVuSans-2e" x="63.623047"/>
       <use xlink:href="#DejaVuSans-32" x="95.410156"/>
      </g>
     </g>
    </g>
    <g id="ytick_4">
     <g id="line2d_7">
      <g>
       <use xlink:href="#m5f462ce414" x="54" y="231.600257" style="stroke: #000000; stroke-width: 0.8"/>
      </g>
     </g>
     <g id="text_7">
      <!-- 0.3 -->
      <g transform="translate(31.096875 235.399476) scale(0.1 -0.1)">
       <defs>
        <path id="DejaVuSans-33" d="M 2597 2516 
Q 3050 2419 3304 2112 
Q 3559 1806 3559 1356 
Q 3559 666 3084 287 
Q 2609 -91 1734 -91 
Q 1441 -91 1130 -33 
Q 819 25 488 141 
L 488 750 
Q 750 597 1062 519 
Q 1375 441 1716 441 
Q 2309 441 2620 675 
Q 2931 909 2931 1356 
Q 2931 1769 2642 2001 
Q 2353 2234 1838 2234 
L 1294 2234 
L 1294 2753 
L 1863 2753 
Q 2328 2753 2575 2939 
Q 2822 3125 2822 3475 
Q 2822 3834 2567 4026 
Q 2313 4219 1838 4219 
Q 1578 4219 1281 4162 
Q 984 4106 628 3988 
L 628 4550 
Q 988 4650 1302 4700 
Q 1616 4750 1894 4750 
Q 2613 4750 3031 4423 
Q 3450 4097 3450 3541 
Q 3450 3153 3228 2886 
Q 3006 2619 2597 2516 
z
" transform="scale(0.015625)"/>
       </defs>
       <use xlink:href="#DejaVuSans-30"/>
       <use xlink:href="#DejaVuSans-2e" x="63.623047"/>
       <use xlink:href="#DejaVuSans-33" x="95.410156"/>
      </g>
     </g>
    </g>
    <g id="ytick_5">
     <g id="line2d_8">
      <g>
       <use xlink:href="#m5f462ce414" x="54" y="181.562273" style="stroke: #000000; stroke-width: 0.8"/>
      </g>
     </g>
     <g id="text_8">
      <!-- 0.4 -->
      <g transform="translate(31.096875 185.361492) scale(0.1 -0.1)">
       <defs>
        <path id="DejaVuSans-34" d="M 2419 4116 
L 825 1625 
L 2419 1625 
L 2419 4116 
z
M 2253 4666 
L 3047 4666 
L 3047 1625 
L 3713 1625 
L 3713 1100 
L 3047 1100 
L 3047 0 
L 2419 0 
L 2419 1100 
L 313 1100 
L 313 1709 
L 2253 4666 
z
" transform="scale(0.015625)"/>
       </defs>
       <use xlink:href="#DejaVuSans-30"/>
       <use xlink:href="#DejaVuSans-2e" x="63.623047"/>
       <use xlink:href="#DejaVuSans-34" x="95.410156"/>
      </g>
     </g>
    </g>
    <g id="ytick_6">
     <g id="line2d_9">
      <g>
       <use xlink:href="#m5f462ce414" x="54" y="131.524288" style="stroke: #000000; stroke-width: 0.8"/>
      </g>
     </g>
     <g id="text_9">
      <!-- 0.5 -->
      <g transform="translate(31.096875 135.323507) scale(0.1 -0.1)">
       <defs>
        <path id="DejaVuSans-35" d="M 691 4666 
L 3169 4666 
L 3169 4134 
L 1269 4134 
L 1269 2991 
Q 1406 3038 1543 3061 
Q 1681 3084 1819 3084 
Q 2600 3084 3056 2656 
Q 3513 2228 3513 1497 
Q 3513 744 3044 326 
Q 2575 -91 1722 -91 
Q 1428 -91 1123 -41 
Q 819 9 494 109 
L 494 744 
Q 775 591 1075 516 
Q 1375 441 1709 441 
Q 2250 441 2565 725 
Q 2881 1009 2881 1497 
Q 2881 1984 2565 2268 
Q 2250 2553 1709 2553 
Q 1456 2553 1204 2497 
Q 953 2441 691 2322 
L 691 4666 
z
" transform="scale(0.015625)"/>
       </defs>
       <use xlink:href="#DejaVuSans-30"/>
       <use xlink:href="#DejaVuSans-2e" x="63.623047"/>
       <use xlink:href="#DejaVuSans-35" x="95.410156"/>
      </g>
     </g>
    </g>
    <g id="ytick_7">
     <g id="line2d_10">
      <g>
       <use xlink:href="#m5f462ce414" x="54" y="81.486304" style="stroke: #000000; stroke-width: 0.8"/>
      </g>
     </g>
     <g id="text_10">
      <!-- 0.6 -->
      <g transform="translate(31.096875 85.285523) scale(0.1 -0.1)">
       <defs>
        <path id="DejaVuSans-36" d="M 2113 2584 
Q 1688 2584 1439 2293 
Q 1191 2003 1191 1497 
Q 1191 994 1439 701 
Q 1688 409 2113 409 
Q 2538 409 2786 701 
Q 3034 994 3034 1497 
Q 3034 2003 2786 2293 
Q 2538 2584 2113 2584 
z
M 3366 4563 
L 3366 3988 
Q 3128 4100 2886 4159 
Q 2644 4219 2406 4219 
Q 1781 4219 1451 3797 
Q 1122 3375 1075 2522 
Q 1259 2794 1537 2939 
Q 1816 3084 2150 3084 
Q 2853 3084 3261 2657 
Q 3669 2231 3669 1497 
Q 3669 778 3244 343 
Q 2819 -91 2113 -91 
Q 1303 -91 875 529 
Q 447 1150 447 2328 
Q 447 3434 972 4092 
Q 1497 4750 2381 4750 
Q 2619 4750 2861 4703 
Q 3103 4656 3366 4563 
z
" transform="scale(0.015625)"/>
       </defs>
       <use xlink:href="#DejaVuSans-30"/>
       <use xlink:href="#DejaVuSans-2e" x="63.623047"/>
       <use xlink:href="#DejaVuSans-36" x="95.410156"/>
      </g>
     </g>
    </g>
    <g id="text_11">
     <!-- rKAM -->
     <g transform="translate(25.017187 231.14125) rotate(-90) scale(0.1 -0.1)">
      <defs>
       <path id="DejaVuSans-72" d="M 2631 2963 
Q 2534 3019 2420 3045 
Q 2306 3072 2169 3072 
Q 1681 3072 1420 2755 
Q 1159 2438 1159 1844 
L 1159 0 
L 581 0 
L 581 3500 
L 1159 3500 
L 1159 2956 
Q 1341 3275 1631 3429 
Q 1922 3584 2338 3584 
Q 2397 3584 2469 3576 
Q 2541 3569 2628 3553 
L 2631 2963 
z
" transform="scale(0.015625)"/>
       <path id="DejaVuSans-4b" d="M 628 4666 
L 1259 4666 
L 1259 2694 
L 3353 4666 
L 4166 4666 
L 1850 2491 
L 4331 0 
L 3500 0 
L 1259 2247 
L 1259 0 
L 628 0 
L 628 4666 
z
" transform="scale(0.015625)"/>
       <path id="DejaVuSans-41" d="M 2188 4044 
L 1331 1722 
L 3047 1722 
L 2188 4044 
z
M 1831 4666 
L 2547 4666 
L 4325 0 
L 3669 0 
L 3244 1197 
L 1141 1197 
L 716 0 
L 50 0 
L 1831 4666 
z
" transform="scale(0.015625)"/>
       <path id="DejaVuSans-4d" d="M 628 4666 
L 1569 4666 
L 2759 1491 
L 3956 4666 
L 4897 4666 
L 4897 0 
L 4281 0 
L 4281 4097 
L 3078 897 
L 2444 897 
L 1241 4097 
L 1241 0 
L 628 0 
L 628 4666 
z
" transform="scale(0.015625)"/>
      </defs>
      <use xlink:href="#DejaVuSans-72"/>
      <use xlink:href="#DejaVuSans-4b" x="41.113281"/>
      <use xlink:href="#DejaVuSans-41" x="104.939453"/>
      <use xlink:href="#DejaVuSans-4d" x="173.347656"/>
     </g>
    </g>
   </g>
   <g id="LineCollection_1">
    <path d="M 84.436364 166.419569 
L 114.872727 166.419569 
" clip-path="url(#p1bd53aad60)" style="fill: none; stroke: #1f77b4; stroke-width: 1.5"/>
    <path d="M 206.181818 140.494084 
L 236.618182 140.494084 
" clip-path="url(#p1bd53aad60)" style="fill: none; stroke: #1f77b4; stroke-width: 1.5"/>
    <path d="M 327.927273 244.755024 
L 358.363636 244.755024 
" clip-path="url(#p1bd53aad60)" style="fill: none; stroke: #1f77b4; stroke-width: 1.5"/>
   </g>
   <g id="LineCollection_2">
    <path d="M 84.436364 66.96 
L 114.872727 66.96 
" clip-path="url(#p1bd53aad60)" style="fill: none; stroke: #1f77b4; stroke-width: 1.5"/>
    <path d="M 206.181818 82.891429 
L 236.618182 82.891429 
" clip-path="url(#p1bd53aad60)" style="fill: none; stroke: #1f77b4; stroke-width: 1.5"/>
    <path d="M 327.927273 142.621404 
L 358.363636 142.621404 
" clip-path="url(#p1bd53aad60)" style="fill: none; stroke: #1f77b4; stroke-width: 1.5"/>
   </g>
   <g id="LineCollection_3">
    <path d="M 84.436364 249.003982 
L 114.872727 249.003982 
" clip-path="url(#p1bd53aad60)" style="fill: none; stroke: #1f77b4; stroke-width: 1.5"/>
    <path d="M 206.181818 218.733988 
L 236.618182 218.733988 
" clip-path="url(#p1bd53aad60)" style="fill: none; stroke: #1f77b4; stroke-width: 1.5"/>
    <path d="M 327.927273 369.36 
L 358.363636 369.36 
" clip-path="url(#p1bd53aad60)" style="fill: none; stroke: #1f77b4; stroke-width: 1.5"/>
   </g>
   <g id="LineCollection_4">
    <path d="M 99.654545 249.003982 
L 99.654545 66.96 
" clip-path="url(#p1bd53aad60)" style="fill: none; stroke: #1f77b4; stroke-width: 1.5"/>
    <path d="M 221.4 218.733988 
L 221.4 82.891429 
" clip-path="url(#p1bd53aad60)" style="fill: none; stroke: #1f77b4; stroke-width: 1.5"/>
    <path d="M 343.145455 369.36 
L 343.145455 142.621404 
" clip-path="url(#p1bd53aad60)" style="fill: none; stroke: #1f77b4; stroke-width: 1.5"/>
   </g>
   <g id="patch_3">
    <path d="M 54 384.48 
L 54 51.84 
" style="fill: none; stroke: #000000; stroke-width: 0.8; stroke-linejoin: miter; stroke-linecap: square"/>
   </g>
   <g id="patch_4">
    <path d="M 388.8 384.48 
L 388.8 51.84 
" style="fill: none; stroke: #000000; stroke-width: 0.8; stroke-linejoin: miter; stroke-linecap: square"/>
   </g>
   <g id="patch_5">
    <path d="M 54 384.48 
L 388.8 384.48 
" style="fill: none; stroke: #000000; stroke-width: 0.8; stroke-linejoin: miter; stroke-linecap: square"/>
   </g>
   <g id="patch_6">
    <path d="M 54 51.84 
L 388.8 51.84 
" style="fill: none; stroke: #000000; stroke-width: 0.8; stroke-linejoin: miter; stroke-linecap: square"/>
   </g>
   <g id="text_12">
    <!-- rKAM across groups, RET -->
    <g transform="translate(146.790938 45.84) scale(0.12 -0.12)">
     <defs>
      <path id="DejaVuSans-20" transform="scale(0.015625)"/>
      <path id="DejaVuSans-61" d="M 2194 1759 
Q 1497 1759 1228 1600 
Q 959 1441 959 1056 
Q 959 750 1161 570 
Q 1363 391 1709 391 
Q 2188 391 2477 730 
Q 2766 1069 2766 1631 
L 2766 1759 
L 2194 1759 
z
M 3341 1997 
L 3341 0 
L 2766 0 
L 2766 531 
Q 2569 213 2275 61 
Q 1981 -91 1556 -91 
Q 1019 -91 701 211 
Q 384 513 384 1019 
Q 384 1609 779 1909 
Q 1175 2209 1959 2209 
L 2766 2209 
L 2766 2266 
Q 2766 2663 2505 2880 
Q 2244 3097 1772 3097 
Q 1472 3097 1187 3025 
Q 903 2953 641 2809 
L 641 3341 
Q 956 3463 1253 3523 
Q 1550 3584 1831 3584 
Q 2591 3584 2966 3190 
Q 3341 2797 3341 1997 
z
" transform="scale(0.015625)"/>
      <path id="DejaVuSans-63" d="M 3122 3366 
L 3122 2828 
Q 2878 2963 2633 3030 
Q 2388 3097 2138 3097 
Q 1578 3097 1268 2742 
Q 959 2388 959 1747 
Q 959 1106 1268 751 
Q 1578 397 2138 397 
Q 2388 397 2633 464 
Q 2878 531 3122 666 
L 3122 134 
Q 2881 22 2623 -34 
Q 2366 -91 2075 -91 
Q 1284 -91 818 406 
Q 353 903 353 1747 
Q 353 2603 823 3093 
Q 1294 3584 2113 3584 
Q 2378 3584 2631 3529 
Q 2884 3475 3122 3366 
z
" transform="scale(0.015625)"/>
      <path id="DejaVuSans-6f" d="M 1959 3097 
Q 1497 3097 1228 2736 
Q 959 2375 959 1747 
Q 959 1119 1226 758 
Q 1494 397 1959 397 
Q 2419 397 2687 759 
Q 2956 1122 2956 1747 
Q 2956 2369 2687 2733 
Q 2419 3097 1959 3097 
z
M 1959 3584 
Q 2709 3584 3137 3096 
Q 3566 2609 3566 1747 
Q 3566 888 3137 398 
Q 2709 -91 1959 -91 
Q 1206 -91 779 398 
Q 353 888 353 1747 
Q 353 2609 779 3096 
Q 1206 3584 1959 3584 
z
" transform="scale(0.015625)"/>
      <path id="DejaVuSans-73" d="M 2834 3397 
L 2834 2853 
Q 2591 2978 2328 3040 
Q 2066 3103 1784 3103 
Q 1356 3103 1142 2972 
Q 928 2841 928 2578 
Q 928 2378 1081 2264 
Q 1234 2150 1697 2047 
L 1894 2003 
Q 2506 1872 2764 1633 
Q 3022 1394 3022 966 
Q 3022 478 2636 193 
Q 2250 -91 1575 -91 
Q 1294 -91 989 -36 
Q 684 19 347 128 
L 347 722 
Q 666 556 975 473 
Q 1284 391 1588 391 
Q 1994 391 2212 530 
Q 2431 669 2431 922 
Q 2431 1156 2273 1281 
Q 2116 1406 1581 1522 
L 1381 1569 
Q 847 1681 609 1914 
Q 372 2147 372 2553 
Q 372 3047 722 3315 
Q 1072 3584 1716 3584 
Q 2034 3584 2315 3537 
Q 2597 3491 2834 3397 
z
" transform="scale(0.015625)"/>
      <path id="DejaVuSans-67" d="M 2906 1791 
Q 2906 2416 2648 2759 
Q 2391 3103 1925 3103 
Q 1463 3103 1205 2759 
Q 947 2416 947 1791 
Q 947 1169 1205 825 
Q 1463 481 1925 481 
Q 2391 481 2648 825 
Q 2906 1169 2906 1791 
z
M 3481 434 
Q 3481 -459 3084 -895 
Q 2688 -1331 1869 -1331 
Q 1566 -1331 1297 -1286 
Q 1028 -1241 775 -1147 
L 775 -588 
Q 1028 -725 1275 -790 
Q 1522 -856 1778 -856 
Q 2344 -856 2625 -561 
Q 2906 -266 2906 331 
L 2906 616 
Q 2728 306 2450 153 
Q 2172 0 1784 0 
Q 1141 0 747 490 
Q 353 981 353 1791 
Q 353 2603 747 3093 
Q 1141 3584 1784 3584 
Q 2172 3584 2450 3431 
Q 2728 3278 2906 2969 
L 2906 3500 
L 3481 3500 
L 3481 434 
z
" transform="scale(0.015625)"/>
      <path id="DejaVuSans-75" d="M 544 1381 
L 544 3500 
L 1119 3500 
L 1119 1403 
Q 1119 906 1312 657 
Q 1506 409 1894 409 
Q 2359 409 2629 706 
Q 2900 1003 2900 1516 
L 2900 3500 
L 3475 3500 
L 3475 0 
L 2900 0 
L 2900 538 
Q 2691 219 2414 64 
Q 2138 -91 1772 -91 
Q 1169 -91 856 284 
Q 544 659 544 1381 
z
M 1991 3584 
L 1991 3584 
z
" transform="scale(0.015625)"/>
      <path id="DejaVuSans-70" d="M 1159 525 
L 1159 -1331 
L 581 -1331 
L 581 3500 
L 1159 3500 
L 1159 2969 
Q 1341 3281 1617 3432 
Q 1894 3584 2278 3584 
Q 2916 3584 3314 3078 
Q 3713 2572 3713 1747 
Q 3713 922 3314 415 
Q 2916 -91 2278 -91 
Q 1894 -91 1617 61 
Q 1341 213 1159 525 
z
M 3116 1747 
Q 3116 2381 2855 2742 
Q 2594 3103 2138 3103 
Q 1681 3103 1420 2742 
Q 1159 2381 1159 1747 
Q 1159 1113 1420 752 
Q 1681 391 2138 391 
Q 2594 391 2855 752 
Q 3116 1113 3116 1747 
z
" transform="scale(0.015625)"/>
      <path id="DejaVuSans-2c" d="M 750 794 
L 1409 794 
L 1409 256 
L 897 -744 
L 494 -744 
L 750 256 
L 750 794 
z
" transform="scale(0.015625)"/>
      <path id="DejaVuSans-52" d="M 2841 2188 
Q 3044 2119 3236 1894 
Q 3428 1669 3622 1275 
L 4263 0 
L 3584 0 
L 2988 1197 
Q 2756 1666 2539 1819 
Q 2322 1972 1947 1972 
L 1259 1972 
L 1259 0 
L 628 0 
L 628 4666 
L 2053 4666 
Q 2853 4666 3247 4331 
Q 3641 3997 3641 3322 
Q 3641 2881 3436 2590 
Q 3231 2300 2841 2188 
z
M 1259 4147 
L 1259 2491 
L 2053 2491 
Q 2509 2491 2742 2702 
Q 2975 2913 2975 3322 
Q 2975 3731 2742 3939 
Q 2509 4147 2053 4147 
L 1259 4147 
z
" transform="scale(0.015625)"/>
      <path id="DejaVuSans-45" d="M 628 4666 
L 3578 4666 
L 3578 4134 
L 1259 4134 
L 1259 2753 
L 3481 2753 
L 3481 2222 
L 1259 2222 
L 1259 531 
L 3634 531 
L 3634 0 
L 628 0 
L 628 4666 
z
" transform="scale(0.015625)"/>
     </defs>
     <use xlink:href="#DejaVuSans-72"/>
     <use xlink:href="#DejaVuSans-4b" x="41.113281"/>
     <use xlink:href="#DejaVuSans-41" x="104.939453"/>
     <use xlink:href="#DejaVuSans-4d" x="173.347656"/>
     <use xlink:href="#DejaVuSans-20" x="259.626953"/>
     <use xlink:href="#DejaVuSans-61" x="291.414062"/>
     <use xlink:href="#DejaVuSans-63" x="352.693359"/>
     <use xlink:href="#DejaVuSans-72" x="407.673828"/>
     <use xlink:href="#DejaVuSans-6f" x="446.537109"/>
     <use xlink:href="#DejaVuSans-73" x="507.71875"/>
     <use xlink:href="#DejaVuSans-73" x="559.818359"/>
     <use xlink:href="#DejaVuSans-20" x="611.917969"/>
     <use xlink:href="#DejaVuSans-67" x="643.705078"/>
     <use xlink:href="#DejaVuSans-72" x="707.181641"/>
     <use xlink:href="#DejaVuSans-6f" x="746.044922"/>
     <use xlink:href="#DejaVuSans-75" x="807.226562"/>
     <use xlink:href="#DejaVuSans-70" x="870.605469"/>
     <use xlink:href="#DejaVuSans-73" x="934.082031"/>
     <use xlink:href="#DejaVuSans-2c" x="986.181641"/>
     <use xlink:href="#DejaVuSans-20" x="1017.96875"/>
     <use xlink:href="#DejaVuSans-52" x="1049.755859"/>
     <use xlink:href="#DejaVuSans-45" x="1119.238281"/>
     <use xlink:href="#DejaVuSans-54" x="1182.421875"/>
    </g>
   </g>
  </g>
 </g>
 <defs>
  <clipPath id="p1bd53aad60">
   <rect x="54" y="51.84" width="334.8" height="332.64"/>
  </clipPath>
 </defs>
</svg>
