<?xml version="1.0" encoding="utf-8" standalone="no"?>
<!DOCTYPE svg PUBLIC "-//W3C//DTD SVG 1.1//EN"
  "http://www.w3.org/Graphics/SVG/1.1/DTD/svg11.dtd">
<svg xmlns:xlink="http://www.w3.org/1999/xlink" width="432pt" height="432pt" viewBox="0 0 432 432" xmlns="http://www.w3.org/2000/svg" version="1.1">
 <metadata>
  <rdf:RDF xmlns:dc="http://purl.org/dc/elements/1.1/" xmlns:cc="http://creativecommons.org/ns#" xmlns:rdf="http://www.w3.org/1999/02/22-rdf-syntax-ns#">
   <cc:Work>
    <dc:type rdf:resource="http://purl.org/dc/dcmitype/StillImage"/>
    <dc:date>2024-09-16T13:54:09.004427</dc:date>
    <dc:format>image/svg+xml</dc:format>
    <dc:creator>
     <cc:Agent>
      <dc:title>Matplotlib v3.8.0, https://matplotlib.org/</dc:title>
     </cc:Agent>
    </dc:creator>
   </cc:Work>
  </rdf:RDF>
 </metadata>
 <defs>
  <style type="text/css">*{stroke-linejoin: round; stroke-linecap: butt}</style>
 </defs>
 <g id="figure_1">
  <g id="patch_1">
   <path d="M 0 432 
L 432 432 
L 432 0 
L 0 0 
z
" style="fill: #ffffff"/>
  </g>
  <g id="axes_1">
   <g id="patch_2">
    <path d="M 54 384.48 
L 388.8 384.48 
L 388.8 51.84 
L 54 51.84 
z
" style="fill: #ffffff"/>
   </g>
   <g id="PolyCollection_1">
    <path d="M 110.834996 196.802435 
L 88.474095 196.802435 
L 88.198891 195.490895 
L 87.929669 194.179355 
L 87.665407 192.867815 
L 87.404887 191.556276 
L 87.146722 190.244736 
L 86.889373 188.933196 
L 86.631181 187.621656 
L 86.370398 186.310117 
L 86.105221 184.998577 
L 85.833829 183.687037 
L 85.554421 182.375497 
L 85.265255 181.063958 
L 84.964686 179.752418 
L 84.651203 178.440878 
L 84.323465 177.129338 
L 83.980331 175.817799 
L 83.620891 174.506259 
L 83.24449 173.194719 
L 82.850744 171.883179 
L 82.43956 170.57164 
L 82.011138 169.2601 
L 81.565978 167.94856 
L 81.104874 166.637021 
L 80.628906 165.325481 
L 80.139424 164.013941 
L 79.63803 162.702401 
L 79.126551 161.390862 
L 78.607012 160.079322 
L 78.081605 158.767782 
L 77.552652 157.456242 
L 77.022574 156.144703 
L 76.49385 154.833163 
L 75.968985 153.521623 
L 75.450474 152.210083 
L 74.940768 150.898544 
L 74.442245 149.587004 
L 73.957183 148.275464 
L 73.487737 146.963924 
L 73.03592 145.652385 
L 72.603585 144.340845 
L 72.19242 143.029305 
L 71.80394 141.717765 
L 71.439484 140.406226 
L 71.100216 139.094686 
L 70.787136 137.783146 
L 70.501083 136.471606 
L 70.242747 135.160067 
L 70.012682 133.848527 
L 69.811322 132.536987 
L 69.638991 131.225447 
L 69.495917 129.913908 
L 69.38225 128.602368 
L 69.298068 127.290828 
L 69.243389 125.979288 
L 69.218182 124.667749 
L 69.222368 123.356209 
L 69.255828 122.044669 
L 69.318402 120.733129 
L 69.409891 119.42159 
L 69.530051 118.11005 
L 69.67859 116.79851 
L 69.855167 115.486971 
L 70.059377 114.175431 
L 70.290756 112.863891 
L 70.548763 111.552351 
L 70.832783 110.240812 
L 71.142116 108.929272 
L 71.47598 107.617732 
L 71.833501 106.306192 
L 72.213721 104.994653 
L 72.615592 103.683113 
L 73.037989 102.371573 
L 73.479707 101.060033 
L 73.939476 99.748494 
L 74.415966 98.436954 
L 74.907803 97.125414 
L 75.413576 95.813874 
L 75.931855 94.502335 
L 76.461202 93.190795 
L 77.000187 91.879255 
L 77.547398 90.567715 
L 78.101457 89.256176 
L 78.66103 87.944636 
L 79.224838 86.633096 
L 79.791664 85.321556 
L 80.360363 84.010017 
L 80.929861 82.698477 
L 81.499165 81.386937 
L 82.067357 80.075397 
L 82.633599 78.763858 
L 83.197123 77.452318 
L 83.757234 76.140778 
L 84.313299 74.829238 
L 84.864741 73.517699 
L 85.411035 72.206159 
L 85.951695 70.894619 
L 86.486268 69.583079 
L 87.014326 68.27154 
L 87.53546 66.96 
L 111.773631 66.96 
L 111.773631 66.96 
L 112.294764 68.27154 
L 112.822823 69.583079 
L 113.357396 70.894619 
L 113.898055 72.206159 
L 114.44435 73.517699 
L 114.995792 74.829238 
L 115.551857 76.140778 
L 116.111968 77.452318 
L 116.675492 78.763858 
L 117.241734 80.075397 
L 117.809926 81.386937 
L 118.37923 82.698477 
L 118.948728 84.010017 
L 119.517427 85.321556 
L 120.084253 86.633096 
L 120.648061 87.944636 
L 121.207634 89.256176 
L 121.761693 90.567715 
L 122.308904 91.879255 
L 122.847889 93.190795 
L 123.377236 94.502335 
L 123.895515 95.813874 
L 124.401288 97.125414 
L 124.893125 98.436954 
L 125.369615 99.748494 
L 125.829384 101.060033 
L 126.271102 102.371573 
L 126.693498 103.683113 
L 127.09537 104.994653 
L 127.47559 106.306192 
L 127.833111 107.617732 
L 128.166974 108.929272 
L 128.476308 110.240812 
L 128.760328 111.552351 
L 129.018335 112.863891 
L 129.249713 114.175431 
L 129.453924 115.486971 
L 129.630501 116.79851 
L 129.77904 118.11005 
L 129.8992 119.42159 
L 129.990688 120.733129 
L 130.053263 122.044669 
L 130.086723 123.356209 
L 130.090909 124.667749 
L 130.065702 125.979288 
L 130.011023 127.290828 
L 129.926841 128.602368 
L 129.813174 129.913908 
L 129.6701 131.225447 
L 129.497769 132.536987 
L 129.296409 133.848527 
L 129.066344 135.160067 
L 128.808008 136.471606 
L 128.521954 137.783146 
L 128.208875 139.094686 
L 127.869607 140.406226 
L 127.505151 141.717765 
L 127.116671 143.029305 
L 126.705506 144.340845 
L 126.273171 145.652385 
L 125.821353 146.963924 
L 125.351908 148.275464 
L 124.866846 149.587004 
L 124.368323 150.898544 
L 123.858617 152.210083 
L 123.340106 153.521623 
L 122.815241 154.833163 
L 122.286517 156.144703 
L 121.756439 157.456242 
L 121.227486 158.767782 
L 120.702079 160.079322 
L 120.18254 161.390862 
L 119.671061 162.702401 
L 119.169667 164.013941 
L 118.680185 165.325481 
L 118.204217 166.637021 
L 117.743113 167.94856 
L 117.297953 169.2601 
L 116.869531 170.57164 
L 116.458347 171.883179 
L 116.064601 173.194719 
L 115.6882 174.506259 
L 115.32876 175.817799 
L 114.985626 177.129338 
L 114.657888 178.440878 
L 114.344405 179.752418 
L 114.043836 181.063958 
L 113.75467 182.375497 
L 113.475262 183.687037 
L 113.20387 184.998577 
L 112.938693 186.310117 
L 112.67791 187.621656 
L 112.419718 188.933196 
L 112.162369 190.244736 
L 111.904204 191.556276 
L 111.643684 192.867815 
L 111.379422 194.179355 
L 111.1102 195.490895 
L 110.834996 196.802435 
z
" clip-path="url(#p988d51c1d1)" style="fill: #1f77b4; fill-opacity: 0.3"/>
   </g>
   <g id="PolyCollection_2">
    <path d="M 242.704353 166.234346 
L 200.095647 166.234346 
L 199.56234 165.253214 
L 199.049472 164.272083 
L 198.558625 163.290951 
L 198.091264 162.30982 
L 197.648715 161.328689 
L 197.232164 160.347557 
L 196.842636 159.366426 
L 196.480989 158.385294 
L 196.147906 157.404163 
L 195.843885 156.423031 
L 195.569236 155.4419 
L 195.324074 154.460769 
L 195.108316 153.479637 
L 194.921684 152.498506 
L 194.763701 151.517374 
L 194.633697 150.536243 
L 194.530813 149.555111 
L 194.454005 148.57398 
L 194.402053 147.592848 
L 194.373574 146.611717 
L 194.367027 145.630586 
L 194.380732 144.649454 
L 194.412879 143.668323 
L 194.461546 142.687191 
L 194.524717 141.70606 
L 194.600297 140.724928 
L 194.686129 139.743797 
L 194.780019 138.762666 
L 194.879746 137.781534 
L 194.983091 136.800403 
L 195.08785 135.819271 
L 195.191857 134.83814 
L 195.293 133.857008 
L 195.389243 132.875877 
L 195.478638 131.894746 
L 195.55935 130.913614 
L 195.629666 129.932483 
L 195.688013 128.951351 
L 195.73297 127.97022 
L 195.763281 126.989088 
L 195.777864 126.007957 
L 195.775823 125.026826 
L 195.756451 124.045694 
L 195.719239 123.064563 
L 195.66388 122.083431 
L 195.590269 121.1023 
L 195.498508 120.121168 
L 195.388898 119.140037 
L 195.261945 118.158906 
L 195.118349 117.177774 
L 194.959003 116.196643 
L 194.784984 115.215511 
L 194.597544 114.23438 
L 194.398101 113.253248 
L 194.188229 112.272117 
L 193.969646 111.290985 
L 193.744198 110.309854 
L 193.513849 109.328723 
L 193.280664 108.347591 
L 193.046793 107.36646 
L 192.814457 106.385328 
L 192.585927 105.404197 
L 192.363512 104.423065 
L 192.149539 103.441934 
L 191.946333 102.460803 
L 191.756204 101.479671 
L 191.581427 100.49854 
L 191.424223 99.517408 
L 191.286744 98.536277 
L 191.171056 97.555145 
L 191.079122 96.574014 
L 191.01279 95.592883 
L 190.973772 94.611751 
L 190.963636 93.63062 
L 190.983794 92.649488 
L 191.035486 91.668357 
L 191.119775 90.687225 
L 191.237536 89.706094 
L 191.38945 88.724963 
L 191.575999 87.743831 
L 191.797462 86.7627 
L 192.053915 85.781568 
L 192.345226 84.800437 
L 192.671062 83.819305 
L 193.030888 82.838174 
L 193.423977 81.857043 
L 193.849409 80.875911 
L 194.306086 79.89478 
L 194.792739 78.913648 
L 195.307938 77.932517 
L 195.850103 76.951385 
L 196.417522 75.970254 
L 197.00836 74.989122 
L 197.620676 74.007991 
L 198.252438 73.02686 
L 198.901539 72.045728 
L 199.565816 71.064597 
L 200.24306 70.083465 
L 200.931039 69.102334 
L 241.868961 69.102334 
L 241.868961 69.102334 
L 242.55694 70.083465 
L 243.234184 71.064597 
L 243.898461 72.045728 
L 244.547562 73.02686 
L 245.179324 74.007991 
L 245.79164 74.989122 
L 246.382478 75.970254 
L 246.949897 76.951385 
L 247.492062 77.932517 
L 248.007261 78.913648 
L 248.493914 79.89478 
L 248.950591 80.875911 
L 249.376023 81.857043 
L 249.769112 82.838174 
L 250.128938 83.819305 
L 250.454774 84.800437 
L 250.746085 85.781568 
L 251.002538 86.7627 
L 251.224001 87.743831 
L 251.41055 88.724963 
L 251.562464 89.706094 
L 251.680225 90.687225 
L 251.764514 91.668357 
L 251.816206 92.649488 
L 251.836364 93.63062 
L 251.826228 94.611751 
L 251.78721 95.592883 
L 251.720878 96.574014 
L 251.628944 97.555145 
L 251.513256 98.536277 
L 251.375777 99.517408 
L 251.218573 100.49854 
L 251.043796 101.479671 
L 250.853667 102.460803 
L 250.650461 103.441934 
L 250.436488 104.423065 
L 250.214073 105.404197 
L 249.985543 106.385328 
L 249.753207 107.36646 
L 249.519336 108.347591 
L 249.286151 109.328723 
L 249.055802 110.309854 
L 248.830354 111.290985 
L 248.611771 112.272117 
L 248.401899 113.253248 
L 248.202456 114.23438 
L 248.015016 115.215511 
L 247.840997 116.196643 
L 247.681651 117.177774 
L 247.538055 118.158906 
L 247.411102 119.140037 
L 247.301492 120.121168 
L 247.209731 121.1023 
L 247.13612 122.083431 
L 247.080761 123.064563 
L 247.043549 124.045694 
L 247.024177 125.026826 
L 247.022136 126.007957 
L 247.036719 126.989088 
L 247.06703 127.97022 
L 247.111987 128.951351 
L 247.170334 129.932483 
L 247.24065 130.913614 
L 247.321362 131.894746 
L 247.410757 132.875877 
L 247.507 133.857008 
L 247.608143 134.83814 
L 247.71215 135.819271 
L 247.816909 136.800403 
L 247.920254 137.781534 
L 248.019981 138.762666 
L 248.113871 139.743797 
L 248.199703 140.724928 
L 248.275283 141.70606 
L 248.338454 142.687191 
L 248.387121 143.668323 
L 248.419268 144.649454 
L 248.432973 145.630586 
L 248.426426 146.611717 
L 248.397947 147.592848 
L 248.345995 148.57398 
L 248.269187 149.555111 
L 248.166303 150.536243 
L 248.036299 151.517374 
L 247.878316 152.498506 
L 247.691684 153.479637 
L 247.475926 154.460769 
L 247.230764 155.4419 
L 246.956115 156.423031 
L 246.652094 157.404163 
L 246.319011 158.385294 
L 245.957364 159.366426 
L 245.567836 160.347557 
L 245.151285 161.328689 
L 244.708736 162.30982 
L 244.241375 163.290951 
L 243.750528 164.272083 
L 243.23766 165.253214 
L 242.704353 166.234346 
z
" clip-path="url(#p988d51c1d1)" style="fill: #1f77b4; fill-opacity: 0.3"/>
   </g>
   <g id="PolyCollection_3">
    <path d="M 349.421568 369.36 
L 336.869341 369.36 
L 336.64681 366.99346 
L 336.416962 364.626919 
L 336.178037 362.260379 
L 335.928146 359.893839 
L 335.6653 357.527298 
L 335.387442 355.160758 
L 335.092489 352.794217 
L 334.778371 350.427677 
L 334.443072 348.061137 
L 334.08468 345.694596 
L 333.701427 343.328056 
L 333.291733 340.961516 
L 332.854254 338.594975 
L 332.387914 336.228435 
L 331.89195 333.861895 
L 331.365937 331.495354 
L 330.809819 329.128814 
L 330.223932 326.762273 
L 329.609016 324.395733 
L 328.966226 322.029193 
L 328.297134 319.662652 
L 327.603723 317.296112 
L 326.888377 314.929572 
L 326.15386 312.563031 
L 325.403294 310.196491 
L 324.640127 307.829951 
L 323.868095 305.46341 
L 323.091181 303.09687 
L 322.313572 300.730329 
L 321.539608 298.363789 
L 320.77373 295.997249 
L 320.02043 293.630708 
L 319.284193 291.264168 
L 318.569444 288.897628 
L 317.880496 286.531087 
L 317.221498 284.164547 
L 316.596382 281.798006 
L 316.008823 279.431466 
L 315.462189 277.064926 
L 314.959506 274.698385 
L 314.503427 272.331845 
L 314.096197 269.965305 
L 313.739633 267.598764 
L 313.435109 265.232224 
L 313.183542 262.865684 
L 312.985386 260.499143 
L 312.840637 258.132603 
L 312.748837 255.766062 
L 312.709091 253.399522 
L 312.720082 251.032982 
L 312.780099 248.666441 
L 312.887067 246.299901 
L 313.038583 243.933361 
L 313.231952 241.56682 
L 313.464232 239.20028 
L 313.732281 236.83374 
L 314.032801 234.467199 
L 314.362393 232.100659 
L 314.717604 229.734118 
L 315.094976 227.367578 
L 315.491097 225.001038 
L 315.902648 222.634497 
L 316.326444 220.267957 
L 316.75948 217.901417 
L 317.198964 215.534876 
L 317.642348 213.168336 
L 318.087358 210.801796 
L 318.53201 208.435255 
L 318.974632 206.068715 
L 319.413861 203.702174 
L 319.848657 201.335634 
L 320.278291 198.969094 
L 320.702338 196.602553 
L 321.12066 194.236013 
L 321.533386 191.869473 
L 321.940891 189.502932 
L 322.343758 187.136392 
L 322.742754 184.769852 
L 323.138793 182.403311 
L 323.532899 180.036771 
L 323.926174 177.67023 
L 324.319755 175.30369 
L 324.714785 172.93715 
L 325.112376 170.570609 
L 325.513579 168.204069 
L 325.919356 165.837529 
L 326.330554 163.470988 
L 326.747882 161.104448 
L 327.171899 158.737908 
L 327.602993 156.371367 
L 328.041378 154.004827 
L 328.487085 151.638286 
L 328.939964 149.271746 
L 329.399684 146.905206 
L 329.86574 144.538665 
L 330.337462 142.172125 
L 330.814028 139.805585 
L 331.294478 137.439044 
L 331.777732 135.072504 
L 354.513177 135.072504 
L 354.513177 135.072504 
L 354.996431 137.439044 
L 355.476881 139.805585 
L 355.953447 142.172125 
L 356.425169 144.538665 
L 356.891225 146.905206 
L 357.350945 149.271746 
L 357.803824 151.638286 
L 358.249532 154.004827 
L 358.687916 156.371367 
L 359.11901 158.737908 
L 359.543027 161.104448 
L 359.960356 163.470988 
L 360.371553 165.837529 
L 360.77733 168.204069 
L 361.178534 170.570609 
L 361.576124 172.93715 
L 361.971154 175.30369 
L 362.364735 177.67023 
L 362.75801 180.036771 
L 363.152116 182.403311 
L 363.548155 184.769852 
L 363.947152 187.136392 
L 364.350018 189.502932 
L 364.757523 191.869473 
L 365.17025 194.236013 
L 365.588571 196.602553 
L 366.012618 198.969094 
L 366.442252 201.335634 
L 366.877048 203.702174 
L 367.316277 206.068715 
L 367.758899 208.435255 
L 368.203552 210.801796 
L 368.648561 213.168336 
L 369.091945 215.534876 
L 369.531429 217.901417 
L 369.964465 220.267957 
L 370.388261 222.634497 
L 370.799812 225.001038 
L 371.195933 227.367578 
L 371.573305 229.734118 
L 371.928516 232.100659 
L 372.258108 234.467199 
L 372.558629 236.83374 
L 372.826677 239.20028 
L 373.058957 241.56682 
L 373.252326 243.933361 
L 373.403842 246.299901 
L 373.51081 248.666441 
L 373.570828 251.032982 
L 373.581818 253.399522 
L 373.542072 255.766062 
L 373.450272 258.132603 
L 373.305523 260.499143 
L 373.107367 262.865684 
L 372.8558 265.232224 
L 372.551276 267.598764 
L 372.194712 269.965305 
L 371.787482 272.331845 
L 371.331403 274.698385 
L 370.82872 277.064926 
L 370.282086 279.431466 
L 369.694527 281.798006 
L 369.069411 284.164547 
L 368.410413 286.531087 
L 367.721465 288.897628 
L 367.006716 291.264168 
L 366.270479 293.630708 
L 365.517179 295.997249 
L 364.751301 298.363789 
L 363.977337 300.730329 
L 363.199728 303.09687 
L 362.422814 305.46341 
L 361.650782 307.829951 
L 360.887615 310.196491 
L 360.137049 312.563031 
L 359.402532 314.929572 
L 358.687186 317.296112 
L 357.993775 319.662652 
L 357.324683 322.029193 
L 356.681893 324.395733 
L 356.066977 326.762273 
L 355.48109 329.128814 
L 354.924972 331.495354 
L 354.398959 333.861895 
L 353.902995 336.228435 
L 353.436655 338.594975 
L 352.999176 340.961516 
L 352.589482 343.328056 
L 352.206229 345.694596 
L 351.847837 348.061137 
L 351.512538 350.427677 
L 351.19842 352.794217 
L 350.903467 355.160758 
L 350.625609 357.527298 
L 350.362763 359.893839 
L 350.112873 362.260379 
L 349.873948 364.626919 
L 349.644099 366.99346 
L 349.421568 369.36 
z
" clip-path="url(#p988d51c1d1)" style="fill: #1f77b4; fill-opacity: 0.3"/>
   </g>
   <g id="PathCollection_1">
    <defs>
     <path id="mac201d638d" d="M 0 1.936492 
C 0.513564 1.936492 1.006162 1.732451 1.369306 1.369306 
C 1.732451 1.006162 1.936492 0.513564 1.936492 0 
C 1.936492 -0.513564 1.732451 -1.006162 1.369306 -1.369306 
C 1.006162 -1.732451 0.513564 -1.936492 0 -1.936492 
C -0.513564 -1.936492 -1.006162 -1.732451 -1.369306 -1.369306 
C -1.732451 -1.006162 -1.936492 -0.513564 -1.936492 0 
C -1.936492 0.513564 -1.732451 1.006162 -1.369306 1.369306 
C -1.006162 1.732451 -0.513564 1.936492 0 1.936492 
z
" style="stroke: #1f77b4; stroke-opacity: 0.3"/>
    </defs>
    <g clip-path="url(#p988d51c1d1)">
     <use xlink:href="#mac201d638d" x="103.250999" y="110.100572" style="fill: #1f77b4; fill-opacity: 0.3; stroke: #1f77b4; stroke-opacity: 0.3"/>
     <use xlink:href="#mac201d638d" x="98.836816" y="83.774969" style="fill: #1f77b4; fill-opacity: 0.3; stroke: #1f77b4; stroke-opacity: 0.3"/>
     <use xlink:href="#mac201d638d" x="105.776831" y="116.437093" style="fill: #1f77b4; fill-opacity: 0.3; stroke: #1f77b4; stroke-opacity: 0.3"/>
     <use xlink:href="#mac201d638d" x="108.093171" y="105.856013" style="fill: #1f77b4; fill-opacity: 0.3; stroke: #1f77b4; stroke-opacity: 0.3"/>
     <use xlink:href="#mac201d638d" x="104.617843" y="150.599693" style="fill: #1f77b4; fill-opacity: 0.3; stroke: #1f77b4; stroke-opacity: 0.3"/>
     <use xlink:href="#mac201d638d" x="99.916916" y="144.530474" style="fill: #1f77b4; fill-opacity: 0.3; stroke: #1f77b4; stroke-opacity: 0.3"/>
     <use xlink:href="#mac201d638d" x="101.24754" y="191.259158" style="fill: #1f77b4; fill-opacity: 0.3; stroke: #1f77b4; stroke-opacity: 0.3"/>
     <use xlink:href="#mac201d638d" x="91.647535" y="141.713568" style="fill: #1f77b4; fill-opacity: 0.3; stroke: #1f77b4; stroke-opacity: 0.3"/>
     <use xlink:href="#mac201d638d" x="104.949446" y="110.226047" style="fill: #1f77b4; fill-opacity: 0.3; stroke: #1f77b4; stroke-opacity: 0.3"/>
     <use xlink:href="#mac201d638d" x="96.836486" y="196.802435" style="fill: #1f77b4; fill-opacity: 0.3; stroke: #1f77b4; stroke-opacity: 0.3"/>
     <use xlink:href="#mac201d638d" x="95.392678" y="66.96" style="fill: #1f77b4; fill-opacity: 0.3; stroke: #1f77b4; stroke-opacity: 0.3"/>
     <use xlink:href="#mac201d638d" x="98.98667" y="142.455129" style="fill: #1f77b4; fill-opacity: 0.3; stroke: #1f77b4; stroke-opacity: 0.3"/>
    </g>
   </g>
   <g id="PathCollection_2">
    <defs>
     <path id="m12e3ad7121" d="M 0 1.936492 
C 0.513564 1.936492 1.006162 1.732451 1.369306 1.369306 
C 1.732451 1.006162 1.936492 0.513564 1.936492 0 
C 1.936492 -0.513564 1.732451 -1.006162 1.369306 -1.369306 
C 1.006162 -1.732451 0.513564 -1.936492 0 -1.936492 
C -0.513564 -1.936492 -1.006162 -1.732451 -1.369306 -1.369306 
C -1.732451 -1.006162 -1.936492 -0.513564 -1.936492 0 
C -1.936492 0.513564 -1.732451 1.006162 -1.369306 1.369306 
C -1.006162 1.732451 -0.513564 1.936492 0 1.936492 
z
" style="stroke: #ff7f0e; stroke-opacity: 0.3"/>
    </defs>
    <g clip-path="url(#p988d51c1d1)">
     <use xlink:href="#m12e3ad7121" x="217.003323" y="147.299236" style="fill: #ff7f0e; fill-opacity: 0.3; stroke: #ff7f0e; stroke-opacity: 0.3"/>
     <use xlink:href="#m12e3ad7121" x="227.430812" y="83.150827" style="fill: #ff7f0e; fill-opacity: 0.3; stroke: #ff7f0e; stroke-opacity: 0.3"/>
     <use xlink:href="#m12e3ad7121" x="222.624014" y="94.041686" style="fill: #ff7f0e; fill-opacity: 0.3; stroke: #ff7f0e; stroke-opacity: 0.3"/>
     <use xlink:href="#m12e3ad7121" x="216.194609" y="92.16195" style="fill: #ff7f0e; fill-opacity: 0.3; stroke: #ff7f0e; stroke-opacity: 0.3"/>
     <use xlink:href="#m12e3ad7121" x="224.429161" y="84.346642" style="fill: #ff7f0e; fill-opacity: 0.3; stroke: #ff7f0e; stroke-opacity: 0.3"/>
     <use xlink:href="#m12e3ad7121" x="224.481395" y="164.317125" style="fill: #ff7f0e; fill-opacity: 0.3; stroke: #ff7f0e; stroke-opacity: 0.3"/>
     <use xlink:href="#m12e3ad7121" x="220.543326" y="142.758277" style="fill: #ff7f0e; fill-opacity: 0.3; stroke: #ff7f0e; stroke-opacity: 0.3"/>
     <use xlink:href="#m12e3ad7121" x="219.474096" y="147.631998" style="fill: #ff7f0e; fill-opacity: 0.3; stroke: #ff7f0e; stroke-opacity: 0.3"/>
     <use xlink:href="#m12e3ad7121" x="220.379292" y="166.234346" style="fill: #ff7f0e; fill-opacity: 0.3; stroke: #ff7f0e; stroke-opacity: 0.3"/>
     <use xlink:href="#m12e3ad7121" x="217.893973" y="118.403886" style="fill: #ff7f0e; fill-opacity: 0.3; stroke: #ff7f0e; stroke-opacity: 0.3"/>
     <use xlink:href="#m12e3ad7121" x="222.764074" y="69.102334" style="fill: #ff7f0e; fill-opacity: 0.3; stroke: #ff7f0e; stroke-opacity: 0.3"/>
     <use xlink:href="#m12e3ad7121" x="217.350152" y="109.711305" style="fill: #ff7f0e; fill-opacity: 0.3; stroke: #ff7f0e; stroke-opacity: 0.3"/>
    </g>
   </g>
   <g id="PathCollection_3">
    <defs>
     <path id="m06b86c2df7" d="M 0 1.936492 
C 0.513564 1.936492 1.006162 1.732451 1.369306 1.369306 
C 1.732451 1.006162 1.936492 0.513564 1.936492 0 
C 1.936492 -0.513564 1.732451 -1.006162 1.369306 -1.369306 
C 1.006162 -1.732451 0.513564 -1.936492 0 -1.936492 
C -0.513564 -1.936492 -1.006162 -1.732451 -1.369306 -1.369306 
C -1.732451 -1.006162 -1.936492 -0.513564 -1.936492 0 
C -1.936492 0.513564 -1.732451 1.006162 -1.369306 1.369306 
C -1.006162 1.732451 -0.513564 1.936492 0 1.936492 
z
" style="stroke: #2ca02c; stroke-opacity: 0.3"/>
    </defs>
    <g clip-path="url(#p988d51c1d1)">
     <use xlink:href="#m06b86c2df7" x="338.775869" y="234.328559" style="fill: #2ca02c; fill-opacity: 0.3; stroke: #2ca02c; stroke-opacity: 0.3"/>
     <use xlink:href="#m06b86c2df7" x="332.888891" y="175.432735" style="fill: #2ca02c; fill-opacity: 0.3; stroke: #2ca02c; stroke-opacity: 0.3"/>
     <use xlink:href="#m06b86c2df7" x="345.65333" y="298.96046" style="fill: #2ca02c; fill-opacity: 0.3; stroke: #2ca02c; stroke-opacity: 0.3"/>
     <use xlink:href="#m06b86c2df7" x="345.623777" y="271.862703" style="fill: #2ca02c; fill-opacity: 0.3; stroke: #2ca02c; stroke-opacity: 0.3"/>
     <use xlink:href="#m06b86c2df7" x="345.276551" y="369.36" style="fill: #2ca02c; fill-opacity: 0.3; stroke: #2ca02c; stroke-opacity: 0.3"/>
     <use xlink:href="#m06b86c2df7" x="340.173799" y="263.908842" style="fill: #2ca02c; fill-opacity: 0.3; stroke: #2ca02c; stroke-opacity: 0.3"/>
     <use xlink:href="#m06b86c2df7" x="345.466679" y="170.257873" style="fill: #2ca02c; fill-opacity: 0.3; stroke: #2ca02c; stroke-opacity: 0.3"/>
     <use xlink:href="#m06b86c2df7" x="347.042321" y="135.072504" style="fill: #2ca02c; fill-opacity: 0.3; stroke: #2ca02c; stroke-opacity: 0.3"/>
     <use xlink:href="#m06b86c2df7" x="336.971565" y="238.557571" style="fill: #2ca02c; fill-opacity: 0.3; stroke: #2ca02c; stroke-opacity: 0.3"/>
     <use xlink:href="#m06b86c2df7" x="347.687825" y="251.672422" style="fill: #2ca02c; fill-opacity: 0.3; stroke: #2ca02c; stroke-opacity: 0.3"/>
     <use xlink:href="#m06b86c2df7" x="347.56683" y="209.532018" style="fill: #2ca02c; fill-opacity: 0.3; stroke: #2ca02c; stroke-opacity: 0.3"/>
     <use xlink:href="#m06b86c2df7" x="345.29705" y="285.420603" style="fill: #2ca02c; fill-opacity: 0.3; stroke: #2ca02c; stroke-opacity: 0.3"/>
    </g>
   </g>
   <g id="matplotlib.axis_1">
    <g id="xtick_1">
     <g id="line2d_1">
      <defs>
       <path id="m8d97e3997b" d="M 0 0 
L 0 3.5 
" style="stroke: #000000; stroke-width: 0.8"/>
      </defs>
      <g>
       <use xlink:href="#m8d97e3997b" x="99.654545" y="384.48" style="stroke: #000000; stroke-width: 0.8"/>
      </g>
     </g>
     <g id="text_1">
      <!-- SF -->
      <g transform="translate(93.604545 399.078438) scale(0.1 -0.1)">
       <defs>
        <path id="DejaVuSans-53" d="M 3425 4513 
L 3425 3897 
Q 3066 4069 2747 4153 
Q 2428 4238 2131 4238 
Q 1616 4238 1336 4038 
Q 1056 3838 1056 3469 
Q 1056 3159 1242 3001 
Q 1428 2844 1947 2747 
L 2328 2669 
Q 3034 2534 3370 2195 
Q 3706 1856 3706 1288 
Q 3706 609 3251 259 
Q 2797 -91 1919 -91 
Q 1588 -91 1214 -16 
Q 841 59 441 206 
L 441 856 
Q 825 641 1194 531 
Q 1563 422 1919 422 
Q 2459 422 2753 634 
Q 3047 847 3047 1241 
Q 3047 1584 2836 1778 
Q 2625 1972 2144 2069 
L 1759 2144 
Q 1053 2284 737 2584 
Q 422 2884 422 3419 
Q 422 4038 858 4394 
Q 1294 4750 2059 4750 
Q 2388 4750 2728 4690 
Q 3069 4631 3425 4513 
z
" transform="scale(0.015625)"/>
        <path id="DejaVuSans-46" d="M 628 4666 
L 3309 4666 
L 3309 4134 
L 1259 4134 
L 1259 2759 
L 3109 2759 
L 3109 2228 
L 1259 2228 
L 1259 0 
L 628 0 
L 628 4666 
z
" transform="scale(0.015625)"/>
       </defs>
       <use xlink:href="#DejaVuSans-53"/>
       <use xlink:href="#DejaVuSans-46" x="63.476562"/>
      </g>
     </g>
    </g>
    <g id="xtick_2">
     <g id="line2d_2">
      <g>
       <use xlink:href="#m8d97e3997b" x="221.4" y="384.48" style="stroke: #000000; stroke-width: 0.8"/>
      </g>
     </g>
     <g id="text_2">
      <!-- TF -->
      <g transform="translate(215.470313 399.078438) scale(0.1 -0.1)">
       <defs>
        <path id="DejaVuSans-54" d="M -19 4666 
L 3928 4666 
L 3928 4134 
L 2272 4134 
L 2272 0 
L 1638 0 
L 1638 4134 
L -19 4134 
L -19 4666 
z
" transform="scale(0.015625)"/>
       </defs>
       <use xlink:href="#DejaVuSans-54"/>
       <use xlink:href="#DejaVuSans-46" x="61.083984"/>
      </g>
     </g>
    </g>
    <g id="xtick_3">
     <g id="line2d_3">
      <g>
       <use xlink:href="#m8d97e3997b" x="343.145455" y="384.48" style="stroke: #000000; stroke-width: 0.8"/>
      </g>
     </g>
     <g id="text_3">
      <!-- NF -->
      <g transform="translate(336.529048 399.078438) scale(0.1 -0.1)">
       <defs>
        <path id="DejaVuSans-4e" d="M 628 4666 
L 1478 4666 
L 3547 763 
L 3547 4666 
L 4159 4666 
L 4159 0 
L 3309 0 
L 1241 3903 
L 1241 0 
L 628 0 
L 628 4666 
z
" transform="scale(0.015625)"/>
       </defs>
       <use xlink:href="#DejaVuSans-4e"/>
       <use xlink:href="#DejaVuSans-46" x="74.804688"/>
      </g>
     </g>
    </g>
   </g>
   <g id="matplotlib.axis_2">
    <g id="ytick_1">
     <g id="line2d_4">
      <defs>
       <path id="mcbdbcd5955" d="M 0 0 
L -3.5 0 
" style="stroke: #000000; stroke-width: 0.8"/>
      </defs>
      <g>
       <use xlink:href="#mcbdbcd5955" x="54" y="360.082598" style="stroke: #000000; stroke-width: 0.8"/>
      </g>
     </g>
     <g id="text_4">
      <!-- 0.0 -->
      <g transform="translate(31.096875 363.881816) scale(0.1 -0.1)">
       <defs>
        <path id="DejaVuSans-30" d="M 2034 4250 
Q 1547 4250 1301 3770 
Q 1056 3291 1056 2328 
Q 1056 1369 1301 889 
Q 1547 409 2034 409 
Q 2525 409 2770 889 
Q 3016 1369 3016 2328 
Q 3016 3291 2770 3770 
Q 2525 4250 2034 4250 
z
M 2034 4750 
Q 2819 4750 3233 4129 
Q 3647 3509 3647 2328 
Q 3647 1150 3233 529 
Q 2819 -91 2034 -91 
Q 1250 -91 836 529 
Q 422 1150 422 2328 
Q 422 3509 836 4129 
Q 1250 4750 2034 4750 
z
" transform="scale(0.015625)"/>
        <path id="DejaVuSans-2e" d="M 684 794 
L 1344 794 
L 1344 0 
L 684 0 
L 684 794 
z
" transform="scale(0.015625)"/>
       </defs>
       <use xlink:href="#DejaVuSans-30"/>
       <use xlink:href="#DejaVuSans-2e" x="63.623047"/>
       <use xlink:href="#DejaVuSans-30" x="95.410156"/>
      </g>
     </g>
    </g>
    <g id="ytick_2">
     <g id="line2d_5">
      <g>
       <use xlink:href="#mcbdbcd5955" x="54" y="314.207236" style="stroke: #000000; stroke-width: 0.8"/>
      </g>
     </g>
     <g id="text_5">
      <!-- 0.1 -->
      <g transform="translate(31.096875 318.006455) scale(0.1 -0.1)">
       <defs>
        <path id="DejaVuSans-31" d="M 794 531 
L 1825 531 
L 1825 4091 
L 703 3866 
L 703 4441 
L 1819 4666 
L 2450 4666 
L 2450 531 
L 3481 531 
L 3481 0 
L 794 0 
L 794 531 
z
" transform="scale(0.015625)"/>
       </defs>
       <use xlink:href="#DejaVuSans-30"/>
       <use xlink:href="#DejaVuSans-2e" x="63.623047"/>
       <use xlink:href="#DejaVuSans-31" x="95.410156"/>
      </g>
     </g>
    </g>
    <g id="ytick_3">
     <g id="line2d_6">
      <g>
       <use xlink:href="#mcbdbcd5955" x="54" y="268.331875" style="stroke: #000000; stroke-width: 0.8"/>
      </g>
     </g>
     <g id="text_6">
      <!-- 0.2 -->
      <g transform="translate(31.096875 272.131094) scale(0.1 -0.1)">
       <defs>
        <path id="DejaVuSans-32" d="M 1228 531 
L 3431 531 
L 3431 0 
L 469 0 
L 469 531 
Q 828 903 1448 1529 
Q 2069 2156 2228 2338 
Q 2531 2678 2651 2914 
Q 2772 3150 2772 3378 
Q 2772 3750 2511 3984 
Q 2250 4219 1831 4219 
Q 1534 4219 1204 4116 
Q 875 4013 500 3803 
L 500 4441 
Q 881 4594 1212 4672 
Q 1544 4750 1819 4750 
Q 2544 4750 2975 4387 
Q 3406 4025 3406 3419 
Q 3406 3131 3298 2873 
Q 3191 2616 2906 2266 
Q 2828 2175 2409 1742 
Q 1991 1309 1228 531 
z
" transform="scale(0.015625)"/>
       </defs>
       <use xlink:href="#DejaVuSans-30"/>
       <use xlink:href="#DejaVuSans-2e" x="63.623047"/>
       <use xlink:href="#DejaVuSans-32" x="95.410156"/>
      </g>
     </g>
    </g>
    <g id="ytick_4">
     <g id="line2d_7">
      <g>
       <use xlink:href="#mcbdbcd5955" x="54" y="222.456514" style="stroke: #000000; stroke-width: 0.8"/>
      </g>
     </g>
     <g id="text_7">
      <!-- 0.3 -->
      <g transform="translate(31.096875 226.255732) scale(0.1 -0.1)">
       <defs>
        <path id="DejaVuSans-33" d="M 2597 2516 
Q 3050 2419 3304 2112 
Q 3559 1806 3559 1356 
Q 3559 666 3084 287 
Q 2609 -91 1734 -91 
Q 1441 -91 1130 -33 
Q 819 25 488 141 
L 488 750 
Q 750 597 1062 519 
Q 1375 441 1716 441 
Q 2309 441 2620 675 
Q 2931 909 2931 1356 
Q 2931 1769 2642 2001 
Q 2353 2234 1838 2234 
L 1294 2234 
L 1294 2753 
L 1863 2753 
Q 2328 2753 2575 2939 
Q 2822 3125 2822 3475 
Q 2822 3834 2567 4026 
Q 2313 4219 1838 4219 
Q 1578 4219 1281 4162 
Q 984 4106 628 3988 
L 628 4550 
Q 988 4650 1302 4700 
Q 1616 4750 1894 4750 
Q 2613 4750 3031 4423 
Q 3450 4097 3450 3541 
Q 3450 3153 3228 2886 
Q 3006 2619 2597 2516 
z
" transform="scale(0.015625)"/>
       </defs>
       <use xlink:href="#DejaVuSans-30"/>
       <use xlink:href="#DejaVuSans-2e" x="63.623047"/>
       <use xlink:href="#DejaVuSans-33" x="95.410156"/>
      </g>
     </g>
    </g>
    <g id="ytick_5">
     <g id="line2d_8">
      <g>
       <use xlink:href="#mcbdbcd5955" x="54" y="176.581152" style="stroke: #000000; stroke-width: 0.8"/>
      </g>
     </g>
     <g id="text_8">
      <!-- 0.4 -->
      <g transform="translate(31.096875 180.380371) scale(0.1 -0.1)">
       <defs>
        <path id="DejaVuSans-34" d="M 2419 4116 
L 825 1625 
L 2419 1625 
L 2419 4116 
z
M 2253 4666 
L 3047 4666 
L 3047 1625 
L 3713 1625 
L 3713 1100 
L 3047 1100 
L 3047 0 
L 2419 0 
L 2419 1100 
L 313 1100 
L 313 1709 
L 2253 4666 
z
" transform="scale(0.015625)"/>
       </defs>
       <use xlink:href="#DejaVuSans-30"/>
       <use xlink:href="#DejaVuSans-2e" x="63.623047"/>
       <use xlink:href="#DejaVuSans-34" x="95.410156"/>
      </g>
     </g>
    </g>
    <g id="ytick_6">
     <g id="line2d_9">
      <g>
       <use xlink:href="#mcbdbcd5955" x="54" y="130.705791" style="stroke: #000000; stroke-width: 0.8"/>
      </g>
     </g>
     <g id="text_9">
      <!-- 0.5 -->
      <g transform="translate(31.096875 134.50501) scale(0.1 -0.1)">
       <defs>
        <path id="DejaVuSans-35" d="M 691 4666 
L 3169 4666 
L 3169 4134 
L 1269 4134 
L 1269 2991 
Q 1406 3038 1543 3061 
Q 1681 3084 1819 3084 
Q 2600 3084 3056 2656 
Q 3513 2228 3513 1497 
Q 3513 744 3044 326 
Q 2575 -91 1722 -91 
Q 1428 -91 1123 -41 
Q 819 9 494 109 
L 494 744 
Q 775 591 1075 516 
Q 1375 441 1709 441 
Q 2250 441 2565 725 
Q 2881 1009 2881 1497 
Q 2881 1984 2565 2268 
Q 2250 2553 1709 2553 
Q 1456 2553 1204 2497 
Q 953 2441 691 2322 
L 691 4666 
z
" transform="scale(0.015625)"/>
       </defs>
       <use xlink:href="#DejaVuSans-30"/>
       <use xlink:href="#DejaVuSans-2e" x="63.623047"/>
       <use xlink:href="#DejaVuSans-35" x="95.410156"/>
      </g>
     </g>
    </g>
    <g id="ytick_7">
     <g id="line2d_10">
      <g>
       <use xlink:href="#mcbdbcd5955" x="54" y="84.830429" style="stroke: #000000; stroke-width: 0.8"/>
      </g>
     </g>
     <g id="text_10">
      <!-- 0.6 -->
      <g transform="translate(31.096875 88.629648) scale(0.1 -0.1)">
       <defs>
        <path id="DejaVuSans-36" d="M 2113 2584 
Q 1688 2584 1439 2293 
Q 1191 2003 1191 1497 
Q 1191 994 1439 701 
Q 1688 409 2113 409 
Q 2538 409 2786 701 
Q 3034 994 3034 1497 
Q 3034 2003 2786 2293 
Q 2538 2584 2113 2584 
z
M 3366 4563 
L 3366 3988 
Q 3128 4100 2886 4159 
Q 2644 4219 2406 4219 
Q 1781 4219 1451 3797 
Q 1122 3375 1075 2522 
Q 1259 2794 1537 2939 
Q 1816 3084 2150 3084 
Q 2853 3084 3261 2657 
Q 3669 2231 3669 1497 
Q 3669 778 3244 343 
Q 2819 -91 2113 -91 
Q 1303 -91 875 529 
Q 447 1150 447 2328 
Q 447 3434 972 4092 
Q 1497 4750 2381 4750 
Q 2619 4750 2861 4703 
Q 3103 4656 3366 4563 
z
" transform="scale(0.015625)"/>
       </defs>
       <use xlink:href="#DejaVuSans-30"/>
       <use xlink:href="#DejaVuSans-2e" x="63.623047"/>
       <use xlink:href="#DejaVuSans-36" x="95.410156"/>
      </g>
     </g>
    </g>
    <g id="text_11">
     <!-- rKAM -->
     <g transform="translate(25.017187 231.14125) rotate(-90) scale(0.1 -0.1)">
      <defs>
       <path id="DejaVuSans-72" d="M 2631 2963 
Q 2534 3019 2420 3045 
Q 2306 3072 2169 3072 
Q 1681 3072 1420 2755 
Q 1159 2438 1159 1844 
L 1159 0 
L 581 0 
L 581 3500 
L 1159 3500 
L 1159 2956 
Q 1341 3275 1631 3429 
Q 1922 3584 2338 3584 
Q 2397 3584 2469 3576 
Q 2541 3569 2628 3553 
L 2631 2963 
z
" transform="scale(0.015625)"/>
       <path id="DejaVuSans-4b" d="M 628 4666 
L 1259 4666 
L 1259 2694 
L 3353 4666 
L 4166 4666 
L 1850 2491 
L 4331 0 
L 3500 0 
L 1259 2247 
L 1259 0 
L 628 0 
L 628 4666 
z
" transform="scale(0.015625)"/>
       <path id="DejaVuSans-41" d="M 2188 4044 
L 1331 1722 
L 3047 1722 
L 2188 4044 
z
M 1831 4666 
L 2547 4666 
L 4325 0 
L 3669 0 
L 3244 1197 
L 1141 1197 
L 716 0 
L 50 0 
L 1831 4666 
z
" transform="scale(0.015625)"/>
       <path id="DejaVuSans-4d" d="M 628 4666 
L 1569 4666 
L 2759 1491 
L 3956 4666 
L 4897 4666 
L 4897 0 
L 4281 0 
L 4281 4097 
L 3078 897 
L 2444 897 
L 1241 4097 
L 1241 0 
L 628 0 
L 628 4666 
z
" transform="scale(0.015625)"/>
      </defs>
      <use xlink:href="#DejaVuSans-72"/>
      <use xlink:href="#DejaVuSans-4b" x="41.113281"/>
      <use xlink:href="#DejaVuSans-41" x="104.939453"/>
      <use xlink:href="#DejaVuSans-4d" x="173.347656"/>
     </g>
    </g>
   </g>
   <g id="LineCollection_1">
    <path d="M 84.436364 130.059596 
L 114.872727 130.059596 
" clip-path="url(#p988d51c1d1)" style="fill: none; stroke: #1f77b4; stroke-width: 1.5"/>
    <path d="M 206.181818 118.263301 
L 236.618182 118.263301 
" clip-path="url(#p988d51c1d1)" style="fill: none; stroke: #1f77b4; stroke-width: 1.5"/>
    <path d="M 327.927273 242.030524 
L 358.363636 242.030524 
" clip-path="url(#p988d51c1d1)" style="fill: none; stroke: #1f77b4; stroke-width: 1.5"/>
   </g>
   <g id="LineCollection_2">
    <path d="M 84.436364 66.96 
L 114.872727 66.96 
" clip-path="url(#p988d51c1d1)" style="fill: none; stroke: #1f77b4; stroke-width: 1.5"/>
    <path d="M 206.181818 69.102334 
L 236.618182 69.102334 
" clip-path="url(#p988d51c1d1)" style="fill: none; stroke: #1f77b4; stroke-width: 1.5"/>
    <path d="M 327.927273 135.072504 
L 358.363636 135.072504 
" clip-path="url(#p988d51c1d1)" style="fill: none; stroke: #1f77b4; stroke-width: 1.5"/>
   </g>
   <g id="LineCollection_3">
    <path d="M 84.436364 196.802435 
L 114.872727 196.802435 
" clip-path="url(#p988d51c1d1)" style="fill: none; stroke: #1f77b4; stroke-width: 1.5"/>
    <path d="M 206.181818 166.234346 
L 236.618182 166.234346 
" clip-path="url(#p988d51c1d1)" style="fill: none; stroke: #1f77b4; stroke-width: 1.5"/>
    <path d="M 327.927273 369.36 
L 358.363636 369.36 
" clip-path="url(#p988d51c1d1)" style="fill: none; stroke: #1f77b4; stroke-width: 1.5"/>
   </g>
   <g id="LineCollection_4">
    <path d="M 99.654545 196.802435 
L 99.654545 66.96 
" clip-path="url(#p988d51c1d1)" style="fill: none; stroke: #1f77b4; stroke-width: 1.5"/>
    <path d="M 221.4 166.234346 
L 221.4 69.102334 
" clip-path="url(#p988d51c1d1)" style="fill: none; stroke: #1f77b4; stroke-width: 1.5"/>
    <path d="M 343.145455 369.36 
L 343.145455 135.072504 
" clip-path="url(#p988d51c1d1)" style="fill: none; stroke: #1f77b4; stroke-width: 1.5"/>
   </g>
   <g id="patch_3">
    <path d="M 54 384.48 
L 54 51.84 
" style="fill: none; stroke: #000000; stroke-width: 0.8; stroke-linejoin: miter; stroke-linecap: square"/>
   </g>
   <g id="patch_4">
    <path d="M 388.8 384.48 
L 388.8 51.84 
" style="fill: none; stroke: #000000; stroke-width: 0.8; stroke-linejoin: miter; stroke-linecap: square"/>
   </g>
   <g id="patch_5">
    <path d="M 54 384.48 
L 388.8 384.48 
" style="fill: none; stroke: #000000; stroke-width: 0.8; stroke-linejoin: miter; stroke-linecap: square"/>
   </g>
   <g id="patch_6">
    <path d="M 54 51.84 
L 388.8 51.84 
" style="fill: none; stroke: #000000; stroke-width: 0.8; stroke-linejoin: miter; stroke-linecap: square"/>
   </g>
   <g id="text_12">
    <!-- rKAM across groups, RT4 -->
    <g transform="translate(147.199688 45.84) scale(0.12 -0.12)">
     <defs>
      <path id="DejaVuSans-20" transform="scale(0.015625)"/>
      <path id="DejaVuSans-61" d="M 2194 1759 
Q 1497 1759 1228 1600 
Q 959 1441 959 1056 
Q 959 750 1161 570 
Q 1363 391 1709 391 
Q 2188 391 2477 730 
Q 2766 1069 2766 1631 
L 2766 1759 
L 2194 1759 
z
M 3341 1997 
L 3341 0 
L 2766 0 
L 2766 531 
Q 2569 213 2275 61 
Q 1981 -91 1556 -91 
Q 1019 -91 701 211 
Q 384 513 384 1019 
Q 384 1609 779 1909 
Q 1175 2209 1959 2209 
L 2766 2209 
L 2766 2266 
Q 2766 2663 2505 2880 
Q 2244 3097 1772 3097 
Q 1472 3097 1187 3025 
Q 903 2953 641 2809 
L 641 3341 
Q 956 3463 1253 3523 
Q 1550 3584 1831 3584 
Q 2591 3584 2966 3190 
Q 3341 2797 3341 1997 
z
" transform="scale(0.015625)"/>
      <path id="DejaVuSans-63" d="M 3122 3366 
L 3122 2828 
Q 2878 2963 2633 3030 
Q 2388 3097 2138 3097 
Q 1578 3097 1268 2742 
Q 959 2388 959 1747 
Q 959 1106 1268 751 
Q 1578 397 2138 397 
Q 2388 397 2633 464 
Q 2878 531 3122 666 
L 3122 134 
Q 2881 22 2623 -34 
Q 2366 -91 2075 -91 
Q 1284 -91 818 406 
Q 353 903 353 1747 
Q 353 2603 823 3093 
Q 1294 3584 2113 3584 
Q 2378 3584 2631 3529 
Q 2884 3475 3122 3366 
z
" transform="scale(0.015625)"/>
      <path id="DejaVuSans-6f" d="M 1959 3097 
Q 1497 3097 1228 2736 
Q 959 2375 959 1747 
Q 959 1119 1226 758 
Q 1494 397 1959 397 
Q 2419 397 2687 759 
Q 2956 1122 2956 1747 
Q 2956 2369 2687 2733 
Q 2419 3097 1959 3097 
z
M 1959 3584 
Q 2709 3584 3137 3096 
Q 3566 2609 3566 1747 
Q 3566 888 3137 398 
Q 2709 -91 1959 -91 
Q 1206 -91 779 398 
Q 353 888 353 1747 
Q 353 2609 779 3096 
Q 1206 3584 1959 3584 
z
" transform="scale(0.015625)"/>
      <path id="DejaVuSans-73" d="M 2834 3397 
L 2834 2853 
Q 2591 2978 2328 3040 
Q 2066 3103 1784 3103 
Q 1356 3103 1142 2972 
Q 928 2841 928 2578 
Q 928 2378 1081 2264 
Q 1234 2150 1697 2047 
L 1894 2003 
Q 2506 1872 2764 1633 
Q 3022 1394 3022 966 
Q 3022 478 2636 193 
Q 2250 -91 1575 -91 
Q 1294 -91 989 -36 
Q 684 19 347 128 
L 347 722 
Q 666 556 975 473 
Q 1284 391 1588 391 
Q 1994 391 2212 530 
Q 2431 669 2431 922 
Q 2431 1156 2273 1281 
Q 2116 1406 1581 1522 
L 1381 1569 
Q 847 1681 609 1914 
Q 372 2147 372 2553 
Q 372 3047 722 3315 
Q 1072 3584 1716 3584 
Q 2034 3584 2315 3537 
Q 2597 3491 2834 3397 
z
" transform="scale(0.015625)"/>
      <path id="DejaVuSans-67" d="M 2906 1791 
Q 2906 2416 2648 2759 
Q 2391 3103 1925 3103 
Q 1463 3103 1205 2759 
Q 947 2416 947 1791 
Q 947 1169 1205 825 
Q 1463 481 1925 481 
Q 2391 481 2648 825 
Q 2906 1169 2906 1791 
z
M 3481 434 
Q 3481 -459 3084 -895 
Q 2688 -1331 1869 -1331 
Q 1566 -1331 1297 -1286 
Q 1028 -1241 775 -1147 
L 775 -588 
Q 1028 -725 1275 -790 
Q 1522 -856 1778 -856 
Q 2344 -856 2625 -561 
Q 2906 -266 2906 331 
L 2906 616 
Q 2728 306 2450 153 
Q 2172 0 1784 0 
Q 1141 0 747 490 
Q 353 981 353 1791 
Q 353 2603 747 3093 
Q 1141 3584 1784 3584 
Q 2172 3584 2450 3431 
Q 2728 3278 2906 2969 
L 2906 3500 
L 3481 3500 
L 3481 434 
z
" transform="scale(0.015625)"/>
      <path id="DejaVuSans-75" d="M 544 1381 
L 544 3500 
L 1119 3500 
L 1119 1403 
Q 1119 906 1312 657 
Q 1506 409 1894 409 
Q 2359 409 2629 706 
Q 2900 1003 2900 1516 
L 2900 3500 
L 3475 3500 
L 3475 0 
L 2900 0 
L 2900 538 
Q 2691 219 2414 64 
Q 2138 -91 1772 -91 
Q 1169 -91 856 284 
Q 544 659 544 1381 
z
M 1991 3584 
L 1991 3584 
z
" transform="scale(0.015625)"/>
      <path id="DejaVuSans-70" d="M 1159 525 
L 1159 -1331 
L 581 -1331 
L 581 3500 
L 1159 3500 
L 1159 2969 
Q 1341 3281 1617 3432 
Q 1894 3584 2278 3584 
Q 2916 3584 3314 3078 
Q 3713 2572 3713 1747 
Q 3713 922 3314 415 
Q 2916 -91 2278 -91 
Q 1894 -91 1617 61 
Q 1341 213 1159 525 
z
M 3116 1747 
Q 3116 2381 2855 2742 
Q 2594 3103 2138 3103 
Q 1681 3103 1420 2742 
Q 1159 2381 1159 1747 
Q 1159 1113 1420 752 
Q 1681 391 2138 391 
Q 2594 391 2855 752 
Q 3116 1113 3116 1747 
z
" transform="scale(0.015625)"/>
      <path id="DejaVuSans-2c" d="M 750 794 
L 1409 794 
L 1409 256 
L 897 -744 
L 494 -744 
L 750 256 
L 750 794 
z
" transform="scale(0.015625)"/>
      <path id="DejaVuSans-52" d="M 2841 2188 
Q 3044 2119 3236 1894 
Q 3428 1669 3622 1275 
L 4263 0 
L 3584 0 
L 2988 1197 
Q 2756 1666 2539 1819 
Q 2322 1972 1947 1972 
L 1259 1972 
L 1259 0 
L 628 0 
L 628 4666 
L 2053 4666 
Q 2853 4666 3247 4331 
Q 3641 3997 3641 3322 
Q 3641 2881 3436 2590 
Q 3231 2300 2841 2188 
z
M 1259 4147 
L 1259 2491 
L 2053 2491 
Q 2509 2491 2742 2702 
Q 2975 2913 2975 3322 
Q 2975 3731 2742 3939 
Q 2509 4147 2053 4147 
L 1259 4147 
z
" transform="scale(0.015625)"/>
     </defs>
     <use xlink:href="#DejaVuSans-72"/>
     <use xlink:href="#DejaVuSans-4b" x="41.113281"/>
     <use xlink:href="#DejaVuSans-41" x="104.939453"/>
     <use xlink:href="#DejaVuSans-4d" x="173.347656"/>
     <use xlink:href="#DejaVuSans-20" x="259.626953"/>
     <use xlink:href="#DejaVuSans-61" x="291.414062"/>
     <use xlink:href="#DejaVuSans-63" x="352.693359"/>
     <use xlink:href="#DejaVuSans-72" x="407.673828"/>
     <use xlink:href="#DejaVuSans-6f" x="446.537109"/>
     <use xlink:href="#DejaVuSans-73" x="507.71875"/>
     <use xlink:href="#DejaVuSans-73" x="559.818359"/>
     <use xlink:href="#DejaVuSans-20" x="611.917969"/>
     <use xlink:href="#DejaVuSans-67" x="643.705078"/>
     <use xlink:href="#DejaVuSans-72" x="707.181641"/>
     <use xlink:href="#DejaVuSans-6f" x="746.044922"/>
     <use xlink:href="#DejaVuSans-75" x="807.226562"/>
     <use xlink:href="#DejaVuSans-70" x="870.605469"/>
     <use xlink:href="#DejaVuSans-73" x="934.082031"/>
     <use xlink:href="#DejaVuSans-2c" x="986.181641"/>
     <use xlink:href="#DejaVuSans-20" x="1017.96875"/>
     <use xlink:href="#DejaVuSans-52" x="1049.755859"/>
     <use xlink:href="#DejaVuSans-54" x="1111.988281"/>
     <use xlink:href="#DejaVuSans-34" x="1173.072266"/>
    </g>
   </g>
  </g>
 </g>
 <defs>
  <clipPath id="p988d51c1d1">
   <rect x="54" y="51.84" width="334.8" height="332.64"/>
  </clipPath>
 </defs>
</svg>
