<?xml version="1.0" encoding="utf-8" standalone="no"?>
<!DOCTYPE svg PUBLIC "-//W3C//DTD SVG 1.1//EN"
  "http://www.w3.org/Graphics/SVG/1.1/DTD/svg11.dtd">
<svg xmlns:xlink="http://www.w3.org/1999/xlink" width="432pt" height="432pt" viewBox="0 0 432 432" xmlns="http://www.w3.org/2000/svg" version="1.1">
 <metadata>
  <rdf:RDF xmlns:dc="http://purl.org/dc/elements/1.1/" xmlns:cc="http://creativecommons.org/ns#" xmlns:rdf="http://www.w3.org/1999/02/22-rdf-syntax-ns#">
   <cc:Work>
    <dc:type rdf:resource="http://purl.org/dc/dcmitype/StillImage"/>
    <dc:date>2024-09-20T15:15:52.897580</dc:date>
    <dc:format>image/svg+xml</dc:format>
    <dc:creator>
     <cc:Agent>
      <dc:title>Matplotlib v3.8.0, https://matplotlib.org/</dc:title>
     </cc:Agent>
    </dc:creator>
   </cc:Work>
  </rdf:RDF>
 </metadata>
 <defs>
  <style type="text/css">*{stroke-linejoin: round; stroke-linecap: butt}</style>
 </defs>
 <g id="figure_1">
  <g id="patch_1">
   <path d="M 0 432 
L 432 432 
L 432 0 
L 0 0 
z
" style="fill: #ffffff"/>
  </g>
  <g id="axes_1">
   <g id="patch_2">
    <path d="M 54 384.48 
L 388.8 384.48 
L 388.8 51.84 
L 54 51.84 
z
" style="fill: #ffffff"/>
   </g>
   <g id="matplotlib.axis_1">
    <g id="xtick_1">
     <g id="line2d_1">
      <defs>
       <path id="m8b1ec2d318" d="M 0 0 
L 0 3.5 
" style="stroke: #000000; stroke-width: 0.8"/>
      </defs>
      <g>
       <use xlink:href="#m8b1ec2d318" x="72.202139" y="384.48" style="stroke: #000000; stroke-width: 0.8"/>
      </g>
     </g>
     <g id="text_1">
      <!-- 0 -->
      <g transform="translate(69.020889 399.078438) scale(0.1 -0.1)">
       <defs>
        <path id="DejaVuSans-30" d="M 2034 4250 
Q 1547 4250 1301 3770 
Q 1056 3291 1056 2328 
Q 1056 1369 1301 889 
Q 1547 409 2034 409 
Q 2525 409 2770 889 
Q 3016 1369 3016 2328 
Q 3016 3291 2770 3770 
Q 2525 4250 2034 4250 
z
M 2034 4750 
Q 2819 4750 3233 4129 
Q 3647 3509 3647 2328 
Q 3647 1150 3233 529 
Q 2819 -91 2034 -91 
Q 1250 -91 836 529 
Q 422 1150 422 2328 
Q 422 3509 836 4129 
Q 1250 4750 2034 4750 
z
" transform="scale(0.015625)"/>
       </defs>
       <use xlink:href="#DejaVuSans-30"/>
      </g>
     </g>
    </g>
    <g id="xtick_2">
     <g id="line2d_2">
      <g>
       <use xlink:href="#m8b1ec2d318" x="131.881283" y="384.48" style="stroke: #000000; stroke-width: 0.8"/>
      </g>
     </g>
     <g id="text_2">
      <!-- 1 -->
      <g transform="translate(128.700033 399.078438) scale(0.1 -0.1)">
       <defs>
        <path id="DejaVuSans-31" d="M 794 531 
L 1825 531 
L 1825 4091 
L 703 3866 
L 703 4441 
L 1819 4666 
L 2450 4666 
L 2450 531 
L 3481 531 
L 3481 0 
L 794 0 
L 794 531 
z
" transform="scale(0.015625)"/>
       </defs>
       <use xlink:href="#DejaVuSans-31"/>
      </g>
     </g>
    </g>
    <g id="xtick_3">
     <g id="line2d_3">
      <g>
       <use xlink:href="#m8b1ec2d318" x="191.560428" y="384.48" style="stroke: #000000; stroke-width: 0.8"/>
      </g>
     </g>
     <g id="text_3">
      <!-- 2 -->
      <g transform="translate(188.379178 399.078438) scale(0.1 -0.1)">
       <defs>
        <path id="DejaVuSans-32" d="M 1228 531 
L 3431 531 
L 3431 0 
L 469 0 
L 469 531 
Q 828 903 1448 1529 
Q 2069 2156 2228 2338 
Q 2531 2678 2651 2914 
Q 2772 3150 2772 3378 
Q 2772 3750 2511 3984 
Q 2250 4219 1831 4219 
Q 1534 4219 1204 4116 
Q 875 4013 500 3803 
L 500 4441 
Q 881 4594 1212 4672 
Q 1544 4750 1819 4750 
Q 2544 4750 2975 4387 
Q 3406 4025 3406 3419 
Q 3406 3131 3298 2873 
Q 3191 2616 2906 2266 
Q 2828 2175 2409 1742 
Q 1991 1309 1228 531 
z
" transform="scale(0.015625)"/>
       </defs>
       <use xlink:href="#DejaVuSans-32"/>
      </g>
     </g>
    </g>
    <g id="xtick_4">
     <g id="line2d_4">
      <g>
       <use xlink:href="#m8b1ec2d318" x="251.239572" y="384.48" style="stroke: #000000; stroke-width: 0.8"/>
      </g>
     </g>
     <g id="text_4">
      <!-- 3 -->
      <g transform="translate(248.058322 399.078438) scale(0.1 -0.1)">
       <defs>
        <path id="DejaVuSans-33" d="M 2597 2516 
Q 3050 2419 3304 2112 
Q 3559 1806 3559 1356 
Q 3559 666 3084 287 
Q 2609 -91 1734 -91 
Q 1441 -91 1130 -33 
Q 819 25 488 141 
L 488 750 
Q 750 597 1062 519 
Q 1375 441 1716 441 
Q 2309 441 2620 675 
Q 2931 909 2931 1356 
Q 2931 1769 2642 2001 
Q 2353 2234 1838 2234 
L 1294 2234 
L 1294 2753 
L 1863 2753 
Q 2328 2753 2575 2939 
Q 2822 3125 2822 3475 
Q 2822 3834 2567 4026 
Q 2313 4219 1838 4219 
Q 1578 4219 1281 4162 
Q 984 4106 628 3988 
L 628 4550 
Q 988 4650 1302 4700 
Q 1616 4750 1894 4750 
Q 2613 4750 3031 4423 
Q 3450 4097 3450 3541 
Q 3450 3153 3228 2886 
Q 3006 2619 2597 2516 
z
" transform="scale(0.015625)"/>
       </defs>
       <use xlink:href="#DejaVuSans-33"/>
      </g>
     </g>
    </g>
    <g id="xtick_5">
     <g id="line2d_5">
      <g>
       <use xlink:href="#m8b1ec2d318" x="310.918717" y="384.48" style="stroke: #000000; stroke-width: 0.8"/>
      </g>
     </g>
     <g id="text_5">
      <!-- 4 -->
      <g transform="translate(307.737467 399.078438) scale(0.1 -0.1)">
       <defs>
        <path id="DejaVuSans-34" d="M 2419 4116 
L 825 1625 
L 2419 1625 
L 2419 4116 
z
M 2253 4666 
L 3047 4666 
L 3047 1625 
L 3713 1625 
L 3713 1100 
L 3047 1100 
L 3047 0 
L 2419 0 
L 2419 1100 
L 313 1100 
L 313 1709 
L 2253 4666 
z
" transform="scale(0.015625)"/>
       </defs>
       <use xlink:href="#DejaVuSans-34"/>
      </g>
     </g>
    </g>
    <g id="xtick_6">
     <g id="line2d_6">
      <g>
       <use xlink:href="#m8b1ec2d318" x="370.597861" y="384.48" style="stroke: #000000; stroke-width: 0.8"/>
      </g>
     </g>
     <g id="text_6">
      <!-- 5 -->
      <g transform="translate(367.416611 399.078438) scale(0.1 -0.1)">
       <defs>
        <path id="DejaVuSans-35" d="M 691 4666 
L 3169 4666 
L 3169 4134 
L 1269 4134 
L 1269 2991 
Q 1406 3038 1543 3061 
Q 1681 3084 1819 3084 
Q 2600 3084 3056 2656 
Q 3513 2228 3513 1497 
Q 3513 744 3044 326 
Q 2575 -91 1722 -91 
Q 1428 -91 1123 -41 
Q 819 9 494 109 
L 494 744 
Q 775 591 1075 516 
Q 1375 441 1709 441 
Q 2250 441 2565 725 
Q 2881 1009 2881 1497 
Q 2881 1984 2565 2268 
Q 2250 2553 1709 2553 
Q 1456 2553 1204 2497 
Q 953 2441 691 2322 
L 691 4666 
z
" transform="scale(0.015625)"/>
       </defs>
       <use xlink:href="#DejaVuSans-35"/>
      </g>
     </g>
    </g>
   </g>
   <g id="matplotlib.axis_2">
    <g id="ytick_1">
     <g id="line2d_7">
      <defs>
       <path id="m2d38a1618c" d="M 0 0 
L -3.5 0 
" style="stroke: #000000; stroke-width: 0.8"/>
      </defs>
      <g>
       <use xlink:href="#m2d38a1618c" x="54" y="353.600024" style="stroke: #000000; stroke-width: 0.8"/>
      </g>
     </g>
     <g id="text_7">
      <!-- 2 -->
      <g transform="translate(40.6375 357.399243) scale(0.1 -0.1)">
       <use xlink:href="#DejaVuSans-32"/>
      </g>
     </g>
    </g>
    <g id="ytick_2">
     <g id="line2d_8">
      <g>
       <use xlink:href="#m2d38a1618c" x="54" y="316.314557" style="stroke: #000000; stroke-width: 0.8"/>
      </g>
     </g>
     <g id="text_8">
      <!-- 3 -->
      <g transform="translate(40.6375 320.113776) scale(0.1 -0.1)">
       <use xlink:href="#DejaVuSans-33"/>
      </g>
     </g>
    </g>
    <g id="ytick_3">
     <g id="line2d_9">
      <g>
       <use xlink:href="#m2d38a1618c" x="54" y="279.02909" style="stroke: #000000; stroke-width: 0.8"/>
      </g>
     </g>
     <g id="text_9">
      <!-- 4 -->
      <g transform="translate(40.6375 282.828309) scale(0.1 -0.1)">
       <use xlink:href="#DejaVuSans-34"/>
      </g>
     </g>
    </g>
    <g id="ytick_4">
     <g id="line2d_10">
      <g>
       <use xlink:href="#m2d38a1618c" x="54" y="241.743623" style="stroke: #000000; stroke-width: 0.8"/>
      </g>
     </g>
     <g id="text_10">
      <!-- 5 -->
      <g transform="translate(40.6375 245.542842) scale(0.1 -0.1)">
       <use xlink:href="#DejaVuSans-35"/>
      </g>
     </g>
    </g>
    <g id="ytick_5">
     <g id="line2d_11">
      <g>
       <use xlink:href="#m2d38a1618c" x="54" y="204.458156" style="stroke: #000000; stroke-width: 0.8"/>
      </g>
     </g>
     <g id="text_11">
      <!-- 6 -->
      <g transform="translate(40.6375 208.257374) scale(0.1 -0.1)">
       <defs>
        <path id="DejaVuSans-36" d="M 2113 2584 
Q 1688 2584 1439 2293 
Q 1191 2003 1191 1497 
Q 1191 994 1439 701 
Q 1688 409 2113 409 
Q 2538 409 2786 701 
Q 3034 994 3034 1497 
Q 3034 2003 2786 2293 
Q 2538 2584 2113 2584 
z
M 3366 4563 
L 3366 3988 
Q 3128 4100 2886 4159 
Q 2644 4219 2406 4219 
Q 1781 4219 1451 3797 
Q 1122 3375 1075 2522 
Q 1259 2794 1537 2939 
Q 1816 3084 2150 3084 
Q 2853 3084 3261 2657 
Q 3669 2231 3669 1497 
Q 3669 778 3244 343 
Q 2819 -91 2113 -91 
Q 1303 -91 875 529 
Q 447 1150 447 2328 
Q 447 3434 972 4092 
Q 1497 4750 2381 4750 
Q 2619 4750 2861 4703 
Q 3103 4656 3366 4563 
z
" transform="scale(0.015625)"/>
       </defs>
       <use xlink:href="#DejaVuSans-36"/>
      </g>
     </g>
    </g>
    <g id="ytick_6">
     <g id="line2d_12">
      <g>
       <use xlink:href="#m2d38a1618c" x="54" y="167.172688" style="stroke: #000000; stroke-width: 0.8"/>
      </g>
     </g>
     <g id="text_12">
      <!-- 7 -->
      <g transform="translate(40.6375 170.971907) scale(0.1 -0.1)">
       <defs>
        <path id="DejaVuSans-37" d="M 525 4666 
L 3525 4666 
L 3525 4397 
L 1831 0 
L 1172 0 
L 2766 4134 
L 525 4134 
L 525 4666 
z
" transform="scale(0.015625)"/>
       </defs>
       <use xlink:href="#DejaVuSans-37"/>
      </g>
     </g>
    </g>
    <g id="ytick_7">
     <g id="line2d_13">
      <g>
       <use xlink:href="#m2d38a1618c" x="54" y="129.887221" style="stroke: #000000; stroke-width: 0.8"/>
      </g>
     </g>
     <g id="text_13">
      <!-- 8 -->
      <g transform="translate(40.6375 133.68644) scale(0.1 -0.1)">
       <defs>
        <path id="DejaVuSans-38" d="M 2034 2216 
Q 1584 2216 1326 1975 
Q 1069 1734 1069 1313 
Q 1069 891 1326 650 
Q 1584 409 2034 409 
Q 2484 409 2743 651 
Q 3003 894 3003 1313 
Q 3003 1734 2745 1975 
Q 2488 2216 2034 2216 
z
M 1403 2484 
Q 997 2584 770 2862 
Q 544 3141 544 3541 
Q 544 4100 942 4425 
Q 1341 4750 2034 4750 
Q 2731 4750 3128 4425 
Q 3525 4100 3525 3541 
Q 3525 3141 3298 2862 
Q 3072 2584 2669 2484 
Q 3125 2378 3379 2068 
Q 3634 1759 3634 1313 
Q 3634 634 3220 271 
Q 2806 -91 2034 -91 
Q 1263 -91 848 271 
Q 434 634 434 1313 
Q 434 1759 690 2068 
Q 947 2378 1403 2484 
z
M 1172 3481 
Q 1172 3119 1398 2916 
Q 1625 2713 2034 2713 
Q 2441 2713 2670 2916 
Q 2900 3119 2900 3481 
Q 2900 3844 2670 4047 
Q 2441 4250 2034 4250 
Q 1625 4250 1398 4047 
Q 1172 3844 1172 3481 
z
" transform="scale(0.015625)"/>
       </defs>
       <use xlink:href="#DejaVuSans-38"/>
      </g>
     </g>
    </g>
    <g id="ytick_8">
     <g id="line2d_14">
      <g>
       <use xlink:href="#m2d38a1618c" x="54" y="92.601754" style="stroke: #000000; stroke-width: 0.8"/>
      </g>
     </g>
     <g id="text_14">
      <!-- 9 -->
      <g transform="translate(40.6375 96.400973) scale(0.1 -0.1)">
       <defs>
        <path id="DejaVuSans-39" d="M 703 97 
L 703 672 
Q 941 559 1184 500 
Q 1428 441 1663 441 
Q 2288 441 2617 861 
Q 2947 1281 2994 2138 
Q 2813 1869 2534 1725 
Q 2256 1581 1919 1581 
Q 1219 1581 811 2004 
Q 403 2428 403 3163 
Q 403 3881 828 4315 
Q 1253 4750 1959 4750 
Q 2769 4750 3195 4129 
Q 3622 3509 3622 2328 
Q 3622 1225 3098 567 
Q 2575 -91 1691 -91 
Q 1453 -91 1209 -44 
Q 966 3 703 97 
z
M 1959 2075 
Q 2384 2075 2632 2365 
Q 2881 2656 2881 3163 
Q 2881 3666 2632 3958 
Q 2384 4250 1959 4250 
Q 1534 4250 1286 3958 
Q 1038 3666 1038 3163 
Q 1038 2656 1286 2365 
Q 1534 2075 1959 2075 
z
" transform="scale(0.015625)"/>
       </defs>
       <use xlink:href="#DejaVuSans-39"/>
      </g>
     </g>
    </g>
    <g id="ytick_9">
     <g id="line2d_15">
      <g>
       <use xlink:href="#m2d38a1618c" x="54" y="55.316287" style="stroke: #000000; stroke-width: 0.8"/>
      </g>
     </g>
     <g id="text_15">
      <!-- 10 -->
      <g transform="translate(34.275 59.115506) scale(0.1 -0.1)">
       <use xlink:href="#DejaVuSans-31"/>
       <use xlink:href="#DejaVuSans-30" x="63.623047"/>
      </g>
     </g>
    </g>
   </g>
   <g id="line2d_16">
    <path d="M 69.218182 180.465403 
L 128.897326 306.638797 
L 188.576471 311.608831 
L 248.255615 333.360398 
L 307.934759 338.053005 
L 367.613904 297.742962 
" clip-path="url(#p859879bf68)" style="fill: none; stroke: #0f4c5c; stroke-width: 1.5; stroke-linecap: square"/>
    <defs>
     <path id="m0b9a8a751c" d="M 0 3 
C 0.795609 3 1.55874 2.683901 2.12132 2.12132 
C 2.683901 1.55874 3 0.795609 3 0 
C 3 -0.795609 2.683901 -1.55874 2.12132 -2.12132 
C 1.55874 -2.683901 0.795609 -3 0 -3 
C -0.795609 -3 -1.55874 -2.683901 -2.12132 -2.12132 
C -2.683901 -1.55874 -3 -0.795609 -3 0 
C -3 0.795609 -2.683901 1.55874 -2.12132 2.12132 
C -1.55874 2.683901 -0.795609 3 0 3 
z
" style="stroke: #0f4c5c"/>
    </defs>
    <g clip-path="url(#p859879bf68)">
     <use xlink:href="#m0b9a8a751c" x="69.218182" y="180.465403" style="fill: #0f4c5c; stroke: #0f4c5c"/>
     <use xlink:href="#m0b9a8a751c" x="128.897326" y="306.638797" style="fill: #0f4c5c; stroke: #0f4c5c"/>
     <use xlink:href="#m0b9a8a751c" x="188.576471" y="311.608831" style="fill: #0f4c5c; stroke: #0f4c5c"/>
     <use xlink:href="#m0b9a8a751c" x="248.255615" y="333.360398" style="fill: #0f4c5c; stroke: #0f4c5c"/>
     <use xlink:href="#m0b9a8a751c" x="307.934759" y="338.053005" style="fill: #0f4c5c; stroke: #0f4c5c"/>
     <use xlink:href="#m0b9a8a751c" x="367.613904" y="297.742962" style="fill: #0f4c5c; stroke: #0f4c5c"/>
    </g>
   </g>
   <g id="LineCollection_1">
    <path d="M 69.218182 293.970805 
L 69.218182 66.96 
" clip-path="url(#p859879bf68)" style="fill: none; stroke: #0f4c5c; stroke-width: 1.5"/>
    <path d="M 128.897326 358.938316 
L 128.897326 254.339277 
" clip-path="url(#p859879bf68)" style="fill: none; stroke: #0f4c5c; stroke-width: 1.5"/>
    <path d="M 188.576471 359.314847 
L 188.576471 263.902815 
" clip-path="url(#p859879bf68)" style="fill: none; stroke: #0f4c5c; stroke-width: 1.5"/>
    <path d="M 248.255615 361.899981 
L 248.255615 304.820815 
" clip-path="url(#p859879bf68)" style="fill: none; stroke: #0f4c5c; stroke-width: 1.5"/>
    <path d="M 307.934759 368.548383 
L 307.934759 307.557627 
" clip-path="url(#p859879bf68)" style="fill: none; stroke: #0f4c5c; stroke-width: 1.5"/>
    <path d="M 367.613904 341.650866 
L 367.613904 253.835058 
" clip-path="url(#p859879bf68)" style="fill: none; stroke: #0f4c5c; stroke-width: 1.5"/>
   </g>
   <g id="line2d_17">
    <defs>
     <path id="m94b32cff1b" d="M 5 0 
L -5 -0 
" style="stroke: #0f4c5c"/>
    </defs>
    <g clip-path="url(#p859879bf68)">
     <use xlink:href="#m94b32cff1b" x="69.218182" y="293.970805" style="fill: #0f4c5c; stroke: #0f4c5c"/>
     <use xlink:href="#m94b32cff1b" x="128.897326" y="358.938316" style="fill: #0f4c5c; stroke: #0f4c5c"/>
     <use xlink:href="#m94b32cff1b" x="188.576471" y="359.314847" style="fill: #0f4c5c; stroke: #0f4c5c"/>
     <use xlink:href="#m94b32cff1b" x="248.255615" y="361.899981" style="fill: #0f4c5c; stroke: #0f4c5c"/>
     <use xlink:href="#m94b32cff1b" x="307.934759" y="368.548383" style="fill: #0f4c5c; stroke: #0f4c5c"/>
     <use xlink:href="#m94b32cff1b" x="367.613904" y="341.650866" style="fill: #0f4c5c; stroke: #0f4c5c"/>
    </g>
   </g>
   <g id="line2d_18">
    <g clip-path="url(#p859879bf68)">
     <use xlink:href="#m94b32cff1b" x="69.218182" y="66.96" style="fill: #0f4c5c; stroke: #0f4c5c"/>
     <use xlink:href="#m94b32cff1b" x="128.897326" y="254.339277" style="fill: #0f4c5c; stroke: #0f4c5c"/>
     <use xlink:href="#m94b32cff1b" x="188.576471" y="263.902815" style="fill: #0f4c5c; stroke: #0f4c5c"/>
     <use xlink:href="#m94b32cff1b" x="248.255615" y="304.820815" style="fill: #0f4c5c; stroke: #0f4c5c"/>
     <use xlink:href="#m94b32cff1b" x="307.934759" y="307.557627" style="fill: #0f4c5c; stroke: #0f4c5c"/>
     <use xlink:href="#m94b32cff1b" x="367.613904" y="253.835058" style="fill: #0f4c5c; stroke: #0f4c5c"/>
    </g>
   </g>
   <g id="line2d_19">
    <path d="M 72.202139 227.179324 
L 131.881283 310.233427 
L 191.560428 332.647537 
L 251.239572 329.282753 
L 310.918717 343.069484 
L 370.597861 315.080687 
" clip-path="url(#p859879bf68)" style="fill: none; stroke: #5f0f40; stroke-width: 1.5; stroke-linecap: square"/>
    <defs>
     <path id="m1a0950d493" d="M 0 3 
C 0.795609 3 1.55874 2.683901 2.12132 2.12132 
C 2.683901 1.55874 3 0.795609 3 0 
C 3 -0.795609 2.683901 -1.55874 2.12132 -2.12132 
C 1.55874 -2.683901 0.795609 -3 0 -3 
C -0.795609 -3 -1.55874 -2.683901 -2.12132 -2.12132 
C -2.683901 -1.55874 -3 -0.795609 -3 0 
C -3 0.795609 -2.683901 1.55874 -2.12132 2.12132 
C -1.55874 2.683901 -0.795609 3 0 3 
z
" style="stroke: #5f0f40"/>
    </defs>
    <g clip-path="url(#p859879bf68)">
     <use xlink:href="#m1a0950d493" x="72.202139" y="227.179324" style="fill: #5f0f40; stroke: #5f0f40"/>
     <use xlink:href="#m1a0950d493" x="131.881283" y="310.233427" style="fill: #5f0f40; stroke: #5f0f40"/>
     <use xlink:href="#m1a0950d493" x="191.560428" y="332.647537" style="fill: #5f0f40; stroke: #5f0f40"/>
     <use xlink:href="#m1a0950d493" x="251.239572" y="329.282753" style="fill: #5f0f40; stroke: #5f0f40"/>
     <use xlink:href="#m1a0950d493" x="310.918717" y="343.069484" style="fill: #5f0f40; stroke: #5f0f40"/>
     <use xlink:href="#m1a0950d493" x="370.597861" y="315.080687" style="fill: #5f0f40; stroke: #5f0f40"/>
    </g>
   </g>
   <g id="LineCollection_2">
    <path d="M 72.202139 338.050408 
L 72.202139 116.30824 
" clip-path="url(#p859879bf68)" style="fill: none; stroke: #5f0f40; stroke-width: 1.5"/>
    <path d="M 131.881283 357.074742 
L 131.881283 263.392112 
" clip-path="url(#p859879bf68)" style="fill: none; stroke: #5f0f40; stroke-width: 1.5"/>
    <path d="M 191.560428 354.073498 
L 191.560428 311.221576 
" clip-path="url(#p859879bf68)" style="fill: none; stroke: #5f0f40; stroke-width: 1.5"/>
    <path d="M 251.239572 356.644474 
L 251.239572 301.921032 
" clip-path="url(#p859879bf68)" style="fill: none; stroke: #5f0f40; stroke-width: 1.5"/>
    <path d="M 310.918717 369.36 
L 310.918717 316.778968 
" clip-path="url(#p859879bf68)" style="fill: none; stroke: #5f0f40; stroke-width: 1.5"/>
    <path d="M 370.597861 336.846713 
L 370.597861 293.314661 
" clip-path="url(#p859879bf68)" style="fill: none; stroke: #5f0f40; stroke-width: 1.5"/>
   </g>
   <g id="line2d_20">
    <defs>
     <path id="m6b894c5123" d="M 5 0 
L -5 -0 
" style="stroke: #5f0f40"/>
    </defs>
    <g clip-path="url(#p859879bf68)">
     <use xlink:href="#m6b894c5123" x="72.202139" y="338.050408" style="fill: #5f0f40; stroke: #5f0f40"/>
     <use xlink:href="#m6b894c5123" x="131.881283" y="357.074742" style="fill: #5f0f40; stroke: #5f0f40"/>
     <use xlink:href="#m6b894c5123" x="191.560428" y="354.073498" style="fill: #5f0f40; stroke: #5f0f40"/>
     <use xlink:href="#m6b894c5123" x="251.239572" y="356.644474" style="fill: #5f0f40; stroke: #5f0f40"/>
     <use xlink:href="#m6b894c5123" x="310.918717" y="369.36" style="fill: #5f0f40; stroke: #5f0f40"/>
     <use xlink:href="#m6b894c5123" x="370.597861" y="336.846713" style="fill: #5f0f40; stroke: #5f0f40"/>
    </g>
   </g>
   <g id="line2d_21">
    <g clip-path="url(#p859879bf68)">
     <use xlink:href="#m6b894c5123" x="72.202139" y="116.30824" style="fill: #5f0f40; stroke: #5f0f40"/>
     <use xlink:href="#m6b894c5123" x="131.881283" y="263.392112" style="fill: #5f0f40; stroke: #5f0f40"/>
     <use xlink:href="#m6b894c5123" x="191.560428" y="311.221576" style="fill: #5f0f40; stroke: #5f0f40"/>
     <use xlink:href="#m6b894c5123" x="251.239572" y="301.921032" style="fill: #5f0f40; stroke: #5f0f40"/>
     <use xlink:href="#m6b894c5123" x="310.918717" y="316.778968" style="fill: #5f0f40; stroke: #5f0f40"/>
     <use xlink:href="#m6b894c5123" x="370.597861" y="293.314661" style="fill: #5f0f40; stroke: #5f0f40"/>
    </g>
   </g>
   <g id="line2d_22">
    <path d="M 75.186096 262.481961 
L 134.865241 246.584104 
L 194.544385 254.685681 
L 254.223529 243.711665 
L 313.902674 258.975703 
L 373.581818 250.637517 
" clip-path="url(#p859879bf68)" style="fill: none; stroke: #e36414; stroke-width: 1.5; stroke-linecap: square"/>
    <defs>
     <path id="mc1d203db74" d="M 0 3 
C 0.795609 3 1.55874 2.683901 2.12132 2.12132 
C 2.683901 1.55874 3 0.795609 3 0 
C 3 -0.795609 2.683901 -1.55874 2.12132 -2.12132 
C 1.55874 -2.683901 0.795609 -3 0 -3 
C -0.795609 -3 -1.55874 -2.683901 -2.12132 -2.12132 
C -2.683901 -1.55874 -3 -0.795609 -3 0 
C -3 0.795609 -2.683901 1.55874 -2.12132 2.12132 
C -1.55874 2.683901 -0.795609 3 0 3 
z
" style="stroke: #e36414"/>
    </defs>
    <g clip-path="url(#p859879bf68)">
     <use xlink:href="#mc1d203db74" x="75.186096" y="262.481961" style="fill: #e36414; stroke: #e36414"/>
     <use xlink:href="#mc1d203db74" x="134.865241" y="246.584104" style="fill: #e36414; stroke: #e36414"/>
     <use xlink:href="#mc1d203db74" x="194.544385" y="254.685681" style="fill: #e36414; stroke: #e36414"/>
     <use xlink:href="#mc1d203db74" x="254.223529" y="243.711665" style="fill: #e36414; stroke: #e36414"/>
     <use xlink:href="#mc1d203db74" x="313.902674" y="258.975703" style="fill: #e36414; stroke: #e36414"/>
     <use xlink:href="#mc1d203db74" x="373.581818" y="250.637517" style="fill: #e36414; stroke: #e36414"/>
    </g>
   </g>
   <g id="LineCollection_3">
    <path d="M 75.186096 318.362822 
L 75.186096 206.6011 
" clip-path="url(#p859879bf68)" style="fill: none; stroke: #e36414; stroke-width: 1.5"/>
    <path d="M 134.865241 322.21074 
L 134.865241 170.957467 
" clip-path="url(#p859879bf68)" style="fill: none; stroke: #e36414; stroke-width: 1.5"/>
    <path d="M 194.544385 320.271092 
L 194.544385 189.10027 
" clip-path="url(#p859879bf68)" style="fill: none; stroke: #e36414; stroke-width: 1.5"/>
    <path d="M 254.223529 314.372789 
L 254.223529 173.050541 
" clip-path="url(#p859879bf68)" style="fill: none; stroke: #e36414; stroke-width: 1.5"/>
    <path d="M 313.902674 304.089992 
L 313.902674 213.861413 
" clip-path="url(#p859879bf68)" style="fill: none; stroke: #e36414; stroke-width: 1.5"/>
    <path d="M 373.581818 322.256492 
L 373.581818 179.018542 
" clip-path="url(#p859879bf68)" style="fill: none; stroke: #e36414; stroke-width: 1.5"/>
   </g>
   <g id="line2d_23">
    <defs>
     <path id="m4e5b4c8d0d" d="M 5 0 
L -5 -0 
" style="stroke: #e36414"/>
    </defs>
    <g clip-path="url(#p859879bf68)">
     <use xlink:href="#m4e5b4c8d0d" x="75.186096" y="318.362822" style="fill: #e36414; stroke: #e36414"/>
     <use xlink:href="#m4e5b4c8d0d" x="134.865241" y="322.21074" style="fill: #e36414; stroke: #e36414"/>
     <use xlink:href="#m4e5b4c8d0d" x="194.544385" y="320.271092" style="fill: #e36414; stroke: #e36414"/>
     <use xlink:href="#m4e5b4c8d0d" x="254.223529" y="314.372789" style="fill: #e36414; stroke: #e36414"/>
     <use xlink:href="#m4e5b4c8d0d" x="313.902674" y="304.089992" style="fill: #e36414; stroke: #e36414"/>
     <use xlink:href="#m4e5b4c8d0d" x="373.581818" y="322.256492" style="fill: #e36414; stroke: #e36414"/>
    </g>
   </g>
   <g id="line2d_24">
    <g clip-path="url(#p859879bf68)">
     <use xlink:href="#m4e5b4c8d0d" x="75.186096" y="206.6011" style="fill: #e36414; stroke: #e36414"/>
     <use xlink:href="#m4e5b4c8d0d" x="134.865241" y="170.957467" style="fill: #e36414; stroke: #e36414"/>
     <use xlink:href="#m4e5b4c8d0d" x="194.544385" y="189.10027" style="fill: #e36414; stroke: #e36414"/>
     <use xlink:href="#m4e5b4c8d0d" x="254.223529" y="173.050541" style="fill: #e36414; stroke: #e36414"/>
     <use xlink:href="#m4e5b4c8d0d" x="313.902674" y="213.861413" style="fill: #e36414; stroke: #e36414"/>
     <use xlink:href="#m4e5b4c8d0d" x="373.581818" y="179.018542" style="fill: #e36414; stroke: #e36414"/>
    </g>
   </g>
   <g id="patch_3">
    <path d="M 54 384.48 
L 54 51.84 
" style="fill: none; stroke: #000000; stroke-width: 0.8; stroke-linejoin: miter; stroke-linecap: square"/>
   </g>
   <g id="patch_4">
    <path d="M 388.8 384.48 
L 388.8 51.84 
" style="fill: none; stroke: #000000; stroke-width: 0.8; stroke-linejoin: miter; stroke-linecap: square"/>
   </g>
   <g id="patch_5">
    <path d="M 54 384.48 
L 388.8 384.48 
" style="fill: none; stroke: #000000; stroke-width: 0.8; stroke-linejoin: miter; stroke-linecap: square"/>
   </g>
   <g id="patch_6">
    <path d="M 54 51.84 
L 388.8 51.84 
" style="fill: none; stroke: #000000; stroke-width: 0.8; stroke-linejoin: miter; stroke-linecap: square"/>
   </g>
   <g id="text_16">
    <!-- catch trial RMSEs -->
    <g transform="translate(169.255313 45.84) scale(0.12 -0.12)">
     <defs>
      <path id="DejaVuSans-63" d="M 3122 3366 
L 3122 2828 
Q 2878 2963 2633 3030 
Q 2388 3097 2138 3097 
Q 1578 3097 1268 2742 
Q 959 2388 959 1747 
Q 959 1106 1268 751 
Q 1578 397 2138 397 
Q 2388 397 2633 464 
Q 2878 531 3122 666 
L 3122 134 
Q 2881 22 2623 -34 
Q 2366 -91 2075 -91 
Q 1284 -91 818 406 
Q 353 903 353 1747 
Q 353 2603 823 3093 
Q 1294 3584 2113 3584 
Q 2378 3584 2631 3529 
Q 2884 3475 3122 3366 
z
" transform="scale(0.015625)"/>
      <path id="DejaVuSans-61" d="M 2194 1759 
Q 1497 1759 1228 1600 
Q 959 1441 959 1056 
Q 959 750 1161 570 
Q 1363 391 1709 391 
Q 2188 391 2477 730 
Q 2766 1069 2766 1631 
L 2766 1759 
L 2194 1759 
z
M 3341 1997 
L 3341 0 
L 2766 0 
L 2766 531 
Q 2569 213 2275 61 
Q 1981 -91 1556 -91 
Q 1019 -91 701 211 
Q 384 513 384 1019 
Q 384 1609 779 1909 
Q 1175 2209 1959 2209 
L 2766 2209 
L 2766 2266 
Q 2766 2663 2505 2880 
Q 2244 3097 1772 3097 
Q 1472 3097 1187 3025 
Q 903 2953 641 2809 
L 641 3341 
Q 956 3463 1253 3523 
Q 1550 3584 1831 3584 
Q 2591 3584 2966 3190 
Q 3341 2797 3341 1997 
z
" transform="scale(0.015625)"/>
      <path id="DejaVuSans-74" d="M 1172 4494 
L 1172 3500 
L 2356 3500 
L 2356 3053 
L 1172 3053 
L 1172 1153 
Q 1172 725 1289 603 
Q 1406 481 1766 481 
L 2356 481 
L 2356 0 
L 1766 0 
Q 1100 0 847 248 
Q 594 497 594 1153 
L 594 3053 
L 172 3053 
L 172 3500 
L 594 3500 
L 594 4494 
L 1172 4494 
z
" transform="scale(0.015625)"/>
      <path id="DejaVuSans-68" d="M 3513 2113 
L 3513 0 
L 2938 0 
L 2938 2094 
Q 2938 2591 2744 2837 
Q 2550 3084 2163 3084 
Q 1697 3084 1428 2787 
Q 1159 2491 1159 1978 
L 1159 0 
L 581 0 
L 581 4863 
L 1159 4863 
L 1159 2956 
Q 1366 3272 1645 3428 
Q 1925 3584 2291 3584 
Q 2894 3584 3203 3211 
Q 3513 2838 3513 2113 
z
" transform="scale(0.015625)"/>
      <path id="DejaVuSans-20" transform="scale(0.015625)"/>
      <path id="DejaVuSans-72" d="M 2631 2963 
Q 2534 3019 2420 3045 
Q 2306 3072 2169 3072 
Q 1681 3072 1420 2755 
Q 1159 2438 1159 1844 
L 1159 0 
L 581 0 
L 581 3500 
L 1159 3500 
L 1159 2956 
Q 1341 3275 1631 3429 
Q 1922 3584 2338 3584 
Q 2397 3584 2469 3576 
Q 2541 3569 2628 3553 
L 2631 2963 
z
" transform="scale(0.015625)"/>
      <path id="DejaVuSans-69" d="M 603 3500 
L 1178 3500 
L 1178 0 
L 603 0 
L 603 3500 
z
M 603 4863 
L 1178 4863 
L 1178 4134 
L 603 4134 
L 603 4863 
z
" transform="scale(0.015625)"/>
      <path id="DejaVuSans-6c" d="M 603 4863 
L 1178 4863 
L 1178 0 
L 603 0 
L 603 4863 
z
" transform="scale(0.015625)"/>
      <path id="DejaVuSans-52" d="M 2841 2188 
Q 3044 2119 3236 1894 
Q 3428 1669 3622 1275 
L 4263 0 
L 3584 0 
L 2988 1197 
Q 2756 1666 2539 1819 
Q 2322 1972 1947 1972 
L 1259 1972 
L 1259 0 
L 628 0 
L 628 4666 
L 2053 4666 
Q 2853 4666 3247 4331 
Q 3641 3997 3641 3322 
Q 3641 2881 3436 2590 
Q 3231 2300 2841 2188 
z
M 1259 4147 
L 1259 2491 
L 2053 2491 
Q 2509 2491 2742 2702 
Q 2975 2913 2975 3322 
Q 2975 3731 2742 3939 
Q 2509 4147 2053 4147 
L 1259 4147 
z
" transform="scale(0.015625)"/>
      <path id="DejaVuSans-4d" d="M 628 4666 
L 1569 4666 
L 2759 1491 
L 3956 4666 
L 4897 4666 
L 4897 0 
L 4281 0 
L 4281 4097 
L 3078 897 
L 2444 897 
L 1241 4097 
L 1241 0 
L 628 0 
L 628 4666 
z
" transform="scale(0.015625)"/>
      <path id="DejaVuSans-53" d="M 3425 4513 
L 3425 3897 
Q 3066 4069 2747 4153 
Q 2428 4238 2131 4238 
Q 1616 4238 1336 4038 
Q 1056 3838 1056 3469 
Q 1056 3159 1242 3001 
Q 1428 2844 1947 2747 
L 2328 2669 
Q 3034 2534 3370 2195 
Q 3706 1856 3706 1288 
Q 3706 609 3251 259 
Q 2797 -91 1919 -91 
Q 1588 -91 1214 -16 
Q 841 59 441 206 
L 441 856 
Q 825 641 1194 531 
Q 1563 422 1919 422 
Q 2459 422 2753 634 
Q 3047 847 3047 1241 
Q 3047 1584 2836 1778 
Q 2625 1972 2144 2069 
L 1759 2144 
Q 1053 2284 737 2584 
Q 422 2884 422 3419 
Q 422 4038 858 4394 
Q 1294 4750 2059 4750 
Q 2388 4750 2728 4690 
Q 3069 4631 3425 4513 
z
" transform="scale(0.015625)"/>
      <path id="DejaVuSans-45" d="M 628 4666 
L 3578 4666 
L 3578 4134 
L 1259 4134 
L 1259 2753 
L 3481 2753 
L 3481 2222 
L 1259 2222 
L 1259 531 
L 3634 531 
L 3634 0 
L 628 0 
L 628 4666 
z
" transform="scale(0.015625)"/>
      <path id="DejaVuSans-73" d="M 2834 3397 
L 2834 2853 
Q 2591 2978 2328 3040 
Q 2066 3103 1784 3103 
Q 1356 3103 1142 2972 
Q 928 2841 928 2578 
Q 928 2378 1081 2264 
Q 1234 2150 1697 2047 
L 1894 2003 
Q 2506 1872 2764 1633 
Q 3022 1394 3022 966 
Q 3022 478 2636 193 
Q 2250 -91 1575 -91 
Q 1294 -91 989 -36 
Q 684 19 347 128 
L 347 722 
Q 666 556 975 473 
Q 1284 391 1588 391 
Q 1994 391 2212 530 
Q 2431 669 2431 922 
Q 2431 1156 2273 1281 
Q 2116 1406 1581 1522 
L 1381 1569 
Q 847 1681 609 1914 
Q 372 2147 372 2553 
Q 372 3047 722 3315 
Q 1072 3584 1716 3584 
Q 2034 3584 2315 3537 
Q 2597 3491 2834 3397 
z
" transform="scale(0.015625)"/>
     </defs>
     <use xlink:href="#DejaVuSans-63"/>
     <use xlink:href="#DejaVuSans-61" x="54.980469"/>
     <use xlink:href="#DejaVuSans-74" x="116.259766"/>
     <use xlink:href="#DejaVuSans-63" x="155.46875"/>
     <use xlink:href="#DejaVuSans-68" x="210.449219"/>
     <use xlink:href="#DejaVuSans-20" x="273.828125"/>
     <use xlink:href="#DejaVuSans-74" x="305.615234"/>
     <use xlink:href="#DejaVuSans-72" x="344.824219"/>
     <use xlink:href="#DejaVuSans-69" x="385.9375"/>
     <use xlink:href="#DejaVuSans-61" x="413.720703"/>
     <use xlink:href="#DejaVuSans-6c" x="475"/>
     <use xlink:href="#DejaVuSans-20" x="502.783203"/>
     <use xlink:href="#DejaVuSans-52" x="534.570312"/>
     <use xlink:href="#DejaVuSans-4d" x="604.052734"/>
     <use xlink:href="#DejaVuSans-53" x="690.332031"/>
     <use xlink:href="#DejaVuSans-45" x="753.808594"/>
     <use xlink:href="#DejaVuSans-73" x="816.992188"/>
    </g>
   </g>
  </g>
 </g>
 <defs>
  <clipPath id="p859879bf68">
   <rect x="54" y="51.84" width="334.8" height="332.64"/>
  </clipPath>
 </defs>
</svg>
