<?xml version="1.0" encoding="utf-8" standalone="no"?>
<!DOCTYPE svg PUBLIC "-//W3C//DTD SVG 1.1//EN"
  "http://www.w3.org/Graphics/SVG/1.1/DTD/svg11.dtd">
<svg xmlns:xlink="http://www.w3.org/1999/xlink" width="460.8pt" height="345.6pt" viewBox="0 0 460.8 345.6" xmlns="http://www.w3.org/2000/svg" version="1.1">
 <metadata>
  <rdf:RDF xmlns:dc="http://purl.org/dc/elements/1.1/" xmlns:cc="http://creativecommons.org/ns#" xmlns:rdf="http://www.w3.org/1999/02/22-rdf-syntax-ns#">
   <cc:Work>
    <dc:type rdf:resource="http://purl.org/dc/dcmitype/StillImage"/>
    <dc:date>2024-09-12T15:49:48.433477</dc:date>
    <dc:format>image/svg+xml</dc:format>
    <dc:creator>
     <cc:Agent>
      <dc:title>Matplotlib v3.8.0, https://matplotlib.org/</dc:title>
     </cc:Agent>
    </dc:creator>
   </cc:Work>
  </rdf:RDF>
 </metadata>
 <defs>
  <style type="text/css">*{stroke-linejoin: round; stroke-linecap: butt}</style>
 </defs>
 <g id="figure_1">
  <g id="patch_1">
   <path d="M 0 345.6 
L 460.8 345.6 
L 460.8 0 
L 0 0 
z
" style="fill: #ffffff"/>
  </g>
  <g id="axes_1">
   <g id="patch_2">
    <path d="M 57.6 307.584 
L 414.72 307.584 
L 414.72 41.472 
L 57.6 41.472 
z
" style="fill: #ffffff"/>
   </g>
   <g id="matplotlib.axis_1">
    <g id="xtick_1">
     <g id="line2d_1">
      <defs>
       <path id="m9e88dafdfe" d="M 0 0 
L 0 3.5 
" style="stroke: #000000; stroke-width: 0.8"/>
      </defs>
      <g>
       <use xlink:href="#m9e88dafdfe" x="73.832727" y="307.584" style="stroke: #000000; stroke-width: 0.8"/>
      </g>
     </g>
     <g id="text_1">
      <!-- 0 -->
      <g transform="translate(70.651477 322.182437) scale(0.1 -0.1)">
       <defs>
        <path id="DejaVuSans-30" d="M 2034 4250 
Q 1547 4250 1301 3770 
Q 1056 3291 1056 2328 
Q 1056 1369 1301 889 
Q 1547 409 2034 409 
Q 2525 409 2770 889 
Q 3016 1369 3016 2328 
Q 3016 3291 2770 3770 
Q 2525 4250 2034 4250 
z
M 2034 4750 
Q 2819 4750 3233 4129 
Q 3647 3509 3647 2328 
Q 3647 1150 3233 529 
Q 2819 -91 2034 -91 
Q 1250 -91 836 529 
Q 422 1150 422 2328 
Q 422 3509 836 4129 
Q 1250 4750 2034 4750 
z
" transform="scale(0.015625)"/>
       </defs>
       <use xlink:href="#DejaVuSans-30"/>
      </g>
     </g>
    </g>
    <g id="xtick_2">
     <g id="line2d_2">
      <g>
       <use xlink:href="#m9e88dafdfe" x="130.590515" y="307.584" style="stroke: #000000; stroke-width: 0.8"/>
      </g>
     </g>
     <g id="text_2">
      <!-- 50 -->
      <g transform="translate(124.228015 322.182437) scale(0.1 -0.1)">
       <defs>
        <path id="DejaVuSans-35" d="M 691 4666 
L 3169 4666 
L 3169 4134 
L 1269 4134 
L 1269 2991 
Q 1406 3038 1543 3061 
Q 1681 3084 1819 3084 
Q 2600 3084 3056 2656 
Q 3513 2228 3513 1497 
Q 3513 744 3044 326 
Q 2575 -91 1722 -91 
Q 1428 -91 1123 -41 
Q 819 9 494 109 
L 494 744 
Q 775 591 1075 516 
Q 1375 441 1709 441 
Q 2250 441 2565 725 
Q 2881 1009 2881 1497 
Q 2881 1984 2565 2268 
Q 2250 2553 1709 2553 
Q 1456 2553 1204 2497 
Q 953 2441 691 2322 
L 691 4666 
z
" transform="scale(0.015625)"/>
       </defs>
       <use xlink:href="#DejaVuSans-35"/>
       <use xlink:href="#DejaVuSans-30" x="63.623047"/>
      </g>
     </g>
    </g>
    <g id="xtick_3">
     <g id="line2d_3">
      <g>
       <use xlink:href="#m9e88dafdfe" x="187.348303" y="307.584" style="stroke: #000000; stroke-width: 0.8"/>
      </g>
     </g>
     <g id="text_3">
      <!-- 100 -->
      <g transform="translate(177.804553 322.182437) scale(0.1 -0.1)">
       <defs>
        <path id="DejaVuSans-31" d="M 794 531 
L 1825 531 
L 1825 4091 
L 703 3866 
L 703 4441 
L 1819 4666 
L 2450 4666 
L 2450 531 
L 3481 531 
L 3481 0 
L 794 0 
L 794 531 
z
" transform="scale(0.015625)"/>
       </defs>
       <use xlink:href="#DejaVuSans-31"/>
       <use xlink:href="#DejaVuSans-30" x="63.623047"/>
       <use xlink:href="#DejaVuSans-30" x="127.246094"/>
      </g>
     </g>
    </g>
    <g id="xtick_4">
     <g id="line2d_4">
      <g>
       <use xlink:href="#m9e88dafdfe" x="244.10609" y="307.584" style="stroke: #000000; stroke-width: 0.8"/>
      </g>
     </g>
     <g id="text_4">
      <!-- 150 -->
      <g transform="translate(234.56234 322.182437) scale(0.1 -0.1)">
       <use xlink:href="#DejaVuSans-31"/>
       <use xlink:href="#DejaVuSans-35" x="63.623047"/>
       <use xlink:href="#DejaVuSans-30" x="127.246094"/>
      </g>
     </g>
    </g>
    <g id="xtick_5">
     <g id="line2d_5">
      <g>
       <use xlink:href="#m9e88dafdfe" x="300.863878" y="307.584" style="stroke: #000000; stroke-width: 0.8"/>
      </g>
     </g>
     <g id="text_5">
      <!-- 200 -->
      <g transform="translate(291.320128 322.182437) scale(0.1 -0.1)">
       <defs>
        <path id="DejaVuSans-32" d="M 1228 531 
L 3431 531 
L 3431 0 
L 469 0 
L 469 531 
Q 828 903 1448 1529 
Q 2069 2156 2228 2338 
Q 2531 2678 2651 2914 
Q 2772 3150 2772 3378 
Q 2772 3750 2511 3984 
Q 2250 4219 1831 4219 
Q 1534 4219 1204 4116 
Q 875 4013 500 3803 
L 500 4441 
Q 881 4594 1212 4672 
Q 1544 4750 1819 4750 
Q 2544 4750 2975 4387 
Q 3406 4025 3406 3419 
Q 3406 3131 3298 2873 
Q 3191 2616 2906 2266 
Q 2828 2175 2409 1742 
Q 1991 1309 1228 531 
z
" transform="scale(0.015625)"/>
       </defs>
       <use xlink:href="#DejaVuSans-32"/>
       <use xlink:href="#DejaVuSans-30" x="63.623047"/>
       <use xlink:href="#DejaVuSans-30" x="127.246094"/>
      </g>
     </g>
    </g>
    <g id="xtick_6">
     <g id="line2d_6">
      <g>
       <use xlink:href="#m9e88dafdfe" x="357.621666" y="307.584" style="stroke: #000000; stroke-width: 0.8"/>
      </g>
     </g>
     <g id="text_6">
      <!-- 250 -->
      <g transform="translate(348.077916 322.182437) scale(0.1 -0.1)">
       <use xlink:href="#DejaVuSans-32"/>
       <use xlink:href="#DejaVuSans-35" x="63.623047"/>
       <use xlink:href="#DejaVuSans-30" x="127.246094"/>
      </g>
     </g>
    </g>
    <g id="xtick_7">
     <g id="line2d_7">
      <g>
       <use xlink:href="#m9e88dafdfe" x="414.379453" y="307.584" style="stroke: #000000; stroke-width: 0.8"/>
      </g>
     </g>
     <g id="text_7">
      <!-- 300 -->
      <g transform="translate(404.835703 322.182437) scale(0.1 -0.1)">
       <defs>
        <path id="DejaVuSans-33" d="M 2597 2516 
Q 3050 2419 3304 2112 
Q 3559 1806 3559 1356 
Q 3559 666 3084 287 
Q 2609 -91 1734 -91 
Q 1441 -91 1130 -33 
Q 819 25 488 141 
L 488 750 
Q 750 597 1062 519 
Q 1375 441 1716 441 
Q 2309 441 2620 675 
Q 2931 909 2931 1356 
Q 2931 1769 2642 2001 
Q 2353 2234 1838 2234 
L 1294 2234 
L 1294 2753 
L 1863 2753 
Q 2328 2753 2575 2939 
Q 2822 3125 2822 3475 
Q 2822 3834 2567 4026 
Q 2313 4219 1838 4219 
Q 1578 4219 1281 4162 
Q 984 4106 628 3988 
L 628 4550 
Q 988 4650 1302 4700 
Q 1616 4750 1894 4750 
Q 2613 4750 3031 4423 
Q 3450 4097 3450 3541 
Q 3450 3153 3228 2886 
Q 3006 2619 2597 2516 
z
" transform="scale(0.015625)"/>
       </defs>
       <use xlink:href="#DejaVuSans-33"/>
       <use xlink:href="#DejaVuSans-30" x="63.623047"/>
       <use xlink:href="#DejaVuSans-30" x="127.246094"/>
      </g>
     </g>
    </g>
   </g>
   <g id="matplotlib.axis_2">
    <g id="ytick_1">
     <g id="line2d_8">
      <defs>
       <path id="m7113525a1f" d="M 0 0 
L -3.5 0 
" style="stroke: #000000; stroke-width: 0.8"/>
      </defs>
      <g>
       <use xlink:href="#m7113525a1f" x="57.6" y="307.584" style="stroke: #000000; stroke-width: 0.8"/>
      </g>
     </g>
     <g id="text_8">
      <!-- −20 -->
      <g transform="translate(29.495313 311.383219) scale(0.1 -0.1)">
       <defs>
        <path id="DejaVuSans-2212" d="M 678 2272 
L 4684 2272 
L 4684 1741 
L 678 1741 
L 678 2272 
z
" transform="scale(0.015625)"/>
       </defs>
       <use xlink:href="#DejaVuSans-2212"/>
       <use xlink:href="#DejaVuSans-32" x="83.789062"/>
       <use xlink:href="#DejaVuSans-30" x="147.412109"/>
      </g>
     </g>
    </g>
    <g id="ytick_2">
     <g id="line2d_9">
      <g>
       <use xlink:href="#m7113525a1f" x="57.6" y="274.32" style="stroke: #000000; stroke-width: 0.8"/>
      </g>
     </g>
     <g id="text_9">
      <!-- −15 -->
      <g transform="translate(29.495313 278.119219) scale(0.1 -0.1)">
       <use xlink:href="#DejaVuSans-2212"/>
       <use xlink:href="#DejaVuSans-31" x="83.789062"/>
       <use xlink:href="#DejaVuSans-35" x="147.412109"/>
      </g>
     </g>
    </g>
    <g id="ytick_3">
     <g id="line2d_10">
      <g>
       <use xlink:href="#m7113525a1f" x="57.6" y="241.056" style="stroke: #000000; stroke-width: 0.8"/>
      </g>
     </g>
     <g id="text_10">
      <!-- −10 -->
      <g transform="translate(29.495313 244.855219) scale(0.1 -0.1)">
       <use xlink:href="#DejaVuSans-2212"/>
       <use xlink:href="#DejaVuSans-31" x="83.789062"/>
       <use xlink:href="#DejaVuSans-30" x="147.412109"/>
      </g>
     </g>
    </g>
    <g id="ytick_4">
     <g id="line2d_11">
      <g>
       <use xlink:href="#m7113525a1f" x="57.6" y="207.792" style="stroke: #000000; stroke-width: 0.8"/>
      </g>
     </g>
     <g id="text_11">
      <!-- −5 -->
      <g transform="translate(35.857813 211.591219) scale(0.1 -0.1)">
       <use xlink:href="#DejaVuSans-2212"/>
       <use xlink:href="#DejaVuSans-35" x="83.789062"/>
      </g>
     </g>
    </g>
    <g id="ytick_5">
     <g id="line2d_12">
      <g>
       <use xlink:href="#m7113525a1f" x="57.6" y="174.528" style="stroke: #000000; stroke-width: 0.8"/>
      </g>
     </g>
     <g id="text_12">
      <!-- 0 -->
      <g transform="translate(44.2375 178.327219) scale(0.1 -0.1)">
       <use xlink:href="#DejaVuSans-30"/>
      </g>
     </g>
    </g>
    <g id="ytick_6">
     <g id="line2d_13">
      <g>
       <use xlink:href="#m7113525a1f" x="57.6" y="141.264" style="stroke: #000000; stroke-width: 0.8"/>
      </g>
     </g>
     <g id="text_13">
      <!-- 5 -->
      <g transform="translate(44.2375 145.063219) scale(0.1 -0.1)">
       <use xlink:href="#DejaVuSans-35"/>
      </g>
     </g>
    </g>
    <g id="ytick_7">
     <g id="line2d_14">
      <g>
       <use xlink:href="#m7113525a1f" x="57.6" y="108" style="stroke: #000000; stroke-width: 0.8"/>
      </g>
     </g>
     <g id="text_14">
      <!-- 10 -->
      <g transform="translate(37.875 111.799219) scale(0.1 -0.1)">
       <use xlink:href="#DejaVuSans-31"/>
       <use xlink:href="#DejaVuSans-30" x="63.623047"/>
      </g>
     </g>
    </g>
    <g id="ytick_8">
     <g id="line2d_15">
      <g>
       <use xlink:href="#m7113525a1f" x="57.6" y="74.736" style="stroke: #000000; stroke-width: 0.8"/>
      </g>
     </g>
     <g id="text_15">
      <!-- 15 -->
      <g transform="translate(37.875 78.535219) scale(0.1 -0.1)">
       <use xlink:href="#DejaVuSans-31"/>
       <use xlink:href="#DejaVuSans-35" x="63.623047"/>
      </g>
     </g>
    </g>
    <g id="ytick_9">
     <g id="line2d_16">
      <g>
       <use xlink:href="#m7113525a1f" x="57.6" y="41.472" style="stroke: #000000; stroke-width: 0.8"/>
      </g>
     </g>
     <g id="text_16">
      <!-- 20 -->
      <g transform="translate(37.875 45.271219) scale(0.1 -0.1)">
       <use xlink:href="#DejaVuSans-32"/>
       <use xlink:href="#DejaVuSans-30" x="63.623047"/>
      </g>
     </g>
    </g>
   </g>
   <g id="line2d_17">
    <defs>
     <path id="m745b18a67e" d="M 0 3 
C 0.795609 3 1.55874 2.683901 2.12132 2.12132 
C 2.683901 1.55874 3 0.795609 3 0 
C 3 -0.795609 2.683901 -1.55874 2.12132 -2.12132 
C 1.55874 -2.683901 0.795609 -3 0 -3 
C -0.795609 -3 -1.55874 -2.683901 -2.12132 -2.12132 
C -2.683901 -1.55874 -3 -0.795609 -3 0 
C -3 0.795609 -2.683901 1.55874 -2.12132 2.12132 
C -1.55874 2.683901 -0.795609 3 0 3 
z
" style="stroke: #1f77b4"/>
    </defs>
    <g clip-path="url(#pe158fee060)">
     <use xlink:href="#m745b18a67e" x="73.832727" y="26.483916" style="fill: #1f77b4; stroke: #1f77b4"/>
     <use xlink:href="#m745b18a67e" x="74.983018" y="119.99556" style="fill: #1f77b4; stroke: #1f77b4"/>
     <use xlink:href="#m745b18a67e" x="76.13331" y="118.278261" style="fill: #1f77b4; stroke: #1f77b4"/>
     <use xlink:href="#m745b18a67e" x="77.283601" y="123.813448" style="fill: #1f77b4; stroke: #1f77b4"/>
     <use xlink:href="#m745b18a67e" x="78.433892" y="115.513088" style="fill: #1f77b4; stroke: #1f77b4"/>
     <use xlink:href="#m745b18a67e" x="79.584183" y="132.964843" style="fill: #1f77b4; stroke: #1f77b4"/>
     <use xlink:href="#m745b18a67e" x="80.734474" y="138.390623" style="fill: #1f77b4; stroke: #1f77b4"/>
     <use xlink:href="#m745b18a67e" x="81.884765" y="132.824426" style="fill: #1f77b4; stroke: #1f77b4"/>
     <use xlink:href="#m745b18a67e" x="83.035057" y="129.148176" style="fill: #1f77b4; stroke: #1f77b4"/>
     <use xlink:href="#m745b18a67e" x="84.185348" y="141.534159" style="fill: #1f77b4; stroke: #1f77b4"/>
     <use xlink:href="#m745b18a67e" x="85.335639" y="137.124424" style="fill: #1f77b4; stroke: #1f77b4"/>
     <use xlink:href="#m745b18a67e" x="86.48593" y="131.066735" style="fill: #1f77b4; stroke: #1f77b4"/>
     <use xlink:href="#m745b18a67e" x="87.636221" y="135.806243" style="fill: #1f77b4; stroke: #1f77b4"/>
     <use xlink:href="#m745b18a67e" x="88.786512" y="136.190374" style="fill: #1f77b4; stroke: #1f77b4"/>
     <use xlink:href="#m745b18a67e" x="89.936804" y="127.136079" style="fill: #1f77b4; stroke: #1f77b4"/>
     <use xlink:href="#m745b18a67e" x="91.087095" y="140.033476" style="fill: #1f77b4; stroke: #1f77b4"/>
     <use xlink:href="#m745b18a67e" x="92.237386" y="146.076263" style="fill: #1f77b4; stroke: #1f77b4"/>
     <use xlink:href="#m745b18a67e" x="93.387677" y="139.985523" style="fill: #1f77b4; stroke: #1f77b4"/>
     <use xlink:href="#m745b18a67e" x="94.537968" y="143.718544" style="fill: #1f77b4; stroke: #1f77b4"/>
     <use xlink:href="#m745b18a67e" x="95.688259" y="133.46772" style="fill: #1f77b4; stroke: #1f77b4"/>
     <use xlink:href="#m745b18a67e" x="96.838551" y="134.727988" style="fill: #1f77b4; stroke: #1f77b4"/>
     <use xlink:href="#m745b18a67e" x="97.988842" y="119.707928" style="fill: #1f77b4; stroke: #1f77b4"/>
     <use xlink:href="#m745b18a67e" x="99.139133" y="142.046185" style="fill: #1f77b4; stroke: #1f77b4"/>
     <use xlink:href="#m745b18a67e" x="100.289424" y="134.645529" style="fill: #1f77b4; stroke: #1f77b4"/>
     <use xlink:href="#m745b18a67e" x="101.439715" y="126.287531" style="fill: #1f77b4; stroke: #1f77b4"/>
     <use xlink:href="#m745b18a67e" x="102.590006" y="126.500295" style="fill: #1f77b4; stroke: #1f77b4"/>
     <use xlink:href="#m745b18a67e" x="103.740298" y="128.193838" style="fill: #1f77b4; stroke: #1f77b4"/>
     <use xlink:href="#m745b18a67e" x="104.890589" y="131.719991" style="fill: #1f77b4; stroke: #1f77b4"/>
     <use xlink:href="#m745b18a67e" x="106.04088" y="142.049647" style="fill: #1f77b4; stroke: #1f77b4"/>
     <use xlink:href="#m745b18a67e" x="107.191171" y="139.119435" style="fill: #1f77b4; stroke: #1f77b4"/>
     <use xlink:href="#m745b18a67e" x="108.341462" y="149.490824" style="fill: #1f77b4; stroke: #1f77b4"/>
     <use xlink:href="#m745b18a67e" x="109.491753" y="128.939167" style="fill: #1f77b4; stroke: #1f77b4"/>
     <use xlink:href="#m745b18a67e" x="110.642045" y="109.068436" style="fill: #1f77b4; stroke: #1f77b4"/>
     <use xlink:href="#m745b18a67e" x="111.792336" y="139.656443" style="fill: #1f77b4; stroke: #1f77b4"/>
     <use xlink:href="#m745b18a67e" x="112.942627" y="145.368011" style="fill: #1f77b4; stroke: #1f77b4"/>
     <use xlink:href="#m745b18a67e" x="114.092918" y="134.241231" style="fill: #1f77b4; stroke: #1f77b4"/>
     <use xlink:href="#m745b18a67e" x="115.243209" y="131.598858" style="fill: #1f77b4; stroke: #1f77b4"/>
     <use xlink:href="#m745b18a67e" x="116.3935" y="139.97351" style="fill: #1f77b4; stroke: #1f77b4"/>
     <use xlink:href="#m745b18a67e" x="117.543791" y="119.761566" style="fill: #1f77b4; stroke: #1f77b4"/>
     <use xlink:href="#m745b18a67e" x="118.694083" y="131.273844" style="fill: #1f77b4; stroke: #1f77b4"/>
     <use xlink:href="#m745b18a67e" x="119.844374" y="132.56954" style="fill: #1f77b4; stroke: #1f77b4"/>
     <use xlink:href="#m745b18a67e" x="120.994665" y="129.304075" style="fill: #1f77b4; stroke: #1f77b4"/>
     <use xlink:href="#m745b18a67e" x="122.144956" y="153.205853" style="fill: #1f77b4; stroke: #1f77b4"/>
     <use xlink:href="#m745b18a67e" x="123.295247" y="146.055882" style="fill: #1f77b4; stroke: #1f77b4"/>
     <use xlink:href="#m745b18a67e" x="124.445538" y="146.209287" style="fill: #1f77b4; stroke: #1f77b4"/>
     <use xlink:href="#m745b18a67e" x="125.59583" y="146.708158" style="fill: #1f77b4; stroke: #1f77b4"/>
     <use xlink:href="#m745b18a67e" x="126.746121" y="151.696669" style="fill: #1f77b4; stroke: #1f77b4"/>
     <use xlink:href="#m745b18a67e" x="127.896412" y="171.449055" style="fill: #1f77b4; stroke: #1f77b4"/>
     <use xlink:href="#m745b18a67e" x="129.046703" y="146.500621" style="fill: #1f77b4; stroke: #1f77b4"/>
     <use xlink:href="#m745b18a67e" x="130.196994" y="138.584587" style="fill: #1f77b4; stroke: #1f77b4"/>
     <use xlink:href="#m745b18a67e" x="131.347285" y="134.104266" style="fill: #1f77b4; stroke: #1f77b4"/>
     <use xlink:href="#m745b18a67e" x="132.497577" y="131.614969" style="fill: #1f77b4; stroke: #1f77b4"/>
     <use xlink:href="#m745b18a67e" x="133.647868" y="145.850346" style="fill: #1f77b4; stroke: #1f77b4"/>
     <use xlink:href="#m745b18a67e" x="134.798159" y="148.32778" style="fill: #1f77b4; stroke: #1f77b4"/>
     <use xlink:href="#m745b18a67e" x="135.94845" y="143.035847" style="fill: #1f77b4; stroke: #1f77b4"/>
     <use xlink:href="#m745b18a67e" x="137.098741" y="132.24519" style="fill: #1f77b4; stroke: #1f77b4"/>
     <use xlink:href="#m745b18a67e" x="138.249032" y="132.733845" style="fill: #1f77b4; stroke: #1f77b4"/>
     <use xlink:href="#m745b18a67e" x="139.399324" y="128.130328" style="fill: #1f77b4; stroke: #1f77b4"/>
     <use xlink:href="#m745b18a67e" x="140.549615" y="131.802944" style="fill: #1f77b4; stroke: #1f77b4"/>
     <use xlink:href="#m745b18a67e" x="141.699906" y="137.477467" style="fill: #1f77b4; stroke: #1f77b4"/>
     <use xlink:href="#m745b18a67e" x="142.850197" y="150.966428" style="fill: #1f77b4; stroke: #1f77b4"/>
     <use xlink:href="#m745b18a67e" x="144.000488" y="139.464885" style="fill: #1f77b4; stroke: #1f77b4"/>
     <use xlink:href="#m745b18a67e" x="145.150779" y="152.802769" style="fill: #1f77b4; stroke: #1f77b4"/>
     <use xlink:href="#m745b18a67e" x="146.301071" y="134.950631" style="fill: #1f77b4; stroke: #1f77b4"/>
     <use xlink:href="#m745b18a67e" x="147.451362" y="132.255531" style="fill: #1f77b4; stroke: #1f77b4"/>
     <use xlink:href="#m745b18a67e" x="148.601653" y="137.099826" style="fill: #1f77b4; stroke: #1f77b4"/>
     <use xlink:href="#m745b18a67e" x="149.751944" y="135.352565" style="fill: #1f77b4; stroke: #1f77b4"/>
     <use xlink:href="#m745b18a67e" x="150.902235" y="130.392202" style="fill: #1f77b4; stroke: #1f77b4"/>
     <use xlink:href="#m745b18a67e" x="152.052526" y="145.372917" style="fill: #1f77b4; stroke: #1f77b4"/>
     <use xlink:href="#m745b18a67e" x="153.202818" y="150.453589" style="fill: #1f77b4; stroke: #1f77b4"/>
     <use xlink:href="#m745b18a67e" x="154.353109" y="144.709811" style="fill: #1f77b4; stroke: #1f77b4"/>
     <use xlink:href="#m745b18a67e" x="155.5034" y="130.898199" style="fill: #1f77b4; stroke: #1f77b4"/>
     <use xlink:href="#m745b18a67e" x="156.653691" y="130.104863" style="fill: #1f77b4; stroke: #1f77b4"/>
     <use xlink:href="#m745b18a67e" x="157.803982" y="132.633662" style="fill: #1f77b4; stroke: #1f77b4"/>
     <use xlink:href="#m745b18a67e" x="158.954273" y="142.118889" style="fill: #1f77b4; stroke: #1f77b4"/>
     <use xlink:href="#m745b18a67e" x="160.104565" y="133.397111" style="fill: #1f77b4; stroke: #1f77b4"/>
    </g>
   </g>
   <g id="line2d_18">
    <defs>
     <path id="maed792e8e0" d="M 0 3 
C 0.795609 3 1.55874 2.683901 2.12132 2.12132 
C 2.683901 1.55874 3 0.795609 3 0 
C 3 -0.795609 2.683901 -1.55874 2.12132 -2.12132 
C 1.55874 -2.683901 0.795609 -3 0 -3 
C -0.795609 -3 -1.55874 -2.683901 -2.12132 -2.12132 
C -2.683901 -1.55874 -3 -0.795609 -3 0 
C -3 0.795609 -2.683901 1.55874 -2.12132 2.12132 
C -1.55874 2.683901 -0.795609 3 0 3 
z
" style="stroke: #ff7f0e"/>
    </defs>
    <g clip-path="url(#pe158fee060)">
     <use xlink:href="#maed792e8e0" x="171.456122" y="147.109813" style="fill: #ff7f0e; stroke: #ff7f0e"/>
     <use xlink:href="#maed792e8e0" x="172.596982" y="180.272203" style="fill: #ff7f0e; stroke: #ff7f0e"/>
     <use xlink:href="#maed792e8e0" x="173.737842" y="241.362525" style="fill: #ff7f0e; stroke: #ff7f0e"/>
     <use xlink:href="#maed792e8e0" x="174.878702" y="196.927227" style="fill: #ff7f0e; stroke: #ff7f0e"/>
     <use xlink:href="#maed792e8e0" x="176.019562" y="177.152545" style="fill: #ff7f0e; stroke: #ff7f0e"/>
     <use xlink:href="#maed792e8e0" x="177.160422" y="196.008887" style="fill: #ff7f0e; stroke: #ff7f0e"/>
     <use xlink:href="#maed792e8e0" x="178.301282" y="215.32565" style="fill: #ff7f0e; stroke: #ff7f0e"/>
     <use xlink:href="#maed792e8e0" x="179.442142" y="192.041101" style="fill: #ff7f0e; stroke: #ff7f0e"/>
     <use xlink:href="#maed792e8e0" x="180.583002" y="175.988127" style="fill: #ff7f0e; stroke: #ff7f0e"/>
     <use xlink:href="#maed792e8e0" x="181.723863" y="186.751019" style="fill: #ff7f0e; stroke: #ff7f0e"/>
     <use xlink:href="#maed792e8e0" x="182.864723" y="211.807293" style="fill: #ff7f0e; stroke: #ff7f0e"/>
     <use xlink:href="#maed792e8e0" x="184.005583" y="184.83592" style="fill: #ff7f0e; stroke: #ff7f0e"/>
     <use xlink:href="#maed792e8e0" x="185.146443" y="230.431874" style="fill: #ff7f0e; stroke: #ff7f0e"/>
     <use xlink:href="#maed792e8e0" x="186.287303" y="178.524478" style="fill: #ff7f0e; stroke: #ff7f0e"/>
     <use xlink:href="#maed792e8e0" x="187.428163" y="214.984992" style="fill: #ff7f0e; stroke: #ff7f0e"/>
     <use xlink:href="#maed792e8e0" x="188.569023" y="196.669245" style="fill: #ff7f0e; stroke: #ff7f0e"/>
     <use xlink:href="#maed792e8e0" x="189.709883" y="206.0281" style="fill: #ff7f0e; stroke: #ff7f0e"/>
     <use xlink:href="#maed792e8e0" x="190.850743" y="217.90475" style="fill: #ff7f0e; stroke: #ff7f0e"/>
     <use xlink:href="#maed792e8e0" x="191.991603" y="185.085063" style="fill: #ff7f0e; stroke: #ff7f0e"/>
     <use xlink:href="#maed792e8e0" x="193.132463" y="206.697529" style="fill: #ff7f0e; stroke: #ff7f0e"/>
     <use xlink:href="#maed792e8e0" x="194.273323" y="195.287572" style="fill: #ff7f0e; stroke: #ff7f0e"/>
     <use xlink:href="#maed792e8e0" x="195.414183" y="189.189168" style="fill: #ff7f0e; stroke: #ff7f0e"/>
     <use xlink:href="#maed792e8e0" x="196.555043" y="185.901277" style="fill: #ff7f0e; stroke: #ff7f0e"/>
     <use xlink:href="#maed792e8e0" x="197.695903" y="214.769004" style="fill: #ff7f0e; stroke: #ff7f0e"/>
     <use xlink:href="#maed792e8e0" x="198.836763" y="206.334415" style="fill: #ff7f0e; stroke: #ff7f0e"/>
     <use xlink:href="#maed792e8e0" x="199.977623" y="207.284257" style="fill: #ff7f0e; stroke: #ff7f0e"/>
     <use xlink:href="#maed792e8e0" x="201.118483" y="194.164613" style="fill: #ff7f0e; stroke: #ff7f0e"/>
     <use xlink:href="#maed792e8e0" x="202.259344" y="178.295009" style="fill: #ff7f0e; stroke: #ff7f0e"/>
     <use xlink:href="#maed792e8e0" x="203.400204" y="201.285242" style="fill: #ff7f0e; stroke: #ff7f0e"/>
     <use xlink:href="#maed792e8e0" x="204.541064" y="193.846431" style="fill: #ff7f0e; stroke: #ff7f0e"/>
     <use xlink:href="#maed792e8e0" x="205.681924" y="180.33601" style="fill: #ff7f0e; stroke: #ff7f0e"/>
     <use xlink:href="#maed792e8e0" x="206.822784" y="200.260425" style="fill: #ff7f0e; stroke: #ff7f0e"/>
     <use xlink:href="#maed792e8e0" x="207.963644" y="206.203391" style="fill: #ff7f0e; stroke: #ff7f0e"/>
     <use xlink:href="#maed792e8e0" x="209.104504" y="175.484811" style="fill: #ff7f0e; stroke: #ff7f0e"/>
     <use xlink:href="#maed792e8e0" x="210.245364" y="217.823511" style="fill: #ff7f0e; stroke: #ff7f0e"/>
     <use xlink:href="#maed792e8e0" x="211.386224" y="184.242419" style="fill: #ff7f0e; stroke: #ff7f0e"/>
     <use xlink:href="#maed792e8e0" x="212.527084" y="191.636244" style="fill: #ff7f0e; stroke: #ff7f0e"/>
     <use xlink:href="#maed792e8e0" x="213.667944" y="183.101224" style="fill: #ff7f0e; stroke: #ff7f0e"/>
     <use xlink:href="#maed792e8e0" x="214.808804" y="197.983202" style="fill: #ff7f0e; stroke: #ff7f0e"/>
     <use xlink:href="#maed792e8e0" x="215.949664" y="184.53374" style="fill: #ff7f0e; stroke: #ff7f0e"/>
     <use xlink:href="#maed792e8e0" x="217.090524" y="180.464434" style="fill: #ff7f0e; stroke: #ff7f0e"/>
     <use xlink:href="#maed792e8e0" x="218.231384" y="208.279487" style="fill: #ff7f0e; stroke: #ff7f0e"/>
     <use xlink:href="#maed792e8e0" x="219.372244" y="195.839477" style="fill: #ff7f0e; stroke: #ff7f0e"/>
     <use xlink:href="#maed792e8e0" x="220.513104" y="181.173401" style="fill: #ff7f0e; stroke: #ff7f0e"/>
     <use xlink:href="#maed792e8e0" x="221.653964" y="223.996222" style="fill: #ff7f0e; stroke: #ff7f0e"/>
     <use xlink:href="#maed792e8e0" x="222.794824" y="166.465023" style="fill: #ff7f0e; stroke: #ff7f0e"/>
     <use xlink:href="#maed792e8e0" x="223.935685" y="193.903097" style="fill: #ff7f0e; stroke: #ff7f0e"/>
     <use xlink:href="#maed792e8e0" x="225.076545" y="186.102933" style="fill: #ff7f0e; stroke: #ff7f0e"/>
     <use xlink:href="#maed792e8e0" x="226.217405" y="190.968488" style="fill: #ff7f0e; stroke: #ff7f0e"/>
     <use xlink:href="#maed792e8e0" x="227.358265" y="188.18972" style="fill: #ff7f0e; stroke: #ff7f0e"/>
     <use xlink:href="#maed792e8e0" x="228.499125" y="176.82813" style="fill: #ff7f0e; stroke: #ff7f0e"/>
     <use xlink:href="#maed792e8e0" x="229.639985" y="200.925825" style="fill: #ff7f0e; stroke: #ff7f0e"/>
     <use xlink:href="#maed792e8e0" x="230.780845" y="198.709374" style="fill: #ff7f0e; stroke: #ff7f0e"/>
     <use xlink:href="#maed792e8e0" x="231.921705" y="191.751481" style="fill: #ff7f0e; stroke: #ff7f0e"/>
     <use xlink:href="#maed792e8e0" x="233.062565" y="188.951871" style="fill: #ff7f0e; stroke: #ff7f0e"/>
     <use xlink:href="#maed792e8e0" x="234.203425" y="178.38824" style="fill: #ff7f0e; stroke: #ff7f0e"/>
     <use xlink:href="#maed792e8e0" x="235.344285" y="202.00829" style="fill: #ff7f0e; stroke: #ff7f0e"/>
     <use xlink:href="#maed792e8e0" x="236.485145" y="192.625627" style="fill: #ff7f0e; stroke: #ff7f0e"/>
     <use xlink:href="#maed792e8e0" x="237.626005" y="172.831851" style="fill: #ff7f0e; stroke: #ff7f0e"/>
     <use xlink:href="#maed792e8e0" x="238.766865" y="212.023741" style="fill: #ff7f0e; stroke: #ff7f0e"/>
     <use xlink:href="#maed792e8e0" x="239.907725" y="163.325312" style="fill: #ff7f0e; stroke: #ff7f0e"/>
     <use xlink:href="#maed792e8e0" x="241.048585" y="191.901012" style="fill: #ff7f0e; stroke: #ff7f0e"/>
     <use xlink:href="#maed792e8e0" x="242.189445" y="195.477357" style="fill: #ff7f0e; stroke: #ff7f0e"/>
     <use xlink:href="#maed792e8e0" x="243.330305" y="190.632964" style="fill: #ff7f0e; stroke: #ff7f0e"/>
     <use xlink:href="#maed792e8e0" x="244.471165" y="163.781715" style="fill: #ff7f0e; stroke: #ff7f0e"/>
     <use xlink:href="#maed792e8e0" x="245.612026" y="209.991854" style="fill: #ff7f0e; stroke: #ff7f0e"/>
     <use xlink:href="#maed792e8e0" x="246.752886" y="218.970105" style="fill: #ff7f0e; stroke: #ff7f0e"/>
     <use xlink:href="#maed792e8e0" x="247.893746" y="164.176874" style="fill: #ff7f0e; stroke: #ff7f0e"/>
     <use xlink:href="#maed792e8e0" x="249.034606" y="199.161736" style="fill: #ff7f0e; stroke: #ff7f0e"/>
     <use xlink:href="#maed792e8e0" x="250.175466" y="197.879368" style="fill: #ff7f0e; stroke: #ff7f0e"/>
     <use xlink:href="#maed792e8e0" x="251.316326" y="184.064969" style="fill: #ff7f0e; stroke: #ff7f0e"/>
     <use xlink:href="#maed792e8e0" x="252.457186" y="198.884571" style="fill: #ff7f0e; stroke: #ff7f0e"/>
     <use xlink:href="#maed792e8e0" x="253.598046" y="191.901481" style="fill: #ff7f0e; stroke: #ff7f0e"/>
     <use xlink:href="#maed792e8e0" x="254.738906" y="222.802381" style="fill: #ff7f0e; stroke: #ff7f0e"/>
     <use xlink:href="#maed792e8e0" x="255.879766" y="158.796458" style="fill: #ff7f0e; stroke: #ff7f0e"/>
     <use xlink:href="#maed792e8e0" x="257.020626" y="188.921482" style="fill: #ff7f0e; stroke: #ff7f0e"/>
     <use xlink:href="#maed792e8e0" x="258.161486" y="195.794367" style="fill: #ff7f0e; stroke: #ff7f0e"/>
     <use xlink:href="#maed792e8e0" x="259.302346" y="179.316499" style="fill: #ff7f0e; stroke: #ff7f0e"/>
     <use xlink:href="#maed792e8e0" x="260.443206" y="183.028105" style="fill: #ff7f0e; stroke: #ff7f0e"/>
     <use xlink:href="#maed792e8e0" x="261.584066" y="209.411461" style="fill: #ff7f0e; stroke: #ff7f0e"/>
     <use xlink:href="#maed792e8e0" x="262.724926" y="179.303224" style="fill: #ff7f0e; stroke: #ff7f0e"/>
     <use xlink:href="#maed792e8e0" x="263.865786" y="240.559756" style="fill: #ff7f0e; stroke: #ff7f0e"/>
     <use xlink:href="#maed792e8e0" x="265.006646" y="201.43555" style="fill: #ff7f0e; stroke: #ff7f0e"/>
     <use xlink:href="#maed792e8e0" x="266.147507" y="175.084574" style="fill: #ff7f0e; stroke: #ff7f0e"/>
     <use xlink:href="#maed792e8e0" x="267.288367" y="176.898674" style="fill: #ff7f0e; stroke: #ff7f0e"/>
     <use xlink:href="#maed792e8e0" x="268.429227" y="209.606648" style="fill: #ff7f0e; stroke: #ff7f0e"/>
     <use xlink:href="#maed792e8e0" x="269.570087" y="194.567961" style="fill: #ff7f0e; stroke: #ff7f0e"/>
     <use xlink:href="#maed792e8e0" x="270.710947" y="172.009637" style="fill: #ff7f0e; stroke: #ff7f0e"/>
     <use xlink:href="#maed792e8e0" x="271.851807" y="194.147257" style="fill: #ff7f0e; stroke: #ff7f0e"/>
     <use xlink:href="#maed792e8e0" x="272.992667" y="175.307032" style="fill: #ff7f0e; stroke: #ff7f0e"/>
     <use xlink:href="#maed792e8e0" x="274.133527" y="164.712712" style="fill: #ff7f0e; stroke: #ff7f0e"/>
     <use xlink:href="#maed792e8e0" x="275.274387" y="164.592202" style="fill: #ff7f0e; stroke: #ff7f0e"/>
     <use xlink:href="#maed792e8e0" x="276.415247" y="158.805319" style="fill: #ff7f0e; stroke: #ff7f0e"/>
     <use xlink:href="#maed792e8e0" x="277.556107" y="163.495361" style="fill: #ff7f0e; stroke: #ff7f0e"/>
     <use xlink:href="#maed792e8e0" x="278.696967" y="167.483361" style="fill: #ff7f0e; stroke: #ff7f0e"/>
     <use xlink:href="#maed792e8e0" x="279.837827" y="165.119343" style="fill: #ff7f0e; stroke: #ff7f0e"/>
     <use xlink:href="#maed792e8e0" x="280.978687" y="167.081379" style="fill: #ff7f0e; stroke: #ff7f0e"/>
     <use xlink:href="#maed792e8e0" x="282.119547" y="161.831597" style="fill: #ff7f0e; stroke: #ff7f0e"/>
     <use xlink:href="#maed792e8e0" x="283.260407" y="164.386635" style="fill: #ff7f0e; stroke: #ff7f0e"/>
     <use xlink:href="#maed792e8e0" x="284.401267" y="159.387804" style="fill: #ff7f0e; stroke: #ff7f0e"/>
     <use xlink:href="#maed792e8e0" x="285.542127" y="159.356524" style="fill: #ff7f0e; stroke: #ff7f0e"/>
     <use xlink:href="#maed792e8e0" x="286.682987" y="174.69996" style="fill: #ff7f0e; stroke: #ff7f0e"/>
     <use xlink:href="#maed792e8e0" x="287.823848" y="162.839795" style="fill: #ff7f0e; stroke: #ff7f0e"/>
     <use xlink:href="#maed792e8e0" x="288.964708" y="109.532111" style="fill: #ff7f0e; stroke: #ff7f0e"/>
     <use xlink:href="#maed792e8e0" x="290.105568" y="193.475097" style="fill: #ff7f0e; stroke: #ff7f0e"/>
     <use xlink:href="#maed792e8e0" x="291.246428" y="167.1009" style="fill: #ff7f0e; stroke: #ff7f0e"/>
     <use xlink:href="#maed792e8e0" x="292.387288" y="141.967956" style="fill: #ff7f0e; stroke: #ff7f0e"/>
     <use xlink:href="#maed792e8e0" x="293.528148" y="137.452817" style="fill: #ff7f0e; stroke: #ff7f0e"/>
     <use xlink:href="#maed792e8e0" x="294.669008" y="134.064411" style="fill: #ff7f0e; stroke: #ff7f0e"/>
     <use xlink:href="#maed792e8e0" x="295.809868" y="150.929808" style="fill: #ff7f0e; stroke: #ff7f0e"/>
     <use xlink:href="#maed792e8e0" x="296.950728" y="132.382101" style="fill: #ff7f0e; stroke: #ff7f0e"/>
     <use xlink:href="#maed792e8e0" x="298.091588" y="203.651217" style="fill: #ff7f0e; stroke: #ff7f0e"/>
     <use xlink:href="#maed792e8e0" x="299.232448" y="217.286654" style="fill: #ff7f0e; stroke: #ff7f0e"/>
     <use xlink:href="#maed792e8e0" x="300.373308" y="156.309347" style="fill: #ff7f0e; stroke: #ff7f0e"/>
     <use xlink:href="#maed792e8e0" x="301.514168" y="190.61535" style="fill: #ff7f0e; stroke: #ff7f0e"/>
     <use xlink:href="#maed792e8e0" x="302.655028" y="170.830433" style="fill: #ff7f0e; stroke: #ff7f0e"/>
     <use xlink:href="#maed792e8e0" x="303.795888" y="202.053132" style="fill: #ff7f0e; stroke: #ff7f0e"/>
     <use xlink:href="#maed792e8e0" x="304.936748" y="172.805048" style="fill: #ff7f0e; stroke: #ff7f0e"/>
     <use xlink:href="#maed792e8e0" x="306.077608" y="194.525102" style="fill: #ff7f0e; stroke: #ff7f0e"/>
     <use xlink:href="#maed792e8e0" x="307.218468" y="171.950508" style="fill: #ff7f0e; stroke: #ff7f0e"/>
     <use xlink:href="#maed792e8e0" x="308.359328" y="194.929857" style="fill: #ff7f0e; stroke: #ff7f0e"/>
     <use xlink:href="#maed792e8e0" x="309.500189" y="187.098237" style="fill: #ff7f0e; stroke: #ff7f0e"/>
     <use xlink:href="#maed792e8e0" x="310.641049" y="200.900768" style="fill: #ff7f0e; stroke: #ff7f0e"/>
     <use xlink:href="#maed792e8e0" x="311.781909" y="175.423582" style="fill: #ff7f0e; stroke: #ff7f0e"/>
     <use xlink:href="#maed792e8e0" x="312.922769" y="217.478872" style="fill: #ff7f0e; stroke: #ff7f0e"/>
     <use xlink:href="#maed792e8e0" x="314.063629" y="155.181883" style="fill: #ff7f0e; stroke: #ff7f0e"/>
     <use xlink:href="#maed792e8e0" x="315.204489" y="180.953635" style="fill: #ff7f0e; stroke: #ff7f0e"/>
     <use xlink:href="#maed792e8e0" x="316.345349" y="195.500082" style="fill: #ff7f0e; stroke: #ff7f0e"/>
     <use xlink:href="#maed792e8e0" x="317.486209" y="168.890787" style="fill: #ff7f0e; stroke: #ff7f0e"/>
     <use xlink:href="#maed792e8e0" x="318.627069" y="210.666502" style="fill: #ff7f0e; stroke: #ff7f0e"/>
     <use xlink:href="#maed792e8e0" x="319.767929" y="197.50395" style="fill: #ff7f0e; stroke: #ff7f0e"/>
     <use xlink:href="#maed792e8e0" x="320.908789" y="194.021805" style="fill: #ff7f0e; stroke: #ff7f0e"/>
     <use xlink:href="#maed792e8e0" x="322.049649" y="179.401974" style="fill: #ff7f0e; stroke: #ff7f0e"/>
     <use xlink:href="#maed792e8e0" x="323.190509" y="190.121213" style="fill: #ff7f0e; stroke: #ff7f0e"/>
     <use xlink:href="#maed792e8e0" x="324.331369" y="159.664684" style="fill: #ff7f0e; stroke: #ff7f0e"/>
     <use xlink:href="#maed792e8e0" x="325.472229" y="194.926409" style="fill: #ff7f0e; stroke: #ff7f0e"/>
     <use xlink:href="#maed792e8e0" x="326.613089" y="176.89138" style="fill: #ff7f0e; stroke: #ff7f0e"/>
     <use xlink:href="#maed792e8e0" x="327.753949" y="219.745133" style="fill: #ff7f0e; stroke: #ff7f0e"/>
     <use xlink:href="#maed792e8e0" x="328.894809" y="157.599266" style="fill: #ff7f0e; stroke: #ff7f0e"/>
     <use xlink:href="#maed792e8e0" x="330.03567" y="185.356213" style="fill: #ff7f0e; stroke: #ff7f0e"/>
     <use xlink:href="#maed792e8e0" x="331.17653" y="183.237463" style="fill: #ff7f0e; stroke: #ff7f0e"/>
     <use xlink:href="#maed792e8e0" x="332.31739" y="206.67524" style="fill: #ff7f0e; stroke: #ff7f0e"/>
     <use xlink:href="#maed792e8e0" x="333.45825" y="168.643624" style="fill: #ff7f0e; stroke: #ff7f0e"/>
     <use xlink:href="#maed792e8e0" x="334.59911" y="216.163541" style="fill: #ff7f0e; stroke: #ff7f0e"/>
     <use xlink:href="#maed792e8e0" x="335.73997" y="201.059157" style="fill: #ff7f0e; stroke: #ff7f0e"/>
     <use xlink:href="#maed792e8e0" x="336.88083" y="203.676286" style="fill: #ff7f0e; stroke: #ff7f0e"/>
     <use xlink:href="#maed792e8e0" x="338.02169" y="199.769622" style="fill: #ff7f0e; stroke: #ff7f0e"/>
     <use xlink:href="#maed792e8e0" x="339.16255" y="206.847354" style="fill: #ff7f0e; stroke: #ff7f0e"/>
     <use xlink:href="#maed792e8e0" x="340.30341" y="232.987739" style="fill: #ff7f0e; stroke: #ff7f0e"/>
     <use xlink:href="#maed792e8e0" x="341.44427" y="175.29917" style="fill: #ff7f0e; stroke: #ff7f0e"/>
     <use xlink:href="#maed792e8e0" x="342.58513" y="220.070724" style="fill: #ff7f0e; stroke: #ff7f0e"/>
     <use xlink:href="#maed792e8e0" x="343.72599" y="170.916763" style="fill: #ff7f0e; stroke: #ff7f0e"/>
     <use xlink:href="#maed792e8e0" x="344.86685" y="195.238709" style="fill: #ff7f0e; stroke: #ff7f0e"/>
     <use xlink:href="#maed792e8e0" x="346.00771" y="175.89199" style="fill: #ff7f0e; stroke: #ff7f0e"/>
     <use xlink:href="#maed792e8e0" x="347.14857" y="209.166521" style="fill: #ff7f0e; stroke: #ff7f0e"/>
     <use xlink:href="#maed792e8e0" x="348.28943" y="192.003141" style="fill: #ff7f0e; stroke: #ff7f0e"/>
     <use xlink:href="#maed792e8e0" x="349.43029" y="177.122726" style="fill: #ff7f0e; stroke: #ff7f0e"/>
     <use xlink:href="#maed792e8e0" x="350.57115" y="230.472809" style="fill: #ff7f0e; stroke: #ff7f0e"/>
     <use xlink:href="#maed792e8e0" x="351.712011" y="168.377178" style="fill: #ff7f0e; stroke: #ff7f0e"/>
     <use xlink:href="#maed792e8e0" x="352.852871" y="215.489117" style="fill: #ff7f0e; stroke: #ff7f0e"/>
     <use xlink:href="#maed792e8e0" x="353.993731" y="194.834758" style="fill: #ff7f0e; stroke: #ff7f0e"/>
     <use xlink:href="#maed792e8e0" x="355.134591" y="175.006218" style="fill: #ff7f0e; stroke: #ff7f0e"/>
     <use xlink:href="#maed792e8e0" x="356.275451" y="209.078411" style="fill: #ff7f0e; stroke: #ff7f0e"/>
     <use xlink:href="#maed792e8e0" x="357.416311" y="197.650078" style="fill: #ff7f0e; stroke: #ff7f0e"/>
     <use xlink:href="#maed792e8e0" x="358.557171" y="164.087027" style="fill: #ff7f0e; stroke: #ff7f0e"/>
     <use xlink:href="#maed792e8e0" x="359.698031" y="193.443441" style="fill: #ff7f0e; stroke: #ff7f0e"/>
     <use xlink:href="#maed792e8e0" x="360.838891" y="179.773084" style="fill: #ff7f0e; stroke: #ff7f0e"/>
     <use xlink:href="#maed792e8e0" x="361.979751" y="203.533517" style="fill: #ff7f0e; stroke: #ff7f0e"/>
     <use xlink:href="#maed792e8e0" x="363.120611" y="189.556794" style="fill: #ff7f0e; stroke: #ff7f0e"/>
     <use xlink:href="#maed792e8e0" x="364.261471" y="190.66321" style="fill: #ff7f0e; stroke: #ff7f0e"/>
     <use xlink:href="#maed792e8e0" x="365.402331" y="187.464861" style="fill: #ff7f0e; stroke: #ff7f0e"/>
     <use xlink:href="#maed792e8e0" x="366.543191" y="185.366494" style="fill: #ff7f0e; stroke: #ff7f0e"/>
     <use xlink:href="#maed792e8e0" x="367.684051" y="192.972378" style="fill: #ff7f0e; stroke: #ff7f0e"/>
     <use xlink:href="#maed792e8e0" x="368.824911" y="180.377001" style="fill: #ff7f0e; stroke: #ff7f0e"/>
     <use xlink:href="#maed792e8e0" x="369.965771" y="196.471102" style="fill: #ff7f0e; stroke: #ff7f0e"/>
     <use xlink:href="#maed792e8e0" x="371.106631" y="186.844302" style="fill: #ff7f0e; stroke: #ff7f0e"/>
     <use xlink:href="#maed792e8e0" x="372.247491" y="199.685139" style="fill: #ff7f0e; stroke: #ff7f0e"/>
     <use xlink:href="#maed792e8e0" x="373.388352" y="190.572593" style="fill: #ff7f0e; stroke: #ff7f0e"/>
     <use xlink:href="#maed792e8e0" x="374.529212" y="167.767286" style="fill: #ff7f0e; stroke: #ff7f0e"/>
     <use xlink:href="#maed792e8e0" x="375.670072" y="196.140461" style="fill: #ff7f0e; stroke: #ff7f0e"/>
     <use xlink:href="#maed792e8e0" x="376.810932" y="209.336323" style="fill: #ff7f0e; stroke: #ff7f0e"/>
     <use xlink:href="#maed792e8e0" x="377.951792" y="198.131534" style="fill: #ff7f0e; stroke: #ff7f0e"/>
     <use xlink:href="#maed792e8e0" x="379.092652" y="201.247976" style="fill: #ff7f0e; stroke: #ff7f0e"/>
     <use xlink:href="#maed792e8e0" x="380.233512" y="165.910013" style="fill: #ff7f0e; stroke: #ff7f0e"/>
     <use xlink:href="#maed792e8e0" x="381.374372" y="221.17789" style="fill: #ff7f0e; stroke: #ff7f0e"/>
     <use xlink:href="#maed792e8e0" x="382.515232" y="164.220854" style="fill: #ff7f0e; stroke: #ff7f0e"/>
     <use xlink:href="#maed792e8e0" x="383.656092" y="212.817785" style="fill: #ff7f0e; stroke: #ff7f0e"/>
     <use xlink:href="#maed792e8e0" x="384.796952" y="189.909004" style="fill: #ff7f0e; stroke: #ff7f0e"/>
     <use xlink:href="#maed792e8e0" x="385.937812" y="177.367799" style="fill: #ff7f0e; stroke: #ff7f0e"/>
     <use xlink:href="#maed792e8e0" x="387.078672" y="188.495329" style="fill: #ff7f0e; stroke: #ff7f0e"/>
     <use xlink:href="#maed792e8e0" x="388.219532" y="180.87465" style="fill: #ff7f0e; stroke: #ff7f0e"/>
     <use xlink:href="#maed792e8e0" x="389.360392" y="195.183443" style="fill: #ff7f0e; stroke: #ff7f0e"/>
     <use xlink:href="#maed792e8e0" x="390.501252" y="184.139081" style="fill: #ff7f0e; stroke: #ff7f0e"/>
     <use xlink:href="#maed792e8e0" x="391.642112" y="219.377551" style="fill: #ff7f0e; stroke: #ff7f0e"/>
     <use xlink:href="#maed792e8e0" x="392.782972" y="179.586608" style="fill: #ff7f0e; stroke: #ff7f0e"/>
     <use xlink:href="#maed792e8e0" x="393.923833" y="189.56379" style="fill: #ff7f0e; stroke: #ff7f0e"/>
     <use xlink:href="#maed792e8e0" x="395.064693" y="190.619249" style="fill: #ff7f0e; stroke: #ff7f0e"/>
     <use xlink:href="#maed792e8e0" x="396.205553" y="190.210879" style="fill: #ff7f0e; stroke: #ff7f0e"/>
     <use xlink:href="#maed792e8e0" x="397.346413" y="190.593257" style="fill: #ff7f0e; stroke: #ff7f0e"/>
     <use xlink:href="#maed792e8e0" x="398.487273" y="173.451362" style="fill: #ff7f0e; stroke: #ff7f0e"/>
    </g>
   </g>
   <g id="patch_3">
    <path d="M 57.6 307.584 
L 57.6 41.472 
" style="fill: none; stroke: #000000; stroke-width: 0.8; stroke-linejoin: miter; stroke-linecap: square"/>
   </g>
   <g id="patch_4">
    <path d="M 414.72 307.584 
L 414.72 41.472 
" style="fill: none; stroke: #000000; stroke-width: 0.8; stroke-linejoin: miter; stroke-linecap: square"/>
   </g>
   <g id="patch_5">
    <path d="M 57.6 307.584 
L 414.72 307.584 
" style="fill: none; stroke: #000000; stroke-width: 0.8; stroke-linejoin: miter; stroke-linecap: square"/>
   </g>
   <g id="patch_6">
    <path d="M 57.6 41.472 
L 414.72 41.472 
" style="fill: none; stroke: #000000; stroke-width: 0.8; stroke-linejoin: miter; stroke-linecap: square"/>
   </g>
  </g>
 </g>
 <defs>
  <clipPath id="pe158fee060">
   <rect x="57.6" y="41.472" width="357.12" height="266.112"/>
  </clipPath>
 </defs>
</svg>
