<?xml version="1.0" encoding="utf-8" standalone="no"?>
<!DOCTYPE svg PUBLIC "-//W3C//DTD SVG 1.1//EN"
  "http://www.w3.org/Graphics/SVG/1.1/DTD/svg11.dtd">
<svg xmlns:xlink="http://www.w3.org/1999/xlink" width="460.8pt" height="345.6pt" viewBox="0 0 460.8 345.6" xmlns="http://www.w3.org/2000/svg" version="1.1">
 <metadata>
  <rdf:RDF xmlns:dc="http://purl.org/dc/elements/1.1/" xmlns:cc="http://creativecommons.org/ns#" xmlns:rdf="http://www.w3.org/1999/02/22-rdf-syntax-ns#">
   <cc:Work>
    <dc:type rdf:resource="http://purl.org/dc/dcmitype/StillImage"/>
    <dc:date>2024-04-24T13:41:15.162165</dc:date>
    <dc:format>image/svg+xml</dc:format>
    <dc:creator>
     <cc:Agent>
      <dc:title>Matplotlib v3.7.0, https://matplotlib.org/</dc:title>
     </cc:Agent>
    </dc:creator>
   </cc:Work>
  </rdf:RDF>
 </metadata>
 <defs>
  <style type="text/css">*{stroke-linejoin: round; stroke-linecap: butt}</style>
 </defs>
 <g id="figure_1">
  <g id="patch_1">
   <path d="M 0 345.6 
L 460.8 345.6 
L 460.8 0 
L 0 0 
z
" style="fill: #ffffff"/>
  </g>
  <g id="axes_1">
   <g id="patch_2">
    <path d="M 57.6 307.584 
L 414.72 307.584 
L 414.72 41.472 
L 57.6 41.472 
z
" style="fill: #ffffff"/>
   </g>
   <g id="matplotlib.axis_1">
    <g id="xtick_1">
     <g id="line2d_1">
      <defs>
       <path id="mc3872ae56a" d="M 0 0 
L 0 3.5 
" style="stroke: #000000; stroke-width: 0.8"/>
      </defs>
      <g>
       <use xlink:href="#mc3872ae56a" x="73.832727" y="307.584" style="stroke: #000000; stroke-width: 0.8"/>
      </g>
     </g>
     <g id="text_1">
      <text style="font: 10px 'DejaVu Sans', 'Bitstream Vera Sans', 'Computer Modern Sans Serif', 'Lucida Grande', 'Verdana', 'Geneva', 'Lucid', 'Arial', 'Helvetica', 'Avant Garde', sans-serif; text-anchor: middle" x="73.832727" y="322.182437" transform="rotate(-0 73.832727 322.182437)">0.0</text>
     </g>
    </g>
    <g id="xtick_2">
     <g id="line2d_2">
      <g>
       <use xlink:href="#mc3872ae56a" x="114.414545" y="307.584" style="stroke: #000000; stroke-width: 0.8"/>
      </g>
     </g>
     <g id="text_2">
      <text style="font: 10px 'DejaVu Sans', 'Bitstream Vera Sans', 'Computer Modern Sans Serif', 'Lucida Grande', 'Verdana', 'Geneva', 'Lucid', 'Arial', 'Helvetica', 'Avant Garde', sans-serif; text-anchor: middle" x="114.414545" y="322.182437" transform="rotate(-0 114.414545 322.182437)">0.5</text>
     </g>
    </g>
    <g id="xtick_3">
     <g id="line2d_3">
      <g>
       <use xlink:href="#mc3872ae56a" x="154.996364" y="307.584" style="stroke: #000000; stroke-width: 0.8"/>
      </g>
     </g>
     <g id="text_3">
      <text style="font: 10px 'DejaVu Sans', 'Bitstream Vera Sans', 'Computer Modern Sans Serif', 'Lucida Grande', 'Verdana', 'Geneva', 'Lucid', 'Arial', 'Helvetica', 'Avant Garde', sans-serif; text-anchor: middle" x="154.996364" y="322.182437" transform="rotate(-0 154.996364 322.182437)">1.0</text>
     </g>
    </g>
    <g id="xtick_4">
     <g id="line2d_4">
      <g>
       <use xlink:href="#mc3872ae56a" x="195.578182" y="307.584" style="stroke: #000000; stroke-width: 0.8"/>
      </g>
     </g>
     <g id="text_4">
      <text style="font: 10px 'DejaVu Sans', 'Bitstream Vera Sans', 'Computer Modern Sans Serif', 'Lucida Grande', 'Verdana', 'Geneva', 'Lucid', 'Arial', 'Helvetica', 'Avant Garde', sans-serif; text-anchor: middle" x="195.578182" y="322.182437" transform="rotate(-0 195.578182 322.182437)">1.5</text>
     </g>
    </g>
    <g id="xtick_5">
     <g id="line2d_5">
      <g>
       <use xlink:href="#mc3872ae56a" x="236.16" y="307.584" style="stroke: #000000; stroke-width: 0.8"/>
      </g>
     </g>
     <g id="text_5">
      <text style="font: 10px 'DejaVu Sans', 'Bitstream Vera Sans', 'Computer Modern Sans Serif', 'Lucida Grande', 'Verdana', 'Geneva', 'Lucid', 'Arial', 'Helvetica', 'Avant Garde', sans-serif; text-anchor: middle" x="236.16" y="322.182437" transform="rotate(-0 236.16 322.182437)">2.0</text>
     </g>
    </g>
    <g id="xtick_6">
     <g id="line2d_6">
      <g>
       <use xlink:href="#mc3872ae56a" x="276.741818" y="307.584" style="stroke: #000000; stroke-width: 0.8"/>
      </g>
     </g>
     <g id="text_6">
      <text style="font: 10px 'DejaVu Sans', 'Bitstream Vera Sans', 'Computer Modern Sans Serif', 'Lucida Grande', 'Verdana', 'Geneva', 'Lucid', 'Arial', 'Helvetica', 'Avant Garde', sans-serif; text-anchor: middle" x="276.741818" y="322.182437" transform="rotate(-0 276.741818 322.182437)">2.5</text>
     </g>
    </g>
    <g id="xtick_7">
     <g id="line2d_7">
      <g>
       <use xlink:href="#mc3872ae56a" x="317.323636" y="307.584" style="stroke: #000000; stroke-width: 0.8"/>
      </g>
     </g>
     <g id="text_7">
      <text style="font: 10px 'DejaVu Sans', 'Bitstream Vera Sans', 'Computer Modern Sans Serif', 'Lucida Grande', 'Verdana', 'Geneva', 'Lucid', 'Arial', 'Helvetica', 'Avant Garde', sans-serif; text-anchor: middle" x="317.323636" y="322.182437" transform="rotate(-0 317.323636 322.182437)">3.0</text>
     </g>
    </g>
    <g id="xtick_8">
     <g id="line2d_8">
      <g>
       <use xlink:href="#mc3872ae56a" x="357.905455" y="307.584" style="stroke: #000000; stroke-width: 0.8"/>
      </g>
     </g>
     <g id="text_8">
      <text style="font: 10px 'DejaVu Sans', 'Bitstream Vera Sans', 'Computer Modern Sans Serif', 'Lucida Grande', 'Verdana', 'Geneva', 'Lucid', 'Arial', 'Helvetica', 'Avant Garde', sans-serif; text-anchor: middle" x="357.905455" y="322.182437" transform="rotate(-0 357.905455 322.182437)">3.5</text>
     </g>
    </g>
    <g id="xtick_9">
     <g id="line2d_9">
      <g>
       <use xlink:href="#mc3872ae56a" x="398.487273" y="307.584" style="stroke: #000000; stroke-width: 0.8"/>
      </g>
     </g>
     <g id="text_9">
      <text style="font: 10px 'DejaVu Sans', 'Bitstream Vera Sans', 'Computer Modern Sans Serif', 'Lucida Grande', 'Verdana', 'Geneva', 'Lucid', 'Arial', 'Helvetica', 'Avant Garde', sans-serif; text-anchor: middle" x="398.487273" y="322.182437" transform="rotate(-0 398.487273 322.182437)">4.0</text>
     </g>
    </g>
   </g>
   <g id="matplotlib.axis_2">
    <g id="ytick_1">
     <g id="line2d_10">
      <defs>
       <path id="m6d26599a3b" d="M 0 0 
L -3.5 0 
" style="stroke: #000000; stroke-width: 0.8"/>
      </defs>
      <g>
       <use xlink:href="#m6d26599a3b" x="57.6" y="305.109818" style="stroke: #000000; stroke-width: 0.8"/>
      </g>
     </g>
     <g id="text_10">
      <text style="font: 10px 'DejaVu Sans', 'Bitstream Vera Sans', 'Computer Modern Sans Serif', 'Lucida Grande', 'Verdana', 'Geneva', 'Lucid', 'Arial', 'Helvetica', 'Avant Garde', sans-serif; text-anchor: end" x="50.6" y="308.909037" transform="rotate(-0 50.6 308.909037)">0</text>
     </g>
    </g>
    <g id="ytick_2">
     <g id="line2d_11">
      <g>
       <use xlink:href="#m6d26599a3b" x="57.6" y="250.128" style="stroke: #000000; stroke-width: 0.8"/>
      </g>
     </g>
     <g id="text_11">
      <text style="font: 10px 'DejaVu Sans', 'Bitstream Vera Sans', 'Computer Modern Sans Serif', 'Lucida Grande', 'Verdana', 'Geneva', 'Lucid', 'Arial', 'Helvetica', 'Avant Garde', sans-serif; text-anchor: end" x="50.6" y="253.927219" transform="rotate(-0 50.6 253.927219)">20</text>
     </g>
    </g>
    <g id="ytick_3">
     <g id="line2d_12">
      <g>
       <use xlink:href="#m6d26599a3b" x="57.6" y="195.146182" style="stroke: #000000; stroke-width: 0.8"/>
      </g>
     </g>
     <g id="text_12">
      <text style="font: 10px 'DejaVu Sans', 'Bitstream Vera Sans', 'Computer Modern Sans Serif', 'Lucida Grande', 'Verdana', 'Geneva', 'Lucid', 'Arial', 'Helvetica', 'Avant Garde', sans-serif; text-anchor: end" x="50.6" y="198.945401" transform="rotate(-0 50.6 198.945401)">40</text>
     </g>
    </g>
    <g id="ytick_4">
     <g id="line2d_13">
      <g>
       <use xlink:href="#m6d26599a3b" x="57.6" y="140.164364" style="stroke: #000000; stroke-width: 0.8"/>
      </g>
     </g>
     <g id="text_13">
      <text style="font: 10px 'DejaVu Sans', 'Bitstream Vera Sans', 'Computer Modern Sans Serif', 'Lucida Grande', 'Verdana', 'Geneva', 'Lucid', 'Arial', 'Helvetica', 'Avant Garde', sans-serif; text-anchor: end" x="50.6" y="143.963582" transform="rotate(-0 50.6 143.963582)">60</text>
     </g>
    </g>
    <g id="ytick_5">
     <g id="line2d_14">
      <g>
       <use xlink:href="#m6d26599a3b" x="57.6" y="85.182545" style="stroke: #000000; stroke-width: 0.8"/>
      </g>
     </g>
     <g id="text_14">
      <text style="font: 10px 'DejaVu Sans', 'Bitstream Vera Sans', 'Computer Modern Sans Serif', 'Lucida Grande', 'Verdana', 'Geneva', 'Lucid', 'Arial', 'Helvetica', 'Avant Garde', sans-serif; text-anchor: end" x="50.6" y="88.981764" transform="rotate(-0 50.6 88.981764)">80</text>
     </g>
    </g>
   </g>
   <g id="line2d_15">
    <path d="M 73.832727 90.680727 
L 154.996364 127.793455 
L 236.16 134.666182 
L 317.323636 145.662545 
L 398.487273 196.520727 
" clip-path="url(#pc5578b80b9)" style="fill: none; stroke: #05668d; stroke-width: 1.5; stroke-linecap: square"/>
    <defs>
     <path id="mff0a2c95d5" d="M 0 3 
C 0.795609 3 1.55874 2.683901 2.12132 2.12132 
C 2.683901 1.55874 3 0.795609 3 0 
C 3 -0.795609 2.683901 -1.55874 2.12132 -2.12132 
C 1.55874 -2.683901 0.795609 -3 0 -3 
C -0.795609 -3 -1.55874 -2.683901 -2.12132 -2.12132 
C -2.683901 -1.55874 -3 -0.795609 -3 0 
C -3 0.795609 -2.683901 1.55874 -2.12132 2.12132 
C -1.55874 2.683901 -0.795609 3 0 3 
z
" style="stroke: #05668d"/>
    </defs>
    <g clip-path="url(#pc5578b80b9)">
     <use xlink:href="#mff0a2c95d5" x="73.832727" y="90.680727" style="fill: #05668d; stroke: #05668d"/>
     <use xlink:href="#mff0a2c95d5" x="154.996364" y="127.793455" style="fill: #05668d; stroke: #05668d"/>
     <use xlink:href="#mff0a2c95d5" x="236.16" y="134.666182" style="fill: #05668d; stroke: #05668d"/>
     <use xlink:href="#mff0a2c95d5" x="317.323636" y="145.662545" style="fill: #05668d; stroke: #05668d"/>
     <use xlink:href="#mff0a2c95d5" x="398.487273" y="196.520727" style="fill: #05668d; stroke: #05668d"/>
    </g>
   </g>
   <g id="line2d_16">
    <path d="M 73.832727 98.928 
L 154.996364 92.055273 
L 236.16 112.673455 
L 317.323636 118.171636 
L 398.487273 222.637091 
" clip-path="url(#pc5578b80b9)" style="fill: none; stroke: #05668d; stroke-width: 1.5; stroke-linecap: square"/>
    <g clip-path="url(#pc5578b80b9)">
     <use xlink:href="#mff0a2c95d5" x="73.832727" y="98.928" style="fill: #05668d; stroke: #05668d"/>
     <use xlink:href="#mff0a2c95d5" x="154.996364" y="92.055273" style="fill: #05668d; stroke: #05668d"/>
     <use xlink:href="#mff0a2c95d5" x="236.16" y="112.673455" style="fill: #05668d; stroke: #05668d"/>
     <use xlink:href="#mff0a2c95d5" x="317.323636" y="118.171636" style="fill: #05668d; stroke: #05668d"/>
     <use xlink:href="#mff0a2c95d5" x="398.487273" y="222.637091" style="fill: #05668d; stroke: #05668d"/>
    </g>
   </g>
   <g id="line2d_17">
    <path d="M 73.832727 105.800727 
L 154.996364 92.055273 
L 236.16 57.691636 
L 317.323636 53.568 
L 398.487273 67.313455 
" clip-path="url(#pc5578b80b9)" style="fill: none; stroke: #679436; stroke-width: 1.5; stroke-linecap: square"/>
    <defs>
     <path id="ma691d2945a" d="M 0 3 
C 0.795609 3 1.55874 2.683901 2.12132 2.12132 
C 2.683901 1.55874 3 0.795609 3 0 
C 3 -0.795609 2.683901 -1.55874 2.12132 -2.12132 
C 1.55874 -2.683901 0.795609 -3 0 -3 
C -0.795609 -3 -1.55874 -2.683901 -2.12132 -2.12132 
C -2.683901 -1.55874 -3 -0.795609 -3 0 
C -3 0.795609 -2.683901 1.55874 -2.12132 2.12132 
C -1.55874 2.683901 -0.795609 3 0 3 
z
" style="stroke: #679436"/>
    </defs>
    <g clip-path="url(#pc5578b80b9)">
     <use xlink:href="#ma691d2945a" x="73.832727" y="105.800727" style="fill: #679436; stroke: #679436"/>
     <use xlink:href="#ma691d2945a" x="154.996364" y="92.055273" style="fill: #679436; stroke: #679436"/>
     <use xlink:href="#ma691d2945a" x="236.16" y="57.691636" style="fill: #679436; stroke: #679436"/>
     <use xlink:href="#ma691d2945a" x="317.323636" y="53.568" style="fill: #679436; stroke: #679436"/>
     <use xlink:href="#ma691d2945a" x="398.487273" y="67.313455" style="fill: #679436; stroke: #679436"/>
    </g>
   </g>
   <g id="line2d_18">
    <path d="M 73.832727 85.182545 
L 154.996364 72.811636 
L 236.16 79.684364 
L 317.323636 57.691636 
L 398.487273 86.557091 
" clip-path="url(#pc5578b80b9)" style="fill: none; stroke: #679436; stroke-width: 1.5; stroke-linecap: square"/>
    <g clip-path="url(#pc5578b80b9)">
     <use xlink:href="#ma691d2945a" x="73.832727" y="85.182545" style="fill: #679436; stroke: #679436"/>
     <use xlink:href="#ma691d2945a" x="154.996364" y="72.811636" style="fill: #679436; stroke: #679436"/>
     <use xlink:href="#ma691d2945a" x="236.16" y="79.684364" style="fill: #679436; stroke: #679436"/>
     <use xlink:href="#ma691d2945a" x="317.323636" y="57.691636" style="fill: #679436; stroke: #679436"/>
     <use xlink:href="#ma691d2945a" x="398.487273" y="86.557091" style="fill: #679436; stroke: #679436"/>
    </g>
   </g>
   <g id="line2d_19">
    <path d="M 73.832727 295.488 
L 154.996364 257.000727 
L 236.16 237.757091 
L 317.323636 277.618909 
L 398.487273 166.280727 
" clip-path="url(#pc5578b80b9)" style="fill: none; stroke: #805e73; stroke-width: 1.5; stroke-linecap: square"/>
    <defs>
     <path id="m221035bd32" d="M 0 3 
C 0.795609 3 1.55874 2.683901 2.12132 2.12132 
C 2.683901 1.55874 3 0.795609 3 0 
C 3 -0.795609 2.683901 -1.55874 2.12132 -2.12132 
C 1.55874 -2.683901 0.795609 -3 0 -3 
C -0.795609 -3 -1.55874 -2.683901 -2.12132 -2.12132 
C -2.683901 -1.55874 -3 -0.795609 -3 0 
C -3 0.795609 -2.683901 1.55874 -2.12132 2.12132 
C -1.55874 2.683901 -0.795609 3 0 3 
z
" style="stroke: #805e73"/>
    </defs>
    <g clip-path="url(#pc5578b80b9)">
     <use xlink:href="#m221035bd32" x="73.832727" y="295.488" style="fill: #805e73; stroke: #805e73"/>
     <use xlink:href="#m221035bd32" x="154.996364" y="257.000727" style="fill: #805e73; stroke: #805e73"/>
     <use xlink:href="#m221035bd32" x="236.16" y="237.757091" style="fill: #805e73; stroke: #805e73"/>
     <use xlink:href="#m221035bd32" x="317.323636" y="277.618909" style="fill: #805e73; stroke: #805e73"/>
     <use xlink:href="#m221035bd32" x="398.487273" y="166.280727" style="fill: #805e73; stroke: #805e73"/>
    </g>
   </g>
   <g id="line2d_20">
    <path d="M 73.832727 129.168 
L 154.996364 167.655273 
L 236.16 98.928 
L 317.323636 67.313455 
L 398.487273 203.393455 
" clip-path="url(#pc5578b80b9)" style="fill: none; stroke: #805e73; stroke-width: 1.5; stroke-linecap: square"/>
    <g clip-path="url(#pc5578b80b9)">
     <use xlink:href="#m221035bd32" x="73.832727" y="129.168" style="fill: #805e73; stroke: #805e73"/>
     <use xlink:href="#m221035bd32" x="154.996364" y="167.655273" style="fill: #805e73; stroke: #805e73"/>
     <use xlink:href="#m221035bd32" x="236.16" y="98.928" style="fill: #805e73; stroke: #805e73"/>
     <use xlink:href="#m221035bd32" x="317.323636" y="67.313455" style="fill: #805e73; stroke: #805e73"/>
     <use xlink:href="#m221035bd32" x="398.487273" y="203.393455" style="fill: #805e73; stroke: #805e73"/>
    </g>
   </g>
   <g id="patch_3">
    <path d="M 57.6 307.584 
L 57.6 41.472 
" style="fill: none; stroke: #000000; stroke-width: 0.8; stroke-linejoin: miter; stroke-linecap: square"/>
   </g>
   <g id="patch_4">
    <path d="M 414.72 307.584 
L 414.72 41.472 
" style="fill: none; stroke: #000000; stroke-width: 0.8; stroke-linejoin: miter; stroke-linecap: square"/>
   </g>
   <g id="patch_5">
    <path d="M 57.6 307.584 
L 414.72 307.584 
" style="fill: none; stroke: #000000; stroke-width: 0.8; stroke-linejoin: miter; stroke-linecap: square"/>
   </g>
   <g id="patch_6">
    <path d="M 57.6 41.472 
L 414.72 41.472 
" style="fill: none; stroke: #000000; stroke-width: 0.8; stroke-linejoin: miter; stroke-linecap: square"/>
   </g>
   <g id="legend_1">
    <g id="patch_7">
     <path d="M 64.6 302.584 
L 112.60625 302.584 
Q 114.60625 302.584 114.60625 300.584 
L 114.60625 213.51525 
Q 114.60625 211.51525 112.60625 211.51525 
L 64.6 211.51525 
Q 62.6 211.51525 62.6 213.51525 
L 62.6 300.584 
Q 62.6 302.584 64.6 302.584 
z
" style="fill: #ffffff; opacity: 0.8; stroke: #cccccc; stroke-linejoin: miter"/>
    </g>
    <g id="line2d_21">
     <path d="M 66.6 219.613687 
L 76.6 219.613687 
L 86.6 219.613687 
" style="fill: none; stroke: #05668d; stroke-width: 1.5; stroke-linecap: square"/>
     <g>
      <use xlink:href="#mff0a2c95d5" x="76.6" y="219.613687" style="fill: #05668d; stroke: #05668d"/>
     </g>
    </g>
    <g id="text_15">
     <text style="font: 10px 'DejaVu Sans', 'Bitstream Vera Sans', 'Computer Modern Sans Serif', 'Lucida Grande', 'Verdana', 'Geneva', 'Lucid', 'Arial', 'Helvetica', 'Avant Garde', sans-serif; text-anchor: start" x="94.6" y="223.113687" transform="rotate(-0 94.6 223.113687)">SF</text>
    </g>
    <g id="line2d_22">
     <path d="M 66.6 234.291812 
L 76.6 234.291812 
L 86.6 234.291812 
" style="fill: none; stroke: #05668d; stroke-width: 1.5; stroke-linecap: square"/>
     <g>
      <use xlink:href="#mff0a2c95d5" x="76.6" y="234.291812" style="fill: #05668d; stroke: #05668d"/>
     </g>
    </g>
    <g id="text_16">
     <text style="font: 10px 'DejaVu Sans', 'Bitstream Vera Sans', 'Computer Modern Sans Serif', 'Lucida Grande', 'Verdana', 'Geneva', 'Lucid', 'Arial', 'Helvetica', 'Avant Garde', sans-serif; text-anchor: start" x="94.6" y="237.791812" transform="rotate(-0 94.6 237.791812)">SF</text>
    </g>
    <g id="line2d_23">
     <path d="M 66.6 248.969937 
L 76.6 248.969937 
L 86.6 248.969937 
" style="fill: none; stroke: #679436; stroke-width: 1.5; stroke-linecap: square"/>
     <g>
      <use xlink:href="#ma691d2945a" x="76.6" y="248.969937" style="fill: #679436; stroke: #679436"/>
     </g>
    </g>
    <g id="text_17">
     <text style="font: 10px 'DejaVu Sans', 'Bitstream Vera Sans', 'Computer Modern Sans Serif', 'Lucida Grande', 'Verdana', 'Geneva', 'Lucid', 'Arial', 'Helvetica', 'Avant Garde', sans-serif; text-anchor: start" x="94.6" y="252.469937" transform="rotate(-0 94.6 252.469937)">TRI</text>
    </g>
    <g id="line2d_24">
     <path d="M 66.6 263.648062 
L 76.6 263.648062 
L 86.6 263.648062 
" style="fill: none; stroke: #679436; stroke-width: 1.5; stroke-linecap: square"/>
     <g>
      <use xlink:href="#ma691d2945a" x="76.6" y="263.648062" style="fill: #679436; stroke: #679436"/>
     </g>
    </g>
    <g id="text_18">
     <text style="font: 10px 'DejaVu Sans', 'Bitstream Vera Sans', 'Computer Modern Sans Serif', 'Lucida Grande', 'Verdana', 'Geneva', 'Lucid', 'Arial', 'Helvetica', 'Avant Garde', sans-serif; text-anchor: start" x="94.6" y="267.148062" transform="rotate(-0 94.6 267.148062)">TRI</text>
    </g>
    <g id="line2d_25">
     <path d="M 66.6 278.326188 
L 76.6 278.326188 
L 86.6 278.326188 
" style="fill: none; stroke: #805e73; stroke-width: 1.5; stroke-linecap: square"/>
     <g>
      <use xlink:href="#m221035bd32" x="76.6" y="278.326188" style="fill: #805e73; stroke: #805e73"/>
     </g>
    </g>
    <g id="text_19">
     <text style="font: 10px 'DejaVu Sans', 'Bitstream Vera Sans', 'Computer Modern Sans Serif', 'Lucida Grande', 'Verdana', 'Geneva', 'Lucid', 'Arial', 'Helvetica', 'Avant Garde', sans-serif; text-anchor: start" x="94.6" y="281.826188" transform="rotate(-0 94.6 281.826188)">NF</text>
    </g>
    <g id="line2d_26">
     <path d="M 66.6 293.004312 
L 76.6 293.004312 
L 86.6 293.004312 
" style="fill: none; stroke: #805e73; stroke-width: 1.5; stroke-linecap: square"/>
     <g>
      <use xlink:href="#m221035bd32" x="76.6" y="293.004312" style="fill: #805e73; stroke: #805e73"/>
     </g>
    </g>
    <g id="text_20">
     <text style="font: 10px 'DejaVu Sans', 'Bitstream Vera Sans', 'Computer Modern Sans Serif', 'Lucida Grande', 'Verdana', 'Geneva', 'Lucid', 'Arial', 'Helvetica', 'Avant Garde', sans-serif; text-anchor: start" x="94.6" y="296.504312" transform="rotate(-0 94.6 296.504312)">NF</text>
    </g>
   </g>
  </g>
 </g>
 <defs>
  <clipPath id="pc5578b80b9">
   <rect x="57.6" y="41.472" width="357.12" height="266.112"/>
  </clipPath>
 </defs>
</svg>
